P3
80 45
255
2 2 2
27 27 27
55 55 55
30 30 30
2 2 2
27 27 27
54 54 54
30 30 30
27 27 27
27 27 27
30 30 30
30 30 30
27 27 27
27 27 27
30 30 30
30 30 30
27 27 27
27 27 27
30 30 30
30 30 30
27 27 27
27 27 27
30 30 30
2 2 2
28 28 28
56 56 56
30 30 30
2 2 2
28 28 28
56 56 56
31 31 31
2 2 2
28 28 28
31 31 31
31 31 31
28 28 28
28 28 28
31 31 31
32 32 32
29 29 29
29 29 29
32 32 32
32 32 32
29 29 29
29 29 29
32 32 32
32 32 32
29 29 29
58 58 58
32 32 32
2 2 2
29 29 29
58 58 58
31 31 31
2 2 2
28 28 28
57 57 57
31 31 31
28 28 28
28 28 28
31 31 31
31 31 31
28 28 28
28 28 28
31 31 31
31 31 31
28 28 28
28 28 28
30 30 30
30 30 30
28 28 28
27 27 27
30 30 30
2 2 2
27 27 27
55 55 55
30 30 30
2 2 2
27 27 27
55 55 55
55 55 55
27 27 27
2 2 2
30 30 30
30 30 30
55 55 55
27 27 27
2 2 2
30 30 30
30 30 30
55 55 55
27 27 27
2 2 2
30 30 30
30 30 30
55 55 55
27 27 27
2 2 2
2 2 2
30 30 30
56 56 56
28 28 28
28 28 28
2 2 2
31 31 31
56 56 56
28 28 28
28 28 28
2 2 2
31 31 31
57 57 57
57 57 57
28 28 28
2 2 2
31 31 31
31 31 31
57 57 57
28 28 28
2 2 2
32 32 32
32 32 32
59 59 59
29 29 29
2 2 2
32 32 32
32 32 32
59 59 59
29 29 29
2 2 2
2 2 2
32 32 32
58 58 58
29 29 29
29 29 29
2 2 2
32 32 32
58 58 58
29 29 29
28 28 28
2 2 2
31 31 31
57 57 57
57 57 57
28 28 28
2 2 2
31 31 31
31 31 31
56 56 56
28 28 28
2 2 2
30 30 30
30 30 30
56 56 56
28 28 28
2 2 2
30 30 30
30 30 30
55 55 55
27 27 27
2 2 2
30 30 30
27 27 27
27 27 27
27 27 27
30 30 30
30 30 30
30 30 30
31 31 31
28 28 28
27 27 27
27 27 27
27 27 27
30 30 30
30 30 30
30 30 30
30 30 30
28 28 28
28 28 28
28 28 28
31 31 31
31 31 31
31 31 31
31 31 31
28 28 28
28 28 28
28 28 28
28 28 28
31 31 31
31 31 31
31 31 31
31 31 31
28 28 28
28 28 28
29 29 29
31 31 31
31 31 31
32 32 32
32 32 32
29 29 29
30 30 30
30 30 30
30 30 30
33 33 33
33 33 33
33 33 33
33 33 33
30 30 30
30 30 30
30 30 30
32 32 32
32 32 32
32 32 32
32 32 32
29 29 29
29 29 29
29 29 29
29 29 29
32 32 32
32 32 32
32 32 32
31 31 31
28 28 28
28 28 28
28 28 28
31 31 31
31 31 31
31 31 31
31 31 31
28 28 28
28 28 28
28 28 28
28 28 28
31 31 31
31 31 31
30 30 30
30 30 30
28 28 28
27 27 27
27 27 27
30 30 30
55 55 55
28 28 28
28 28 28
2 2 2
2 2 2
2 2 2
2 2 2
2 2 2
31 31 31
56 56 56
55 55 55
55 55 55
55 55 55
56 56 56
28 28 28
28 28 28
2 2 2
2 2 2
2 2 2
2 2 2
31 31 31
31 31 31
57 57 57
57 57 57
57 57 57
57 57 57
57 57 57
28 28 28
2 2 2
2 2 2
2 2 2
2 2 2
2 2 2
32 32 32
32 32 32
58 58 58
58 58 58
58 58 58
58 58 58
30 30 30
30 30 30
3 3 3
3 3 3
3 3 3
3 3 3
33 33 33
33 33 33
60 60 60
60 60 60
60 60 60
60 60 60
60 60 60
30 30 30
2 2 2
2 2 2
2 2 2
2 2 2
2 2 2
32 32 32
32 32 32
58 58 58
58 58 58
58 58 58
58 58 58
28 28 28
28 28 28
2 2 2
2 2 2
2 2 2
2 2 2
2 2 2
31 31 31
56 56 56
56 56 56
56 56 56
56 56 56
56 56 56
28 28 28
28 28 28
2 2 2
56 56 56
56 56 56
56 56 56
28 28 28
28 28 28
28 28 28
28 28 28
28 28 28
28 28 28
28 28 28
2 2 2
2 2 2
2 2 2
2 2 2
2 2 2
2 2 2
2 2 2
2 2 2
2 2 2
2 2 2
31 31 31
31 31 31
31 31 31
31 31 31
31 31 31
31 31 31
32 32 32
58 58 58
58 58 58
58 58 58
58 58 58
59 59 59
59 59 59
59 59 59
59 59 59
59 59 59
59 59 59
29 29 29
29 29 29
31 31 31
31 31 31
31 31 31
31 31 31
3 3 3
3 3 3
3 3 3
3 3 3
3 3 3
3 3 3
3 3 3
3 3 3
3 3 3
3 3 3
33 33 33
33 33 33
33 33 33
33 33 33
32 32 32
32 32 32
32 32 32
59 59 59
59 59 59
58 58 58
58 58 58
58 58 58
58 58 58
58 58 58
57 57 57
57 57 57
57 57 57
28 28 28
28 28 28
28 28 28
28 28 28
28 28 28
28 28 28
28 28 28
2 2 2
2 2 2
2 2 2
31 31 31
31 31 31
31 31 31
31 31 31
31 31 31
31 31 31
31 31 31
31 31 31
31 31 31
31 31 31
31 31 31
31 31 31
32 32 32
31 31 31
31 31 31
31 31 31
31 31 31
31 31 31
31 31 31
31 31 31
57 57 57
57 57 57
58 58 58
58 58 58
58 58 58
58 58 58
58 58 58
29 29 29
29 29 29
29 29 29
29 29 29
29 29 29
29 29 29
29 29 29
30 30 30
30 30 30
30 30 30
30 30 30
30 30 30
31 31 31
31 31 31
31 31 31
31 31 31
31 31 31
31 31 31
31 31 31
31 31 31
31 31 31
31 31 31
31 31 31
31 31 31
30 30 30
30 30 30
3 3 3
3 3 3
3 3 3
3 3 3
3 3 3
3 3 3
3 3 3
32 32 32
32 32 32
32 32 32
32 32 32
32 32 32
32 32 32
32 32 32
32 32 32
32 32 32
31 31 31
31 31 31
31 31 31
31 31 31
31 31 31
31 31 31
31 31 31
31 31 31
31 31 31
31 31 31
31 31 31
56 56 56
56 56 56
31 31 31
31 31 31
31 31 31
31 31 31
31 31 31
2 2 2
2 2 2
2 2 2
2 2 2
29 29 29
29 29 29
29 29 29
28 28 28
28 28 28
57 57 57
57 57 57
57 57 57
58 58 58
32 32 32
32 32 32
32 32 32
32 32 32
32 32 32
2 2 2
2 2 2
2 2 2
29 29 29
29 29 29
30 30 30
30 30 30
30 30 30
30 30 30
60 60 60
61 61 61
61 61 61
33 33 33
33 33 33
35 35 35
35 35 35
35 35 35
35 35 35
3 3 3
3 3 3
3 3 3
32 32 32
31 31 31
31 31 31
31 31 31
31 31 31
31 31 31
62 62 62
62 62 62
61 61 61
33 33 33
33 33 33
33 33 33
33 33 33
33 33 33
3 3 3
3 3 3
2 2 2
2 2 2
29 29 29
29 29 29
29 29 29
29 29 29
29 29 29
58 58 58
58 58 58
58 58 58
57 57 57
31 31 31
31 31 31
31 31 31
31 31 31
31 31 31
2 2 2
2 2 2
57 57 57
31 31 31
31 31 31
31 31 31
2 2 2
2 2 2
2 2 2
29 29 29
29 29 29
29 29 29
58 58 58
58 58 58
32 32 32
32 32 32
32 32 32
2 2 2
2 2 2
29 29 29
29 29 29
29 29 29
58 58 58
58 58 58
59 59 59
32 32 32
32 32 32
2 2 2
2 2 2
3 3 3
30 30 30
30 30 30
30 30 30
61 61 61
61 61 61
33 33 33
33 33 33
34 34 34
3 3 3
3 3 3
3 3 3
32 32 32
32 32 32
65 65 65
65 65 65
65 65 65
36 36 36
35 35 35
35 35 35
3 3 3
3 3 3
32 32 32
32 32 32
31 31 31
63 63 63
63 63 63
62 62 62
34 34 34
34 34 34
3 3 3
3 3 3
3 3 3
30 30 30
30 30 30
30 30 30
60 60 60
59 59 59
32 32 32
32 32 32
32 32 32
2 2 2
2 2 2
29 29 29
29 29 29
29 29 29
58 58 58
57 57 57
57 57 57
31 31 31
31 31 31
31 31 31
2 2 2
31 31 31
31 31 31
31 31 31
28 28 28
28 28 28
29 29 29
29 29 29
32 32 32
32 32 32
32 32 32
32 32 32
29 29 29
29 29 29
29 29 29
29 29 29
33 33 33
33 33 33
32 32 32
32 32 32
29 29 29
29 29 29
29 29 29
59 59 59
32 32 32
33 33 33
33 33 33
3 3 3
30 30 30
30 30 30
30 30 30
33 33 33
34 34 34
34 34 34
34 34 34
31 31 31
31 31 31
31 31 31
31 31 31
34 34 34
34 34 34
36 36 36
36 36 36
33 33 33
33 33 33
33 33 33
33 33 33
36 36 36
36 36 36
36 36 36
35 35 35
32 32 32
32 32 32
32 32 32
64 64 64
35 35 35
34 34 34
34 34 34
3 3 3
31 31 31
30 30 30
30 30 30
33 33 33
33 33 33
33 33 33
33 33 33
30 30 30
29 29 29
29 29 29
29 29 29
32 32 32
32 32 32
32 32 32
32 32 32
29 29 29
29 29 29
29 29 29
29 29 29
31 31 31
31 31 31
31 31 31
57 57 57
57 57 57
28 28 28
2 2 2
2 2 2
2 2 2
58 58 58
58 58 58
59 59 59
2 2 2
2 2 2
2 2 2
32 32 32
60 60 60
60 60 60
30 30 30
3 3 3
3 3 3
33 33 33
59 59 59
59 59 59
29 29 29
3 3 3
3 3 3
33 33 33
60 60 60
61 61 61
30 30 30
3 3 3
3 3 3
34 34 34
62 62 62
63 63 63
31 31 31
3 3 3
3 3 3
3 3 3
64 64 64
64 64 64
64 64 64
3 3 3
3 3 3
3 3 3
68 68 68
68 68 68
68 68 68
33 33 33
3 3 3
3 3 3
36 36 36
66 66 66
65 65 65
32 32 32
3 3 3
3 3 3
35 35 35
63 63 63
63 63 63
31 31 31
3 3 3
3 3 3
34 34 34
61 61 61
61 61 61
30 30 30
3 3 3
3 3 3
33 33 33
59 59 59
59 59 59
59 59 59
2 2 2
2 2 2
2 2 2
58 58 58
58 58 58
58 58 58
29 29 29
2 2 2
2 2 2
31 31 31
31 31 31
29 29 29
29 29 29
29 29 29
32 32 32
32 32 32
29 29 29
29 29 29
29 29 29
32 32 32
33 33 33
33 33 33
30 30 30
30 30 30
33 33 33
33 33 33
33 33 33
31 31 31
31 31 31
33 33 33
33 33 33
33 33 33
30 30 30
30 30 30
30 30 30
34 34 34
34 34 34
31 31 31
31 31 31
31 31 31
35 35 35
35 35 35
3 3 3
32 32 32
32 32 32
35 35 35
35 35 35
36 36 36
32 32 32
35 35 35
38 38 38
38 38 38
38 38 38
34 34 34
34 34 34
69 69 69
37 37 37
37 37 37
33 33 33
33 33 33
33 33 33
36 36 36
36 36 36
32 32 32
32 32 32
32 32 32
35 35 35
35 35 35
34 34 34
31 31 31
31 31 31
34 34 34
34 34 34
33 33 33
30 30 30
30 30 30
33 33 33
33 33 33
33 33 33
29 29 29
29 29 29
29 29 29
32 32 32
32 32 32
29 29 29
29 29 29
29 29 29
32 32 32
32 32 32
58 58 58
32 32 32
2 2 2
29 29 29
58 58 58
32 32 32
2 2 2
2 2 2
29 29 29
60 60 60
33 33 33
3 3 3
30 30 30
61 61 61
33 33 33
3 3 3
3 3 3
31 31 31
62 62 62
34 34 34
3 3 3
31 31 31
61 61 61
61 61 61
34 34 34
3 3 3
31 31 31
63 63 63
34 34 34
3 3 3
32 32 32
64 64 64
65 65 65
35 35 35
3 3 3
33 33 33
66 66 66
36 36 36
3 3 3
33 33 33
36 36 36
72 72 72
39 39 39
3 3 3
35 35 35
71 71 71
38 38 38
3 3 3
3 3 3
34 34 34
68 68 68
37 37 37
3 3 3
33 33 33
66 66 66
36 36 36
3 3 3
3 3 3
32 32 32
64 64 64
35 35 35
3 3 3
31 31 31
62 62 62
62 62 62
34 34 34
3 3 3
30 30 30
60 60 60
33 33 33
3 3 3
30 30 30
59 59 59
59 59 59
32 32 32
2 2 2
29 29 29
58 58 58
32 32 32
2 2 2
58 58 58
32 32 32
2 2 2
29 29 29
59 59 59
32 32 32
2 2 2
29 29 29
60 60 60
33 33 33
3 3 3
30 30 30
61 61 61
33 33 33
3 3 3
31 31 31
62 62 62
34 34 34
3 3 3
31 31 31
64 64 64
35 35 35
3 3 3
31 31 31
62 62 62
34 34 34
3 3 3
31 31 31
64 64 64
64 64 64
3 3 3
3 3 3
66 66 66
66 66 66
3 3 3
3 3 3
67 67 67
68 68 68
3 3 3
3 3 3
74 74 74
74 74 74
3 3 3
3 3 3
73 73 73
73 73 73
3 3 3
3 3 3
71 71 71
70 70 70
3 3 3
3 3 3
34 34 34
68 68 68
37 37 37
3 3 3
33 33 33
65 65 65
35 35 35
3 3 3
32 32 32
63 63 63
34 34 34
3 3 3
31 31 31
62 62 62
34 34 34
3 3 3
30 30 30
61 61 61
33 33 33
3 3 3
30 30 30
60 60 60
32 32 32
2 2 2
29 29 29
59 59 59
32 32 32
2 2 2
58 58 58
2 2 2
2 2 2
59 59 59
32 32 32
2 2 2
30 30 30
60 60 60
33 33 33
3 3 3
30 30 30
61 61 61
33 33 33
3 3 3
62 62 62
62 62 62
3 3 3
31 31 31
63 63 63
35 35 35
3 3 3
32 32 32
65 65 65
36 36 36
3 3 3
31 31 31
64 64 64
3 3 3
3 3 3
65 65 65
36 36 36
3 3 3
33 33 33
67 67 67
37 37 37
3 3 3
34 34 34
69 69 69
38 38 38
3 3 3
76 76 76
42 42 42
3 3 3
38 38 38
75 75 75
41 41 41
3 3 3
36 36 36
73 73 73
39 39 39
3 3 3
70 70 70
70 70 70
3 3 3
34 34 34
68 68 68
37 37 37
3 3 3
33 33 33
65 65 65
35 35 35
3 3 3
32 32 32
63 63 63
3 3 3
3 3 3
62 62 62
34 34 34
3 3 3
30 30 30
61 61 61
33 33 33
3 3 3
30 30 30
60 60 60
32 32 32
2 2 2
59 59 59
59 59 59
2 2 2
32 32 32
2 2 2
29 29 29
59 59 59
32 32 32
30 30 30
60 60 60
33 33 33
3 3 3
30 30 30
33 33 33
34 34 34
31 31 31
62 62 62
34 34 34
31 31 31
31 31 31
35 35 35
3 3 3
32 32 32
65 65 65
36 36 36
33 33 33
33 33 33
37 37 37
3 3 3
32 32 32
36 36 36
36 36 36
33 33 33
67 67 67
37 37 37
3 3 3
34 34 34
38 38 38
38 38 38
35 35 35
71 71 71
39 39 39
35 35 35
39 39 39
43 43 43
3 3 3
39 39 39
43 43 43
42 42 42
38 38 38
76 76 76
41 41 41
3 3 3
36 36 36
39 39 39
39 39 39
35 35 35
69 69 69
37 37 37
34 34 34
33 33 33
36 36 36
3 3 3
32 32 32
65 65 65
35 35 35
32 32 32
31 31 31
34 34 34
3 3 3
31 31 31
34 34 34
34 34 34
30 30 30
61 61 61
33 33 33
3 3 3
30 30 30
33 33 33
3 3 3
29 29 29
59 59 59
32 32 32
32 32 32
29 29 29
2 2 2
33 33 33
30 30 30
30 30 30
33 33 33
61 61 61
30 30 30
33 33 33
61 61 61
31 31 31
34 34 34
34 34 34
31 31 31
3 3 3
35 35 35
32 32 32
3 3 3
36 36 36
33 33 33
3 3 3
37 37 37
68 68 68
34 34 34
38 38 38
70 70 70
33 33 33
36 36 36
67 67 67
34 34 34
38 38 38
38 38 38
35 35 35
3 3 3
39 39 39
36 36 36
3 3 3
40 40 40
36 36 36
37 37 37
45 45 45
82 82 82
41 41 41
44 44 44
80 80 80
39 39 39
43 43 43
42 42 42
38 38 38
3 3 3
40 40 40
36 36 36
3 3 3
39 39 39
35 35 35
3 3 3
37 37 37
67 67 67
33 33 33
36 36 36
66 66 66
32 32 32
35 35 35
64 64 64
32 32 32
35 35 35
34 34 34
31 31 31
3 3 3
34 34 34
30 30 30
3 3 3
33 33 33
30 30 30
30 30 30
33 33 33
60 60 60
30 30 30
32 32 32
59 59 59
2 2 2
3 3 3
60 60 60
3 3 3
3 3 3
61 61 61
3 3 3
3 3 3
62 62 62
3 3 3
3 3 3
63 63 63
3 3 3
3 3 3
64 64 64
3 3 3
3 3 3
65 65 65
3 3 3
3 3 3
67 67 67
3 3 3
3 3 3
69 69 69
3 3 3
3 3 3
72 72 72
3 3 3
34 34 34
69 69 69
3 3 3
35 35 35
72 72 72
3 3 3
37 37 37
74 74 74
3 3 3
37 37 37
76 76 76
3 3 3
43 43 43
86 86 86
4 4 4
42 42 42
83 83 83
4 4 4
40 40 40
79 79 79
3 3 3
38 38 38
75 75 75
3 3 3
73 73 73
72 72 72
3 3 3
70 70 70
69 69 69
3 3 3
68 68 68
67 67 67
3 3 3
66 66 66
65 65 65
3 3 3
64 64 64
64 64 64
3 3 3
63 63 63
62 62 62
3 3 3
62 62 62
61 61 61
3 3 3
61 61 61
61 61 61
3 3 3
60 60 60
60 60 60
3 3 3
33 33 33
30 30 30
30 30 30
33 33 33
30 30 30
33 33 33
33 33 33
30 30 30
34 34 34
34 34 34
31 31 31
34 34 34
31 31 31
31 31 31
35 35 35
32 32 32
32 32 32
36 36 36
33 33 33
3 3 3
37 37 37
34 34 34
38 38 38
38 38 38
35 35 35
39 39 39
39 39 39
36 36 36
41 41 41
38 38 38
35 35 35
39 39 39
36 36 36
37 37 37
41 41 41
38 38 38
42 42 42
42 42 42
39 39 39
43 43 43
43 43 43
45 45 45
49 49 49
49 49 49
44 44 44
47 47 47
42 42 42
41 41 41
45 45 45
40 40 40
39 39 39
42 42 42
37 37 37
41 41 41
40 40 40
36 36 36
39 39 39
38 38 38
34 34 34
37 37 37
68 68 68
33 33 33
36 36 36
33 33 33
32 32 32
35 35 35
32 32 32
32 32 32
35 35 35
31 31 31
34 34 34
34 34 34
31 31 31
34 34 34
33 33 33
30 30 30
33 33 33
30 30 30
30 30 30
33 33 33
60 60 60
3 3 3
60 60 60
61 61 61
3 3 3
61 61 61
3 3 3
3 3 3
62 62 62
3 3 3
63 63 63
63 63 63
3 3 3
64 64 64
35 35 35
3 3 3
65 65 65
3 3 3
33 33 33
67 67 67
3 3 3
69 69 69
38 38 38
3 3 3
71 71 71
3 3 3
36 36 36
75 75 75
3 3 3
77 77 77
43 43 43
3 3 3
74 74 74
3 3 3
3 3 3
78 78 78
3 3 3
80 80 80
81 81 81
4 4 4
82 82 82
4 4 4
4 4 4
94 94 94
4 4 4
90 90 90
88 88 88
4 4 4
84 84 84
45 45 45
4 4 4
79 79 79
3 3 3
38 38 38
74 74 74
3 3 3
72 72 72
39 39 39
3 3 3
69 69 69
3 3 3
34 34 34
67 67 67
3 3 3
66 66 66
36 36 36
3 3 3
64 64 64
3 3 3
3 3 3
63 63 63
3 3 3
62 62 62
62 62 62
3 3 3
61 61 61
3 3 3
3 3 3
61 61 61
3 3 3
33 33 33
30 30 30
33 33 33
61 61 61
3 3 3
34 34 34
31 31 31
34 34 34
62 62 62
31 31 31
35 35 35
32 32 32
3 3 3
64 64 64
32 32 32
36 36 36
33 33 33
3 3 3
37 37 37
34 34 34
38 38 38
69 69 69
3 3 3
39 39 39
36 36 36
40 40 40
75 75 75
38 38 38
42 42 42
39 39 39
4 4 4
83 83 83
42 42 42
42 42 42
39 39 39
4 4 4
45 45 45
41 41 41
28 28 28
50 50 50
2 2 2
56 56 56
50 50 50
54 54 54
97 97 97
47 47 47
50 50 50
44 44 44
4 4 4
84 84 84
41 41 41
44 44 44
39 39 39
3 3 3
41 41 41
37 37 37
40 40 40
72 72 72
3 3 3
38 38 38
34 34 34
37 37 37
68 68 68
33 33 33
36 36 36
33 33 33
3 3 3
65 65 65
32 32 32
35 35 35
31 31 31
3 3 3
34 34 34
31 31 31
34 34 34
62 62 62
3 3 3
33 33 33
30 30 30
33 33 33
33 33 33
30 30 30
33 33 33
3 3 3
30 30 30
34 34 34
31 31 31
34 34 34
3 3 3
31 31 31
35 35 35
32 32 32
35 35 35
3 3 3
32 32 32
36 36 36
33 33 33
37 37 37
34 34 34
34 34 34
38 38 38
35 35 35
39 39 39
36 36 36
73 73 73
41 41 41
38 38 38
42 42 42
39 39 39
80 80 80
45 45 45
42 42 42
48 48 48
45 45 45
81 81 81
45 45 45
42 42 42
47 47 47
25 25 25
28 28 28
28 28 28
55 55 55
60 60 60
53 53 53
56 56 56
4 4 4
48 48 48
51 51 51
45 45 45
48 48 48
4 4 4
41 41 41
44 44 44
39 39 39
42 42 42
3 3 3
37 37 37
40 40 40
36 36 36
39 39 39
35 35 35
34 34 34
37 37 37
34 34 34
37 37 37
33 33 33
66 66 66
36 36 36
32 32 32
35 35 35
32 32 32
63 63 63
34 34 34
31 31 31
34 34 34
31 31 31
62 62 62
34 34 34
30 30 30
33 33 33
61 61 61
3 3 3
61 61 61
3 3 3
31 31 31
34 34 34
31 31 31
63 63 63
3 3 3
64 64 64
3 3 3
32 32 32
35 35 35
3 3 3
66 66 66
3 3 3
67 67 67
37 37 37
34 34 34
69 69 69
3 3 3
71 71 71
3 3 3
36 36 36
41 41 41
37 37 37
77 77 77
3 3 3
80 80 80
45 45 45
42 42 42
47 47 47
4 4 4
92 92 92
4 4 4
100 100 100
48 48 48
45 45 45
27 25 31
27 22 27
27 22 27
31 25 27
59 59 59
63 63 63
5 5 5
105 105 105
5 5 5
96 96 96
51 51 51
44 44 44
47 47 47
4 4 4
82 82 82
4 4 4
39 39 39
42 42 42
37 37 37
74 74 74
3 3 3
72 72 72
3 3 3
35 35 35
38 38 38
3 3 3
68 68 68
3 3 3
66 66 66
36 36 36
32 32 32
65 65 65
3 3 3
64 64 64
3 3 3
31 31 31
34 34 34
31 31 31
62 62 62
3 3 3
62 62 62
3 3 3
61 61 61
3 3 3
62 62 62
3 3 3
62 62 62
34 34 34
3 3 3
63 63 63
3 3 3
64 64 64
3 3 3
65 65 65
3 3 3
3 3 3
66 66 66
3 3 3
68 68 68
3 3 3
69 69 69
3 3 3
71 71 71
72 72 72
3 3 3
74 74 74
3 3 3
76 76 76
3 3 3
80 80 80
45 45 45
4 4 4
86 86 86
4 4 4
92 92 92
4 4 4
99 99 99
5 5 5
5 5 5
94 94 94
52 45 48
47 45 52
9 2 4
4 2 8
6 6 6
124 124 124
117 117 117
5 5 5
105 105 105
5 5 5
96 96 96
4 4 4
89 89 89
47 47 47
4 4 4
81 81 81
4 4 4
78 78 78
3 3 3
75 75 75
3 3 3
3 3 3
72 72 72
3 3 3
70 70 70
3 3 3
68 68 68
3 3 3
67 67 67
66 66 66
3 3 3
65 65 65
3 3 3
64 64 64
3 3 3
64 64 64
34 34 34
3 3 3
62 62 62
3 3 3
62 62 62
3 3 3
61 61 61
3 3 3
62 62 62
3 3 3
62 62 62
31 31 31
34 34 34
63 63 63
3 3 3
64 64 64
3 3 3
65 65 65
3 3 3
66 66 66
3 3 3
37 37 37
34 34 34
3 3 3
70 70 70
3 3 3
71 71 71
3 3 3
73 73 73
3 3 3
76 76 76
38 38 38
3 3 3
81 81 81
4 4 4
85 85 85
4 4 4
91 91 91
4 4 4
98 98 98
51 51 51
59 59 59
114 114 114
6 6 6
24 22 29
34 25 25
25 25 34
29 22 24
149 149 149
6 6 6
68 68 68
58 58 58
5 5 5
103 103 103
4 4 4
94 94 94
4 4 4
88 88 88
4 4 4
83 83 83
40 40 40
3 3 3
77 77 77
3 3 3
75 75 75
3 3 3
72 72 72
3 3 3
70 70 70
35 35 35
38 38 38
68 68 68
3 3 3
67 67 67
3 3 3
66 66 66
3 3 3
65 65 65
3 3 3
35 35 35
31 31 31
3 3 3
63 63 63
3 3 3
62 62 62
3 3 3
62 62 62
3 3 3
62 62 62
3 3 3
63 63 63
3 3 3
35 35 35
32 32 32
35 35 35
65 65 65
3 3 3
66 66 66
3 3 3
67 67 67
3 3 3
68 68 68
3 3 3
69 69 69
3 3 3
39 39 39
36 36 36
40 40 40
74 74 74
3 3 3
77 77 77
3 3 3
80 80 80
4 4 4
84 84 84
4 4 4
89 89 89
4 4 4
53 53 53
50 50 50
58 58 58
111 111 111
5 5 5
127 127 127
6 6 6
154 154 154
89 89 89
184 184 184
8 8 8
146 146 146
6 6 6
66 66 66
56 56 56
58 58 58
101 101 101
4 4 4
93 93 93
4 4 4
87 87 87
4 4 4
82 82 82
4 4 4
78 78 78
3 3 3
41 41 41
37 37 37
40 40 40
72 72 72
3 3 3
70 70 70
3 3 3
69 69 69
3 3 3
67 67 67
3 3 3
66 66 66
3 3 3
36 36 36
32 32 32
35 35 35
64 64 64
3 3 3
63 63 63
3 3 3
62 62 62
3 3 3
62 62 62
3 3 3
62 62 62
3 3 3
63 63 63
3 3 3
64 64 64
3 3 3
35 35 35
32 32 32
36 36 36
33 33 33
36 36 36
33 33 33
3 3 3
68 68 68
3 3 3
70 70 70
3 3 3
71 71 71
3 3 3
73 73 73
3 3 3
76 76 76
3 3 3
79 79 79
4 4 4
83 83 83
42 42 42
48 48 48
45 45 45
51 51 51
49 49 49
5 5 5
108 108 108
5 5 5
122 122 122
6 6 6
142 142 142
8 8 8
212 212 212
9 9 9
171 171 171
7 7 7
136 136 136
6 6 6
116 116 116
54 54 54
57 57 57
49 49 49
52 52 52
45 45 45
4 4 4
85 85 85
4 4 4
81 81 81
3 3 3
78 78 78
3 3 3
75 75 75
3 3 3
73 73 73
3 3 3
71 71 71
3 3 3
69 69 69
34 34 34
37 37 37
33 33 33
36 36 36
33 33 33
36 36 36
65 65 65
3 3 3
64 64 64
3 3 3
63 63 63
3 3 3
63 63 63
3 3 3
62 62 62
3 3 3
63 63 63
3 3 3
63 63 63
3 3 3
64 64 64
3 3 3
65 65 65
3 3 3
66 66 66
3 3 3
67 67 67
3 3 3
68 68 68
3 3 3
69 69 69
3 3 3
39 39 39
36 36 36
40 40 40
37 37 37
41 41 41
38 38 38
43 43 43
80 80 80
4 4 4
83 83 83
4 4 4
88 88 88
4 4 4
95 95 95
4 4 4
104 104 104
5 5 5
116 116 116
6 6 6
133 133 133
7 7 7
156 156 156
8 8 8
172 172 172
8 8 8
151 151 151
6 6 6
127 127 127
5 5 5
111 111 111
5 5 5
100 100 100
4 4 4
92 92 92
4 4 4
86 86 86
4 4 4
45 45 45
40 40 40
43 43 43
38 38 38
41 41 41
37 37 37
40 40 40
72 72 72
3 3 3
70 70 70
3 3 3
69 69 69
3 3 3
68 68 68
3 3 3
66 66 66
3 3 3
65 65 65
3 3 3
65 65 65
3 3 3
64 64 64
3 3 3
63 63 63
3 3 3
62 62 62
3 3 3
63 63 63
3 3 3
64 64 64
3 3 3
64 64 64
3 3 3
65 65 65
3 3 3
66 66 66
3 3 3
67 67 67
3 3 3
68 68 68
3 3 3
70 70 70
3 3 3
71 71 71
3 3 3
73 73 73
3 3 3
76 76 76
3 3 3
79 79 79
4 4 4
82 82 82
4 4 4
87 87 87
4 4 4
92 92 92
4 4 4
100 100 100
5 5 5
111 111 111
5 5 5
125 125 125
6 6 6
144 144 144
7 7 7
161 161 161
8 8 8
158 158 158
7 7 7
138 138 138
6 6 6
120 120 120
5 5 5
106 106 106
5 5 5
97 97 97
4 4 4
90 90 90
4 4 4
85 85 85
4 4 4
81 81 81
3 3 3
77 77 77
3 3 3
75 75 75
3 3 3
73 73 73
3 3 3
71 71 71
3 3 3
69 69 69
3 3 3
68 68 68
3 3 3
67 67 67
3 3 3
66 66 66
3 3 3
65 65 65
3 3 3
64 64 64
3 3 3
63 63 63
3 3 3
63 63 63
3 3 3
63 63 63
3 3 3
35 35 35
32 32 32
35 35 35
32 32 32
36 36 36
33 33 33
36 36 36
33 33 33
37 37 37
34 34 34
38 38 38
34 34 34
38 38 38
71 71 71
3 3 3
73 73 73
3 3 3
75 75 75
3 3 3
78 78 78
3 3 3
81 81 81
4 4 4
85 85 85
4 4 4
90 90 90
4 4 4
97 97 97
5 5 5
106 106 106
5 5 5
118 118 118
6 6 6
133 133 133
7 7 7
150 150 150
7 7 7
156 156 156
7 7 7
145 145 145
6 6 6
128 128 128
6 6 6
113 113 113
5 5 5
102 102 102
4 4 4
94 94 94
4 4 4
88 88 88
4 4 4
83 83 83
4 4 4
80 80 80
3 3 3
77 77 77
3 3 3
74 74 74
3 3 3
39 39 39
35 35 35
39 39 39
35 35 35
38 38 38
34 34 34
37 37 37
33 33 33
36 36 36
33 33 33
36 36 36
32 32 32
35 35 35
64 64 64
3 3 3
64 64 64
3 3 3
34 34 34
31 31 31
35 35 35
32 32 32
35 35 35
32 32 32
35 35 35
32 32 32
3 3 3
66 66 66
3 3 3
67 67 67
3 3 3
68 68 68
3 3 3
70 70 70
3 3 3
71 71 71
3 3 3
73 73 73
37 37 37
41 41 41
38 38 38
43 43 43
40 40 40
44 44 44
41 41 41
47 47 47
44 44 44
49 49 49
46 46 46
53 53 53
50 50 50
58 58 58
111 111 111
5 5 5
124 124 124
6 6 6
139 139 139
7 7 7
149 149 149
7 7 7
147 147 147
7 7 7
134 134 134
6 6 6
65 65 65
56 56 56
59 59 59
51 51 51
54 54 54
47 47 47
50 50 50
44 44 44
47 47 47
42 42 42
45 45 45
40 40 40
43 43 43
38 38 38
3 3 3
75 75 75
3 3 3
73 73 73
3 3 3
71 71 71
3 3 3
69 69 69
3 3 3
68 68 68
3 3 3
67 67 67
33 33 33
36 36 36
33 33 33
36 36 36
32 32 32
35 35 35
32 32 32
35 35 35
34 34 34
31 31 31
35 35 35
32 32 32
35 35 35
65 65 65
32 32 32
36 36 36
33 33 33
36 36 36
33 33 33
37 37 37
34 34 34
38 38 38
34 34 34
38 38 38
35 35 35
39 39 39
36 36 36
40 40 40
37 37 37
41 41 41
77 77 77
39 39 39
44 44 44
41 41 41
46 46 46
43 43 43
48 48 48
45 45 45
51 51 51
48 48 48
55 55 55
52 52 52
60 60 60
58 58 58
67 67 67
64 64 64
74 74 74
70 70 70
72 72 72
79 79 79
71 71 71
75 75 75
65 65 65
68 68 68
59 59 59
61 61 61
53 53 53
56 56 56
49 49 49
52 52 52
46 46 46
49 49 49
43 43 43
46 46 46
41 41 41
4 4 4
43 43 43
39 39 39
42 42 42
37 37 37
40 40 40
36 36 36
39 39 39
35 35 35
39 39 39
35 35 35
38 38 38
34 34 34
37 37 37
33 33 33
36 36 36
33 33 33
3 3 3
36 36 36
32 32 32
35 35 35
32 32 32
35 35 35
63 63 63
3 3 3
64 64 64
3 3 3
32 32 32
36 36 36
32 32 32
36 36 36
33 33 33
37 37 37
33 33 33
37 37 37
3 3 3
69 69 69
3 3 3
70 70 70
3 3 3
36 36 36
40 40 40
37 37 37
41 41 41
38 38 38
42 42 42
39 39 39
80 80 80
4 4 4
84 84 84
4 4 4
88 88 88
4 4 4
46 46 46
53 53 53
50 50 50
57 57 57
54 54 54
63 63 63
60 60 60
125 125 125
6 6 6
135 135 135
6 6 6
138 138 138
6 6 6
66 66 66
70 70 70
61 61 61
64 64 64
55 55 55
58 58 58
51 51 51
98 98 98
4 4 4
92 92 92
4 4 4
87 87 87
4 4 4
41 41 41
44 44 44
39 39 39
43 43 43
38 38 38
41 41 41
37 37 37
73 73 73
3 3 3
72 72 72
3 3 3
70 70 70
38 38 38
34 34 34
37 37 37
34 34 34
37 37 37
33 33 33
36 36 36
33 33 33
65 65 65
3 3 3
64 64 64
3 3 3
64 64 64
3 3 3
64 64 64
35 35 35
3 3 3
65 65 65
3 3 3
66 66 66
3 3 3
67 67 67
3 3 3
68 68 68
3 3 3
69 69 69
70 70 70
3 3 3
72 72 72
3 3 3
73 73 73
3 3 3
75 75 75
3 3 3
78 78 78
3 3 3
40 40 40
82 82 82
4 4 4
86 86 86
4 4 4
90 90 90
4 4 4
96 96 96
5 5 5
103 103 103
59 59 59
5 5 5
117 117 117
6 6 6
126 126 126
6 6 6
131 131 131
6 6 6
130 130 130
6 6 6
123 123 123
65 65 65
5 5 5
109 109 109
5 5 5
101 101 101
4 4 4
94 94 94
4 4 4
89 89 89
4 4 4
42 42 42
83 83 83
4 4 4
80 80 80
3 3 3
77 77 77
3 3 3
75 75 75
3 3 3
73 73 73
3 3 3
3 3 3
70 70 70
3 3 3
69 69 69
3 3 3
68 68 68
3 3 3
67 67 67
3 3 3
66 66 66
36 36 36
3 3 3
65 65 65
3 3 3
35 35 35
32 32 32
35 35 35
65 65 65
3 3 3
66 66 66
3 3 3
36 36 36
33 33 33
37 37 37
34 34 34
3 3 3
69 69 69
3 3 3
70 70 70
3 3 3
39 39 39
36 36 36
40 40 40
37 37 37
3 3 3
77 77 77
3 3 3
79 79 79
4 4 4
45 45 45
42 42 42
47 47 47
44 44 44
4 4 4
93 93 93
4 4 4
99 99 99
51 51 51
58 58 58
55 55 55
62 62 62
59 59 59
6 6 6
124 124 124
6 6 6
126 126 126
62 62 62
67 67 67
59 59 59
63 63 63
56 56 56
5 5 5
104 104 104
5 5 5
97 97 97
47 47 47
50 50 50
44 44 44
48 48 48
85 85 85
4 4 4
81 81 81
4 4 4
78 78 78
38 38 38
42 42 42
37 37 37
40 40 40
73 73 73
3 3 3
71 71 71
3 3 3
70 70 70
34 34 34
38 38 38
34 34 34
37 37 37
67 67 67
3 3 3
66 66 66
3 3 3
36 36 36
32 32 32
35 35 35
35 35 35
3 3 3
32 32 32
36 36 36
32 32 32
36 36 36
33 33 33
36 36 36
33 33 33
68 68 68
37 37 37
34 34 34
38 38 38
35 35 35
39 39 39
35 35 35
39 39 39
3 3 3
37 37 37
41 41 41
38 38 38
42 42 42
39 39 39
43 43 43
4 4 4
41 41 41
46 46 46
43 43 43
48 48 48
45 45 45
51 51 51
47 47 47
98 98 98
55 55 55
52 52 52
59 59 59
55 55 55
63 63 63
58 58 58
119 119 119
6 6 6
60 60 60
66 66 66
59 59 59
63 63 63
56 56 56
60 60 60
5 5 5
51 51 51
54 54 54
48 48 48
51 51 51
45 45 45
49 49 49
43 43 43
85 85 85
45 45 45
40 40 40
44 44 44
39 39 39
42 42 42
38 38 38
75 75 75
41 41 41
36 36 36
40 40 40
36 36 36
39 39 39
35 35 35
38 38 38
3 3 3
34 34 34
37 37 37
33 33 33
37 37 37
33 33 33
36 36 36
33 33 33
65 65 65
35 35 35
64 64 64
3 3 3
32 32 32
65 65 65
3 3 3
66 66 66
3 3 3
67 67 67
3 3 3
34 34 34
68 68 68
3 3 3
69 69 69
3 3 3
71 71 71
3 3 3
36 36 36
73 73 73
3 3 3
75 75 75
3 3 3
77 77 77
43 43 43
39 39 39
81 81 81
4 4 4
84 84 84
4 4 4
87 87 87
49 49 49
4 4 4
94 94 94
4 4 4
99 99 99
5 5 5
105 105 105
59 59 59
5 5 5
113 113 113
5 5 5
116 116 116
5 5 5
116 116 116
63 63 63
5 5 5
109 109 109
5 5 5
104 104 104
5 5 5
98 98 98
52 52 52
4 4 4
91 91 91
4 4 4
87 87 87
4 4 4
41 41 41
45 45 45
4 4 4
79 79 79
3 3 3
76 76 76
3 3 3
37 37 37
74 74 74
3 3 3
72 72 72
3 3 3
70 70 70
3 3 3
34 34 34
69 69 69
3 3 3
68 68 68
3 3 3
67 67 67
3 3 3
33 33 33
65 65 65
3 3 3
35 35 35
32 32 32
3 3 3
65 65 65
3 3 3
36 36 36
33 33 33
37 37 37
68 68 68
3 3 3
69 69 69
34 34 34
38 38 38
35 35 35
3 3 3
72 72 72
3 3 3
40 40 40
37 37 37
41 41 41
76 76 76
3 3 3
78 78 78
39 39 39
44 44 44
41 41 41
4 4 4
85 85 85
4 4 4
49 49 49
45 45 45
51 51 51
47 47 47
4 4 4
100 100 100
51 51 51
58 58 58
54 54 54
60 60 60
111 111 111
5 5 5
61 61 61
56 56 56
61 61 61
54 54 54
5 5 5
104 104 104
51 51 51
54 54 54
48 48 48
52 52 52
92 92 92
4 4 4
88 88 88
43 43 43
46 46 46
41 41 41
4 4 4
80 80 80
3 3 3
42 42 42
38 38 38
41 41 41
75 75 75
3 3 3
73 73 73
36 36 36
39 39 39
35 35 35
3 3 3
69 69 69
3 3 3
37 37 37
34 34 34
37 37 37
67 67 67
3 3 3
66 66 66
33 33 33
36 36 36
65 65 65
3 3 3
32 32 32
36 36 36
33 33 33
66 66 66
3 3 3
33 33 33
37 37 37
34 34 34
38 38 38
3 3 3
70 70 70
39 39 39
35 35 35
39 39 39
36 36 36
73 73 73
3 3 3
37 37 37
42 42 42
38 38 38
78 78 78
3 3 3
40 40 40
45 45 45
41 41 41
46 46 46
4 4 4
88 88 88
49 49 49
46 46 46
52 52 52
4 4 4
99 99 99
55 55 55
51 51 51
57 57 57
53 53 53
108 108 108
5 5 5
54 54 54
59 59 59
53 53 53
58 58 58
5 5 5
102 102 102
55 55 55
49 49 49
52 52 52
4 4 4
91 91 91
49 49 49
44 44 44
47 47 47
42 42 42
83 83 83
4 4 4
40 40 40
43 43 43
39 39 39
77 77 77
3 3 3
37 37 37
40 40 40
36 36 36
40 40 40
3 3 3
71 71 71
38 38 38
35 35 35
38 38 38
34 34 34
68 68 68
3 3 3
33 33 33
36 36 36
33 33 33
66 66 66
3 3 3
65 65 65
32 32 32
3 3 3
66 66 66
3 3 3
67 67 67
33 33 33
3 3 3
68 68 68
3 3 3
69 69 69
34 34 34
3 3 3
71 71 71
3 3 3
72 72 72
36 36 36
3 3 3
74 74 74
3 3 3
76 76 76
38 38 38
3 3 3
79 79 79
4 4 4
82 82 82
4 4 4
4 4 4
86 86 86
4 4 4
89 89 89
4 4 4
51 51 51
95 95 95
4 4 4
99 99 99
5 5 5
56 56 56
104 104 104
5 5 5
105 105 105
5 5 5
58 58 58
104 104 104
5 5 5
102 102 102
5 5 5
54 54 54
96 96 96
4 4 4
93 93 93
4 4 4
89 89 89
87 87 87
4 4 4
84 84 84
4 4 4
81 81 81
40 40 40
3 3 3
78 78 78
3 3 3
76 76 76
37 37 37
3 3 3
73 73 73
3 3 3
72 72 72
35 35 35
3 3 3
70 70 70
3 3 3
69 69 69
34 34 34
3 3 3
67 67 67
3 3 3
66 66 66
33 33 33
3 3 3
35 35 35
36 36 36
33 33 33
36 36 36
33 33 33
36 36 36
37 37 37
34 34 34
37 37 37
34 34 34
38 38 38
38 38 38
35 35 35
39 39 39
35 35 35
39 39 39
40 40 40
36 36 36
41 41 41
37 37 37
42 42 42
42 42 42
39 39 39
43 43 43
40 40 40
81 81 81
45 45 45
42 42 42
47 47 47
43 43 43
44 44 44
49 49 49
46 46 46
51 51 51
47 47 47
48 48 48
54 54 54
50 50 50
55 55 55
51 51 51
51 51 51
56 56 56
51 51 51
56 56 56
50 50 50
49 49 49
54 54 54
48 48 48
52 52 52
46 46 46
45 45 45
49 49 49
44 44 44
47 47 47
4 4 4
42 42 42
45 45 45
40 40 40
44 44 44
43 43 43
39 39 39
42 42 42
38 38 38
41 41 41
41 41 41
36 36 36
40 40 40
36 36 36
39 39 39
39 39 39
35 35 35
38 38 38
34 34 34
37 37 37
37 37 37
33 33 33
37 37 37
33 33 33
36 36 36
36 36 36
65 65 65
36 36 36
3 3 3
66 66 66
3 3 3
67 67 67
67 67 67
3 3 3
68 68 68
3 3 3
34 34 34
70 70 70
3 3 3
71 71 71
3 3 3
3 3 3
73 73 73
3 3 3
74 74 74
41 41 41
3 3 3
77 77 77
3 3 3
79 79 79
80 80 80
4 4 4
82 82 82
4 4 4
85 85 85
86 86 86
4 4 4
89 89 89
4 4 4
4 4 4
94 94 94
4 4 4
97 97 97
4 4 4
4 4 4
99 99 99
5 5 5
100 100 100
100 100 100
4 4 4
98 98 98
4 4 4
96 96 96
95 95 95
4 4 4
92 92 92
4 4 4
4 4 4
88 88 88
4 4 4
85 85 85
4 4 4
4 4 4
81 81 81
4 4 4
79 79 79
43 43 43
3 3 3
76 76 76
3 3 3
74 74 74
73 73 73
3 3 3
72 72 72
3 3 3
35 35 35
70 70 70
3 3 3
69 69 69
3 3 3
3 3 3
68 68 68
3 3 3
67 67 67
36 36 36
3 3 3
36 36 36
66 66 66
33 33 33
36 36 36
33 33 33
37 37 37
37 37 37
34 34 34
37 37 37
34 34 34
34 34 34
38 38 38
35 35 35
39 39 39
72 72 72
36 36 36
40 40 40
37 37 37
3 3 3
41 41 41
38 38 38
42 42 42
39 39 39
39 39 39
44 44 44
40 40 40
45 45 45
46 46 46
42 42 42
47 47 47
43 43 43
4 4 4
49 49 49
45 45 45
51 51 51
94 94 94
47 47 47
52 52 52
48 48 48
53 53 53
53 53 53
49 49 49
53 53 53
48 48 48
4 4 4
52 52 52
47 47 47
51 51 51
92 92 92
45 45 45
49 49 49
44 44 44
48 48 48
47 47 47
42 42 42
45 45 45
41 41 41
40 40 40
44 44 44
39 39 39
42 42 42
77 77 77
38 38 38
41 41 41
37 37 37
3 3 3
40 40 40
36 36 36
39 39 39
35 35 35
35 35 35
38 38 38
34 34 34
38 38 38
37 37 37
34 34 34
37 37 37
33 33 33
3 3 3
36 36 36
65 65 65
36 36 36
3 3 3
66 66 66
3 3 3
33 33 33
68 68 68
3 3 3
68 68 68
38 38 38
3 3 3
70 70 70
3 3 3
35 35 35
72 72 72
3 3 3
73 73 73
40 40 40
3 3 3
75 75 75
3 3 3
38 38 38
78 78 78
3 3 3
80 80 80
4 4 4
4 4 4
83 83 83
4 4 4
85 85 85
86 86 86
4 4 4
89 89 89
4 4 4
4 4 4
92 92 92
4 4 4
94 94 94
95 95 95
4 4 4
96 96 96
4 4 4
4 4 4
95 95 95
4 4 4
94 94 94
93 93 93
4 4 4
91 91 91
4 4 4
4 4 4
87 87 87
4 4 4
85 85 85
84 84 84
4 4 4
82 82 82
4 4 4
39 39 39
78 78 78
3 3 3
77 77 77
41 41 41
3 3 3
74 74 74
3 3 3
36 36 36
72 72 72
3 3 3
71 71 71
39 39 39
3 3 3
69 69 69
3 3 3
34 34 34
68 68 68
3 3 3
67 67 67
36 36 36
3 3 3
36 36 36
66 66 66
33 33 33
36 36 36
33 33 33
3 3 3
37 37 37
34 34 34
37 37 37
38 38 38
35 35 35
38 38 38
35 35 35
35 35 35
39 39 39
36 36 36
40 40 40
40 40 40
37 37 37
41 41 41
76 76 76
38 38 38
42 42 42
39 39 39
3 3 3
44 44 44
40 40 40
45 45 45
83 83 83
42 42 42
47 47 47
43 43 43
4 4 4
49 49 49
45 45 45
50 50 50
50 50 50
46 46 46
51 51 51
47 47 47
47 47 47
51 51 51
47 47 47
51 51 51
51 51 51
46 46 46
50 50 50
91 91 91
45 45 45
49 49 49
44 44 44
4 4 4
47 47 47
42 42 42
46 46 46
82 82 82
40 40 40
44 44 44
39 39 39
3 3 3
42 42 42
38 38 38
41 41 41
41 41 41
37 37 37
40 40 40
36 36 36
36 36 36
39 39 39
35 35 35
39 39 39
38 38 38
35 35 35
38 38 38
69 69 69
34 34 34
37 37 37
33 33 33
3 3 3
36 36 36
66 66 66
66 66 66
3 3 3
67 67 67
3 3 3
3 3 3
68 68 68
3 3 3
34 34 34
69 69 69
3 3 3
70 70 70
39 39 39
3 3 3
72 72 72
3 3 3
3 3 3
74 74 74
3 3 3
75 75 75
76 76 76
3 3 3
77 77 77
43 43 43
3 3 3
80 80 80
4 4 4
4 4 4
83 83 83
4 4 4
85 85 85
86 86 86
4 4 4
88 88 88
49 49 49
4 4 4
90 90 90
4 4 4
4 4 4
92 92 92
4 4 4
92 92 92
92 92 92
4 4 4
91 91 91
50 50 50
4 4 4
90 90 90
4 4 4
4 4 4
87 87 87
4 4 4
85 85 85
84 84 84
4 4 4
82 82 82
44 44 44
4 4 4
79 79 79
3 3 3
3 3 3
77 77 77
3 3 3
75 75 75
74 74 74
3 3 3
73 73 73
40 40 40
3 3 3
71 71 71
3 3 3
35 35 35
70 70 70
3 3 3
69 69 69
68 68 68
3 3 3
67 67 67
3 3 3
3 3 3
