P3
96 54
255
33 48 33
33 48 33
33 48 33
33 48 33
33 48 33
15 45 15
15 45 15
15 45 15
15 45 15
15 45 15
15 45 15
15 45 15
15 45 15
15 45 15
15 45 15
15 45 15
15 45 15
15 45 15
15 45 15
15 45 15
15 45 15
15 45 15
15 45 15
15 45 15
15 45 15
15 45 15
15 45 15
33 48 33
33 48 33
33 48 33
33 48 33
33 48 33
33 48 33
33 48 33
33 48 33
33 48 33
33 48 33
33 48 33
33 48 33
33 48 33
33 48 33
33 48 33
33 48 33
33 48 33
33 48 33
33 48 33
33 48 33
33 48 33
15 45 15
15 45 15
15 45 15
15 45 15
15 45 15
15 45 15
15 45 15
15 45 15
15 45 15
15 45 15
15 45 15
15 45 15
15 45 15
15 45 15
15 45 15
15 45 15
15 45 15
15 45 15
15 45 15
15 45 15
15 45 15
33 48 33
33 48 33
33 48 33
33 48 33
33 48 33
33 48 33
33 48 33
33 48 33
33 48 33
33 48 33
33 48 33
33 48 33
33 48 33
33 48 33
33 48 33
33 48 33
33 48 33
33 48 33
33 48 33
33 48 33
33 48 33
33 48 33
15 45 15
15 45 15
15 45 15
15 45 15
15 45 15
33 48 33
33 48 33
33 48 33
33 48 33
33 48 33
33 48 33
15 45 15
15 45 15
15 45 15
15 45 15
15 45 15
15 45 15
15 45 15
15 45 15
15 45 15
15 45 15
15 45 15
15 45 15
15 45 15
15 45 15
15 45 15
15 45 15
15 45 15
15 45 15
15 45 15
15 45 15
15 45 15
33 48 33
33 48 33
33 48 33
33 48 33
33 48 33
33 48 33
33 48 33
33 48 33
33 48 33
33 48 33
33 48 33
33 48 33
33 48 33
33 48 33
33 48 33
33 48 33
33 48 33
33 48 33
33 48 33
33 48 33
33 48 33
15 45 15
15 45 15
15 45 15
15 45 15
15 45 15
15 45 15
15 45 15
15 45 15
15 45 15
15 45 15
15 45 15
15 45 15
15 45 15
15 45 15
15 45 15
15 45 15
15 45 15
15 45 15
15 45 15
15 45 15
15 45 15
33 48 33
33 48 33
33 48 33
33 48 33
33 48 33
33 48 33
33 48 33
33 48 33
33 48 33
33 48 33
33 48 33
33 48 33
33 48 33
33 48 33
33 48 33
33 48 33
33 48 33
33 48 33
33 48 33
33 48 33
33 48 33
15 45 15
15 45 15
15 45 15
15 45 15
15 45 15
15 45 15
33 48 33
33 48 33
33 48 33
33 48 33
33 48 33
33 48 33
33 48 33
15 45 15
15 45 15
15 45 15
15 45 15
15 45 15
15 45 15
15 45 15
15 45 15
15 45 15
15 45 15
15 45 15
15 45 15
15 45 15
15 45 15
15 45 15
15 45 15
15 45 15
15 45 15
15 45 15
15 45 15
33 48 33
33 48 33
33 48 33
33 48 33
33 48 33
33 48 33
33 48 33
33 48 33
33 48 33
33 48 33
33 48 33
33 48 33
33 48 33
33 48 33
33 48 33
33 48 33
33 48 33
33 48 33
33 48 33
33 48 33
33 48 33
15 45 15
15 45 15
15 45 15
15 45 15
15 45 15
15 45 15
15 45 15
15 45 15
15 45 15
15 45 15
15 45 15
15 45 15
15 45 15
15 45 15
15 45 15
15 45 15
15 45 15
15 45 15
15 45 15
15 45 15
15 45 15
33 48 33
33 48 33
33 48 33
33 48 33
33 48 33
33 48 33
33 48 33
33 48 33
33 48 33
33 48 33
33 48 33
33 48 33
33 48 33
33 48 33
33 48 33
33 48 33
33 48 33
33 48 33
33 48 33
33 48 33
15 45 15
15 45 15
15 45 15
15 45 15
15 45 15
15 45 15
15 45 15
33 48 33
33 48 33
33 48 33
33 48 33
33 48 33
33 48 33
33 48 33
15 45 15
15 45 15
15 45 15
15 45 15
15 45 15
15 45 15
15 45 15
15 45 15
15 45 15
15 45 15
15 45 15
15 45 15
15 45 15
15 45 15
15 45 15
15 45 15
15 45 15
15 45 15
15 45 15
15 45 15
15 45 15
33 48 33
33 48 33
33 48 33
33 48 33
33 48 33
33 48 33
33 48 33
33 48 33
33 48 33
33 48 33
33 48 33
33 48 33
33 48 33
33 48 33
33 48 33
33 48 33
33 48 33
33 48 33
33 48 33
33 48 33
15 45 15
15 45 15
15 45 15
15 45 15
15 45 15
15 45 15
15 45 15
15 45 15
15 45 15
15 45 15
15 45 15
15 45 15
15 45 15
15 45 15
15 45 15
15 45 15
15 45 15
15 45 15
15 45 15
15 45 15
33 48 33
33 48 33
33 48 33
33 48 33
33 48 33
33 48 33
33 48 33
33 48 33
33 48 33
33 48 33
33 48 33
33 48 33
33 48 33
33 48 33
33 48 33
33 48 33
33 48 33
33 48 33
33 48 33
33 48 33
33 48 33
15 45 15
15 45 15
15 45 15
15 45 15
15 45 15
15 45 15
15 45 15
33 48 33
33 48 33
33 48 33
33 48 33
33 48 33
33 48 33
33 48 33
33 48 33
15 45 15
15 45 15
15 45 15
15 45 15
15 45 15
15 45 15
15 45 15
15 45 15
15 45 15
15 45 15
15 45 15
15 45 15
15 45 15
15 45 15
15 45 15
15 45 15
15 45 15
15 45 15
15 45 15
15 45 15
33 48 33
33 48 33
33 48 33
33 48 33
33 48 33
33 48 33
33 48 33
33 48 33
33 48 33
33 48 33
33 48 33
33 48 33
33 48 33
33 48 33
33 48 33
33 48 33
33 48 33
33 48 33
33 48 33
33 48 33
15 45 15
15 45 15
15 45 15
15 45 15
15 45 15
15 45 15
15 45 15
15 45 15
15 45 15
15 45 15
15 45 15
15 45 15
15 45 15
15 45 15
15 45 15
15 45 15
15 45 15
15 45 15
15 45 15
15 45 15
33 48 33
33 48 33
33 48 33
33 48 33
33 48 33
33 48 33
33 48 33
33 48 33
33 48 33
33 48 33
33 48 33
33 48 33
33 48 33
33 48 33
33 48 33
33 48 33
33 48 33
33 48 33
33 48 33
33 48 33
15 45 15
15 45 15
15 45 15
15 45 15
15 45 15
15 45 15
15 45 15
15 45 15
33 48 33
33 48 33
33 48 33
33 48 33
33 48 33
33 48 33
33 48 33
33 48 33
15 45 15
15 45 15
15 45 15
15 45 15
15 45 15
15 45 15
15 45 15
15 45 15
15 45 15
15 45 15
15 45 15
15 45 15
15 45 15
15 45 15
15 45 15
15 45 15
15 45 15
15 45 15
15 45 15
15 45 15
33 48 33
33 48 33
33 48 33
33 48 33
33 48 33
33 48 33
33 48 33
33 48 33
33 48 33
33 48 33
33 48 33
33 48 33
33 48 33
33 48 33
33 48 33
33 48 33
33 48 33
33 48 33
33 48 33
33 48 33
15 45 15
15 45 15
15 45 15
15 45 15
15 45 15
15 45 15
15 45 15
15 45 15
15 45 15
15 45 15
15 45 15
15 45 15
15 45 15
15 45 15
15 45 15
15 45 15
15 45 15
15 45 15
15 45 15
15 45 15
33 48 33
33 48 33
33 48 33
33 48 33
33 48 33
33 48 33
33 48 33
33 48 33
33 48 33
33 48 33
33 48 33
33 48 33
33 48 33
33 48 33
33 48 33
33 48 33
33 48 33
33 48 33
33 48 33
33 48 33
15 45 15
15 45 15
15 45 15
15 45 15
15 45 15
15 45 15
15 45 15
15 45 15
33 48 33
33 48 33
33 48 33
33 48 33
33 48 33
33 48 33
33 48 33
33 48 33
33 48 33
15 45 15
15 45 15
15 45 15
15 45 15
15 45 15
15 45 15
15 45 15
15 45 15
15 45 15
15 45 15
15 45 15
15 45 15
15 45 15
15 45 15
15 45 15
15 45 15
15 45 15
15 45 15
15 45 15
33 48 33
33 48 33
33 48 33
33 48 33
33 48 33
33 48 33
33 48 33
33 48 33
33 48 33
33 48 33
33 48 33
33 48 33
33 48 33
33 48 33
33 48 33
33 48 33
33 48 33
33 48 33
33 48 33
33 48 33
15 45 15
15 45 15
15 45 15
15 45 15
15 45 15
15 45 15
15 45 15
15 45 15
15 45 15
15 45 15
15 45 15
15 45 15
15 45 15
15 45 15
15 45 15
15 45 15
15 45 15
15 45 15
15 45 15
15 45 15
33 48 33
33 48 33
33 48 33
33 48 33
33 48 33
33 48 33
33 48 33
33 48 33
33 48 33
33 48 33
33 48 33
33 48 33
33 48 33
33 48 33
33 48 33
33 48 33
33 48 33
33 48 33
33 48 33
15 45 15
15 45 15
15 45 15
15 45 15
15 45 15
15 45 15
15 45 15
15 45 15
15 45 15
33 48 33
33 48 33
33 48 33
33 48 33
33 48 33
33 48 33
33 48 33
33 48 33
33 48 33
15 45 15
15 45 15
15 45 15
15 45 15
15 45 15
15 45 15
15 45 15
15 45 15
15 45 15
15 45 15
15 45 15
15 45 15
15 45 15
15 45 15
15 45 15
15 45 15
15 45 15
15 45 15
15 45 15
15 45 15
33 48 33
33 48 33
33 48 33
33 48 33
33 48 33
33 48 33
33 48 33
33 48 33
33 48 33
33 48 33
33 48 33
33 48 33
33 48 33
33 48 33
33 48 33
33 48 33
33 48 33
33 48 33
33 48 33
15 45 15
15 45 15
15 45 15
15 45 15
15 45 15
15 45 15
15 45 15
15 45 15
15 45 15
15 45 15
15 45 15
15 45 15
15 45 15
15 45 15
15 45 15
15 45 15
15 45 15
15 45 15
15 45 15
33 48 33
33 48 33
33 48 33
33 48 33
33 48 33
33 48 33
33 48 33
33 48 33
33 48 33
33 48 33
33 48 33
33 48 33
33 48 33
33 48 33
33 48 33
33 48 33
33 48 33
33 48 33
33 48 33
33 48 33
15 45 15
15 45 15
15 45 15
15 45 15
15 45 15
15 45 15
15 45 15
15 45 15
15 45 15
33 48 33
33 48 33
33 48 33
33 48 33
33 48 33
33 48 33
33 48 33
33 48 33
33 48 33
33 48 33
15 45 15
15 45 15
15 45 15
15 45 15
15 45 15
15 45 15
15 45 15
15 45 15
15 45 15
15 45 15
15 45 15
15 45 15
15 45 15
15 45 15
15 45 15
15 45 15
15 45 15
15 45 15
15 45 15
33 48 33
33 48 33
33 48 33
33 48 33
33 48 33
33 48 33
33 48 33
33 48 33
33 48 33
33 48 33
33 48 33
33 48 33
33 48 33
33 48 33
33 48 33
33 48 33
33 48 33
33 48 33
33 48 33
15 45 15
15 45 15
15 45 15
15 45 15
15 45 15
15 45 15
15 45 15
15 45 15
15 45 15
15 45 15
15 45 15
15 45 15
15 45 15
15 45 15
15 45 15
15 45 15
15 45 15
15 45 15
15 45 15
33 48 33
33 48 33
33 48 33
33 48 33
33 48 33
33 48 33
33 48 33
33 48 33
33 48 33
33 48 33
33 48 33
33 48 33
33 48 33
33 48 33
33 48 33
33 48 33
33 48 33
33 48 33
33 48 33
15 45 15
15 45 15
15 45 15
15 45 15
15 45 15
15 45 15
15 45 15
15 45 15
15 45 15
15 45 15
33 48 33
33 48 33
33 48 33
33 48 33
33 48 33
33 48 33
33 48 33
33 48 33
33 48 33
33 48 33
33 48 33
15 45 15
15 45 15
15 45 15
15 45 15
15 45 15
15 45 15
15 45 15
15 45 15
15 45 15
15 45 15
15 45 15
15 45 15
15 45 15
15 45 15
15 45 15
15 45 15
15 45 15
15 45 15
33 48 33
33 48 33
33 48 33
33 48 33
33 48 33
33 48 33
33 48 33
33 48 33
33 48 33
33 48 33
33 48 33
33 48 33
33 48 33
33 48 33
33 48 33
33 48 33
33 48 33
33 48 33
33 48 33
15 45 15
15 45 15
15 45 15
15 45 15
15 45 15
15 45 15
15 45 15
15 45 15
15 45 15
15 45 15
15 45 15
15 45 15
15 45 15
15 45 15
15 45 15
15 45 15
15 45 15
15 45 15
15 45 15
33 48 33
33 48 33
33 48 33
33 48 33
33 48 33
33 48 33
33 48 33
33 48 33
33 48 33
33 48 33
33 48 33
33 48 33
33 48 33
33 48 33
33 48 33
33 48 33
33 48 33
33 48 33
15 45 15
15 45 15
15 45 15
15 45 15
15 45 15
15 45 15
15 45 15
15 45 15
15 45 15
15 45 15
15 45 15
48 48 48
48 48 48
48 48 48
48 48 48
48 48 48
48 48 48
48 48 48
48 48 48
48 48 48
48 48 48
48 48 48
30 45 30
30 45 30
30 45 30
30 45 30
30 45 30
30 45 30
30 45 30
30 45 30
30 45 30
30 45 30
30 45 30
30 45 30
30 45 30
30 45 30
30 45 30
30 45 30
30 45 30
30 45 30
30 45 30
48 48 48
48 48 48
48 48 48
48 48 48
48 48 48
48 48 48
48 48 48
48 48 48
48 48 48
48 48 48
48 48 48
48 48 48
48 48 48
48 48 48
48 48 48
48 48 48
48 48 48
48 48 48
30 45 30
30 45 30
30 45 30
30 45 30
30 45 30
30 45 30
30 45 30
30 45 30
30 45 30
30 45 30
30 45 30
30 45 30
30 45 30
30 45 30
30 45 30
30 45 30
30 45 30
30 45 30
48 48 48
48 48 48
48 48 48
48 48 48
48 48 48
48 48 48
48 48 48
48 48 48
48 48 48
48 48 48
48 48 48
48 48 48
48 48 48
48 48 48
48 48 48
48 48 48
48 48 48
48 48 48
48 48 48
30 45 30
30 45 30
30 45 30
30 45 30
30 45 30
30 45 30
30 45 30
30 45 30
30 45 30
30 45 30
30 45 30
48 48 48
48 48 48
48 48 48
48 48 48
48 48 48
48 48 48
48 48 48
48 48 48
48 48 48
48 48 48
48 48 48
48 48 48
30 45 30
30 45 30
30 45 30
30 45 30
30 45 30
30 45 30
30 45 30
30 45 30
30 45 30
30 45 30
30 45 30
30 45 30
30 45 30
30 45 30
30 45 30
30 45 30
30 45 30
30 45 30
48 48 48
48 48 48
48 48 48
48 48 48
48 48 48
48 48 48
48 48 48
48 48 48
48 48 48
48 48 48
48 48 48
48 48 48
48 48 48
48 48 48
48 48 48
48 48 48
48 48 48
48 48 48
30 45 30
30 45 30
30 45 30
30 45 30
30 45 30
30 45 30
30 45 30
30 45 30
30 45 30
30 45 30
30 45 30
30 45 30
30 45 30
30 45 30
30 45 30
30 45 30
30 45 30
30 45 30
48 48 48
48 48 48
48 48 48
48 48 48
48 48 48
48 48 48
48 48 48
48 48 48
48 48 48
48 48 48
48 48 48
48 48 48
48 48 48
48 48 48
48 48 48
48 48 48
48 48 48
48 48 48
30 45 30
30 45 30
30 45 30
30 45 30
30 45 30
30 45 30
30 45 30
30 45 30
30 45 30
30 45 30
30 45 30
30 45 30
48 48 48
48 48 48
48 48 48
48 48 48
48 48 48
48 48 48
48 48 48
48 48 48
48 48 48
48 48 48
48 48 48
48 48 48
30 45 30
30 45 30
30 45 30
30 45 30
30 45 30
30 45 30
30 45 30
30 45 30
30 45 30
30 45 30
30 45 30
30 45 30
30 45 30
30 45 30
30 45 30
30 45 30
30 45 30
30 45 30
48 48 48
48 48 48
48 48 48
48 48 48
48 48 48
48 48 48
48 48 48
48 48 48
48 48 48
48 48 48
48 48 48
48 48 48
48 48 48
48 48 48
48 48 48
48 48 48
48 48 48
48 48 48
30 45 30
30 45 30
30 45 30
30 45 30
30 45 30
30 45 30
30 45 30
30 45 30
30 45 30
30 45 30
30 45 30
30 45 30
30 45 30
30 45 30
30 45 30
30 45 30
30 45 30
30 45 30
48 48 48
48 48 48
48 48 48
48 48 48
48 48 48
48 48 48
48 48 48
48 48 48
48 48 48
48 48 48
48 48 48
48 48 48
48 48 48
48 48 48
48 48 48
48 48 48
48 48 48
48 48 48
30 45 30
30 45 30
30 45 30
30 45 30
30 45 30
30 45 30
30 45 30
30 45 30
30 45 30
30 45 30
30 45 30
30 45 30
48 48 48
48 48 48
48 48 48
48 48 48
48 48 48
48 48 48
48 48 48
48 48 48
48 48 48
48 48 48
48 48 48
48 48 48
48 48 48
30 45 30
30 45 30
30 45 30
30 45 30
30 45 30
30 45 30
30 45 30
30 45 30
30 45 30
30 45 30
30 45 30
30 45 30
30 45 30
30 45 30
30 45 30
30 45 30
30 45 30
48 48 48
48 48 48
48 48 48
48 48 48
48 48 48
48 48 48
48 48 48
48 48 48
48 48 48
48 48 48
48 48 48
48 48 48
48 48 48
48 48 48
48 48 48
48 48 48
48 48 48
48 48 48
30 45 30
30 45 30
30 45 30
30 45 30
30 45 30
30 45 30
30 45 30
30 45 30
30 45 30
30 45 30
30 45 30
30 45 30
30 45 30
30 45 30
30 45 30
30 45 30
30 45 30
30 45 30
48 48 48
48 48 48
48 48 48
48 48 48
48 48 48
48 48 48
48 48 48
48 48 48
48 48 48
48 48 48
48 48 48
48 48 48
48 48 48
48 48 48
48 48 48
48 48 48
48 48 48
30 45 30
30 45 30
30 45 30
30 45 30
30 45 30
30 45 30
30 45 30
30 45 30
30 45 30
30 45 30
30 45 30
30 45 30
30 45 30
48 48 48
48 48 48
48 48 48
48 48 48
48 48 48
48 48 48
48 48 48
48 48 48
48 48 48
48 48 48
48 48 48
48 48 48
48 48 48
30 45 30
30 45 30
30 45 30
30 45 30
30 45 30
30 45 30
30 45 30
30 45 30
30 45 30
30 45 30
30 45 30
30 45 30
30 45 30
30 45 30
30 45 30
30 45 30
30 45 30
30 45 30
48 48 48
48 48 48
48 48 48
48 48 48
48 48 48
48 48 48
48 48 48
48 48 48
48 48 48
48 48 48
48 48 48
48 48 48
48 48 48
48 48 48
48 48 48
48 48 48
48 48 48
30 45 30
30 45 30
30 45 30
30 45 30
30 45 30
30 45 30
30 45 30
30 45 30
30 45 30
30 45 30
30 45 30
30 45 30
30 45 30
30 45 30
30 45 30
30 45 30
30 45 30
48 48 48
48 48 48
48 48 48
48 48 48
48 48 48
48 48 48
48 48 48
48 48 48
48 48 48
48 48 48
48 48 48
48 48 48
48 48 48
48 48 48
48 48 48
48 48 48
48 48 48
48 48 48
30 45 30
30 45 30
30 45 30
30 45 30
30 45 30
30 45 30
30 45 30
30 45 30
30 45 30
30 45 30
30 45 30
30 45 30
30 45 30
48 48 48
48 48 48
48 48 48
48 48 48
48 48 48
48 48 48
48 48 48
48 48 48
48 48 48
48 48 48
48 48 48
48 48 48
48 48 48
48 48 48
30 45 30
30 45 30
30 45 30
30 45 30
30 45 30
30 45 30
30 45 30
30 45 30
30 45 30
30 45 30
30 45 30
30 45 30
30 45 30
30 45 30
30 45 30
30 45 30
30 45 30
48 48 48
48 48 48
48 48 48
48 48 48
48 48 48
48 48 48
48 48 48
48 48 48
48 48 48
48 48 48
48 48 48
48 48 48
48 48 48
48 48 48
48 48 48
48 48 48
48 48 48
30 45 30
30 45 30
30 45 30
30 45 30
30 45 30
30 45 30
30 45 30
30 45 30
30 45 30
30 45 30
30 45 30
30 45 30
30 45 30
30 45 30
30 45 30
30 45 30
30 45 30
48 48 48
48 48 48
48 48 48
48 48 48
48 48 48
48 48 48
48 48 48
48 48 48
48 48 48
48 48 48
48 48 48
48 48 48
48 48 48
48 48 48
48 48 48
48 48 48
48 48 48
30 45 30
30 45 30
30 45 30
30 45 30
30 45 30
30 45 30
30 45 30
30 45 30
30 45 30
30 45 30
30 45 30
30 45 30
30 45 30
30 45 30
48 48 48
48 48 48
48 48 48
48 48 48
48 48 48
48 48 48
48 48 48
48 48 48
48 48 48
48 48 48
48 48 48
48 48 48
48 48 48
48 48 48
48 48 48
30 45 30
30 45 30
30 45 30
30 45 30
30 45 30
30 45 30
30 45 30
30 45 30
30 45 30
30 45 30
30 45 30
30 45 30
30 45 30
30 45 30
30 45 30
30 45 30
48 48 48
48 48 48
48 48 48
48 48 48
48 48 48
48 48 48
48 48 48
48 48 48
48 48 48
48 48 48
48 48 48
48 48 48
48 48 48
48 48 48
48 48 48
48 48 48
48 48 48
30 45 30
30 45 30
30 45 30
30 45 30
30 45 30
30 45 30
30 45 30
30 45 30
30 45 30
30 45 30
30 45 30
30 45 30
30 45 30
30 45 30
30 45 30
30 45 30
30 45 30
48 48 48
48 48 48
48 48 48
48 48 48
48 48 48
48 48 48
48 48 48
48 48 48
48 48 48
48 48 48
48 48 48
48 48 48
48 48 48
48 48 48
48 48 48
48 48 48
30 45 30
30 45 30
30 45 30
30 45 30
30 45 30
30 45 30
30 45 30
30 45 30
30 45 30
30 45 30
30 45 30
30 45 30
30 45 30
30 45 30
30 45 30
48 48 48
48 48 48
48 48 48
48 48 48
48 48 48
48 48 48
48 48 48
48 48 48
48 48 48
48 48 48
48 48 48
48 48 48
48 48 48
48 48 48
48 48 48
30 45 30
30 45 30
30 45 30
30 45 30
30 45 30
30 45 30
30 45 30
30 45 30
30 45 30
30 45 30
30 45 30
30 45 30
30 45 30
30 45 30
30 45 30
30 45 30
30 45 30
48 48 48
48 48 48
48 48 48
48 48 48
48 48 48
48 48 48
48 48 48
48 48 48
48 48 48
48 48 48
48 48 48
48 48 48
48 48 48
48 48 48
48 48 48
48 48 48
30 45 30
30 45 30
30 45 30
30 45 30
30 45 30
30 45 30
30 45 30
30 45 30
30 45 30
30 45 30
30 45 30
30 45 30
30 45 30
30 45 30
30 45 30
30 45 30
48 48 48
48 48 48
48 48 48
48 48 48
48 48 48
48 48 48
48 48 48
48 48 48
48 48 48
48 48 48
48 48 48
48 48 48
48 48 48
48 48 48
48 48 48
48 48 48
48 48 48
30 45 30
30 45 30
30 45 30
30 45 30
30 45 30
30 45 30
30 45 30
30 45 30
30 45 30
30 45 30
30 45 30
30 45 30
30 45 30
30 45 30
30 45 30
48 48 48
48 48 48
48 48 48
48 48 48
48 48 48
48 48 48
48 48 48
48 48 48
48 48 48
48 48 48
48 48 48
48 48 48
48 48 48
48 48 48
48 48 48
48 48 48
30 45 30
30 45 30
30 45 30
30 45 30
30 45 30
30 45 30
30 45 30
30 45 30
30 45 30
30 45 30
30 45 30
30 45 30
30 45 30
30 45 30
30 45 30
30 45 30
48 48 48
48 48 48
48 48 48
48 48 48
48 48 48
48 48 48
48 48 48
48 48 48
48 48 48
48 48 48
48 48 48
48 48 48
48 48 48
48 48 48
48 48 48
48 48 48
30 45 30
30 45 30
30 45 30
30 45 30
30 45 30
30 45 30
30 45 30
30 45 30
30 45 30
30 45 30
30 45 30
30 45 30
30 45 30
30 45 30
30 45 30
30 45 30
48 48 48
48 48 48
48 48 48
48 48 48
48 48 48
48 48 48
48 48 48
48 48 48
48 48 48
48 48 48
48 48 48
48 48 48
48 48 48
48 48 48
48 48 48
48 48 48
30 45 30
30 45 30
30 45 30
30 45 30
30 45 30
30 45 30
30 45 30
30 45 30
30 45 30
30 45 30
30 45 30
30 45 30
30 45 30
30 45 30
30 45 30
30 45 30
48 48 48
48 48 48
48 48 48
48 48 48
48 48 48
48 48 48
48 48 48
48 48 48
48 48 48
48 48 48
48 48 48
48 48 48
48 48 48
48 48 48
48 48 48
48 48 48
30 45 30
30 45 30
30 45 30
30 45 30
30 45 30
30 45 30
30 45 30
30 45 30
30 45 30
30 45 30
30 45 30
30 45 30
30 45 30
30 45 30
30 45 30
30 45 30
48 48 48
48 48 48
48 48 48
48 48 48
48 48 48
48 48 48
48 48 48
48 48 48
48 48 48
48 48 48
48 48 48
48 48 48
48 48 48
48 48 48
48 48 48
48 48 48
30 45 30
30 45 30
30 45 30
30 45 30
30 45 30
30 45 30
30 45 30
30 45 30
30 45 30
30 45 30
30 45 30
30 45 30
30 45 30
30 45 30
30 45 30
30 45 30
48 48 48
48 48 48
48 48 48
48 48 48
48 48 48
48 48 48
48 48 48
48 48 48
48 48 48
48 48 48
48 48 48
48 48 48
48 48 48
48 48 48
48 48 48
48 48 48
30 45 30
30 45 30
30 45 30
30 45 30
30 45 30
30 45 30
30 45 30
30 45 30
30 45 30
30 45 30
30 45 30
30 45 30
30 45 30
30 45 30
30 45 30
30 45 30
30 45 30
48 48 48
48 48 48
48 48 48
48 48 48
48 48 48
48 48 48
48 48 48
48 48 48
48 48 48
48 48 48
48 48 48
48 48 48
48 48 48
48 48 48
48 48 48
48 48 48
30 45 30
30 45 30
30 45 30
30 45 30
30 45 30
30 45 30
30 45 30
30 45 30
30 45 30
30 45 30
30 45 30
30 45 30
30 45 30
30 45 30
30 45 30
48 48 48
48 48 48
48 48 48
48 48 48
48 48 48
48 48 48
48 48 48
48 48 48
48 48 48
48 48 48
48 48 48
48 48 48
48 48 48
48 48 48
48 48 48
48 48 48
30 45 30
30 45 30
30 45 30
30 45 30
30 45 30
30 45 30
30 45 30
30 45 30
30 45 30
30 45 30
30 45 30
30 45 30
30 45 30
30 45 30
30 45 30
30 45 30
48 48 48
48 48 48
48 48 48
48 48 48
48 48 48
48 48 48
48 48 48
48 48 48
48 48 48
48 48 48
48 48 48
48 48 48
48 48 48
48 48 48
48 48 48
30 45 30
30 45 30
30 45 30
30 45 30
30 45 30
30 45 30
30 45 30
30 45 30
30 45 30
30 45 30
30 45 30
30 45 30
30 45 30
30 45 30
30 45 30
30 45 30
48 48 48
30 45 30
30 45 30
48 48 48
48 48 48
48 48 48
48 48 48
48 48 48
48 48 48
48 48 48
48 48 48
48 48 48
48 48 48
48 48 48
48 48 48
48 48 48
48 48 48
48 48 48
30 45 30
30 45 30
30 45 30
30 45 30
30 45 30
30 45 30
30 45 30
30 45 30
30 45 30
30 45 30
30 45 30
30 45 30
30 45 30
30 45 30
30 45 30
30 45 30
48 48 48
48 48 48
48 48 48
48 48 48
48 48 48
48 48 48
48 48 48
48 48 48
48 48 48
48 48 48
48 48 48
48 48 48
48 48 48
48 48 48
48 48 48
30 45 30
30 45 30
30 45 30
30 45 30
30 45 30
30 45 30
30 45 30
30 45 30
30 45 30
30 45 30
30 45 30
30 45 30
30 45 30
30 45 30
30 45 30
48 48 48
48 48 48
48 48 48
48 48 48
48 48 48
48 48 48
48 48 48
48 48 48
48 48 48
48 48 48
48 48 48
48 48 48
48 48 48
48 48 48
48 48 48
48 48 48
30 45 30
30 45 30
30 45 30
30 45 30
30 45 30
30 45 30
30 45 30
30 45 30
30 45 30
30 45 30
30 45 30
30 45 30
30 45 30
30 45 30
30 45 30
48 48 48
48 48 48
30 45 30
30 45 30
30 45 30
48 48 48
48 48 48
48 48 48
48 48 48
48 48 48
48 48 48
48 48 48
48 48 48
48 48 48
48 48 48
48 48 48
48 48 48
48 48 48
48 48 48
48 48 48
30 45 30
30 45 30
30 45 30
30 45 30
30 45 30
30 45 30
30 45 30
30 45 30
30 45 30
30 45 30
30 45 30
30 45 30
30 45 30
30 45 30
30 45 30
48 48 48
48 48 48
48 48 48
48 48 48
48 48 48
48 48 48
48 48 48
48 48 48
48 48 48
48 48 48
0 0 50
0 0 50
0 0 50
0 0 50
0 0 50
50 0 0
50 0 0
50 0 0
50 0 0
50 0 0
30 45 30
30 45 30
30 45 30
30 45 30
30 45 30
30 45 30
30 45 30
30 45 30
30 45 30
30 45 30
48 48 48
48 48 48
48 48 48
48 48 48
48 48 48
48 48 48
48 48 48
48 48 48
48 48 48
48 48 48
48 48 48
48 48 48
48 48 48
48 48 48
48 48 48
30 45 30
30 45 30
30 45 30
30 45 30
30 45 30
30 45 30
30 45 30
30 45 30
30 45 30
30 45 30
30 45 30
30 45 30
30 45 30
30 45 30
30 45 30
48 48 48
48 48 48
48 48 48
30 45 30
30 45 30
30 45 30
30 45 30
48 48 48
48 48 48
48 48 48
48 48 48
48 48 48
48 48 48
48 48 48
48 48 48
48 48 48
48 48 48
48 48 48
48 48 48
48 48 48
48 48 48
48 48 48
30 45 30
30 45 30
30 45 30
30 45 30
30 45 30
30 45 30
30 45 30
30 45 30
30 45 30
30 45 30
30 45 30
30 45 30
30 45 30
30 45 30
48 48 48
48 48 48
48 48 48
48 48 48
48 48 48
48 48 48
48 48 48
50 0 0
50 0 0
50 0 0
0 0 50
0 0 50
0 0 50
0 0 50
0 0 50
50 0 0
50 0 0
50 0 0
50 0 0
50 0 0
0 0 50
0 0 50
0 0 50
30 45 30
30 45 30
30 45 30
30 45 30
30 45 30
30 45 30
30 45 30
48 48 48
48 48 48
48 48 48
48 48 48
48 48 48
48 48 48
48 48 48
48 48 48
48 48 48
48 48 48
48 48 48
48 48 48
48 48 48
48 48 48
30 45 30
30 45 30
30 45 30
30 45 30
30 45 30
30 45 30
30 45 30
30 45 30
30 45 30
30 45 30
30 45 30
30 45 30
30 45 30
30 45 30
30 45 30
48 48 48
48 48 48
48 48 48
48 48 48
15 45 15
15 45 15
15 45 15
15 45 15
15 45 15
33 48 33
33 48 33
33 48 33
33 48 33
33 48 33
33 48 33
33 48 33
33 48 33
33 48 33
33 48 33
33 48 33
33 48 33
33 48 33
33 48 33
15 45 15
15 45 15
15 45 15
15 45 15
15 45 15
15 45 15
15 45 15
15 45 15
15 45 15
15 45 15
15 45 15
15 45 15
15 45 15
15 45 15
15 45 15
33 48 33
33 48 33
33 48 33
33 48 33
33 48 33
50 0 0
50 0 0
50 0 0
50 0 0
0 0 50
0 0 50
0 0 50
0 0 50
0 0 50
50 0 0
50 0 0
50 0 0
50 0 0
50 0 0
0 0 50
0 0 50
0 0 50
0 0 50
15 45 15
15 45 15
15 45 15
15 45 15
15 45 15
33 48 33
33 48 33
33 48 33
33 48 33
33 48 33
33 48 33
33 48 33
33 48 33
33 48 33
33 48 33
33 48 33
33 48 33
33 48 33
33 48 33
33 48 33
15 45 15
15 45 15
15 45 15
15 45 15
15 45 15
15 45 15
15 45 15
15 45 15
15 45 15
15 45 15
15 45 15
15 45 15
15 45 15
15 45 15
33 48 33
33 48 33
33 48 33
33 48 33
33 48 33
15 45 15
15 45 15
15 45 15
15 45 15
15 45 15
15 45 15
33 48 33
33 48 33
33 48 33
33 48 33
33 48 33
33 48 33
33 48 33
33 48 33
33 48 33
33 48 33
33 48 33
33 48 33
33 48 33
33 48 33
15 45 15
15 45 15
15 45 15
15 45 15
15 45 15
15 45 15
15 45 15
15 45 15
15 45 15
15 45 15
15 45 15
15 45 15
15 45 15
15 45 15
33 48 33
33 48 33
33 48 33
33 48 33
0 0 50
50 0 0
50 0 0
50 0 0
50 0 0
0 0 50
0 0 50
0 0 50
0 0 50
0 0 50
50 0 0
50 0 0
50 0 0
50 0 0
50 0 0
0 0 50
0 0 50
0 0 50
0 0 50
50 0 0
15 45 15
15 45 15
15 45 15
15 45 15
33 48 33
33 48 33
33 48 33
33 48 33
33 48 33
33 48 33
33 48 33
33 48 33
33 48 33
33 48 33
33 48 33
33 48 33
33 48 33
33 48 33
15 45 15
15 45 15
15 45 15
15 45 15
15 45 15
15 45 15
15 45 15
15 45 15
15 45 15
15 45 15
15 45 15
15 45 15
15 45 15
15 45 15
33 48 33
33 48 33
33 48 33
33 48 33
33 48 33
33 48 33
15 45 15
15 45 15
15 45 15
15 45 15
15 45 15
15 45 15
33 48 33
33 48 33
33 48 33
33 48 33
33 48 33
33 48 33
33 48 33
33 48 33
33 48 33
33 48 33
33 48 33
33 48 33
33 48 33
33 48 33
15 45 15
15 45 15
15 45 15
15 45 15
15 45 15
15 45 15
15 45 15
15 45 15
15 45 15
15 45 15
15 45 15
15 45 15
15 45 15
15 45 15
33 48 33
33 48 33
33 48 33
0 0 50
0 0 50
50 0 0
50 0 0
50 0 0
50 0 0
0 0 50
0 0 50
0 0 50
0 0 50
0 0 50
50 0 0
50 0 0
50 0 0
50 0 0
50 0 0
0 0 50
0 0 50
0 0 50
0 0 50
50 0 0
50 0 0
15 45 15
15 45 15
15 45 15
33 48 33
33 48 33
33 48 33
33 48 33
33 48 33
33 48 33
33 48 33
33 48 33
33 48 33
33 48 33
33 48 33
33 48 33
33 48 33
33 48 33
15 45 15
15 45 15
15 45 15
15 45 15
15 45 15
15 45 15
15 45 15
15 45 15
15 45 15
15 45 15
15 45 15
15 45 15
15 45 15
15 45 15
33 48 33
33 48 33
33 48 33
33 48 33
33 48 33
33 48 33
15 45 15
15 45 15
15 45 15
15 45 15
15 45 15
15 45 15
15 45 15
33 48 33
33 48 33
33 48 33
33 48 33
33 48 33
33 48 33
33 48 33
33 48 33
33 48 33
33 48 33
33 48 33
33 48 33
33 48 33
33 48 33
15 45 15
15 45 15
15 45 15
15 45 15
15 45 15
15 45 15
15 45 15
15 45 15
15 45 15
15 45 15
15 45 15
15 45 15
15 45 15
33 48 33
33 48 33
0 0 50
0 0 50
0 0 50
50 0 0
50 0 0
50 0 0
50 0 0
0 0 50
0 0 50
0 0 50
0 0 50
0 0 50
50 0 0
50 0 0
50 0 0
50 0 0
50 0 0
0 0 50
0 0 50
0 0 50
0 0 50
50 0 0
50 0 0
50 0 0
15 45 15
15 45 15
33 48 33
33 48 33
33 48 33
33 48 33
33 48 33
33 48 33
33 48 33
33 48 33
33 48 33
33 48 33
33 48 33
33 48 33
33 48 33
15 45 15
15 45 15
15 45 15
15 45 15
15 45 15
15 45 15
15 45 15
15 45 15
15 45 15
15 45 15
15 45 15
15 45 15
15 45 15
15 45 15
33 48 33
33 48 33
33 48 33
33 48 33
33 48 33
33 48 33
33 48 33
15 45 15
15 45 15
15 45 15
15 45 15
15 45 15
15 45 15
15 45 15
15 45 15
33 48 33
33 48 33
33 48 33
33 48 33
33 48 33
33 48 33
33 48 33
33 48 33
33 48 33
33 48 33
33 48 33
33 48 33
33 48 33
15 45 15
15 45 15
15 45 15
15 45 15
15 45 15
15 45 15
15 45 15
15 45 15
15 45 15
15 45 15
15 45 15
15 45 15
15 45 15
15 45 15
33 48 33
0 0 50
0 0 50
0 0 50
50 0 0
50 0 0
50 0 0
50 0 0
0 0 50
0 0 50
0 0 50
0 0 50
0 0 50
50 0 0
50 0 0
50 0 0
50 0 0
50 0 0
0 0 50
0 0 50
0 0 50
0 0 50
50 0 0
50 0 0
50 0 0
15 45 15
33 48 33
33 48 33
33 48 33
33 48 33
33 48 33
33 48 33
33 48 33
33 48 33
33 48 33
33 48 33
33 48 33
33 48 33
33 48 33
33 48 33
15 45 15
15 45 15
15 45 15
15 45 15
15 45 15
15 45 15
15 45 15
15 45 15
15 45 15
15 45 15
15 45 15
15 45 15
15 45 15
33 48 33
33 48 33
33 48 33
33 48 33
33 48 33
33 48 33
33 48 33
33 48 33
15 45 15
15 45 15
15 45 15
15 45 15
15 45 15
15 45 15
15 45 15
15 45 15
15 45 15
33 48 33
33 48 33
33 48 33
33 48 33
33 48 33
33 48 33
33 48 33
33 48 33
33 48 33
33 48 33
33 48 33
33 48 33
33 48 33
15 45 15
15 45 15
15 45 15
15 45 15
15 45 15
15 45 15
15 45 15
15 45 15
15 45 15
15 45 15
15 45 15
15 45 15
15 45 15
33 48 33
0 0 50
0 0 50
0 0 50
50 0 0
50 0 0
50 0 0
50 0 0
0 0 50
0 0 50
0 0 50
0 0 50
0 0 50
50 0 0
50 0 0
50 0 0
50 0 0
50 0 0
0 0 50
0 0 50
0 0 50
0 0 50
50 0 0
50 0 0
50 0 0
15 45 15
33 48 33
33 48 33
33 48 33
33 48 33
33 48 33
33 48 33
33 48 33
33 48 33
33 48 33
33 48 33
33 48 33
33 48 33
33 48 33
15 45 15
15 45 15
15 45 15
15 45 15
15 45 15
15 45 15
15 45 15
15 45 15
15 45 15
15 45 15
15 45 15
15 45 15
15 45 15
33 48 33
33 48 33
33 48 33
33 48 33
33 48 33
33 48 33
33 48 33
33 48 33
33 48 33
15 45 15
15 45 15
15 45 15
15 45 15
15 45 15
15 45 15
15 45 15
15 45 15
15 45 15
15 45 15
33 48 33
33 48 33
33 48 33
33 48 33
33 48 33
33 48 33
33 48 33
33 48 33
33 48 33
33 48 33
33 48 33
33 48 33
33 48 33
15 45 15
15 45 15
15 45 15
15 45 15
15 45 15
15 45 15
15 45 15
15 45 15
15 45 15
15 45 15
15 45 15
15 45 15
33 48 33
0 0 50
0 0 50
0 0 50
50 0 0
50 0 0
50 0 0
50 0 0
0 0 50
0 0 50
0 0 50
0 0 50
0 0 50
50 0 0
50 0 0
50 0 0
50 0 0
50 0 0
0 0 50
0 0 50
0 0 50
0 0 50
50 0 0
50 0 0
50 0 0
15 45 15
33 48 33
33 48 33
33 48 33
33 48 33
33 48 33
33 48 33
33 48 33
33 48 33
33 48 33
33 48 33
33 48 33
33 48 33
15 45 15
15 45 15
15 45 15
15 45 15
15 45 15
15 45 15
15 45 15
15 45 15
15 45 15
15 45 15
15 45 15
15 45 15
15 45 15
33 48 33
33 48 33
33 48 33
33 48 33
33 48 33
33 48 33
33 48 33
33 48 33
33 48 33
33 48 33
15 45 15
15 45 15
15 45 15
15 45 15
15 45 15
15 45 15
15 45 15
15 45 15
15 45 15
15 45 15
15 45 15
33 48 33
33 48 33
33 48 33
33 48 33
33 48 33
33 48 33
33 48 33
33 48 33
33 48 33
33 48 33
33 48 33
33 48 33
15 45 15
15 45 15
15 45 15
15 45 15
15 45 15
15 45 15
15 45 15
15 45 15
15 45 15
15 45 15
15 45 15
15 45 15
15 45 15
0 0 50
0 0 50
0 0 50
50 0 0
50 0 0
50 0 0
50 0 0
0 0 50
0 0 50
0 0 50
0 0 50
0 0 50
50 0 0
50 0 0
50 0 0
50 0 0
50 0 0
0 0 50
0 0 50
0 0 50
0 0 50
50 0 0
50 0 0
50 0 0
33 48 33
33 48 33
33 48 33
33 48 33
33 48 33
33 48 33
33 48 33
33 48 33
33 48 33
33 48 33
33 48 33
33 48 33
33 48 33
15 45 15
15 45 15
15 45 15
15 45 15
15 45 15
15 45 15
15 45 15
15 45 15
15 45 15
15 45 15
15 45 15
15 45 15
33 48 33
33 48 33
33 48 33
33 48 33
33 48 33
33 48 33
33 48 33
33 48 33
33 48 33
33 48 33
33 48 33
15 45 15
15 45 15
15 45 15
15 45 15
15 45 15
15 45 15
15 45 15
15 45 15
15 45 15
15 45 15
15 45 15
15 45 15
33 48 33
33 48 33
33 48 33
33 48 33
33 48 33
33 48 33
33 48 33
33 48 33
33 48 33
33 48 33
33 48 33
33 48 33
15 45 15
15 45 15
15 45 15
15 45 15
15 45 15
15 45 15
15 45 15
15 45 15
15 45 15
15 45 15
15 45 15
15 45 15
0 0 50
0 0 50
0 0 50
50 0 0
50 0 0
50 0 0
50 0 0
0 0 50
0 0 50
0 0 50
0 0 50
0 0 50
50 0 0
50 0 0
50 0 0
50 0 0
50 0 0
0 0 50
0 0 50
0 0 50
0 0 50
50 0 0
50 0 0
50 0 0
33 48 33
33 48 33
33 48 33
33 48 33
33 48 33
33 48 33
33 48 33
33 48 33
33 48 33
33 48 33
33 48 33
33 48 33
15 45 15
15 45 15
15 45 15
15 45 15
15 45 15
15 45 15
15 45 15
15 45 15
15 45 15
15 45 15
15 45 15
15 45 15
33 48 33
33 48 33
33 48 33
33 48 33
33 48 33
33 48 33
33 48 33
33 48 33
33 48 33
33 48 33
33 48 33
33 48 33
48 48 48
30 45 30
30 45 30
30 45 30
30 45 30
30 45 30
30 45 30
30 45 30
30 45 30
30 45 30
30 45 30
30 45 30
48 48 48
48 48 48
48 48 48
48 48 48
48 48 48
48 48 48
48 48 48
48 48 48
48 48 48
48 48 48
48 48 48
48 48 48
30 45 30
30 45 30
30 45 30
30 45 30
30 45 30
30 45 30
30 45 30
30 45 30
30 45 30
30 45 30
30 45 30
30 45 30
0 0 50
0 0 50
0 0 50
50 0 0
50 0 0
50 0 0
50 0 0
0 0 50
0 0 50
0 0 50
0 0 50
0 0 50
50 0 0
50 0 0
50 0 0
50 0 0
50 0 0
0 0 50
0 0 50
0 0 50
0 0 50
50 0 0
50 0 0
50 0 0
48 48 48
48 48 48
48 48 48
48 48 48
48 48 48
48 48 48
48 48 48
48 48 48
48 48 48
48 48 48
48 48 48
48 48 48
30 45 30
30 45 30
30 45 30
30 45 30
30 45 30
30 45 30
30 45 30
30 45 30
30 45 30
30 45 30
30 45 30
30 45 30
48 48 48
48 48 48
48 48 48
48 48 48
48 48 48
48 48 48
48 48 48
48 48 48
48 48 48
48 48 48
48 48 48
30 45 30
48 48 48
48 48 48
30 45 30
30 45 30
30 45 30
30 45 30
30 45 30
30 45 30
30 45 30
30 45 30
30 45 30
30 45 30
30 45 30
48 48 48
48 48 48
48 48 48
48 48 48
48 48 48
48 48 48
48 48 48
48 48 48
48 48 48
48 48 48
48 48 48
48 48 48
30 45 30
30 45 30
30 45 30
30 45 30
30 45 30
30 45 30
30 45 30
30 45 30
30 45 30
30 45 30
30 45 30
48 48 48
0 0 50
0 0 50
50 0 0
50 0 0
50 0 0
50 0 0
0 0 50
0 0 50
0 0 50
0 0 50
0 0 50
50 0 0
50 0 0
50 0 0
50 0 0
50 0 0
0 0 50
0 0 50
0 0 50
0 0 50
50 0 0
50 0 0
30 45 30
48 48 48
48 48 48
48 48 48
48 48 48
48 48 48
48 48 48
48 48 48
48 48 48
48 48 48
48 48 48
48 48 48
30 45 30
30 45 30
30 45 30
30 45 30
30 45 30
30 45 30
30 45 30
30 45 30
30 45 30
30 45 30
30 45 30
30 45 30
48 48 48
48 48 48
48 48 48
48 48 48
48 48 48
48 48 48
48 48 48
48 48 48
48 48 48
48 48 48
48 48 48
30 45 30
30 45 30
48 48 48
48 48 48
48 48 48
30 45 30
30 45 30
30 45 30
30 45 30
30 45 30
30 45 30
30 45 30
30 45 30
30 45 30
30 45 30
30 45 30
48 48 48
48 48 48
48 48 48
48 48 48
48 48 48
48 48 48
48 48 48
48 48 48
48 48 48
48 48 48
48 48 48
30 45 30
30 45 30
30 45 30
30 45 30
30 45 30
30 45 30
30 45 30
30 45 30
30 45 30
30 45 30
30 45 30
30 45 30
0 0 50
0 0 50
50 0 0
50 0 0
50 0 0
50 0 0
0 0 50
0 0 50
0 0 50
0 0 50
0 0 50
50 0 0
50 0 0
50 0 0
50 0 0
50 0 0
0 0 50
0 0 50
0 0 50
0 0 50
50 0 0
50 0 0
48 48 48
48 48 48
48 48 48
48 48 48
48 48 48
48 48 48
48 48 48
48 48 48
48 48 48
48 48 48
48 48 48
48 48 48
30 45 30
30 45 30
30 45 30
30 45 30
30 45 30
30 45 30
30 45 30
30 45 30
30 45 30
30 45 30
30 45 30
48 48 48
48 48 48
48 48 48
48 48 48
48 48 48
48 48 48
48 48 48
48 48 48
48 48 48
48 48 48
48 48 48
30 45 30
30 45 30
30 45 30
48 48 48
48 48 48
48 48 48
48 48 48
30 45 30
30 45 30
30 45 30
30 45 30
30 45 30
30 45 30
30 45 30
30 45 30
30 45 30
30 45 30
30 45 30
48 48 48
48 48 48
48 48 48
48 48 48
48 48 48
48 48 48
48 48 48
48 48 48
48 48 48
48 48 48
48 48 48
30 45 30
30 45 30
30 45 30
30 45 30
30 45 30
30 45 30
30 45 30
30 45 30
30 45 30
30 45 30
30 45 30
48 48 48
0 0 50
50 0 0
50 0 0
50 0 0
50 0 0
0 0 50
0 0 50
0 0 50
0 0 50
0 0 50
50 0 0
50 0 0
50 0 0
50 0 0
50 0 0
0 0 50
0 0 50
0 0 50
0 0 50
50 0 0
30 45 30
48 48 48
48 48 48
48 48 48
48 48 48
48 48 48
48 48 48
48 48 48
48 48 48
48 48 48
48 48 48
48 48 48
30 45 30
30 45 30
30 45 30
30 45 30
30 45 30
30 45 30
30 45 30
30 45 30
30 45 30
30 45 30
30 45 30
48 48 48
48 48 48
48 48 48
48 48 48
48 48 48
48 48 48
48 48 48
48 48 48
48 48 48
48 48 48
48 48 48
30 45 30
30 45 30
30 45 30
30 45 30
48 48 48
48 48 48
48 48 48
48 48 48
48 48 48
30 45 30
30 45 30
30 45 30
30 45 30
30 45 30
30 45 30
30 45 30
30 45 30
30 45 30
30 45 30
30 45 30
48 48 48
48 48 48
48 48 48
48 48 48
48 48 48
48 48 48
48 48 48
48 48 48
48 48 48
48 48 48
48 48 48
30 45 30
30 45 30
30 45 30
30 45 30
30 45 30
30 45 30
30 45 30
30 45 30
30 45 30
30 45 30
48 48 48
0 0 50
0 0 50
50 0 0
50 0 0
50 0 0
0 0 50
0 0 50
0 0 50
0 0 50
0 0 50
50 0 0
50 0 0
50 0 0
50 0 0
50 0 0
0 0 50
0 0 50
0 0 50
50 0 0
50 0 0
30 45 30
48 48 48
48 48 48
48 48 48
48 48 48
48 48 48
48 48 48
48 48 48
48 48 48
48 48 48
48 48 48
30 45 30
30 45 30
30 45 30
30 45 30
30 45 30
30 45 30
30 45 30
30 45 30
30 45 30
30 45 30
30 45 30
48 48 48
48 48 48
48 48 48
48 48 48
48 48 48
48 48 48
48 48 48
48 48 48
48 48 48
48 48 48
48 48 48
30 45 30
30 45 30
30 45 30
30 45 30
30 45 30
48 48 48
48 48 48
48 48 48
48 48 48
48 48 48
48 48 48
30 45 30
30 45 30
30 45 30
30 45 30
30 45 30
30 45 30
30 45 30
30 45 30
30 45 30
30 45 30
30 45 30
48 48 48
48 48 48
48 48 48
48 48 48
48 48 48
48 48 48
48 48 48
48 48 48
48 48 48
48 48 48
30 45 30
30 45 30
30 45 30
30 45 30
30 45 30
30 45 30
30 45 30
30 45 30
30 45 30
30 45 30
30 45 30
48 48 48
0 0 50
50 0 0
50 0 0
50 0 0
50 0 0
0 0 50
0 0 50
0 0 50
0 0 50
50 0 0
50 0 0
50 0 0
50 0 0
0 0 50
0 0 50
0 0 50
0 0 50
50 0 0
30 45 30
48 48 48
48 48 48
48 48 48
48 48 48
48 48 48
48 48 48
48 48 48
48 48 48
48 48 48
48 48 48
48 48 48
30 45 30
30 45 30
30 45 30
30 45 30
30 45 30
30 45 30
30 45 30
30 45 30
30 45 30
30 45 30
48 48 48
48 48 48
48 48 48
48 48 48
48 48 48
48 48 48
48 48 48
48 48 48
48 48 48
48 48 48
48 48 48
30 45 30
30 45 30
30 45 30
30 45 30
30 45 30
30 45 30
33 48 33
33 48 33
33 48 33
33 48 33
33 48 33
33 48 33
33 48 33
15 45 15
15 45 15
15 45 15
15 45 15
15 45 15
15 45 15
15 45 15
15 45 15
15 45 15
15 45 15
15 45 15
33 48 33
33 48 33
33 48 33
33 48 33
33 48 33
33 48 33
33 48 33
33 48 33
33 48 33
33 48 33
15 45 15
15 45 15
15 45 15
15 45 15
15 45 15
15 45 15
15 45 15
15 45 15
15 45 15
15 45 15
33 48 33
33 48 33
33 48 33
50 0 0
50 0 0
50 0 0
0 0 50
0 0 50
0 0 50
0 0 50
50 0 0
50 0 0
50 0 0
50 0 0
0 0 50
0 0 50
0 0 50
15 45 15
15 45 15
15 45 15
33 48 33
33 48 33
33 48 33
33 48 33
33 48 33
33 48 33
33 48 33
33 48 33
33 48 33
33 48 33
15 45 15
15 45 15
15 45 15
15 45 15
15 45 15
15 45 15
15 45 15
15 45 15
15 45 15
15 45 15
33 48 33
33 48 33
33 48 33
33 48 33
33 48 33
33 48 33
33 48 33
33 48 33
33 48 33
33 48 33
33 48 33
15 45 15
15 45 15
15 45 15
15 45 15
15 45 15
15 45 15
15 45 15
33 48 33
33 48 33
33 48 33
33 48 33
33 48 33
33 48 33
33 48 33
33 48 33
33 48 33
15 45 15
15 45 15
15 45 15
15 45 15
15 45 15
15 45 15
15 45 15
15 45 15
15 45 15
33 48 33
33 48 33
33 48 33
33 48 33
33 48 33
33 48 33
33 48 33
33 48 33
33 48 33
33 48 33
15 45 15
15 45 15
15 45 15
15 45 15
15 45 15
15 45 15
15 45 15
15 45 15
15 45 15
15 45 15
33 48 33
33 48 33
33 48 33
33 48 33
50 0 0
50 0 0
0 0 50
0 0 50
0 0 50
0 0 50
50 0 0
50 0 0
50 0 0
50 0 0
0 0 50
0 0 50
15 45 15
15 45 15
15 45 15
15 45 15
33 48 33
33 48 33
33 48 33
33 48 33
33 48 33
33 48 33
33 48 33
33 48 33
33 48 33
33 48 33
15 45 15
15 45 15
15 45 15
15 45 15
15 45 15
15 45 15
15 45 15
15 45 15
15 45 15
15 45 15
33 48 33
33 48 33
33 48 33
33 48 33
33 48 33
33 48 33
33 48 33
33 48 33
33 48 33
15 45 15
15 45 15
15 45 15
15 45 15
15 45 15
15 45 15
15 45 15
15 45 15
15 45 15
33 48 33
33 48 33
33 48 33
33 48 33
33 48 33
33 48 33
33 48 33
33 48 33
33 48 33
33 48 33
15 45 15
15 45 15
15 45 15
15 45 15
15 45 15
15 45 15
15 45 15
15 45 15
15 45 15
33 48 33
33 48 33
33 48 33
33 48 33
33 48 33
33 48 33
33 48 33
33 48 33
33 48 33
33 48 33
15 45 15
15 45 15
15 45 15
15 45 15
15 45 15
15 45 15
15 45 15
15 45 15
15 45 15
33 48 33
33 48 33
33 48 33
33 48 33
33 48 33
33 48 33
33 48 33
0 0 50
0 0 50
0 0 50
50 0 0
50 0 0
50 0 0
15 45 15
15 45 15
15 45 15
15 45 15
15 45 15
15 45 15
15 45 15
33 48 33
33 48 33
33 48 33
33 48 33
33 48 33
33 48 33
33 48 33
33 48 33
33 48 33
15 45 15
15 45 15
15 45 15
15 45 15
15 45 15
15 45 15
15 45 15
15 45 15
15 45 15
15 45 15
33 48 33
33 48 33
33 48 33
33 48 33
33 48 33
33 48 33
33 48 33
33 48 33
33 48 33
15 45 15
15 45 15
15 45 15
15 45 15
15 45 15
15 45 15
15 45 15
15 45 15
15 45 15
15 45 15
15 45 15
15 45 15
33 48 33
33 48 33
33 48 33
33 48 33
33 48 33
33 48 33
33 48 33
33 48 33
33 48 33
15 45 15
15 45 15
15 45 15
15 45 15
15 45 15
15 45 15
15 45 15
15 45 15
15 45 15
33 48 33
33 48 33
33 48 33
33 48 33
33 48 33
33 48 33
33 48 33
33 48 33
33 48 33
15 45 15
15 45 15
15 45 15
15 45 15
15 45 15
15 45 15
15 45 15
15 45 15
15 45 15
15 45 15
33 48 33
33 48 33
33 48 33
33 48 33
33 48 33
33 48 33
33 48 33
33 48 33
33 48 33
15 45 15
15 45 15
15 45 15
15 45 15
15 45 15
15 45 15
15 45 15
15 45 15
15 45 15
33 48 33
33 48 33
33 48 33
33 48 33
33 48 33
33 48 33
33 48 33
33 48 33
33 48 33
33 48 33
15 45 15
15 45 15
15 45 15
15 45 15
15 45 15
15 45 15
15 45 15
15 45 15
15 45 15
33 48 33
33 48 33
33 48 33
33 48 33
33 48 33
33 48 33
33 48 33
33 48 33
33 48 33
15 45 15
15 45 15
15 45 15
15 45 15
15 45 15
15 45 15
15 45 15
15 45 15
15 45 15
33 48 33
33 48 33
15 45 15
15 45 15
15 45 15
33 48 33
33 48 33
33 48 33
33 48 33
33 48 33
33 48 33
33 48 33
33 48 33
33 48 33
15 45 15
15 45 15
15 45 15
15 45 15
15 45 15
15 45 15
15 45 15
15 45 15
15 45 15
33 48 33
33 48 33
33 48 33
33 48 33
33 48 33
33 48 33
33 48 33
33 48 33
33 48 33
15 45 15
15 45 15
15 45 15
15 45 15
15 45 15
15 45 15
15 45 15
15 45 15
15 45 15
33 48 33
33 48 33
33 48 33
33 48 33
33 48 33
33 48 33
33 48 33
33 48 33
33 48 33
15 45 15
15 45 15
15 45 15
15 45 15
15 45 15
15 45 15
15 45 15
15 45 15
15 45 15
33 48 33
33 48 33
33 48 33
33 48 33
33 48 33
33 48 33
33 48 33
33 48 33
33 48 33
15 45 15
15 45 15
15 45 15
15 45 15
15 45 15
15 45 15
15 45 15
15 45 15
15 45 15
33 48 33
33 48 33
33 48 33
33 48 33
33 48 33
33 48 33
33 48 33
33 48 33
33 48 33
15 45 15
15 45 15
15 45 15
15 45 15
15 45 15
15 45 15
15 45 15
15 45 15
15 45 15
33 48 33
33 48 33
33 48 33
30 45 30
30 45 30
30 45 30
30 45 30
48 48 48
48 48 48
48 48 48
48 48 48
48 48 48
48 48 48
48 48 48
48 48 48
48 48 48
30 45 30
30 45 30
30 45 30
30 45 30
30 45 30
30 45 30
30 45 30
30 45 30
30 45 30
48 48 48
48 48 48
48 48 48
48 48 48
48 48 48
48 48 48
48 48 48
48 48 48
48 48 48
30 45 30
30 45 30
30 45 30
30 45 30
30 45 30
30 45 30
30 45 30
30 45 30
48 48 48
48 48 48
48 48 48
48 48 48
48 48 48
48 48 48
48 48 48
48 48 48
48 48 48
30 45 30
30 45 30
30 45 30
30 45 30
30 45 30
30 45 30
30 45 30
30 45 30
30 45 30
48 48 48
48 48 48
48 48 48
48 48 48
48 48 48
48 48 48
48 48 48
48 48 48
30 45 30
30 45 30
30 45 30
30 45 30
30 45 30
30 45 30
30 45 30
30 45 30
30 45 30
48 48 48
48 48 48
48 48 48
48 48 48
48 48 48
48 48 48
48 48 48
48 48 48
48 48 48
30 45 30
30 45 30
30 45 30
30 45 30
30 45 30
30 45 30
30 45 30
30 45 30
30 45 30
48 48 48
48 48 48
48 48 48
48 48 48
30 45 30
30 45 30
30 45 30
30 45 30
30 45 30
30 45 30
48 48 48
48 48 48
48 48 48
48 48 48
48 48 48
48 48 48
48 48 48
48 48 48
30 45 30
30 45 30
30 45 30
30 45 30
30 45 30
30 45 30
30 45 30
30 45 30
30 45 30
48 48 48
48 48 48
48 48 48
48 48 48
48 48 48
48 48 48
48 48 48
48 48 48
30 45 30
30 45 30
30 45 30
30 45 30
30 45 30
30 45 30
30 45 30
30 45 30
30 45 30
48 48 48
48 48 48
48 48 48
48 48 48
48 48 48
48 48 48
48 48 48
48 48 48
30 45 30
30 45 30
30 45 30
30 45 30
30 45 30
30 45 30
30 45 30
30 45 30
48 48 48
48 48 48
48 48 48
48 48 48
48 48 48
48 48 48
48 48 48
48 48 48
48 48 48
30 45 30
30 45 30
30 45 30
30 45 30
30 45 30
30 45 30
30 45 30
30 45 30
48 48 48
48 48 48
48 48 48
48 48 48
48 48 48
48 48 48
48 48 48
48 48 48
48 48 48
30 45 30
30 45 30
30 45 30
30 45 30
30 45 30
30 45 30
30 45 30
30 45 30
48 48 48
48 48 48
48 48 48
48 48 48
48 48 48
48 48 48
30 45 30
30 45 30
30 45 30
30 45 30
30 45 30
30 45 30
30 45 30
48 48 48
48 48 48
48 48 48
48 48 48
48 48 48
48 48 48
48 48 48
48 48 48
30 45 30
30 45 30
30 45 30
30 45 30
30 45 30
30 45 30
30 45 30
30 45 30
30 45 30
48 48 48
48 48 48
48 48 48
48 48 48
48 48 48
48 48 48
48 48 48
48 48 48
30 45 30
30 45 30
30 45 30
30 45 30
30 45 30
30 45 30
30 45 30
30 45 30
48 48 48
48 48 48
48 48 48
48 48 48
48 48 48
48 48 48
48 48 48
48 48 48
30 45 30
30 45 30
30 45 30
30 45 30
30 45 30
30 45 30
30 45 30
30 45 30
48 48 48
48 48 48
48 48 48
48 48 48
48 48 48
48 48 48
48 48 48
48 48 48
30 45 30
30 45 30
30 45 30
30 45 30
30 45 30
30 45 30
30 45 30
30 45 30
48 48 48
48 48 48
48 48 48
48 48 48
48 48 48
48 48 48
48 48 48
48 48 48
48 48 48
30 45 30
30 45 30
30 45 30
30 45 30
30 45 30
30 45 30
30 45 30
30 45 30
48 48 48
48 48 48
48 48 48
48 48 48
48 48 48
48 48 48
48 48 48
48 48 48
30 45 30
30 45 30
30 45 30
30 45 30
30 45 30
30 45 30
30 45 30
30 45 30
48 48 48
48 48 48
48 48 48
48 48 48
48 48 48
48 48 48
48 48 48
48 48 48
30 45 30
30 45 30
30 45 30
30 45 30
30 45 30
30 45 30
30 45 30
48 48 48
48 48 48
48 48 48
48 48 48
48 48 48
48 48 48
48 48 48
48 48 48
30 45 30
30 45 30
30 45 30
30 45 30
30 45 30
30 45 30
30 45 30
30 45 30
48 48 48
48 48 48
48 48 48
48 48 48
48 48 48
48 48 48
48 48 48
48 48 48
30 45 30
30 45 30
30 45 30
30 45 30
30 45 30
30 45 30
30 45 30
30 45 30
48 48 48
48 48 48
48 48 48
48 48 48
48 48 48
48 48 48
48 48 48
48 48 48
30 45 30
30 45 30
30 45 30
30 45 30
30 45 30
30 45 30
30 45 30
30 45 30
48 48 48
48 48 48
48 48 48
48 48 48
48 48 48
48 48 48
48 48 48
30 45 30
30 45 30
30 45 30
30 45 30
30 45 30
30 45 30
30 45 30
30 45 30
48 48 48
48 48 48
48 48 48
48 48 48
48 48 48
48 48 48
48 48 48
48 48 48
30 45 30
33 48 33
33 48 33
33 48 33
15 45 15
15 45 15
15 45 15
15 45 15
15 45 15
15 45 15
15 45 15
33 48 33
33 48 33
33 48 33
33 48 33
33 48 33
33 48 33
33 48 33
33 48 33
15 45 15
15 45 15
15 45 15
15 45 15
15 45 15
15 45 15
15 45 15
33 48 33
33 48 33
33 48 33
33 48 33
33 48 33
33 48 33
33 48 33
33 48 33
15 45 15
15 45 15
15 45 15
15 45 15
15 45 15
15 45 15
15 45 15
33 48 33
33 48 33
33 48 33
33 48 33
33 48 33
33 48 33
33 48 33
33 48 33
15 45 15
15 45 15
15 45 15
15 45 15
15 45 15
15 45 15
15 45 15
15 45 15
33 48 33
33 48 33
33 48 33
33 48 33
33 48 33
33 48 33
33 48 33
15 45 15
15 45 15
15 45 15
15 45 15
15 45 15
15 45 15
15 45 15
15 45 15
33 48 33
33 48 33
33 48 33
33 48 33
33 48 33
33 48 33
33 48 33
15 45 15
15 45 15
15 45 15
15 45 15
15 45 15
15 45 15
15 45 15
15 45 15
33 48 33
33 48 33
33 48 33
33 48 33
33 48 33
33 48 33
33 48 33
15 45 15
15 45 15
15 45 15
33 48 33
33 48 33
33 48 33
33 48 33
15 45 15
15 45 15
15 45 15
15 45 15
15 45 15
15 45 15
15 45 15
15 45 15
33 48 33
33 48 33
33 48 33
33 48 33
33 48 33
33 48 33
33 48 33
15 45 15
15 45 15
15 45 15
15 45 15
15 45 15
15 45 15
15 45 15
33 48 33
33 48 33
33 48 33
33 48 33
33 48 33
33 48 33
33 48 33
15 45 15
15 45 15
15 45 15
15 45 15
15 45 15
15 45 15
15 45 15
15 45 15
33 48 33
33 48 33
33 48 33
33 48 33
33 48 33
33 48 33
33 48 33
15 45 15
15 45 15
15 45 15
15 45 15
15 45 15
15 45 15
15 45 15
33 48 33
33 48 33
33 48 33
33 48 33
33 48 33
33 48 33
33 48 33
33 48 33
15 45 15
15 45 15
15 45 15
15 45 15
15 45 15
15 45 15
15 45 15
33 48 33
33 48 33
33 48 33
33 48 33
33 48 33
33 48 33
33 48 33
15 45 15
15 45 15
15 45 15
15 45 15
15 45 15
15 45 15
15 45 15
33 48 33
33 48 33
33 48 33
33 48 33
33 48 33
33 48 33
33 48 33
33 48 33
15 45 15
15 45 15
15 45 15
15 45 15
48 48 48
48 48 48
48 48 48
48 48 48
48 48 48
48 48 48
30 45 30
30 45 30
30 45 30
30 45 30
30 45 30
30 45 30
30 45 30
48 48 48
48 48 48
48 48 48
48 48 48
48 48 48
48 48 48
48 48 48
30 45 30
30 45 30
30 45 30
30 45 30
30 45 30
30 45 30
30 45 30
48 48 48
48 48 48
48 48 48
48 48 48
48 48 48
48 48 48
48 48 48
30 45 30
30 45 30
30 45 30
30 45 30
30 45 30
30 45 30
30 45 30
48 48 48
48 48 48
48 48 48
48 48 48
48 48 48
48 48 48
48 48 48
30 45 30
30 45 30
30 45 30
30 45 30
30 45 30
30 45 30
30 45 30
48 48 48
48 48 48
48 48 48
48 48 48
48 48 48
48 48 48
48 48 48
30 45 30
30 45 30
30 45 30
30 45 30
30 45 30
30 45 30
30 45 30
48 48 48
48 48 48
48 48 48
48 48 48
48 48 48
48 48 48
48 48 48
30 45 30
30 45 30
30 45 30
30 45 30
30 45 30
30 45 30
30 45 30
48 48 48
48 48 48
48 48 48
48 48 48
48 48 48
48 48 48
48 48 48
30 45 30
30 45 30
30 45 30
30 45 30
30 45 30
30 45 30
30 45 30
48 48 48
48 48 48
48 48 48
48 48 48
48 48 48
48 48 48
48 48 48
30 45 30
30 45 30
30 45 30
30 45 30
30 45 30
30 45 30
48 48 48
48 48 48
48 48 48
48 48 48
48 48 48
48 48 48
48 48 48
30 45 30
30 45 30
30 45 30
30 45 30
30 45 30
30 45 30
30 45 30
48 48 48
48 48 48
48 48 48
48 48 48
48 48 48
48 48 48
48 48 48
30 45 30
30 45 30
30 45 30
30 45 30
30 45 30
30 45 30
48 48 48
48 48 48
48 48 48
48 48 48
48 48 48
48 48 48
48 48 48
30 45 30
30 45 30
30 45 30
30 45 30
30 45 30
30 45 30
30 45 30
48 48 48
48 48 48
48 48 48
48 48 48
48 48 48
48 48 48
30 45 30
30 45 30
30 45 30
30 45 30
30 45 30
30 45 30
30 45 30
48 48 48
48 48 48
48 48 48
48 48 48
48 48 48
48 48 48
48 48 48
30 45 30
30 45 30
30 45 30
30 45 30
30 45 30
30 45 30
30 45 30
48 48 48
48 48 48
48 48 48
48 48 48
48 48 48
48 48 48
30 45 30
30 45 30
30 45 30
30 45 30
30 45 30
30 45 30
30 45 30
48 48 48
30 45 30
30 45 30
30 45 30
48 48 48
48 48 48
48 48 48
48 48 48
48 48 48
48 48 48
30 45 30
30 45 30
30 45 30
30 45 30
30 45 30
30 45 30
30 45 30
48 48 48
48 48 48
48 48 48
48 48 48
48 48 48
48 48 48
30 45 30
30 45 30
30 45 30
30 45 30
30 45 30
30 45 30
30 45 30
48 48 48
48 48 48
48 48 48
48 48 48
48 48 48
48 48 48
30 45 30
30 45 30
30 45 30
30 45 30
30 45 30
30 45 30
30 45 30
48 48 48
48 48 48
48 48 48
48 48 48
48 48 48
48 48 48
30 45 30
30 45 30
30 45 30
30 45 30
30 45 30
30 45 30
48 48 48
48 48 48
48 48 48
48 48 48
48 48 48
48 48 48
48 48 48
30 45 30
30 45 30
30 45 30
30 45 30
30 45 30
30 45 30
48 48 48
48 48 48
48 48 48
48 48 48
48 48 48
48 48 48
48 48 48
30 45 30
30 45 30
30 45 30
30 45 30
30 45 30
30 45 30
48 48 48
48 48 48
48 48 48
48 48 48
48 48 48
48 48 48
48 48 48
30 45 30
30 45 30
30 45 30
30 45 30
30 45 30
30 45 30
48 48 48
48 48 48
48 48 48
15 45 15
15 45 15
15 45 15
15 45 15
15 45 15
33 48 33
33 48 33
33 48 33
33 48 33
33 48 33
33 48 33
15 45 15
15 45 15
15 45 15
15 45 15
15 45 15
15 45 15
33 48 33
33 48 33
33 48 33
33 48 33
33 48 33
33 48 33
15 45 15
15 45 15
15 45 15
15 45 15
15 45 15
15 45 15
15 45 15
33 48 33
33 48 33
33 48 33
33 48 33
33 48 33
33 48 33
15 45 15
15 45 15
15 45 15
15 45 15
15 45 15
15 45 15
33 48 33
33 48 33
33 48 33
33 48 33
33 48 33
33 48 33
15 45 15
15 45 15
15 45 15
15 45 15
15 45 15
15 45 15
33 48 33
33 48 33
33 48 33
33 48 33
33 48 33
33 48 33
15 45 15
15 45 15
15 45 15
15 45 15
15 45 15
15 45 15
33 48 33
33 48 33
33 48 33
33 48 33
33 48 33
33 48 33
33 48 33
15 45 15
15 45 15
15 45 15
15 45 15
15 45 15
15 45 15
33 48 33
33 48 33
33 48 33
33 48 33
33 48 33
33 48 33
15 45 15
15 45 15
15 45 15
15 45 15
15 45 15
15 45 15
33 48 33
33 48 33
33 48 33
33 48 33
33 48 33
