P3
80 45
255
25 25 25
25 25 25
28 28 28
28 28 28
28 28 28
28 28 28
25 25 25
25 25 25
25 25 25
25 25 25
28 28 28
28 28 28
28 28 28
28 28 28
25 25 25
25 25 25
25 25 25
25 25 25
28 28 28
28 28 28
28 28 28
28 28 28
25 25 25
25 25 25
25 25 25
25 25 25
28 28 28
28 28 28
28 28 28
28 28 28
25 25 25
25 25 25
25 25 25
25 25 25
28 28 28
28 28 28
28 28 28
28 28 28
25 25 25
25 25 25
25 25 25
25 25 25
28 28 28
28 28 28
28 28 28
28 28 28
25 25 25
25 25 25
25 25 25
25 25 25
28 28 28
28 28 28
28 28 28
28 28 28
25 25 25
25 25 25
25 25 25
25 25 25
28 28 28
28 28 28
28 28 28
28 28 28
25 25 25
25 25 25
25 25 25
25 25 25
28 28 28
28 28 28
28 28 28
28 28 28
25 25 25
25 25 25
25 25 25
25 25 25
28 28 28
28 28 28
28 28 28
28 28 28
25 25 25
25 25 25
28 28 28
2 2 2
51 51 51
28 28 28
2 2 2
51 51 51
28 28 28
2 2 2
51 51 51
28 28 28
2 2 2
51 51 51
28 28 28
2 2 2
51 51 51
28 28 28
2 2 2
51 51 51
28 28 28
2 2 2
25 25 25
51 51 51
2 2 2
25 25 25
51 51 51
2 2 2
25 25 25
51 51 51
2 2 2
25 25 25
51 51 51
2 2 2
25 25 25
51 51 51
2 2 2
25 25 25
51 51 51
2 2 2
25 25 25
51 51 51
2 2 2
25 25 25
51 51 51
2 2 2
25 25 25
51 51 51
2 2 2
25 25 25
51 51 51
2 2 2
25 25 25
51 51 51
2 2 2
25 25 25
51 51 51
2 2 2
25 25 25
51 51 51
2 2 2
25 25 25
51 51 51
28 28 28
2 2 2
51 51 51
28 28 28
2 2 2
51 51 51
28 28 28
2 2 2
51 51 51
28 28 28
2 2 2
51 51 51
28 28 28
2 2 2
51 51 51
28 28 28
2 2 2
51 51 51
28 28 28
28 28 28
25 25 25
28 28 28
25 25 25
2 2 2
28 28 28
25 25 25
28 28 28
25 25 25
25 25 25
28 28 28
25 25 25
28 28 28
51 51 51
25 25 25
28 28 28
25 25 25
28 28 28
28 28 28
25 25 25
28 28 28
25 25 25
25 25 25
28 28 28
25 25 25
28 28 28
25 25 25
25 25 25
28 28 28
25 25 25
28 28 28
28 28 28
25 25 25
28 28 28
25 25 25
2 2 2
28 28 28
25 25 25
28 28 28
25 25 25
25 25 25
28 28 28
25 25 25
28 28 28
51 51 51
25 25 25
28 28 28
25 25 25
28 28 28
28 28 28
25 25 25
28 28 28
25 25 25
25 25 25
28 28 28
25 25 25
28 28 28
25 25 25
25 25 25
28 28 28
25 25 25
28 28 28
28 28 28
25 25 25
28 28 28
25 25 25
2 2 2
28 28 28
25 25 25
28 28 28
25 25 25
25 25 25
28 28 28
25 25 25
28 28 28
51 51 51
25 25 25
28 28 28
25 25 25
28 28 28
25 25 25
25 25 25
2 2 2
2 2 2
2 2 2
2 2 2
2 2 2
28 28 28
28 28 28
28 28 28
28 28 28
28 28 28
28 28 28
28 28 28
28 28 28
28 28 28
28 28 28
51 51 51
51 51 51
51 51 51
51 51 51
25 25 25
25 25 25
25 25 25
25 25 25
25 25 25
25 25 25
25 25 25
25 25 25
25 25 25
25 25 25
2 2 2
2 2 2
2 2 2
2 2 2
28 28 28
28 28 28
28 28 28
28 28 28
28 28 28
28 28 28
28 28 28
28 28 28
28 28 28
28 28 28
51 51 51
51 51 51
51 51 51
51 51 51
25 25 25
25 25 25
25 25 25
25 25 25
25 25 25
25 25 25
25 25 25
25 25 25
25 25 25
25 25 25
2 2 2
2 2 2
2 2 2
2 2 2
28 28 28
28 28 28
28 28 28
28 28 28
28 28 28
28 28 28
28 28 28
28 28 28
28 28 28
28 28 28
51 51 51
51 51 51
51 51 51
51 51 51
51 51 51
25 25 25
25 25 25
28 28 28
25 25 25
28 28 28
25 25 25
25 25 25
28 28 28
25 25 25
28 28 28
28 28 28
25 25 25
28 28 28
25 25 25
25 25 25
28 28 28
25 25 25
28 28 28
28 28 28
25 25 25
28 28 28
25 25 25
25 25 25
28 28 28
25 25 25
28 28 28
28 28 28
25 25 25
28 28 28
25 25 25
25 25 25
28 28 28
25 25 25
28 28 28
28 28 28
25 25 25
28 28 28
25 25 25
25 25 25
28 28 28
26 26 26
28 28 28
28 28 28
26 26 26
28 28 28
26 26 26
26 26 26
28 28 28
26 26 26
28 28 28
28 28 28
25 25 25
28 28 28
25 25 25
25 25 25
28 28 28
25 25 25
28 28 28
28 28 28
25 25 25
28 28 28
25 25 25
25 25 25
28 28 28
25 25 25
28 28 28
28 28 28
25 25 25
28 28 28
25 25 25
25 25 25
28 28 28
25 25 25
28 28 28
28 28 28
25 25 25
28 28 28
25 25 25
25 25 25
28 28 28
25 25 25
28 28 28
28 28 28
28 28 28
25 25 25
25 25 25
25 25 25
28 28 28
28 28 28
28 28 28
25 25 25
25 25 25
25 25 25
28 28 28
28 28 28
28 28 28
25 25 25
25 25 25
25 25 25
28 28 28
28 28 28
28 28 28
25 25 25
25 25 25
25 25 25
28 28 28
28 28 28
28 28 28
25 25 25
25 25 25
25 25 25
28 28 28
28 28 28
28 28 28
25 25 25
25 25 25
25 25 25
28 28 28
28 28 28
28 28 28
2 2 2
26 26 26
26 26 26
52 52 52
28 28 28
28 28 28
28 28 28
26 26 26
26 26 26
26 26 26
28 28 28
28 28 28
28 28 28
25 25 25
25 25 25
25 25 25
28 28 28
28 28 28
28 28 28
25 25 25
25 25 25
25 25 25
28 28 28
28 28 28
28 28 28
25 25 25
25 25 25
25 25 25
28 28 28
28 28 28
28 28 28
25 25 25
25 25 25
25 25 25
28 28 28
28 28 28
28 28 28
25 25 25
25 25 25
25 25 25
28 28 28
28 28 28
2 2 2
51 51 51
2 2 2
2 2 2
51 51 51
2 2 2
2 2 2
51 51 51
2 2 2
51 51 51
51 51 51
2 2 2
51 51 51
51 51 51
2 2 2
51 51 51
51 51 51
2 2 2
51 51 51
51 51 51
2 2 2
51 51 51
51 51 51
2 2 2
51 51 51
2 2 2
2 2 2
51 51 51
2 2 2
2 2 2
51 51 51
2 2 2
2 2 2
51 51 51
2 2 2
2 2 2
52 52 52
2 2 2
2 2 2
52 52 52
2 2 2
52 52 52
52 52 52
2 2 2
52 52 52
52 52 52
2 2 2
52 52 52
52 52 52
2 2 2
52 52 52
52 52 52
2 2 2
52 52 52
51 51 51
2 2 2
51 51 51
2 2 2
2 2 2
51 51 51
2 2 2
2 2 2
51 51 51
2 2 2
2 2 2
51 51 51
2 2 2
2 2 2
51 51 51
2 2 2
2 2 2
51 51 51
2 2 2
51 51 51
51 51 51
2 2 2
51 51 51
51 51 51
2 2 2
51 51 51
2 2 2
2 2 2
28 28 28
28 28 28
28 28 28
51 51 51
51 51 51
25 25 25
25 25 25
2 2 2
2 2 2
28 28 28
28 28 28
28 28 28
51 51 51
51 51 51
25 25 25
25 25 25
25 25 25
2 2 2
28 28 28
28 28 28
28 28 28
51 51 51
51 51 51
25 25 25
25 25 25
25 25 25
2 2 2
2 2 2
28 28 28
28 28 28
52 52 52
52 52 52
26 26 26
26 26 26
26 26 26
2 2 2
2 2 2
28 28 28
28 28 28
52 52 52
52 52 52
26 26 26
26 26 26
26 26 26
2 2 2
2 2 2
28 28 28
28 28 28
52 52 52
52 52 52
26 26 26
26 26 26
26 26 26
2 2 2
2 2 2
28 28 28
28 28 28
28 28 28
51 51 51
25 25 25
25 25 25
25 25 25
2 2 2
2 2 2
28 28 28
28 28 28
28 28 28
51 51 51
51 51 51
25 25 25
25 25 25
2 2 2
2 2 2
28 28 28
28 28 28
28 28 28
51 51 51
51 51 51
51 51 51
2 2 2
51 51 51
2 2 2
51 51 51
2 2 2
51 51 51
2 2 2
51 51 51
2 2 2
28 28 28
25 25 25
28 28 28
25 25 25
28 28 28
25 25 25
28 28 28
51 51 51
2 2 2
51 51 51
2 2 2
51 51 51
2 2 2
51 51 51
2 2 2
51 51 51
2 2 2
51 51 51
25 25 25
28 28 28
26 26 26
28 28 28
26 26 26
28 28 28
26 26 26
2 2 2
52 52 52
2 2 2
52 52 52
2 2 2
52 52 52
2 2 2
52 52 52
2 2 2
52 52 52
26 26 26
28 28 28
26 26 26
28 28 28
26 26 26
28 28 28
26 26 26
2 2 2
52 52 52
2 2 2
52 52 52
2 2 2
52 52 52
2 2 2
51 51 51
2 2 2
51 51 51
2 2 2
28 28 28
25 25 25
28 28 28
25 25 25
28 28 28
25 25 25
28 28 28
51 51 51
2 2 2
51 51 51
2 2 2
51 51 51
2 2 2
51 51 51
2 2 2
51 51 51
2 2 2
51 51 51
51 51 51
51 51 51
25 25 25
25 25 25
2 2 2
2 2 2
2 2 2
2 2 2
28 28 28
28 28 28
51 51 51
51 51 51
51 51 51
51 51 51
25 25 25
25 25 25
2 2 2
2 2 2
2 2 2
2 2 2
28 28 28
28 28 28
51 51 51
51 51 51
51 51 51
51 51 51
26 26 26
26 26 26
2 2 2
2 2 2
2 2 2
2 2 2
28 28 28
28 28 28
52 52 52
52 52 52
52 52 52
52 52 52
26 26 26
26 26 26
2 2 2
2 2 2
2 2 2
2 2 2
28 28 28
28 28 28
52 52 52
52 52 52
52 52 52
52 52 52
26 26 26
26 26 26
2 2 2
2 2 2
2 2 2
2 2 2
28 28 28
28 28 28
52 52 52
51 51 51
51 51 51
51 51 51
25 25 25
25 25 25
2 2 2
2 2 2
2 2 2
2 2 2
28 28 28
28 28 28
51 51 51
51 51 51
51 51 51
51 51 51
25 25 25
25 25 25
2 2 2
2 2 2
2 2 2
28 28 28
25 25 25
25 25 25
28 28 28
28 28 28
25 25 25
51 51 51
28 28 28
2 2 2
25 25 25
28 28 28
28 28 28
25 25 25
25 25 25
28 28 28
2 2 2
25 25 25
51 51 51
28 28 28
26 26 26
26 26 26
28 28 28
28 28 28
25 25 25
51 51 51
28 28 28
2 2 2
26 26 26
28 28 28
28 28 28
26 26 26
26 26 26
28 28 28
2 2 2
26 26 26
52 52 52
28 28 28
2 2 2
26 26 26
29 29 29
29 29 29
26 26 26
52 52 52
29 29 29
2 2 2
26 26 26
52 52 52
29 29 29
26 26 26
26 26 26
28 28 28
28 28 28
26 26 26
52 52 52
28 28 28
2 2 2
26 26 26
28 28 28
28 28 28
26 26 26
26 26 26
28 28 28
2 2 2
25 25 25
51 51 51
28 28 28
25 25 25
25 25 25
28 28 28
28 28 28
25 25 25
51 51 51
28 28 28
2 2 2
25 25 25
28 28 28
28 28 28
25 25 25
25 25 25
28 28 28
25 25 25
28 28 28
25 25 25
28 28 28
28 28 28
25 25 25
28 28 28
25 25 25
28 28 28
28 28 28
25 25 25
28 28 28
25 25 25
25 25 25
28 28 28
25 25 25
28 28 28
2 2 2
26 26 26
28 28 28
26 26 26
28 28 28
28 28 28
26 26 26
28 28 28
26 26 26
52 52 52
28 28 28
26 26 26
28 28 28
26 26 26
26 26 26
28 28 28
26 26 26
28 28 28
2 2 2
26 26 26
29 29 29
26 26 26
29 29 29
29 29 29
26 26 26
29 29 29
26 26 26
53 53 53
29 29 29
26 26 26
29 29 29
26 26 26
26 26 26
28 28 28
26 26 26
28 28 28
2 2 2
26 26 26
28 28 28
26 26 26
28 28 28
28 28 28
26 26 26
28 28 28
26 26 26
52 52 52
28 28 28
25 25 25
28 28 28
25 25 25
25 25 25
28 28 28
25 25 25
28 28 28
28 28 28
25 25 25
28 28 28
25 25 25
28 28 28
28 28 28
25 25 25
28 28 28
25 25 25
25 25 25
25 25 25
25 25 25
28 28 28
28 28 28
28 28 28
28 28 28
28 28 28
28 28 28
28 28 28
25 25 25
25 25 25
25 25 25
25 25 25
25 25 25
26 26 26
26 26 26
28 28 28
28 28 28
28 28 28
28 28 28
28 28 28
28 28 28
26 26 26
26 26 26
26 26 26
26 26 26
26 26 26
26 26 26
26 26 26
28 28 28
28 28 28
28 28 28
28 28 28
29 29 29
29 29 29
29 29 29
26 26 26
26 26 26
26 26 26
26 26 26
26 26 26
26 26 26
29 29 29
29 29 29
29 29 29
29 29 29
29 29 29
29 29 29
29 29 29
26 26 26
26 26 26
26 26 26
26 26 26
26 26 26
26 26 26
26 26 26
28 28 28
28 28 28
28 28 28
28 28 28
28 28 28
28 28 28
26 26 26
26 26 26
25 25 25
25 25 25
25 25 25
25 25 25
25 25 25
28 28 28
28 28 28
28 28 28
28 28 28
28 28 28
28 28 28
28 28 28
25 25 25
25 25 25
25 25 25
2 2 2
51 51 51
51 51 51
2 2 2
2 2 2
25 25 25
51 51 51
51 51 51
2 2 2
2 2 2
51 51 51
51 51 51
28 28 28
2 2 2
2 2 2
52 52 52
52 52 52
2 2 2
2 2 2
26 26 26
52 52 52
28 28 28
2 2 2
2 2 2
52 52 52
52 52 52
2 2 2
2 2 2
26 26 26
52 52 52
52 52 52
2 2 2
2 2 2
52 52 52
52 52 52
29 29 29
2 2 2
2 2 2
53 53 53
53 53 53
2 2 2
2 2 2
53 53 53
53 53 53
29 29 29
2 2 2
2 2 2
53 53 53
53 53 53
2 2 2
2 2 2
26 26 26
52 52 52
52 52 52
2 2 2
2 2 2
52 52 52
52 52 52
28 28 28
2 2 2
26 26 26
52 52 52
52 52 52
2 2 2
2 2 2
52 52 52
51 51 51
28 28 28
2 2 2
2 2 2
51 51 51
51 51 51
2 2 2
2 2 2
25 25 25
51 51 51
51 51 51
2 2 2
2 2 2
51 51 51
51 51 51
28 28 28
25 25 25
28 28 28
25 25 25
28 28 28
25 25 25
28 28 28
25 25 25
28 28 28
25 25 25
28 28 28
25 25 25
28 28 28
26 26 26
28 28 28
26 26 26
52 52 52
2 2 2
52 52 52
2 2 2
52 52 52
2 2 2
52 52 52
2 2 2
52 52 52
2 2 2
52 52 52
2 2 2
52 52 52
2 2 2
52 52 52
2 2 2
53 53 53
2 2 2
53 53 53
2 2 2
53 53 53
2 2 2
54 54 54
2 2 2
54 54 54
2 2 2
54 54 54
2 2 2
53 53 53
2 2 2
53 53 53
2 2 2
53 53 53
2 2 2
53 53 53
2 2 2
52 52 52
2 2 2
52 52 52
2 2 2
52 52 52
2 2 2
52 52 52
2 2 2
52 52 52
2 2 2
26 26 26
28 28 28
26 26 26
28 28 28
25 25 25
28 28 28
25 25 25
28 28 28
25 25 25
28 28 28
25 25 25
28 28 28
25 25 25
28 28 28
25 25 25
28 28 28
2 2 2
28 28 28
25 25 25
25 25 25
28 28 28
28 28 28
25 25 25
25 25 25
28 28 28
28 28 28
25 25 25
25 25 25
28 28 28
28 28 28
26 26 26
26 26 26
28 28 28
28 28 28
26 26 26
26 26 26
28 28 28
28 28 28
26 26 26
26 26 26
28 28 28
28 28 28
26 26 26
26 26 26
29 29 29
29 29 29
26 26 26
26 26 26
29 29 29
29 29 29
26 26 26
26 26 26
29 29 29
29 29 29
26 26 26
27 27 27
30 30 30
30 30 30
27 27 27
27 27 27
30 30 30
29 29 29
27 27 27
27 27 27
29 29 29
29 29 29
26 26 26
26 26 26
29 29 29
29 29 29
26 26 26
26 26 26
28 28 28
28 28 28
26 26 26
26 26 26
28 28 28
28 28 28
26 26 26
26 26 26
28 28 28
28 28 28
26 26 26
26 26 26
28 28 28
28 28 28
25 25 25
25 25 25
28 28 28
28 28 28
25 25 25
25 25 25
28 28 28
28 28 28
25 25 25
25 25 25
28 28 28
51 51 51
51 51 51
51 51 51
51 51 51
51 51 51
51 51 51
51 51 51
51 51 51
51 51 51
51 51 51
52 52 52
52 52 52
52 52 52
52 52 52
52 52 52
52 52 52
52 52 52
52 52 52
52 52 52
52 52 52
52 52 52
52 52 52
52 52 52
52 52 52
52 52 52
52 52 52
53 53 53
53 53 53
53 53 53
53 53 53
53 53 53
53 53 53
53 53 53
53 53 53
26 26 26
27 27 27
27 27 27
27 27 27
27 27 27
27 27 27
27 27 27
27 27 27
27 27 27
27 27 27
27 27 27
27 27 27
2 2 2
2 2 2
2 2 2
2 2 2
2 2 2
2 2 2
2 2 2
2 2 2
2 2 2
2 2 2
2 2 2
2 2 2
2 2 2
2 2 2
2 2 2
2 2 2
2 2 2
2 2 2
2 2 2
2 2 2
2 2 2
2 2 2
2 2 2
2 2 2
2 2 2
2 2 2
2 2 2
2 2 2
2 2 2
2 2 2
2 2 2
2 2 2
2 2 2
2 2 2
51 51 51
25 25 25
2 2 2
28 28 28
51 51 51
51 51 51
25 25 25
2 2 2
28 28 28
52 52 52
26 26 26
2 2 2
28 28 28
52 52 52
52 52 52
26 26 26
2 2 2
28 28 28
52 52 52
26 26 26
2 2 2
28 28 28
52 52 52
52 52 52
26 26 26
2 2 2
29 29 29
53 53 53
26 26 26
2 2 2
29 29 29
54 54 54
53 53 53
26 26 26
2 2 2
29 29 29
54 54 54
27 27 27
2 2 2
2 2 2
56 56 56
56 56 56
28 28 28
2 2 2
30 30 30
55 55 55
27 27 27
2 2 2
2 2 2
29 29 29
53 53 53
26 26 26
2 2 2
29 29 29
53 53 53
26 26 26
2 2 2
2 2 2
28 28 28
52 52 52
26 26 26
2 2 2
28 28 28
52 52 52
26 26 26
2 2 2
2 2 2
28 28 28
52 52 52
26 26 26
2 2 2
28 28 28
51 51 51
25 25 25
2 2 2
2 2 2
28 28 28
51 51 51
25 25 25
2 2 2
28 28 28
25 25 25
28 28 28
25 25 25
28 28 28
25 25 25
28 28 28
25 25 25
26 26 26
28 28 28
26 26 26
28 28 28
26 26 26
28 28 28
26 26 26
28 28 28
28 28 28
26 26 26
28 28 28
26 26 26
28 28 28
26 26 26
29 29 29
26 26 26
26 26 26
29 29 29
26 26 26
29 29 29
26 26 26
29 29 29
27 27 27
29 29 29
30 30 30
27 27 27
29 29 29
27 27 27
30 30 30
27 27 27
30 30 30
28 28 28
29 29 29
31 31 31
28 28 28
31 31 31
28 28 28
30 30 30
27 27 27
30 30 30
29 29 29
27 27 27
29 29 29
26 26 26
29 29 29
26 26 26
29 29 29
26 26 26
26 26 26
29 29 29
26 26 26
28 28 28
26 26 26
28 28 28
26 26 26
28 28 28
28 28 28
26 26 26
28 28 28
26 26 26
28 28 28
26 26 26
28 28 28
26 26 26
25 25 25
28 28 28
25 25 25
28 28 28
25 25 25
28 28 28
25 25 25
28 28 28
2 2 2
51 51 51
25 25 25
2 2 2
51 51 51
2 2 2
28 28 28
52 52 52
2 2 2
28 28 28
26 26 26
2 2 2
52 52 52
26 26 26
2 2 2
52 52 52
2 2 2
28 28 28
52 52 52
2 2 2
28 28 28
52 52 52
2 2 2
52 52 52
26 26 26
2 2 2
53 53 53
26 26 26
2 2 2
53 53 53
2 2 2
30 30 30
54 54 54
2 2 2
30 30 30
55 55 55
2 2 2
57 57 57
28 28 28
2 2 2
60 60 60
30 30 30
2 2 2
57 57 57
2 2 2
30 30 30
55 55 55
2 2 2
30 30 30
54 54 54
2 2 2
53 53 53
26 26 26
2 2 2
53 53 53
26 26 26
2 2 2
52 52 52
2 2 2
28 28 28
52 52 52
2 2 2
28 28 28
52 52 52
2 2 2
52 52 52
26 26 26
2 2 2
52 52 52
26 26 26
28 28 28
52 52 52
2 2 2
28 28 28
51 51 51
2 2 2
51 51 51
25 25 25
2 2 2
51 51 51
25 25 25
25 25 25
51 51 51
28 28 28
28 28 28
2 2 2
26 26 26
26 26 26
52 52 52
28 28 28
28 28 28
2 2 2
26 26 26
26 26 26
52 52 52
28 28 28
28 28 28
2 2 2
26 26 26
26 26 26
52 52 52
29 29 29
29 29 29
2 2 2
26 26 26
26 26 26
53 53 53
29 29 29
29 29 29
2 2 2
27 27 27
27 27 27
55 55 55
30 30 30
31 31 31
2 2 2
29 29 29
29 29 29
60 60 60
33 33 33
35 35 35
3 3 3
30 30 30
29 29 29
57 57 57
31 31 31
30 30 30
2 2 2
27 27 27
27 27 27
54 54 54
29 29 29
29 29 29
2 2 2
26 26 26
26 26 26
53 53 53
29 29 29
29 29 29
2 2 2
26 26 26
26 26 26
52 52 52
28 28 28
28 28 28
2 2 2
26 26 26
26 26 26
52 52 52
28 28 28
28 28 28
2 2 2
26 26 26
26 26 26
51 51 51
28 28 28
28 28 28
2 2 2
25 25 25
25 25 25
2 2 2
2 2 2
2 2 2
2 2 2
2 2 2
2 2 2
2 2 2
2 2 2
2 2 2
2 2 2
2 2 2
2 2 2
2 2 2
28 28 28
28 28 28
52 52 52
52 52 52
52 52 52
52 52 52
52 52 52
52 52 52
52 52 52
52 52 52
53 53 53
53 53 53
53 53 53
53 53 53
53 53 53
53 53 53
54 54 54
54 54 54
55 55 55
55 55 55
56 56 56
57 57 57
58 58 58
60 60 60
62 62 62
63 63 63
34 34 34
37 37 37
3 3 3
3 3 3
3 3 3
2 2 2
2 2 2
2 2 2
2 2 2
2 2 2
2 2 2
2 2 2
2 2 2
2 2 2
2 2 2
2 2 2
2 2 2
2 2 2
2 2 2
2 2 2
2 2 2
2 2 2
2 2 2
2 2 2
2 2 2
2 2 2
28 28 28
28 28 28
52 52 52
52 52 52
52 52 52
52 52 52
52 52 52
52 52 52
52 52 52
52 52 52
51 51 51
51 51 51
51 51 51
51 51 51
51 51 51
2 2 2
51 51 51
51 51 51
51 51 51
2 2 2
2 2 2
52 52 52
52 52 52
52 52 52
2 2 2
2 2 2
2 2 2
52 52 52
52 52 52
2 2 2
2 2 2
2 2 2
52 52 52
52 52 52
2 2 2
2 2 2
2 2 2
53 53 53
53 53 53
53 53 53
2 2 2
2 2 2
53 53 53
54 54 54
54 54 54
2 2 2
2 2 2
55 55 55
56 56 56
57 57 57
2 2 2
3 3 3
64 64 64
72 72 72
97 97 97
5 5 5
3 3 3
3 3 3
61 61 61
59 59 59
2 2 2
2 2 2
2 2 2
55 55 55
54 54 54
2 2 2
2 2 2
2 2 2
53 53 53
53 53 53
2 2 2
2 2 2
2 2 2
52 52 52
52 52 52
52 52 52
2 2 2
2 2 2
52 52 52
52 52 52
52 52 52
2 2 2
2 2 2
52 52 52
52 52 52
52 52 52
2 2 2
2 2 2
2 2 2
52 52 52
52 52 52
2 2 2
2 2 2
2 2 2
51 51 51
2 2 2
51 51 51
25 25 25
28 28 28
52 52 52
26 26 26
28 28 28
52 52 52
2 2 2
28 28 28
26 26 26
2 2 2
28 28 28
26 26 26
2 2 2
52 52 52
26 26 26
28 28 28
52 52 52
26 26 26
29 29 29
52 52 52
2 2 2
29 29 29
26 26 26
2 2 2
53 53 53
26 26 26
29 29 29
54 54 54
27 27 27
30 30 30
55 55 55
2 2 2
31 31 31
29 29 29
3 3 3
35 35 35
36 36 36
4 4 4
96 96 96
37 37 37
36 36 36
61 61 61
29 29 29
31 31 31
56 56 56
2 2 2
30 30 30
27 27 27
2 2 2
29 29 29
26 26 26
2 2 2
53 53 53
26 26 26
29 29 29
53 53 53
2 2 2
29 29 29
26 26 26
2 2 2
28 28 28
26 26 26
2 2 2
52 52 52
26 26 26
28 28 28
52 52 52
26 26 26
28 28 28
52 52 52
2 2 2
28 28 28
26 26 26
2 2 2
28 28 28
25 25 25
2 2 2
51 51 51
51 51 51
2 2 2
51 51 51
2 2 2
52 52 52
2 2 2
52 52 52
2 2 2
52 52 52
2 2 2
52 52 52
2 2 2
52 52 52
2 2 2
52 52 52
2 2 2
52 52 52
2 2 2
52 52 52
2 2 2
52 52 52
2 2 2
53 53 53
2 2 2
29 29 29
26 26 26
29 29 29
26 26 26
2 2 2
54 54 54
2 2 2
55 55 55
2 2 2
56 56 56
2 2 2
58 58 58
3 3 3
63 63 63
3 3 3
72 72 72
3 3 3
68 68 68
3 3 3
60 60 60
2 2 2
57 57 57
2 2 2
55 55 55
2 2 2
54 54 54
2 2 2
54 54 54
26 26 26
29 29 29
26 26 26
29 29 29
53 53 53
2 2 2
53 53 53
2 2 2
52 52 52
2 2 2
52 52 52
2 2 2
52 52 52
2 2 2
52 52 52
2 2 2
52 52 52
2 2 2
52 52 52
2 2 2
52 52 52
2 2 2
52 52 52
2 2 2
52 52 52
2 2 2
51 51 51
2 2 2
51 51 51
2 2 2
52 52 52
52 52 52
2 2 2
52 52 52
52 52 52
2 2 2
52 52 52
52 52 52
2 2 2
52 52 52
52 52 52
2 2 2
52 52 52
52 52 52
2 2 2
52 52 52
52 52 52
2 2 2
52 52 52
53 53 53
2 2 2
53 53 53
53 53 53
2 2 2
53 53 53
53 53 53
2 2 2
54 54 54
54 54 54
2 2 2
55 55 55
56 56 56
2 2 2
58 58 58
59 59 59
3 3 3
34 34 34
65 65 65
3 3 3
35 35 35
61 61 61
2 2 2
2 2 2
57 57 57
2 2 2
2 2 2
55 55 55
2 2 2
2 2 2
54 54 54
2 2 2
2 2 2
53 53 53
2 2 2
2 2 2
53 53 53
2 2 2
2 2 2
52 52 52
2 2 2
2 2 2
52 52 52
2 2 2
2 2 2
52 52 52
2 2 2
2 2 2
52 52 52
2 2 2
2 2 2
52 52 52
2 2 2
2 2 2
52 52 52
2 2 2
2 2 2
51 51 51
2 2 2
28 28 28
26 26 26
26 26 26
26 26 26
28 28 28
28 28 28
28 28 28
26 26 26
26 26 26
28 28 28
28 28 28
28 28 28
26 26 26
26 26 26
26 26 26
28 28 28
28 28 28
26 26 26
26 26 26
26 26 26
29 29 29
29 29 29
29 29 29
26 26 26
26 26 26
29 29 29
29 29 29
29 29 29
27 27 27
27 27 27
27 27 27
30 30 30
30 30 30
28 28 28
28 28 28
28 28 28
32 32 32
32 32 32
33 33 33
30 30 30
30 30 30
33 33 33
33 33 33
32 32 32
28 28 28
28 28 28
28 28 28
30 30 30
30 30 30
27 27 27
27 27 27
27 27 27
29 29 29
29 29 29
29 29 29
26 26 26
26 26 26
29 29 29
29 29 29
29 29 29
26 26 26
26 26 26
26 26 26
28 28 28
28 28 28
26 26 26
26 26 26
26 26 26
28 28 28
28 28 28
28 28 28
26 26 26
26 26 26
28 28 28
28 28 28
28 28 28
26 26 26
26 26 26
26 26 26
28 28 28
28 28 28
28 28 28
28 28 28
28 28 28
28 28 28
26 26 26
26 26 26
26 26 26
26 26 26
26 26 26
26 26 26
26 26 26
26 26 26
26 26 26
26 26 26
28 28 28
28 28 28
29 29 29
29 29 29
29 29 29
29 29 29
29 29 29
29 29 29
29 29 29
29 29 29
26 26 26
26 26 26
27 27 27
27 27 27
27 27 27
27 27 27
27 27 27
27 27 27
28 28 28
28 28 28
31 31 31
31 31 31
32 32 32
32 32 32
32 32 32
32 32 32
32 32 32
32 32 32
31 31 31
31 31 31
28 28 28
28 28 28
27 27 27
27 27 27
27 27 27
27 27 27
27 27 27
27 27 27
26 26 26
26 26 26
29 29 29
29 29 29
29 29 29
29 29 29
29 29 29
29 29 29
29 29 29
29 29 29
28 28 28
28 28 28
26 26 26
26 26 26
26 26 26
26 26 26
26 26 26
26 26 26
26 26 26
26 26 26
26 26 26
26 26 26
28 28 28
28 28 28
28 28 28
28 28 28
28 28 28
52 52 52
52 52 52
52 52 52
2 2 2
2 2 2
2 2 2
2 2 2
2 2 2
2 2 2
52 52 52
52 52 52
52 52 52
52 52 52
52 52 52
52 52 52
26 26 26
2 2 2
2 2 2
2 2 2
2 2 2
2 2 2
29 29 29
53 53 53
53 53 53
53 53 53
53 53 53
53 53 53
53 53 53
2 2 2
2 2 2
2 2 2
2 2 2
2 2 2
2 2 2
56 56 56
56 56 56
57 57 57
57 57 57
58 58 58
58 58 58
2 2 2
2 2 2
2 2 2
2 2 2
2 2 2
2 2 2
55 55 55
55 55 55
55 55 55
54 54 54
54 54 54
54 54 54
2 2 2
2 2 2
2 2 2
2 2 2
2 2 2
2 2 2
29 29 29
53 53 53
52 52 52
52 52 52
52 52 52
52 52 52
26 26 26
2 2 2
2 2 2
2 2 2
2 2 2
2 2 2
2 2 2
52 52 52
52 52 52
52 52 52
52 52 52
52 52 52
52 52 52
2 2 2
2 2 2
2 2 2
52 52 52
26 26 26
2 2 2
2 2 2
52 52 52
52 52 52
2 2 2
2 2 2
28 28 28
52 52 52
52 52 52
2 2 2
2 2 2
28 28 28
52 52 52
52 52 52
2 2 2
2 2 2
29 29 29
52 52 52
26 26 26
2 2 2
2 2 2
53 53 53
53 53 53
26 26 26
2 2 2
2 2 2
54 54 54
54 54 54
27 27 27
2 2 2
2 2 2
55 55 55
55 55 55
2 2 2
2 2 2
31 31 31
57 57 57
57 57 57
2 2 2
2 2 2
31 31 31
56 56 56
56 56 56
2 2 2
2 2 2
55 55 55
54 54 54
27 27 27
2 2 2
2 2 2
53 53 53
53 53 53
26 26 26
2 2 2
2 2 2
53 53 53
53 53 53
26 26 26
2 2 2
29 29 29
52 52 52
52 52 52
2 2 2
2 2 2
28 28 28
52 52 52
52 52 52
2 2 2
2 2 2
28 28 28
52 52 52
52 52 52
2 2 2
2 2 2
52 52 52
52 52 52
26 26 26
2 2 2
28 28 28
2 2 2
52 52 52
28 28 28
2 2 2
52 52 52
28 28 28
2 2 2
52 52 52
28 28 28
2 2 2
52 52 52
28 28 28
2 2 2
52 52 52
28 28 28
2 2 2
26 26 26
29 29 29
2 2 2
26 26 26
29 29 29
2 2 2
26 26 26
29 29 29
2 2 2
26 26 26
29 29 29
2 2 2
27 27 27
29 29 29
2 2 2
27 27 27
55 55 55
2 2 2
27 27 27
56 56 56
2 2 2
28 28 28
56 56 56
2 2 2
28 28 28
56 56 56
2 2 2
27 27 27
55 55 55
2 2 2
27 27 27
54 54 54
30 30 30
27 27 27
54 54 54
29 29 29
26 26 26
53 53 53
29 29 29
26 26 26
53 53 53
29 29 29
26 26 26
52 52 52
29 29 29
26 26 26
52 52 52
28 28 28
2 2 2
52 52 52
28 28 28
2 2 2
52 52 52
28 28 28
2 2 2
52 52 52
28 28 28
2 2 2
52 52 52
28 28 28
2 2 2
52 52 52
28 28 28
52 52 52
2 2 2
52 52 52
2 2 2
52 52 52
2 2 2
52 52 52
2 2 2
52 52 52
52 52 52
2 2 2
52 52 52
2 2 2
52 52 52
2 2 2
52 52 52
2 2 2
52 52 52
52 52 52
2 2 2
53 53 53
2 2 2
53 53 53
2 2 2
53 53 53
2 2 2
53 53 53
53 53 53
2 2 2
54 54 54
2 2 2
54 54 54
2 2 2
55 55 55
2 2 2
30 30 30
55 55 55
2 2 2
56 56 56
2 2 2
56 56 56
2 2 2
55 55 55
2 2 2
30 30 30
55 55 55
2 2 2
54 54 54
2 2 2
54 54 54
2 2 2
54 54 54
2 2 2
2 2 2
53 53 53
2 2 2
53 53 53
2 2 2
53 53 53
2 2 2
52 52 52
2 2 2
2 2 2
52 52 52
2 2 2
52 52 52
2 2 2
52 52 52
2 2 2
52 52 52
2 2 2
2 2 2
52 52 52
2 2 2
52 52 52
2 2 2
52 52 52
2 2 2
52 52 52
2 2 2
2 2 2
52 52 52
2 2 2
52 52 52
2 2 2
52 52 52
2 2 2
28 28 28
26 26 26
2 2 2
52 52 52
2 2 2
52 52 52
2 2 2
52 52 52
2 2 2
29 29 29
26 26 26
2 2 2
52 52 52
2 2 2
53 53 53
2 2 2
53 53 53
2 2 2
29 29 29
26 26 26
2 2 2
53 53 53
2 2 2
54 54 54
2 2 2
54 54 54
2 2 2
55 55 55
27 27 27
2 2 2
55 55 55
2 2 2
55 55 55
2 2 2
55 55 55
2 2 2
55 55 55
27 27 27
2 2 2
54 54 54
2 2 2
54 54 54
2 2 2
54 54 54
2 2 2
53 53 53
26 26 26
29 29 29
53 53 53
2 2 2
53 53 53
2 2 2
53 53 53
2 2 2
52 52 52
26 26 26
29 29 29
52 52 52
2 2 2
52 52 52
2 2 2
52 52 52
2 2 2
52 52 52
26 26 26
28 28 28
52 52 52
2 2 2
52 52 52
2 2 2
52 52 52
2 2 2
52 52 52
26 26 26
28 28 28
26 26 26
26 26 26
28 28 28
26 26 26
26 26 26
28 28 28
26 26 26
26 26 26
28 28 28
26 26 26
26 26 26
28 28 28
26 26 26
26 26 26
29 29 29
26 26 26
52 52 52
29 29 29
26 26 26
53 53 53
29 29 29
26 26 26
53 53 53
29 29 29
26 26 26
53 53 53
29 29 29
27 27 27
29 29 29
29 29 29
27 27 27
30 30 30
30 30 30
27 27 27
30 30 30
30 30 30
27 27 27
30 30 30
30 30 30
27 27 27
30 30 30
30 30 30
27 27 27
30 30 30
30 30 30
27 27 27
29 29 29
29 29 29
27 27 27
29 29 29
2 2 2
26 26 26
29 29 29
2 2 2
26 26 26
29 29 29
2 2 2
26 26 26
29 29 29
2 2 2
26 26 26
29 29 29
26 26 26
26 26 26
28 28 28
26 26 26
26 26 26
28 28 28
26 26 26
26 26 26
28 28 28
26 26 26
26 26 26
28 28 28
26 26 26
26 26 26
28 28 28
26 26 26
2 2 2
28 28 28
28 28 28
26 26 26
26 26 26
28 28 28
28 28 28
26 26 26
26 26 26
2 2 2
28 28 28
52 52 52
26 26 26
2 2 2
28 28 28
52 52 52
26 26 26
2 2 2
29 29 29
29 29 29
26 26 26
26 26 26
29 29 29
29 29 29
26 26 26
26 26 26
2 2 2
29 29 29
53 53 53
26 26 26
2 2 2
29 29 29
54 54 54
27 27 27
2 2 2
30 30 30
54 54 54
27 27 27
27 27 27
30 30 30
30 30 30
27 27 27
27 27 27
2 2 2
30 30 30
54 54 54
27 27 27
2 2 2
29 29 29
54 54 54
26 26 26
2 2 2
29 29 29
53 53 53
26 26 26
26 26 26
29 29 29
29 29 29
26 26 26
26 26 26
29 29 29
29 29 29
52 52 52
26 26 26
2 2 2
28 28 28
52 52 52
26 26 26
2 2 2
28 28 28
52 52 52
26 26 26
26 26 26
28 28 28
28 28 28
26 26 26
26 26 26
28 28 28
28 28 28
52 52 52
26 26 26
2 2 2
28 28 28
28 28 28
28 28 28
52 52 52
26 26 26
26 26 26
26 26 26
28 28 28
28 28 28
28 28 28
52 52 52
26 26 26
26 26 26
26 26 26
29 29 29
29 29 29
29 29 29
29 29 29
26 26 26
26 26 26
26 26 26
2 2 2
29 29 29
29 29 29
29 29 29
26 26 26
26 26 26
26 26 26
27 27 27
29 29 29
29 29 29
29 29 29
54 54 54
27 27 27
27 27 27
27 27 27
30 30 30
30 30 30
30 30 30
30 30 30
27 27 27
27 27 27
27 27 27
2 2 2
29 29 29
29 29 29
29 29 29
27 27 27
26 26 26
26 26 26
26 26 26
29 29 29
29 29 29
29 29 29
53 53 53
26 26 26
26 26 26
26 26 26
29 29 29
29 29 29
29 29 29
29 29 29
26 26 26
26 26 26
26 26 26
2 2 2
28 28 28
28 28 28
28 28 28
26 26 26
26 26 26
26 26 26
2 2 2
28 28 28
28 28 28
28 28 28
52 52 52
26 26 26
2 2 2
2 2 2
26 26 26
26 26 26
26 26 26
26 26 26
52 52 52
52 52 52
52 52 52
52 52 52
52 52 52
52 52 52
52 52 52
52 52 52
28 28 28
28 28 28
29 29 29
29 29 29
2 2 2
2 2 2
2 2 2
2 2 2
2 2 2
2 2 2
2 2 2
2 2 2
26 26 26
26 26 26
26 26 26
26 26 26
53 53 53
54 54 54
54 54 54
54 54 54
54 54 54
54 54 54
54 54 54
54 54 54
30 30 30
30 30 30
30 30 30
30 30 30
2 2 2
2 2 2
2 2 2
2 2 2
2 2 2
2 2 2
2 2 2
2 2 2
26 26 26
26 26 26
26 26 26
26 26 26
53 53 53
53 53 53
53 53 53
53 53 53
53 53 53
53 53 53
52 52 52
52 52 52
29 29 29
29 29 29
29 29 29
28 28 28
2 2 2
2 2 2
2 2 2
2 2 2
2 2 2
2 2 2
2 2 2
2 2 2
26 26 26
26 26 26
26 26 26
26 26 26
52 52 52
52 52 52
26 26 26
26 26 26
26 26 26
26 26 26
26 26 26
28 28 28
28 28 28
28 28 28
28 28 28
28 28 28
28 28 28
28 28 28
28 28 28
28 28 28
28 28 28
26 26 26
26 26 26
26 26 26
26 26 26
26 26 26
26 26 26
26 26 26
26 26 26
26 26 26
26 26 26
29 29 29
29 29 29
29 29 29
29 29 29
29 29 29
29 29 29
29 29 29
29 29 29
29 29 29
29 29 29
27 27 27
27 27 27
27 27 27
27 27 27
27 27 27
27 27 27
27 27 27
27 27 27
27 27 27
27 27 27
29 29 29
29 29 29
29 29 29
29 29 29
29 29 29
29 29 29
29 29 29
29 29 29
29 29 29
29 29 29
26 26 26
26 26 26
26 26 26
26 26 26
26 26 26
26 26 26
26 26 26
26 26 26
26 26 26
26 26 26
28 28 28
28 28 28
28 28 28
28 28 28
28 28 28
28 28 28
28 28 28
28 28 28
28 28 28
28 28 28
26 26 26
26 26 26
26 26 26
26 26 26
26 26 26
26 26 26
26 26 26
28 28 28
28 28 28
28 28 28
2 2 2
26 26 26
26 26 26
26 26 26
52 52 52
28 28 28
28 28 28
28 28 28
26 26 26
26 26 26
26 26 26
52 52 52
29 29 29
29 29 29
29 29 29
26 26 26
26 26 26
26 26 26
53 53 53
29 29 29
29 29 29
29 29 29
2 2 2
26 26 26
26 26 26
26 26 26
29 29 29
29 29 29
29 29 29
2 2 2
27 27 27
27 27 27
27 27 27
29 29 29
29 29 29
29 29 29
29 29 29
27 27 27
27 27 27
27 27 27
54 54 54
29 29 29
29 29 29
29 29 29
26 26 26
26 26 26
26 26 26
53 53 53
29 29 29
29 29 29
29 29 29
2 2 2
26 26 26
26 26 26
26 26 26
29 29 29
29 29 29
29 29 29
2 2 2
26 26 26
26 26 26
26 26 26
28 28 28
28 28 28
28 28 28
2 2 2
26 26 26
26 26 26
26 26 26
52 52 52
28 28 28
28 28 28
28 28 28
26 26 26
26 26 26
26 26 26
28 28 28
28 28 28
26 26 26
26 26 26
2 2 2
28 28 28
52 52 52
26 26 26
26 26 26
28 28 28
28 28 28
26 26 26
26 26 26
2 2 2
28 28 28
52 52 52
26 26 26
26 26 26
29 29 29
29 29 29
26 26 26
26 26 26
29 29 29
29 29 29
53 53 53
26 26 26
2 2 2
29 29 29
29 29 29
26 26 26
26 26 26
29 29 29
29 29 29
53 53 53
26 26 26
2 2 2
29 29 29
29 29 29
27 27 27
27 27 27
29 29 29
29 29 29
54 54 54
26 26 26
2 2 2
29 29 29
29 29 29
26 26 26
26 26 26
29 29 29
29 29 29
53 53 53
26 26 26
2 2 2
29 29 29
29 29 29
26 26 26
26 26 26
29 29 29
29 29 29
26 26 26
26 26 26
2 2 2
29 29 29
52 52 52
26 26 26
26 26 26
28 28 28
28 28 28
26 26 26
26 26 26
2 2 2
28 28 28
52 52 52
26 26 26
26 26 26
28 28 28
28 28 28
26 26 26
2 2 2
52 52 52
2 2 2
2 2 2
52 52 52
52 52 52
2 2 2
52 52 52
52 52 52
2 2 2
2 2 2
52 52 52
2 2 2
2 2 2
52 52 52
28 28 28
2 2 2
52 52 52
52 52 52
2 2 2
52 52 52
53 53 53
2 2 2
2 2 2
53 53 53
2 2 2
2 2 2
53 53 53
53 53 53
2 2 2
53 53 53
53 53 53
2 2 2
53 53 53
53 53 53
2 2 2
2 2 2
53 53 53
2 2 2
2 2 2
53 53 53
53 53 53
2 2 2
53 53 53
53 53 53
2 2 2
2 2 2
53 53 53
2 2 2
2 2 2
53 53 53
2 2 2
2 2 2
53 53 53
53 53 53
2 2 2
53 53 53
53 53 53
2 2 2
2 2 2
52 52 52
2 2 2
2 2 2
52 52 52
29 29 29
2 2 2
52 52 52
52 52 52
2 2 2
52 52 52
52 52 52
2 2 2
2 2 2
52 52 52
2 2 2
2 2 2
52 52 52
52 52 52
2 2 2
52 52 52
2 2 2
28 28 28
26 26 26
28 28 28
52 52 52
2 2 2
28 28 28
26 26 26
28 28 28
52 52 52
26 26 26
28 28 28
26 26 26
2 2 2
28 28 28
26 26 26
29 29 29
26 26 26
2 2 2
29 29 29
26 26 26
29 29 29
53 53 53
26 26 26
29 29 29
26 26 26
2 2 2
53 53 53
26 26 26
29 29 29
26 26 26
2 2 2
29 29 29
26 26 26
29 29 29
53 53 53
26 26 26
29 29 29
26 26 26
2 2 2
53 53 53
26 26 26
29 29 29
26 26 26
2 2 2
29 29 29
26 26 26
29 29 29
53 53 53
26 26 26
29 29 29
26 26 26
2 2 2
53 53 53
26 26 26
29 29 29
26 26 26
2 2 2
29 29 29
26 26 26
29 29 29
52 52 52
26 26 26
29 29 29
26 26 26
28 28 28
52 52 52
26 26 26
28 28 28
26 26 26
2 2 2
28 28 28
26 26 26
28 28 28
52 52 52
2 2 2
28 28 28
26 26 26
28 28 28
52 52 52
26 26 26
28 28 28
26 26 26
28 28 28
26 26 26
28 28 28
26 26 26
28 28 28
26 26 26
28 28 28
26 26 26
28 28 28
26 26 26
26 26 26
28 28 28
26 26 26
29 29 29
26 26 26
29 29 29
26 26 26
29 29 29
26 26 26
29 29 29
26 26 26
29 29 29
26 26 26
29 29 29
29 29 29
26 26 26
29 29 29
26 26 26
29 29 29
26 26 26
29 29 29
26 26 26
29 29 29
26 26 26
29 29 29
26 26 26
29 29 29
29 29 29
26 26 26
29 29 29
26 26 26
29 29 29
26 26 26
29 29 29
26 26 26
29 29 29
26 26 26
29 29 29
26 26 26
29 29 29
29 29 29
26 26 26
29 29 29
26 26 26
29 29 29
26 26 26
29 29 29
26 26 26
29 29 29
26 26 26
29 29 29
26 26 26
28 28 28
26 26 26
26 26 26
28 28 28
26 26 26
28 28 28
26 26 26
28 28 28
26 26 26
28 28 28
26 26 26
28 28 28
26 26 26
28 28 28
26 26 26
28 28 28
26 26 26
28 28 28
26 26 26
28 28 28
26 26 26
28 28 28
26 26 26
28 28 28
26 26 26
28 28 28
26 26 26
52 52 52
28 28 28
26 26 26
28 28 28
26 26 26
29 29 29
26 26 26
29 29 29
26 26 26
29 29 29
26 26 26
29 29 29
26 26 26
29 29 29
2 2 2
26 26 26
29 29 29
26 26 26
29 29 29
26 26 26
29 29 29
26 26 26
29 29 29
26 26 26
29 29 29
26 26 26
29 29 29
2 2 2
53 53 53
29 29 29
26 26 26
29 29 29
26 26 26
29 29 29
26 26 26
29 29 29
26 26 26
29 29 29
26 26 26
29 29 29
26 26 26
53 53 53
29 29 29
26 26 26
29 29 29
26 26 26
29 29 29
26 26 26
29 29 29
26 26 26
29 29 29
26 26 26
28 28 28
26 26 26
28 28 28
2 2 2
26 26 26
28 28 28
26 26 26
28 28 28
26 26 26
28 28 28
26 26 26
28 28 28
26 26 26
28 28 28
26 26 26
28 28 28
28 28 28
26 26 26
52 52 52
2 2 2
52 52 52
28 28 28
26 26 26
52 52 52
2 2 2
26 26 26
28 28 28
2 2 2
52 52 52
2 2 2
26 26 26
28 28 28
2 2 2
52 52 52
29 29 29
26 26 26
52 52 52
2 2 2
52 52 52
29 29 29
26 26 26
53 53 53
2 2 2
53 53 53
29 29 29
2 2 2
53 53 53
2 2 2
26 26 26
29 29 29
2 2 2
53 53 53
2 2 2
26 26 26
29 29 29
2 2 2
53 53 53
29 29 29
26 26 26
53 53 53
2 2 2
53 53 53
29 29 29
26 26 26
53 53 53
2 2 2
53 53 53
29 29 29
2 2 2
53 53 53
2 2 2
26 26 26
29 29 29
2 2 2
52 52 52
2 2 2
26 26 26
29 29 29
2 2 2
52 52 52
28 28 28
26 26 26
52 52 52
2 2 2
52 52 52
28 28 28
26 26 26
52 52 52
2 2 2
26 26 26
28 28 28
2 2 2
52 52 52
2 2 2
26 26 26
28 28 28
