P3
48 27
255
0 0 0
0 0 0
0 0 0
0 0 0
0 0 0
0 0 0
0 0 0
0 0 0
0 0 0
0 0 0
0 0 0
0 0 0
0 0 0
0 0 0
0 0 0
0 0 0
0 0 0
0 0 0
0 0 0
0 0 0
0 0 0
0 0 0
0 0 0
0 0 0
0 0 0
0 0 0
0 0 0
0 0 0
0 0 0
0 0 0
0 0 0
0 0 0
0 0 0
0 0 0
0 0 0
0 0 0
0 0 0
0 0 0
0 0 0
0 0 0
0 0 0
0 0 0
0 0 0
0 0 0
0 0 0
0 0 0
0 0 0
0 0 0
0 0 0
0 0 0
0 0 0
0 0 0
0 0 0
0 0 0
0 0 0
0 0 0
0 0 0
0 0 0
0 0 0
0 0 0
0 0 0
0 0 0
0 0 0
0 0 0
0 0 0
0 0 0
0 0 0
0 0 0
0 0 0
0 0 0
0 0 0
0 0 0
0 0 0
0 0 0
0 0 0
0 0 0
0 0 0
0 0 0
0 0 0
0 0 0
0 0 0
0 0 0
0 0 0
0 0 0
0 0 0
0 0 0
0 0 0
0 0 0
0 0 0
0 0 0
0 0 0
0 0 0
0 0 0
0 0 0
0 0 0
0 0 0
0 0 0
0 0 0
0 0 0
0 0 0
0 0 0
0 0 0
0 0 0
0 0 0
0 0 0
0 0 0
0 0 0
0 0 0
0 0 0
0 0 0
0 0 0
0 0 0
0 0 0
0 0 0
0 0 0
0 0 0
0 0 0
0 0 0
0 0 0
0 0 0
0 0 0
0 0 0
0 0 0
0 0 0
0 0 0
0 0 0
0 0 0
0 0 0
0 0 0
0 0 0
0 0 0
0 0 0
0 0 0
0 0 0
0 0 0
0 0 0
0 0 0
0 0 0
0 0 0
0 0 0
0 0 0
0 0 0
0 0 0
0 0 0
33 50 33
33 50 33
33 50 33
53 53 53
53 53 53
54 54 54
54 54 54
54 54 54
34 51 34
34 51 34
34 51 34
34 51 34
34 52 34
55 55 55
55 55 55
55 55 55
55 55 55
55 55 55
55 55 55
35 52 35
35 52 35
35 52 35
35 52 35
35 52 35
55 55 55
55 55 55
55 55 55
55 55 55
55 55 55
35 52 35
35 52 35
35 52 35
35 52 35
34 52 34
34 52 34
55 55 55
55 55 55
54 54 54
54 54 54
54 54 54
34 51 34
34 51 34
34 51 34
34 51 34
34 51 34
54 54 54
53 53 53
53 53 53
18 56 18
41 60 41
41 60 41
19 57 19
19 57 19
19 58 19
42 61 42
42 62 42
42 62 42
19 59 19
19 59 19
43 63 43
43 63 43
43 63 43
20 60 20
20 61 20
44 64 44
44 65 44
44 65 44
20 62 20
20 62 20
45 65 45
45 66 45
45 66 45
20 62 20
20 62 20
20 62 20
45 66 45
45 66 45
20 62 20
20 62 20
20 62 20
45 65 45
44 65 44
20 62 20
20 61 20
20 61 20
44 64 44
44 64 44
20 60 20
20 60 20
20 60 20
43 63 43
43 62 43
42 62 42
19 59 19
19 58 19
42 61 42
45 66 45
21 63 21
21 63 21
46 67 46
21 64 21
46 68 46
21 65 21
47 69 47
22 66 22
48 70 48
22 67 22
48 71 48
22 68 22
49 72 49
23 69 23
50 73 50
23 70 23
51 74 51
23 71 23
51 75 51
23 71 23
52 76 52
24 72 24
52 76 52
24 73 24
52 77 52
24 73 24
53 77 53
24 73 24
53 77 53
24 73 24
52 77 52
24 73 24
52 76 52
24 72 24
52 76 52
23 71 23
51 75 51
23 71 23
51 74 51
23 70 23
50 73 50
23 69 23
49 72 49
22 68 22
48 71 48
48 71 48
22 66 22
45 68 45
72 72 72
73 73 73
46 70 46
74 74 74
47 71 47
47 71 47
76 76 76
48 73 48
77 77 77
78 78 78
50 75 50
80 80 80
51 76 51
51 77 51
82 82 82
52 78 52
83 83 83
84 84 84
53 80 53
85 85 85
54 81 54
54 82 54
87 87 87
55 83 55
88 88 88
88 88 88
56 84 56
88 88 88
56 84 56
56 84 56
88 88 88
56 84 56
88 88 88
88 88 88
55 83 55
87 87 87
54 82 54
54 81 54
85 85 85
53 80 53
84 84 84
83 83 83
52 78 52
82 82 82
51 77 51
51 76 51
80 80 80
49 73 49
49 74 49
79 79 79
80 80 80
51 76 51
81 81 81
82 82 82
52 78 52
53 79 53
84 84 84
54 81 54
54 82 54
87 87 87
88 88 88
56 84 56
57 85 57
91 91 91
58 87 58
58 88 58
94 94 94
95 95 95
60 90 60
96 96 96
97 97 97
61 92 61
62 93 62
99 99 99
62 94 62
63 94 63
100 100 100
100 100 100
63 95 63
100 100 100
100 100 100
63 94 63
62 94 62
99 99 99
98 98 98
61 92 61
97 97 97
96 96 96
60 90 60
60 90 60
94 94 94
59 88 59
58 87 58
91 91 91
90 90 90
52 78 52
84 84 84
84 84 84
54 81 54
54 81 54
55 82 55
88 88 88
89 89 89
57 85 57
57 86 57
92 92 92
93 93 93
59 89 59
60 90 60
96 96 96
97 97 97
62 93 62
63 95 63
101 101 101
102 102 102
65 98 65
66 99 66
105 105 105
106 106 106
68 102 68
68 102 68
109 109 109
109 109 109
69 104 69
70 105 70
111 111 111
111 111 111
70 105 70
70 105 70
111 111 111
111 111 111
69 104 69
69 104 69
109 109 109
109 109 109
68 102 68
67 101 67
106 106 106
105 105 105
104 104 104
65 98 65
64 97 64
101 101 101
55 83 55
56 84 56
89 89 89
90 90 90
91 91 91
58 87 58
59 88 59
94 94 94
96 96 96
97 97 97
62 93 62
62 94 62
100 100 100
102 102 102
65 98 65
66 99 66
67 100 67
107 107 107
108 108 108
69 104 69
70 105 70
71 106 71
114 114 114
115 115 115
73 110 73
74 111 74
118 118 118
119 119 119
120 120 120
76 114 76
76 114 76
121 121 121
121 121 121
122 122 122
77 115 77
77 115 77
121 121 121
121 121 121
76 114 76
75 113 75
75 113 75
118 118 118
117 117 117
73 110 73
73 109 73
72 108 72
113 113 113
112 112 112
63 92 63
63 93 63
29 89 29
30 90 30
30 91 30
66 97 66
67 98 67
31 94 31
31 95 31
32 97 32
71 103 71
71 105 71
72 106 72
34 102 34
34 103 34
35 105 35
76 112 76
77 113 77
36 109 36
36 110 36
37 112 37
68 0 0
0 0 94
0 0 112
126 0 0
136 0 0
0 0 138
87 127 87
88 128 88
88 129 88
41 123 41
41 123 41
89 131 89
89 131 89
90 131 90
41 124 41
41 124 41
41 124 41
89 130 89
89 130 89
88 129 88
40 122 40
40 121 40
87 127 87
86 126 86
85 125 85
39 118 39
38 116 38
61 91 61
61 92 61
98 98 98
99 99 99
100 100 100
64 96 64
65 97 65
66 99 66
105 105 105
107 107 107
108 108 108
110 110 110
70 105 70
71 107 71
72 108 72
116 116 116
118 118 118
119 119 119
76 114 76
77 116 77
0 0 59
78 0 0
0 0 98
0 0 114
128 0 0
139 0 0
0 0 146
146 0 0
136 136 136
137 137 137
87 130 87
87 131 87
88 132 88
139 139 139
140 140 140
140 140 140
88 132 88
88 132 88
88 132 88
88 132 88
139 139 139
138 138 138
137 137 137
86 129 86
86 129 86
85 128 85
134 134 134
133 133 133
68 100 68
69 101 69
70 102 70
32 98 32
33 99 33
33 100 33
33 101 33
74 108 74
75 110 75
76 111 76
35 107 35
36 108 36
36 110 36
37 111 37
81 119 81
82 121 82
84 122 84
39 118 39
39 119 39
40 121 40
0 0 62
79 0 0
0 0 97
0 0 112
125 0 0
144 7 7
0 0 144
148 0 0
97 142 97
98 143 98
99 144 99
45 137 45
46 138 46
46 139 46
100 147 100
100 147 100
101 147 101
101 147 101
46 139 46
46 139 46
46 139 46
100 146 100
99 145 99
99 145 99
98 144 98
45 136 45
45 135 45
44 134 44
71 103 71
33 99 33
33 100 33
33 101 33
34 102 34
75 109 75
76 111 76
77 112 77
78 114 78
36 109 36
36 110 36
37 112 37
82 120 82
62 90 62
62 91 62
63 92 63
29 89 29
60 90 60
30 45 30
0 0 50
0 0 60
75 0 0
0 0 92
0 0 107
119 0 0
130 0 0
170 170 254
143 0 0
138 0 0
149 149 149
150 150 150
151 151 151
95 143 95
96 144 96
96 145 96
96 145 96
153 153 153
153 153 153
153 153 153
97 145 97
96 145 96
96 145 96
96 144 96
152 152 152
151 151 151
151 151 151
150 150 150
94 141 94
67 101 67
68 102 68
69 103 69
110 110 110
111 111 111
113 113 113
114 114 114
73 109 73
74 111 74
75 112 75
76 114 76
122 122 122
123 123 123
93 93 93
94 94 94
95 95 95
61 91 61
30 45 30
30 45 30
0 0 50
0 0 56
68 0 0
0 0 85
0 0 99
111 0 0
122 0 0
0 0 130
135 0 0
130 0 0
153 153 153
154 154 154
155 155 155
98 148 98
99 149 99
99 149 99
100 150 100
100 150 100
159 159 159
159 159 159
159 159 159
158 158 158
100 150 100
100 150 100
99 149 99
99 149 99
157 157 157
156 156 156
155 155 155
69 104 69
110 110 110
112 112 112
113 113 113
114 114 114
116 116 116
74 111 74
75 112 75
75 113 75
76 115 76
123 123 123
124 124 124
126 126 126
128 128 128
96 96 96
61 92 61
62 93 62
30 45 30
30 45 30
0 0 50
0 0 50
60 0 0
0 0 75
0 0 89
101 0 0
111 0 0
0 0 119
123 0 0
116 0 0
156 156 156
157 157 157
158 158 158
160 160 160
101 152 101
102 153 102
102 153 102
102 154 102
102 154 102
163 163 163
163 163 163
163 163 163
163 163 163
102 154 102
102 154 102
102 153 102
102 153 102
101 152 101
160 160 160
76 112 76
77 113 77
78 114 78
79 116 79
37 111 37
37 112 37
37 113 37
38 115 38
38 116 38
85 124 85
86 125 86
87 127 87
88 129 88
89 130 89
41 125 41
31 94 31
31 95 31
32 96 32
15 45 15
33 48 33
0 0 50
52 0 0
0 0 64
0 0 77
89 0 0
99 0 0
0 0 105
107 0 0
49 149 49
108 158 108
109 160 109
110 161 110
111 162 111
111 163 111
51 155 51
52 156 52
52 156 52
52 157 52
52 157 52
113 166 113
114 166 114
114 166 114
113 166 113
113 166 113
52 157 52
52 156 52
52 156 52
52 156 52
78 114 78
79 115 79
80 117 80
37 112 37
37 113 37
38 114 38
38 115 38
39 117 39
85 125 85
86 126 86
87 128 87
88 129 88
89 131 89
42 126 42
42 127 42
43 129 43
43 130 43
44 132 44
32 98 32
72 105 72
33 48 33
50 0 0
0 0 51
0 0 63
74 0 0
83 0 0
0 0 87
49 149 49
50 150 50
109 160 109
110 162 110
111 163 111
112 164 112
113 165 113
113 166 113
52 158 52
52 158 52
53 159 53
53 159 53
53 160 53
115 169 115
115 169 115
115 169 115
115 169 115
115 168 115
53 159 53
53 159 53
53 159 53
79 116 79
37 111 37
37 112 37
38 114 38
38 115 38
38 116 38
39 117 39
86 125 86
87 127 87
88 128 88
89 130 89
90 131 90
91 133 91
42 127 42
43 129 43
43 130 43
44 132 44
44 134 44
98 143 98
99 145 99
100 146 100
101 148 101
102 150 102
104 152 104
48 145 48
49 147 49
49 148 49
50 150 50
50 151 50
51 153 51
111 163 111
112 164 112
113 165 113
114 166 114
114 167 114
53 159 53
53 160 53
53 160 53
53 161 53
53 161 53
53 161 53
117 171 117
117 171 117
117 171 117
117 171 117
116 170 116
116 170 116
53 161 53
75 112 75
75 113 75
76 114 76
77 115 77
78 117 78
78 118 78
126 126 126
127 127 127
128 128 128
130 130 130
131 131 131
133 133 133
85 127 85
86 129 86
87 130 87
88 132 88
89 133 89
90 135 90
144 144 144
146 146 146
147 147 147
149 149 149
151 151 151
153 153 153
97 146 97
98 148 98
99 149 99
100 151 100
101 152 101
102 153 102
163 163 163
165 165 165
166 166 166
167 167 167
168 168 168
169 169 169
107 161 107
107 161 107
108 162 108
108 162 108
108 163 108
108 163 108
172 172 172
172 172 172
172 172 172
172 172 172
172 172 172
172 172 172
76 114 76
76 115 76
77 116 77
78 117 78
79 118 79
126 126 126
127 127 127
129 129 129
130 130 130
131 131 131
133 133 133
85 127 85
86 129 86
87 130 87
87 131 87
88 133 88
89 134 89
90 136 90
145 145 145
147 147 147
148 148 148
150 150 150
152 152 152
153 153 153
98 147 98
99 148 99
100 150 100
101 151 101
101 152 101
102 154 102
164 164 164
165 165 165
166 166 166
167 167 167
168 168 168
169 169 169
170 170 170
108 162 108
108 162 108
108 163 108
109 163 109
109 164 109
109 164 109
173 173 173
173 173 173
173 173 173
173 173 173
173 173 173
77 115 77
77 116 77
78 117 78
79 118 79
126 126 126
128 128 128
129 129 129
130 130 130
131 131 131
133 133 133
134 134 134
85 128 85
86 130 86
87 131 87
88 132 88
89 134 89
90 135 90
144 144 144
146 146 146
148 148 148
149 149 149
151 151 151
152 152 152
154 154 154
98 147 98
99 149 99
100 150 100
101 151 101
102 153 102
102 154 102
103 155 103
165 165 165
166 166 166
167 167 167
168 168 168
169 169 169
170 170 170
108 162 108
108 163 108
109 163 109
109 164 109
109 164 109
109 164 109
110 165 110
174 174 174
174 174 174
174 174 174
174 174 174
78 117 78
78 118 78
79 119 79
126 126 126
128 128 128
129 129 129
130 130 130
131 131 131
133 133 133
134 134 134
85 128 85
86 129 86
87 131 87
88 132 88
89 133 89
90 135 90
91 136 91
145 145 145
147 147 147
148 148 148
150 150 150
151 151 151
153 153 153
154 154 154
98 147 98
99 149 99
100 150 100
101 151 101
102 153 102
102 154 102
103 155 103
165 165 165
166 166 166
167 167 167
168 168 168
169 169 169
170 170 170
171 171 171
108 162 108
109 163 109
109 164 109
109 164 109
109 164 109
110 165 110
110 165 110
174 174 174
174 174 174
174 174 174
39 118 39
39 119 39
86 127 86
87 128 87
88 129 88
89 130 89
90 131 90
90 132 90
91 134 91
42 128 42
43 129 43
43 130 43
43 131 43
44 133 44
44 134 44
45 135 45
45 137 45
100 146 100
100 147 100
101 149 101
102 150 102
103 151 103
104 153 104
105 154 105
49 147 49
49 149 49
50 150 50
50 151 50
51 153 51
51 154 51
51 155 51
113 165 113
113 166 113
114 167 114
115 168 115
115 169 115
116 170 116
117 171 117
117 171 117
54 163 54
54 163 54
54 164 54
54 164 54
55 165 55
55 165 55
55 165 55
119 175 119
119 175 119
39 119 39
86 127 86
87 128 87
88 129 88
89 130 89
89 131 89
90 132 90
91 133 91
42 127 42
43 129 43
43 130 43
43 131 43
44 132 44
44 133 44
45 135 45
45 136 45
99 145 99
100 146 100
101 147 101
102 149 102
103 150 103
104 152 104
104 153 104
105 154 105
49 147 49
49 149 49
50 150 50
50 151 50
50 152 50
51 153 51
51 155 51
52 156 52
113 165 113
114 166 114
114 167 114
115 168 115
116 169 116
116 170 116
117 171 117
117 172 117
54 163 54
54 164 54
54 164 54
54 164 54
55 165 55
55 165 55
55 165 55
119 175 119
86 127 86
87 128 87
88 129 88
89 130 89
89 131 89
90 132 90
91 133 91
92 134 92
42 128 42
43 129 43
43 130 43
44 132 44
44 133 44
44 134 44
45 135 45
45 136 45
99 145 99
100 146 100
101 148 101
102 149 102
103 150 103
104 152 104
105 153 105
105 154 105
49 147 49
49 149 49
50 150 50
50 151 50
50 152 50
51 153 51
51 154 51
51 155 51
113 165 113
113 166 113
114 167 114
115 168 115
115 169 115
116 170 116
116 170 116
117 171 117
54 163 54
54 163 54
54 164 54
54 164 54
54 164 54
55 165 55
55 165 55
55 165 55
87 128 87
88 129 88
89 130 89
89 131 89
90 132 90
91 133 91
91 134 91
42 128 42
43 129 43
43 130 43
43 131 43
44 132 44
44 133 44
44 134 44
45 136 45
45 137 45
99 146 99
100 147 100
101 148 101
102 149 102
103 150 103
104 152 104
104 153 104
105 154 105
49 147 49
49 148 49
49 149 49
50 151 50
50 152 50
51 153 51
51 154 51
51 155 51
112 164 112
113 165 113
114 166 114
114 167 114
115 168 115
115 169 115
116 170 116
116 170 116
117 171 117
54 163 54
54 163 54
54 164 54
54 164 54
54 164 54
55 165 55
55 165 55
