P3
48 27
255
0 0 0
0 0 0
0 0 0
0 0 0
0 0 0
0 0 0
0 0 0
0 0 0
0 0 0
0 0 0
0 0 0
0 0 0
0 0 0
0 0 0
0 0 0
0 0 0
0 0 0
0 0 0
0 0 0
0 0 0
0 0 0
0 0 0
0 0 0
0 0 0
0 0 0
0 0 0
0 0 0
0 0 0
0 0 0
0 0 0
0 0 0
0 0 0
0 0 0
0 0 0
0 0 0
0 0 0
0 0 0
0 0 0
0 0 0
0 0 0
0 0 0
0 0 0
0 0 0
0 0 0
0 0 0
0 0 0
0 0 0
0 0 0
0 0 0
0 0 0
0 0 0
0 0 0
0 0 0
0 0 0
0 0 0
0 0 0
0 0 0
0 0 0
0 0 0
0 0 0
0 0 0
0 0 0
0 0 0
0 0 0
0 0 0
0 0 0
0 0 0
0 0 0
0 0 0
0 0 0
0 0 0
0 0 0
0 0 0
0 0 0
0 0 0
0 0 0
0 0 0
0 0 0
0 0 0
0 0 0
0 0 0
0 0 0
0 0 0
0 0 0
0 0 0
0 0 0
0 0 0
0 0 0
0 0 0
0 0 0
0 0 0
0 0 0
0 0 0
0 0 0
0 0 0
0 0 0
0 0 0
0 0 0
0 0 0
0 0 0
0 0 0
0 0 0
0 0 0
0 0 0
0 0 0
0 0 0
0 0 0
0 0 0
0 0 0
0 0 0
0 0 0
0 0 0
0 0 0
0 0 0
0 0 0
0 0 0
0 0 0
0 0 0
0 0 0
0 0 0
0 0 0
0 0 0
0 0 0
0 0 0
0 0 0
0 0 0
0 0 0
0 0 0
0 0 0
0 0 0
0 0 0
0 0 0
0 0 0
0 0 0
0 0 0
0 0 0
0 0 0
0 0 0
0 0 0
0 0 0
0 0 0
0 0 0
0 0 0
0 0 0
0 0 0
0 0 0
0 0 0
0 0 0
0 0 0
0 0 0
0 0 0
0 0 0
0 0 0
0 0 0
0 0 0
0 0 0
0 0 0
0 0 0
0 0 0
0 0 0
0 0 0
0 0 0
0 0 0
0 0 0
0 0 0
0 0 0
0 0 0
0 0 0
0 0 0
0 0 0
0 0 0
0 0 0
0 0 0
0 0 0
0 0 0
0 0 0
0 0 0
0 0 0
0 0 0
0 0 0
0 0 0
0 0 0
0 0 0
0 0 0
0 0 0
0 0 0
0 0 0
0 0 0
0 0 0
0 0 0
0 0 0
0 0 0
0 0 0
0 0 0
0 0 0
0 0 0
0 0 0
0 0 0
0 0 0
0 0 0
0 0 0
0 0 0
0 0 0
0 0 0
0 0 0
0 0 0
0 0 0
0 0 0
0 0 0
0 0 0
0 0 0
0 0 0
0 0 0
0 0 0
0 0 0
0 0 0
0 0 0
0 0 0
0 0 0
0 0 0
0 0 0
0 0 0
0 0 0
0 0 0
0 0 0
0 0 0
0 0 0
0 0 0
0 0 0
0 0 0
0 0 0
0 0 0
0 0 0
0 0 0
0 0 0
0 0 0
0 0 0
0 0 0
0 0 0
0 0 0
0 0 0
0 0 0
0 0 0
0 0 0
0 0 0
0 0 0
0 0 0
0 0 0
0 0 0
0 0 0
0 0 0
0 0 0
0 0 0
0 0 0
0 0 0
0 0 0
0 0 0
0 0 0
0 0 0
0 0 0
0 0 0
0 0 0
0 0 0
0 0 0
0 0 0
0 0 0
0 0 0
0 0 0
0 0 0
0 0 0
0 0 0
0 0 0
0 0 0
0 0 0
0 0 0
0 0 0
0 0 0
0 0 0
0 0 0
0 0 0
0 0 0
0 0 0
0 0 0
0 0 0
0 0 0
0 0 0
0 0 0
0 0 0
0 0 0
0 0 0
0 0 0
0 0 0
0 0 0
0 0 0
0 0 0
0 0 0
0 0 0
0 0 0
0 0 0
0 0 0
0 0 0
0 0 0
0 0 0
0 0 0
0 0 0
0 0 0
0 0 0
0 0 0
0 0 0
0 0 0
0 0 0
0 0 0
0 0 0
0 0 0
0 0 0
0 0 0
0 0 0
0 0 0
0 0 0
0 0 0
0 0 0
0 0 0
0 0 0
0 0 0
0 0 0
0 0 0
0 0 0
0 0 0
0 0 0
0 0 0
0 0 0
0 0 0
0 0 0
0 0 0
0 0 0
0 0 0
0 0 0
0 0 0
0 0 0
0 0 0
0 0 0
0 0 0
0 0 0
0 0 0
0 0 0
0 0 0
0 0 0
0 0 0
0 0 0
0 0 0
0 0 0
0 0 0
0 0 0
0 0 0
0 0 0
0 0 0
0 0 0
0 0 0
0 0 0
0 0 0
0 0 0
0 0 0
0 0 0
0 0 0
0 0 0
0 0 0
0 0 0
0 0 0
0 0 0
0 0 0
0 0 0
0 0 0
0 0 0
0 0 0
0 0 0
0 0 0
0 0 0
0 0 0
0 0 0
0 0 0
0 0 0
0 0 0
0 0 0
0 0 0
0 0 0
0 0 0
0 0 0
0 0 0
0 0 0
0 0 0
0 0 0
0 0 0
0 0 0
0 0 0
0 0 0
0 0 0
0 0 0
0 0 0
0 0 0
0 0 0
0 0 0
0 0 0
0 0 0
0 0 0
0 0 0
0 0 0
0 0 0
0 0 0
0 0 0
0 0 0
0 0 0
0 0 0
0 0 0
0 0 0
0 0 0
0 0 0
0 0 0
0 0 0
0 0 0
0 0 0
0 0 0
0 0 0
0 0 0
0 0 0
0 0 0
0 0 0
0 0 0
0 0 0
0 0 0
0 0 0
0 0 0
0 0 0
0 0 0
0 0 0
0 0 0
0 0 0
0 0 0
0 0 0
0 0 0
0 0 0
0 0 0
0 0 0
0 0 0
0 0 0
0 0 0
0 0 0
0 0 0
0 0 0
0 0 0
0 0 0
0 0 0
0 0 0
0 0 0
88 0 0
0 0 102
0 0 114
125 0 0
135 0 0
0 0 144
0 0 0
0 0 0
0 0 0
0 0 0
0 0 0
0 0 0
0 0 0
0 0 0
0 0 0
0 0 0
0 0 0
0 0 0
0 0 0
0 0 0
0 0 0
0 0 0
0 0 0
0 0 0
0 0 0
0 0 0
0 0 0
0 0 0
0 0 0
0 0 0
0 0 0
0 0 0
0 0 0
0 0 0
0 0 0
0 0 0
0 0 0
0 0 0
0 0 0
0 0 0
0 0 0
0 0 0
0 0 0
0 0 0
0 0 0
0 0 0
0 0 0
71 0 0
85 0 0
0 0 97
0 0 108
118 0 0
128 0 0
0 0 137
0 0 145
0 0 0
0 0 0
0 0 0
0 0 0
0 0 0
0 0 0
0 0 0
0 0 0
0 0 0
0 0 0
0 0 0
0 0 0
0 0 0
0 0 0
0 0 0
0 0 0
0 0 0
0 0 0
0 0 0
0 0 0
0 0 0
0 0 0
0 0 0
0 0 0
0 0 0
0 0 0
0 0 0
0 0 0
0 0 0
0 0 0
0 0 0
0 0 0
0 0 0
0 0 0
0 0 0
0 0 0
0 0 0
0 0 0
0 0 0
0 0 59
67 0 0
79 0 0
0 0 90
0 0 101
110 0 0
135 15 15
1 1 130
0 0 136
143 0 0
0 0 0
0 0 0
0 0 0
0 0 0
0 0 0
0 0 0
0 0 0
0 0 0
0 0 0
0 0 0
0 0 0
0 0 0
0 0 0
0 0 0
0 0 0
0 0 0
0 0 0
0 0 0
0 0 0
0 0 0
0 0 0
0 0 0
0 0 0
0 0 0
0 0 0
0 0 0
0 0 0
0 0 0
0 0 0
0 0 0
0 0 0
0 0 0
0 0 0
0 0 0
0 0 0
0 0 0
0 0 0
0 0 50
0 0 56
62 0 0
72 0 0
0 0 83
0 0 92
102 0 0
110 0 0
0 0 119
132 132 254
133 0 0
137 0 0
0 0 0
0 0 0
0 0 0
0 0 0
0 0 0
0 0 0
0 0 0
0 0 0
0 0 0
0 0 0
0 0 0
0 0 0
0 0 0
0 0 0
0 0 0
0 0 0
0 0 0
0 0 0
0 0 0
0 0 0
0 0 0
0 0 0
0 0 0
0 0 0
0 0 0
0 0 0
0 0 0
0 0 0
0 0 0
0 0 0
0 0 0
0 0 0
0 0 0
0 0 0
0 0 0
0 0 0
0 0 50
0 0 51
57 0 0
64 0 0
0 0 75
0 0 84
93 0 0
101 0 0
0 0 109
0 0 117
123 0 0
128 0 0
0 0 0
0 0 0
0 0 0
0 0 0
0 0 0
0 0 0
0 0 0
0 0 0
0 0 0
0 0 0
0 0 0
0 0 0
0 0 0
0 0 0
0 0 0
0 0 0
0 0 0
0 0 0
51 77 51
51 77 51
82 82 82
83 83 83
53 79 53
53 80 53
85 85 85
86 86 86
55 82 55
55 83 55
89 89 89
90 90 90
57 86 57
58 87 58
92 92 92
93 93 93
59 89 59
60 90 60
0 0 50
0 0 50
52 0 0
57 0 0
0 0 66
0 0 75
84 0 0
92 0 0
0 0 99
0 0 107
113 0 0
117 0 0
103 103 103
104 104 104
65 98 65
65 98 65
104 104 104
103 103 103
65 98 65
65 97 65
102 102 102
102 102 102
64 96 64
63 95 63
100 100 100
99 99 99
62 93 62
61 92 61
97 97 97
96 96 96
65 97 65
65 98 65
66 99 66
67 100 67
107 107 107
108 108 108
109 109 109
110 110 110
70 106 70
71 107 71
72 108 72
73 109 73
117 117 117
118 118 118
120 120 120
121 121 121
77 116 77
78 117 78
0 0 50
0 0 50
50 0 0
51 0 0
0 0 57
0 0 66
74 0 0
82 0 0
0 0 89
0 0 96
102 0 0
106 0 0
140 140 140
141 141 141
89 134 89
90 135 90
90 135 90
90 136 90
143 143 143
144 144 144
144 144 144
144 144 144
91 136 91
90 136 90
45 136 45
45 135 45
143 143 143
97 142 97
97 142 97
96 141 96
73 110 73
74 111 74
75 112 75
75 113 75
76 115 76
77 116 77
123 123 123
124 124 124
126 126 126
127 127 127
95 95 95
96 96 96
61 92 61
62 93 62
62 93 62
30 45 30
30 45 30
30 45 30
0 0 50
0 0 50
50 0 0
50 0 0
0 0 50
0 0 56
65 0 0
72 0 0
0 0 79
0 0 85
90 0 0
92 0 0
155 155 155
156 156 156
157 157 157
158 158 158
159 159 159
160 160 160
101 152 101
102 153 102
102 153 102
102 154 102
102 154 102
103 154 103
163 163 163
163 163 163
163 163 163
163 163 163
163 163 163
163 163 163
86 125 86
86 126 86
87 127 87
88 128 88
88 129 88
89 130 89
90 132 90
91 133 91
42 127 42
42 128 42
43 129 43
43 130 43
43 131 43
44 132 44
44 133 44
45 135 45
98 143 98
99 144 99
100 146 100
100 147 100
101 148 101
102 149 102
103 151 103
104 152 104
48 145 48
48 146 48
49 147 49
49 148 49
49 149 49
50 151 50
50 152 50
51 153 51
111 162 111
111 163 111
112 164 112
113 165 113
113 166 113
114 166 114
114 167 114
115 168 115
53 159 53
106 160 106
107 160 107
107 161 107
107 161 107
107 161 107
107 161 107
54 162 54
131 131 131
132 132 132
133 133 133
134 134 134
85 128 85
85 128 85
86 129 86
87 130 87
87 131 87
88 132 88
89 133 89
89 134 89
90 135 90
90 136 90
145 145 145
146 146 146
147 147 147
148 148 148
149 149 149
150 150 150
151 151 151
152 152 152
153 153 153
154 154 154
98 147 98
98 148 98
99 149 99
100 150 100
100 151 100
101 151 101
101 152 101
102 153 102
103 154 103
103 155 103
164 164 164
165 165 165
166 166 166
167 167 167
167 167 167
168 168 168
169 169 169
169 169 169
170 170 170
170 170 170
108 162 108
108 162 108
108 163 108
109 163 109
85 128 85
85 128 85
86 129 86
86 130 86
87 131 87
88 132 88
88 132 88
89 133 89
89 134 89
90 135 90
90 136 90
91 136 91
145 145 145
146 146 146
147 147 147
147 147 147
148 148 148
149 149 149
150 150 150
151 151 151
152 152 152
153 153 153
154 154 154
154 154 154
98 147 98
98 148 98
99 149 99
100 150 100
100 150 100
101 151 101
101 152 101
102 153 102
102 153 102
103 154 103
103 155 103
104 156 104
113 165 113
113 166 113
166 166 166
167 167 167
168 168 168
115 168 115
115 169 115
116 169 116
116 170 116
116 170 116
117 171 117
117 171 117
43 130 43
43 131 43
44 132 44
44 132 44
44 133 44
44 134 44
44 134 44
45 135 45
45 136 45
45 136 45
99 145 99
99 146 99
100 146 100
100 147 100
101 148 101
101 149 101
102 149 102
102 150 102
103 151 103
104 152 104
104 152 104
105 153 105
105 154 105
106 155 106
49 147 49
49 148 49
49 148 49
49 149 49
50 150 50
50 151 50
50 151 50
50 152 50
51 153 51
51 153 51
51 154 51
51 154 51
51 155 51
52 156 52
113 165 113
113 166 113
113 166 113
114 167 114
114 167 114
115 168 115
115 168 115
115 169 115
116 169 116
116 170 116
44 132 44
44 133 44
44 133 44
44 134 44
45 135 45
45 135 45
45 136 45
45 136 45
99 145 99
99 145 99
100 146 100
100 147 100
101 147 101
101 148 101
101 148 101
102 149 102
102 150 102
103 150 103
103 151 103
104 152 104
104 152 104
105 153 105
105 154 105
105 154 105
49 147 49
49 147 49
49 148 49
49 149 49
49 149 49
50 150 50
50 150 50
50 151 50
50 152 50
50 152 50
51 153 51
51 153 51
51 154 51
51 154 51
51 155 51
51 155 51
112 165 112
113 165 113
113 166 113
114 166 114
114 167 114
114 167 114
115 168 115
115 168 115
44 134 44
44 134 44
45 135 45
45 135 45
45 136 45
45 136 45
99 144 99
99 145 99
99 145 99
100 146 100
100 147 100
101 147 101
101 148 101
101 148 101
102 149 102
102 150 102
103 150 103
103 151 103
103 151 103
104 152 104
104 152 104
105 153 105
105 154 105
105 154 105
49 147 49
49 147 49
49 148 49
49 148 49
49 149 49
49 149 49
50 150 50
50 150 50
50 151 50
50 151 50
50 152 50
50 152 50
51 153 51
51 153 51
51 154 51
51 154 51
51 155 51
51 155 51
112 164 112
113 165 113
113 165 113
113 166 113
113 166 113
114 167 114
45 135 45
45 135 45
45 136 45
45 136 45
98 144 98
99 145 99
99 145 99
99 146 99
100 146 100
100 147 100
101 147 101
101 148 101
101 148 101
102 149 102
102 149 102
102 150 102
103 150 103
103 151 103
103 151 103
104 152 104
104 152 104
104 153 104
105 153 105
105 154 105
48 146 48
49 147 49
49 147 49
49 148 49
49 148 49
49 149 49
49 149 49
50 150 50
50 150 50
50 150 50
50 151 50
50 151 50
50 152 50
50 152 50
51 153 51
51 153 51
51 154 51
51 154 51
51 154 51
51 155 51
112 164 112
112 164 112
113 165 113
113 165 113
45 135 45
45 136 45
98 144 98
99 144 99
99 145 99
99 145 99
100 146 100
100 146 100
100 147 100
101 147 101
101 148 101
101 148 101
101 149 101
102 149 102
102 149 102
102 150 102
103 150 103
103 151 103
103 151 103
104 152 104
104 152 104
104 153 104
105 153 105
105 154 105
48 146 48
48 146 48
49 147 49
49 147 49
49 148 49
49 148 49
49 149 49
49 149 49
49 149 49
50 150 50
50 150 50
50 151 50
50 151 50
50 151 50
50 152 50
50 152 50
51 153 51
51 153 51
51 153 51
51 154 51
51 154 51
51 155 51
112 164 112
112 164 112
98 144 98
98 144 98
99 145 99
99 145 99
99 145 99
100 146 100
100 146 100
100 147 100
100 147 100
101 147 101
101 148 101
101 148 101
102 149 102
102 149 102
102 150 102
102 150 102
103 150 103
103 151 103
103 151 103
104 152 104
104 152 104
104 153 104
105 153 105
105 153 105
48 146 48
48 146 48
48 146 48
49 147 49
49 147 49
49 148 49
49 148 49
49 148 49
49 149 49
49 149 49
50 150 50
50 150 50
50 150 50
50 151 50
50 151 50
50 151 50
50 152 50
50 152 50
51 153 51
51 153 51
51 153 51
51 154 51
51 154 51
51 154 51
144 144 144
145 145 145
145 145 145
145 145 145
146 146 146
146 146 146
147 147 147
147 147 147
147 147 147
148 148 148
148 148 148
149 149 149
149 149 149
149 149 149
150 150 150
150 150 150
150 150 150
151 151 151
151 151 151
152 152 152
152 152 152
152 152 152
153 153 153
153 153 153
97 145 97
97 146 97
97 146 97
98 147 98
98 147 98
98 147 98
98 148 98
98 148 98
99 148 99
99 149 99
99 149 99
99 149 99
100 150 100
100 150 100
100 150 100
100 151 100
101 151 101
101 151 101
101 152 101
101 152 101
101 152 101
102 153 102
102 153 102
102 153 102
