P3
48 27
255
58 87 58
58 88 58
94 94 94
95 95 95
60 91 60
61 92 61
62 93 62
99 99 99
100 100 100
64 96 64
65 97 65
66 99 66
105 105 105
107 107 107
68 102 68
69 104 69
70 105 70
113 113 113
114 114 114
73 109 73
74 111 74
75 112 75
120 120 120
121 121 121
77 116 77
78 117 78
125 125 125
126 126 126
126 126 126
80 121 80
81 121 81
128 128 128
129 129 129
129 129 129
81 122 81
81 122 81
129 129 129
129 129 129
129 129 129
81 121 81
80 121 80
127 127 127
126 126 126
125 125 125
78 117 78
77 116 77
122 122 122
120 120 120
65 95 65
66 96 66
66 97 66
31 93 31
31 94 31
69 101 69
70 102 70
70 103 70
33 99 33
33 100 33
34 102 34
74 109 74
75 110 75
35 106 35
35 107 35
36 109 36
80 116 80
81 118 81
82 120 82
38 115 38
39 117 39
85 125 85
86 126 86
87 128 87
40 122 40
41 124 41
41 125 41
91 133 91
92 134 92
42 128 42
43 129 43
43 130 43
94 137 94
94 138 94
94 138 94
43 131 43
43 131 43
94 138 94
94 138 94
94 137 94
43 129 43
43 129 43
42 128 42
92 134 92
91 133 91
41 125 41
41 124 41
41 123 41
98 98 98
63 94 63
63 95 63
64 96 64
103 103 103
104 104 104
106 106 106
67 101 67
68 103 68
69 104 69
111 111 111
113 113 113
72 108 72
73 110 73
74 112 74
120 120 120
121 121 121
123 123 123
79 118 79
80 120 80
81 122 81
131 131 131
132 132 132
134 134 134
86 129 86
87 130 87
88 132 88
140 140 140
142 142 142
143 143 143
91 136 91
91 137 91
92 138 92
146 146 146
146 146 146
146 146 146
92 139 92
92 139 92
146 146 146
146 146 146
145 145 145
91 137 91
91 136 91
90 135 90
142 142 142
141 141 141
140 140 140
87 131 87
32 96 32
32 97 32
71 104 71
72 105 72
72 106 72
34 102 34
34 103 34
35 105 35
76 112 76
77 113 77
79 115 79
80 117 80
37 112 37
38 114 38
38 116 38
85 124 85
86 126 86
87 128 87
41 123 41
41 125 41
42 127 42
93 136 93
94 138 94
96 140 96
44 134 44
45 136 45
46 138 46
100 147 100
101 148 101
102 150 102
47 143 47
48 144 48
48 144 48
105 153 105
105 153 105
105 154 105
48 146 48
48 146 48
48 146 48
48 145 48
105 153 105
104 152 104
104 152 104
47 143 47
47 142 47
47 141 47
101 148 101
100 147 100
65 98 65
105 105 105
106 106 106
108 108 108
69 103 69
70 105 70
71 106 71
114 114 114
115 115 115
117 117 117
119 119 119
76 114 76
77 116 77
78 117 78
126 126 126
128 128 128
130 130 130
83 125 83
85 127 85
86 129 86
87 131 87
141 141 141
143 143 143
145 145 145
93 139 93
94 141 94
95 143 95
152 152 152
154 154 154
155 155 155
157 157 157
99 149 99
100 150 100
100 151 100
160 160 160
160 160 160
160 160 160
101 152 101
101 152 101
101 152 101
101 151 101
159 159 159
159 159 159
158 158 158
99 149 99
98 148 98
98 147 98
154 154 154
73 107 73
74 108 74
75 109 75
35 105 35
35 106 35
35 107 35
78 115 78
80 116 80
81 118 81
82 120 82
38 115 38
39 117 39
39 119 39
87 127 87
88 129 88
90 131 90
91 133 91
42 128 42
43 131 43
44 133 44
97 142 97
99 145 99
100 147 100
102 149 102
47 143 47
48 145 48
49 147 49
49 149 49
109 159 109
110 160 110
110 162 110
51 154 51
51 155 51
52 156 52
52 157 52
113 166 113
113 166 113
113 166 113
52 157 52
52 157 52
52 157 52
52 156 52
112 164 112
112 164 112
111 163 111
51 154 51
51 153 51
50 152 50
74 109 74
34 104 34
35 106 35
35 107 35
36 108 36
79 116 79
80 117 80
81 119 81
82 121 82
38 116 38
39 118 39
39 119 39
40 121 40
89 130 89
90 132 90
92 134 92
43 129 43
43 131 43
44 133 44
45 136 45
99 145 99
101 148 101
103 150 103
104 152 104
48 146 48
49 148 49
50 150 50
50 152 50
111 163 111
112 164 112
113 166 113
114 167 114
53 159 53
53 160 53
53 161 53
116 170 116
116 170 116
116 170 116
116 170 116
53 161 53
53 161 53
53 161 53
53 160 53
115 169 115
115 168 115
114 167 114
114 166 114
52 157 52
70 105 70
71 106 71
72 108 72
73 109 73
117 117 117
118 118 118
120 120 120
121 121 121
78 117 78
79 118 79
80 120 80
81 122 81
130 130 130
132 132 132
134 134 134
137 137 137
87 131 87
89 134 89
90 136 90
92 138 92
148 148 148
150 150 150
153 153 153
155 155 155
99 149 99
100 151 100
102 153 102
103 155 103
165 165 165
167 167 167
168 168 168
170 170 170
108 162 108
108 163 108
109 164 109
109 164 109
174 174 174
174 174 174
174 174 174
174 174 174
109 164 109
109 164 109
109 164 109
109 163 109
172 172 172
171 171 171
170 170 170
169 169 169
71 107 71
72 108 72
73 110 73
117 117 117
119 119 119
120 120 120
122 122 122
78 117 78
79 118 79
80 120 80
81 122 81
130 130 130
132 132 132
134 134 134
136 136 136
139 139 139
89 133 89
90 135 90
91 137 91
93 140 93
150 150 150
152 152 152
154 154 154
157 157 157
100 150 100
102 153 102
103 155 103
104 156 104
167 167 167
169 169 169
170 170 170
172 172 172
109 164 109
110 165 110
110 165 110
111 166 111
111 166 111
176 176 176
176 176 176
176 176 176
176 176 176
111 166 111
111 166 111
110 166 110
110 165 110
174 174 174
173 173 173
172 172 172
36 109 36
36 110 36
80 117 80
81 119 81
82 120 82
83 122 83
39 117 39
39 118 39
40 120 40
40 122 40
41 123 41
90 132 90
92 134 92
93 136 93
94 138 94
44 133 44
45 135 45
45 137 45
46 139 46
47 141 47
103 151 103
88 0 0
0 0 102
0 0 114
125 0 0
135 0 0
0 0 144
52 157 52
115 168 115
116 170 116
117 171 117
118 173 118
119 174 119
55 166 55
55 166 55
55 167 55
56 168 56
121 177 121
121 177 121
121 178 121
121 177 121
121 177 121
56 168 56
55 167 55
55 167 55
55 166 55
120 175 120
119 174 119
36 110 36
80 118 80
81 119 81
82 120 82
83 122 83
39 117 39
39 118 39
40 120 40
40 121 40
41 123 41
90 132 90
91 133 91
92 135 92
94 137 94
95 139 95
44 134 44
45 136 45
46 138 46
46 140 46
102 150 102
71 0 0
85 0 0
0 0 97
0 0 108
118 0 0
128 0 0
0 0 137
0 0 145
53 159 53
116 170 116
117 171 117
118 173 118
119 174 119
55 166 55
55 167 55
55 167 55
56 168 56
56 168 56
122 178 122
122 178 122
122 178 122
122 178 122
122 178 122
56 168 56
56 168 56
55 167 55
55 167 55
120 176 120
80 118 80
81 119 81
82 120 82
83 122 83
39 117 39
39 118 39
40 120 40
40 121 40
41 123 41
89 131 89
91 133 91
92 134 92
93 136 93
94 138 94
44 133 44
44 134 44
45 136 45
46 138 46
46 140 46
0 0 59
67 0 0
79 0 0
0 0 90
0 0 101
110 0 0
135 15 15
1 1 130
0 0 136
143 0 0
116 169 116
117 171 117
118 172 118
119 174 119
119 175 119
55 166 55
55 167 55
56 168 56
56 168 56
56 169 56
122 178 122
122 178 122
122 178 122
122 178 122
122 178 122
56 168 56
56 168 56
55 167 55
55 167 55
119 119 119
120 120 120
122 122 122
123 123 123
78 118 78
79 119 79
80 121 80
81 122 81
82 123 82
132 132 132
134 134 134
135 135 135
137 137 137
139 139 139
89 133 89
90 135 90
91 137 91
66 100 66
0 0 50
0 0 56
62 0 0
72 0 0
0 0 83
0 0 92
102 0 0
110 0 0
0 0 119
132 132 254
133 0 0
137 0 0
170 170 170
172 172 172
173 173 173
174 174 174
110 166 110
111 166 111
111 167 111
112 168 112
112 168 112
178 178 178
178 178 178
178 178 178
178 178 178
178 178 178
112 168 112
112 168 112
111 167 111
111 167 111
120 120 120
121 121 121
123 123 123
78 117 78
79 119 79
80 120 80
81 121 81
82 123 82
131 131 131
133 133 133
134 134 134
136 136 136
138 138 138
88 132 88
64 96 64
65 98 65
66 99 66
66 100 66
0 0 50
0 0 51
57 0 0
64 0 0
0 0 75
0 0 84
93 0 0
101 0 0
0 0 109
0 0 117
123 0 0
128 0 0
169 169 169
170 170 170
172 172 172
173 173 173
174 174 174
110 165 110
111 166 111
111 167 111
111 167 111
111 167 111
177 177 177
177 177 177
177 177 177
177 177 177
177 177 177
111 167 111
111 167 111
111 167 111
121 121 121
122 122 122
78 117 78
79 118 79
80 120 80
80 121 80
81 122 81
130 130 130
132 132 132
133 133 133
135 135 135
136 136 136
138 138 138
63 95 63
64 96 64
65 98 65
66 99 66
30 45 30
0 0 50
0 0 50
52 0 0
57 0 0
0 0 66
0 0 75
84 0 0
92 0 0
0 0 99
0 0 107
113 0 0
117 0 0
168 168 168
169 169 169
170 170 170
171 171 171
172 172 172
109 164 109
110 165 110
110 165 110
110 166 110
111 166 111
111 166 111
176 176 176
176 176 176
176 176 176
176 176 176
176 176 176
111 166 111
111 166 111
122 122 122
78 117 78
78 118 78
79 119 79
80 120 80
81 121 81
82 123 82
131 131 131
132 132 132
134 134 134
135 135 135
99 99 99
63 95 63
63 95 63
64 96 64
65 97 65
30 45 30
30 45 30
0 0 50
0 0 50
50 0 0
51 0 0
0 0 57
0 0 66
74 0 0
82 0 0
0 0 89
0 0 96
102 0 0
106 0 0
166 166 166
168 168 168
169 169 169
170 170 170
171 171 171
172 172 172
109 163 109
109 164 109
109 164 109
110 165 110
110 165 110
175 175 175
175 175 175
175 175 175
175 175 175
175 175 175
175 175 175
110 165 110
77 116 77
78 117 78
79 118 79
80 120 80
80 121 80
81 122 81
130 130 130
131 131 131
133 133 133
134 134 134
98 98 98
99 99 99
63 95 63
63 95 63
64 96 64
30 45 30
30 45 30
30 45 30
0 0 50
0 0 50
50 0 0
50 0 0
0 0 50
0 0 56
65 0 0
72 0 0
0 0 79
0 0 85
90 0 0
92 0 0
166 166 166
166 166 166
167 167 167
115 168 115
116 169 116
116 170 116
54 162 54
54 162 54
54 163 54
54 164 54
55 164 55
55 165 55
119 174 119
119 174 119
119 174 119
119 174 119
119 174 119
119 174 119
39 117 39
39 118 39
39 119 39
40 120 40
40 121 40
88 129 88
89 130 89
90 132 90
91 133 91
92 134 92
67 98 67
67 99 67
31 94 31
31 95 31
32 96 32
15 45 15
15 45 15
15 45 15
0 0 50
0 0 50
50 0 0
50 0 0
0 0 50
0 0 50
55 0 0
61 0 0
0 0 68
0 0 73
77 0 0
75 0 0
118 170 118
116 168 116
114 167 114
114 167 114
115 168 115
115 168 115
53 160 53
54 161 54
55 163 55
56 164 56
57 166 57
57 166 57
57 166 57
120 175 120
119 174 119
119 173 119
118 173 118
118 173 118
39 117 39
39 118 39
39 119 39
40 121 40
40 122 40
89 130 89
89 131 89
90 132 90
91 133 91
92 135 92
67 98 67
31 94 31
31 94 31
31 95 31
32 96 32
15 45 15
15 45 15
15 45 15
33 48 33
0 0 50
50 0 0
50 0 0
0 0 50
0 0 50
51 0 0
55 0 0
0 0 60
0 0 64
67 0 0
89 191 89
146 198 146
131 183 131
119 171 119
114 166 114
114 166 114
114 167 114
115 168 115
55 162 55
58 165 58
63 170 63
67 174 67
69 177 69
68 176 68
128 182 128
124 178 124
121 175 121
119 173 119
118 172 118
39 118 39
39 119 39
40 120 40
40 121 40
88 129 88
89 130 89
90 131 90
90 132 90
91 133 91
92 135 92
67 98 67
31 93 31
31 94 31
31 95 31
32 96 32
15 45 15
15 45 15
33 48 33
33 48 33
33 48 33
50 0 0
50 0 0
0 0 50
0 0 50
50 0 0
50 0 0
0 0 54
0 0 57
117 218 117
153 254 153
149 251 149
169 220 169
133 185 133
117 169 117
113 165 113
114 166 114
116 168 116
59 164 59
67 173 67
79 185 79
90 197 90
98 204 98
97 204 97
89 196 89
140 194 140
130 184 130
123 177 123
119 173 119
39 118 39
39 119 39
40 120 40
87 128 87
88 129 88
89 130 89
90 131 90
90 132 90
91 133 91
92 135 92
43 129 43
31 93 31
31 94 31
31 95 31
31 95 31
32 96 32
15 45 15
33 48 33
33 48 33
33 48 33
33 48 33
33 48 33
0 0 50
0 0 50
50 0 0
50 0 0
29 89 29
92 191 92
154 253 154
211 254 211
209 254 209
210 254 210
151 202 151
122 173 122
113 165 113
113 165 113
117 169 117
125 177 125
80 185 80
102 208 102
127 232 127
144 250 144
146 252 146
132 239 132
111 217 111
151 204 151
134 187 134
124 177 124
39 119 39
40 120 40
40 121 40
88 128 88
88 129 88
89 130 89
90 131 90
90 132 90
91 134 91
92 135 92
43 129 43
43 130 43
43 131 43
44 132 44
31 95 31
32 96 32
32 97 32
33 48 33
33 48 33
33 48 33
33 48 33
33 48 33
33 48 33
63 92 63
29 88 29
29 88 29
60 157 60
92 190 92
152 250 152
209 254 209
212 254 212
217 254 217
157 208 157
124 175 124
113 165 113
113 164 113
117 169 117
129 181 129
90 194 90
124 228 124
161 254 161
190 254 190
198 254 198
183 254 183
152 254 152
179 232 179
151 204 151
132 185 132
79 119 79
80 120 80
127 127 127
128 128 128
129 129 129
130 130 130
131 131 131
132 132 132
134 134 134
85 127 85
85 128 85
86 129 86
87 131 87
88 132 88
88 133 88
89 134 89
90 135 90
143 143 143
144 144 144
90 90 90
90 90 90
91 91 91
91 91 91
150 150 150
95 143 95
97 145 97
104 153 104
126 175 126
166 215 166
205 254 205
211 254 211
236 236 236
196 196 196
171 171 171
163 163 163
163 163 163
168 168 168
180 180 180
205 205 205
182 234 182
226 254 226
254 254 254
254 254 254
254 254 254
236 254 236
196 248 196
221 221 221
195 195 195
79 119 79
127 127 127
128 128 128
129 129 129
130 130 130
131 131 131
132 132 132
133 133 133
133 133 133
85 127 85
85 128 85
86 129 86
87 130 87
87 131 87
88 132 88
89 133 89
142 142 142
143 143 143
144 144 144
145 145 145
146 146 146
147 147 147
148 148 148
149 149 149
95 142 95
96 144 96
100 148 100
110 159 110
129 178 129
149 198 149
154 203 154
139 189 139
178 178 178
165 165 165
161 161 161
161 161 161
165 165 165
176 176 176
197 197 197
171 222 171
212 254 212
251 254 251
254 254 254
254 254 254
242 254 242
205 254 205
168 220 168
201 201 201
79 119 79
127 127 127
128 128 128
129 129 129
130 130 130
131 131 131
132 132 132
132 132 132
84 126 84
85 127 85
85 128 85
86 129 86
87 130 87
87 131 87
88 132 88
88 133 88
141 141 141
142 142 142
143 143 143
144 144 144
145 145 145
146 146 146
147 147 147
148 148 148
94 141 94
95 142 95
97 144 97
101 149 101
108 156 108
115 164 115
118 167 118
114 163 114
165 165 165
160 160 160
158 158 158
159 159 159
162 162 162
170 170 170
184 184 184
209 209 209
181 232 181
213 254 213
234 254 234
237 254 237
222 254 222
194 246 194
165 216 165
200 200 200
126 126 126
127 127 127
128 128 128
129 129 129
130 130 130
131 131 131
132 132 132
132 132 132
84 126 84
85 127 85
85 128 85
86 129 86
86 130 86
87 131 87
88 132 88
88 133 88
141 141 141
142 142 142
143 143 143
144 144 144
145 145 145
146 146 146
146 146 146
147 147 147
93 140 93
94 141 94
95 143 95
96 144 96
99 147 99
101 150 101
103 151 103
102 151 102
158 158 158
157 157 157
157 157 157
157 157 157
159 159 159
164 164 164
173 173 173
188 188 188
149 200 149
171 222 171
188 238 188
193 244 193
187 238 187
171 222 171
151 203 151
133 185 133
126 126 126
127 127 127
128 128 128
129 129 129
130 130 130
131 131 131
132 132 132
132 132 132
84 126 84
85 127 85
85 128 85
86 129 86
86 130 86
87 130 87
87 131 87
88 132 88
140 140 140
141 141 141
142 142 142
143 143 143
144 144 144
145 145 145
146 146 146
147 147 147
93 140 93
94 140 94
94 141 94
95 142 95
96 144 96
97 145 97
97 146 97
98 146 98
154 154 154
155 155 155
155 155 155
156 156 156
157 157 157
160 160 160
164 164 164
172 172 172
125 175 125
138 188 138
148 199 148
154 205 154
153 204 153
145 196 145
135 186 135
124 175 124
