P3
80 45
255
44 44 44
44 44 44
44 44 44
44 44 44
44 44 44
44 44 44
44 44 44
44 44 44
44 44 44
44 44 44
44 44 44
44 44 44
44 44 44
44 44 44
44 44 44
44 44 44
44 44 44
44 44 44
44 44 44
44 44 44
44 44 44
44 44 44
44 44 44
44 44 44
44 44 44
44 44 44
44 44 44
44 44 44
44 44 44
44 44 44
44 44 44
44 44 44
44 44 44
44 44 44
44 44 44
44 44 44
44 44 44
44 44 44
44 44 44
44 44 44
16 49 16
16 49 16
16 50 16
16 50 16
16 50 16
16 50 16
16 50 16
17 51 17
17 51 17
17 51 17
37 54 37
37 54 37
37 54 37
37 54 37
37 54 37
37 54 37
37 54 37
37 54 37
37 54 37
37 54 37
17 51 17
17 51 17
0 0 25
0 0 25
0 0 25
25 0 0
25 0 0
25 0 0
25 0 0
25 0 0
25 0 0
25 0 0
25 0 0
25 0 0
25 0 0
25 0 0
0 0 25
0 0 25
0 0 25
0 0 25
44 44 44
44 44 44
44 44 44
44 44 44
44 44 44
44 44 44
44 44 44
44 44 44
44 44 44
44 44 44
44 44 44
44 44 44
44 44 44
44 44 44
44 44 44
44 44 44
44 44 44
44 44 44
44 44 44
44 44 44
44 44 44
44 44 44
44 44 44
44 44 44
44 44 44
44 44 44
44 44 44
44 44 44
44 44 44
44 44 44
44 44 44
44 44 44
44 44 44
44 44 44
44 44 44
44 44 44
44 44 44
44 44 44
44 44 44
44 44 44
16 49 16
16 49 16
16 49 16
16 49 16
16 50 16
16 50 16
16 50 16
16 50 16
16 50 16
16 50 16
36 53 36
36 53 36
36 53 36
36 54 36
37 54 37
37 54 37
37 54 37
37 54 37
37 54 37
37 54 37
17 51 17
17 51 17
17 51 17
25 0 0
25 0 0
25 0 0
25 0 0
25 0 0
25 0 0
25 0 0
25 0 0
25 0 0
25 0 0
25 0 0
0 0 25
0 0 25
0 0 25
0 0 25
0 0 25
0 0 25
44 44 44
44 44 44
44 44 44
44 44 44
44 44 44
44 44 44
44 44 44
44 44 44
44 44 44
44 44 44
44 44 44
44 44 44
44 44 44
44 44 44
44 44 44
44 44 44
44 44 44
44 44 44
44 44 44
44 44 44
44 44 44
44 44 44
44 44 44
44 44 44
44 44 44
44 44 44
44 44 44
44 44 44
44 44 44
44 44 44
44 44 44
44 44 44
44 44 44
44 44 44
44 44 44
44 44 44
44 44 44
44 44 44
44 44 44
44 44 44
16 48 16
16 49 16
16 49 16
16 49 16
16 49 16
16 49 16
16 49 16
16 50 16
16 50 16
16 50 16
36 53 36
36 53 36
36 53 36
36 53 36
36 53 36
36 53 36
36 53 36
36 53 36
36 53 36
36 53 36
16 50 16
16 50 16
16 50 16
16 50 16
16 50 16
25 0 0
25 0 0
25 0 0
25 0 0
25 0 0
25 0 0
25 0 0
0 0 25
0 0 25
0 0 25
0 0 25
0 0 25
0 0 25
0 0 25
0 0 25
44 44 44
44 44 44
44 44 44
44 44 44
44 44 44
44 44 44
44 44 44
44 44 44
44 44 44
44 44 44
44 44 44
44 44 44
44 44 44
44 44 44
44 44 44
44 44 44
44 44 44
44 44 44
44 44 44
44 44 44
44 44 44
44 44 44
44 44 44
44 44 44
44 44 44
44 44 44
44 44 44
44 44 44
44 44 44
44 44 44
44 44 44
44 44 44
44 44 44
44 44 44
44 44 44
44 44 44
44 44 44
44 44 44
44 44 44
44 44 44
16 48 16
16 48 16
16 48 16
16 49 16
16 49 16
16 49 16
16 49 16
16 49 16
16 49 16
16 49 16
36 52 36
36 52 36
36 52 36
36 52 36
36 53 36
36 53 36
36 53 36
36 53 36
36 53 36
36 53 36
16 50 16
16 50 16
16 50 16
16 50 16
16 50 16
16 50 16
16 50 16
25 0 0
25 0 0
0 0 25
0 0 25
0 0 25
0 0 25
0 0 25
0 0 25
0 0 25
0 0 25
0 0 25
25 0 0
25 0 0
44 44 44
44 44 44
44 44 44
44 44 44
44 44 44
44 44 44
44 44 44
44 44 44
44 44 44
44 44 44
44 44 44
44 44 44
44 44 44
44 44 44
44 44 44
44 44 44
44 44 44
44 44 44
44 44 44
44 44 44
44 44 44
44 44 44
44 44 44
44 44 44
44 44 44
44 44 44
44 44 44
44 44 44
44 44 44
44 44 44
44 44 44
44 44 44
44 44 44
44 44 44
44 44 44
44 44 44
44 44 44
44 44 44
44 44 44
44 44 44
16 48 16
16 48 16
16 48 16
16 48 16
16 48 16
16 48 16
16 49 16
16 49 16
16 49 16
16 49 16
35 52 35
35 52 35
35 52 35
35 52 35
35 52 35
35 52 35
35 52 35
36 52 36
36 52 36
36 52 36
16 49 16
16 49 16
16 49 16
16 49 16
16 49 16
16 49 16
16 49 16
16 49 16
16 49 16
16 49 16
35 52 35
35 51 35
35 51 35
35 51 35
35 51 35
35 51 35
35 51 35
34 51 34
34 50 34
34 50 34
44 44 44
44 44 44
44 44 44
44 44 44
44 44 44
44 44 44
44 44 44
44 44 44
44 44 44
44 44 44
44 44 44
44 44 44
44 44 44
44 44 44
44 44 44
44 44 44
44 44 44
44 44 44
44 44 44
44 44 44
44 44 44
44 44 44
44 44 44
44 44 44
44 44 44
44 44 44
44 44 44
44 44 44
44 44 44
44 44 44
44 44 44
44 44 44
44 44 44
44 44 44
44 44 44
44 44 44
44 44 44
44 44 44
44 44 44
44 44 44
15 47 15
15 47 15
16 48 16
16 48 16
16 48 16
16 48 16
16 48 16
16 48 16
16 48 16
16 48 16
35 51 35
35 51 35
35 51 35
35 51 35
35 52 35
35 52 35
35 52 35
35 52 35
35 52 35
35 52 35
16 49 16
16 49 16
16 49 16
16 49 16
16 49 16
16 49 16
16 49 16
16 49 16
16 49 16
16 48 16
35 51 35
35 51 35
35 51 35
35 51 35
34 51 34
34 51 34
34 50 34
34 50 34
34 50 34
34 50 34
44 44 44
44 44 44
44 44 44
44 44 44
44 44 44
44 44 44
44 44 44
44 44 44
44 44 44
44 44 44
44 44 44
44 44 44
44 44 44
44 44 44
44 44 44
44 44 44
44 44 44
44 44 44
44 44 44
44 44 44
44 44 44
44 44 44
44 44 44
44 44 44
44 44 44
44 44 44
44 44 44
44 44 44
44 44 44
44 44 44
44 44 44
44 44 44
44 44 44
44 44 44
44 44 44
44 44 44
44 44 44
44 44 44
44 44 44
44 44 44
15 47 15
15 47 15
15 47 15
15 47 15
15 47 15
16 48 16
16 48 16
16 48 16
16 48 16
16 48 16
35 51 35
35 51 35
35 51 35
35 51 35
35 51 35
35 51 35
35 51 35
35 51 35
35 51 35
35 51 35
16 48 16
16 48 16
16 48 16
16 48 16
16 48 16
16 48 16
16 48 16
16 48 16
16 48 16
16 48 16
35 51 35
34 51 34
34 50 34
34 50 34
34 50 34
34 50 34
34 50 34
34 50 34
34 50 34
34 49 34
44 44 44
44 44 44
44 44 44
44 44 44
44 44 44
44 44 44
44 44 44
44 44 44
44 44 44
44 44 44
44 44 44
44 44 44
44 44 44
44 44 44
44 44 44
44 44 44
44 44 44
44 44 44
44 44 44
44 44 44
44 44 44
44 44 44
44 44 44
44 44 44
44 44 44
44 44 44
44 44 44
44 44 44
44 44 44
44 44 44
44 44 44
44 44 44
44 44 44
44 44 44
44 44 44
44 44 44
44 44 44
44 44 44
44 44 44
44 44 44
31 46 31
31 47 31
31 47 31
31 47 31
31 47 31
31 47 31
31 47 31
31 47 31
31 47 31
32 48 32
50 50 50
50 50 50
50 50 50
51 51 51
51 51 51
51 51 51
51 51 51
51 51 51
51 51 51
51 51 51
32 48 32
32 48 32
16 48 16
16 48 16
32 48 32
16 48 16
16 48 16
16 48 16
16 48 16
16 48 16
34 50 34
34 50 34
34 50 34
34 50 34
34 50 34
34 50 34
34 50 34
34 49 34
34 49 34
33 49 33
44 44 44
44 44 44
44 44 44
44 44 44
44 44 44
44 44 44
44 44 44
44 44 44
44 44 44
44 44 44
44 44 44
44 44 44
44 44 44
44 44 44
44 44 44
44 44 44
44 44 44
44 44 44
44 44 44
44 44 44
44 44 44
44 44 44
44 44 44
44 44 44
44 44 44
44 44 44
44 44 44
44 44 44
44 44 44
44 44 44
44 44 44
44 44 44
44 44 44
44 44 44
44 44 44
44 44 44
44 44 44
44 44 44
44 44 44
44 44 44
31 46 31
31 46 31
31 46 31
31 47 31
31 47 31
31 47 31
31 47 31
31 47 31
31 47 31
31 47 31
50 50 50
50 50 50
50 50 50
50 50 50
50 50 50
50 50 50
50 50 50
50 50 50
50 50 50
50 50 50
32 48 32
32 48 32
32 48 32
32 48 32
31 47 31
31 47 31
31 47 31
31 47 31
31 47 31
31 47 31
50 50 50
50 50 50
50 50 50
49 49 49
49 49 49
49 49 49
49 49 49
49 49 49
49 49 49
49 49 49
44 44 44
44 44 44
44 44 44
44 44 44
44 44 44
44 44 44
44 44 44
44 44 44
44 44 44
44 44 44
44 44 44
44 44 44
44 44 44
44 44 44
44 44 44
44 44 44
44 44 44
44 44 44
44 44 44
44 44 44
44 44 44
44 44 44
44 44 44
44 44 44
44 44 44
44 44 44
44 44 44
44 44 44
44 44 44
44 44 44
44 44 44
44 44 44
44 44 44
44 44 44
44 44 44
44 44 44
44 44 44
44 44 44
44 44 44
44 44 44
30 46 30
30 46 30
31 46 31
31 46 31
31 46 31
31 46 31
31 46 31
31 47 31
31 47 31
31 47 31
49 49 49
50 50 50
50 50 50
50 50 50
50 50 50
50 50 50
50 50 50
50 50 50
50 50 50
50 50 50
31 47 31
31 47 31
31 47 31
31 47 31
31 47 31
31 47 31
31 47 31
31 47 31
31 47 31
31 47 31
49 49 49
49 49 49
49 49 49
49 49 49
49 49 49
49 49 49
49 49 49
49 49 49
48 48 48
48 48 48
44 44 44
44 44 44
44 44 44
44 44 44
44 44 44
44 44 44
44 44 44
44 44 44
44 44 44
44 44 44
44 44 44
44 44 44
44 44 44
44 44 44
44 44 44
44 44 44
44 44 44
44 44 44
44 44 44
44 44 44
44 44 44
44 44 44
44 44 44
44 44 44
44 44 44
44 44 44
44 44 44
44 44 44
44 44 44
44 44 44
44 44 44
44 44 44
44 44 44
44 44 44
44 44 44
44 44 44
44 44 44
44 44 44
44 44 44
44 44 44
30 45 30
30 46 30
30 46 30
30 46 30
30 46 30
30 46 30
31 46 31
31 46 31
31 46 31
31 46 31
49 49 49
49 49 49
49 49 49
49 49 49
49 49 49
49 49 49
49 49 49
49 49 49
49 49 49
49 49 49
31 47 31
31 47 31
31 47 31
31 47 31
31 47 31
31 47 31
31 47 31
31 47 31
31 46 31
31 46 31
49 49 49
49 49 49
49 49 49
49 49 49
49 49 49
48 48 48
48 48 48
48 48 48
48 48 48
48 48 48
44 44 44
44 44 44
44 44 44
44 44 44
44 44 44
44 44 44
44 44 44
44 44 44
44 44 44
44 44 44
44 44 44
44 44 44
44 44 44
44 44 44
44 44 44
44 44 44
44 44 44
44 44 44
44 44 44
44 44 44
44 44 44
44 44 44
44 44 44
44 44 44
44 44 44
44 44 44
44 44 44
44 44 44
44 44 44
44 44 44
44 44 44
44 44 44
44 44 44
44 44 44
44 44 44
44 44 44
44 44 44
44 44 44
44 44 44
44 44 44
30 45 30
30 45 30
30 45 30
30 45 30
30 46 30
30 46 30
30 46 30
30 46 30
30 46 30
30 46 30
49 49 49
49 49 49
49 49 49
49 49 49
49 49 49
49 49 49
49 49 49
49 49 49
49 49 49
49 49 49
31 46 31
31 46 31
31 46 31
31 46 31
31 46 31
31 46 31
31 46 31
31 46 31
31 46 31
31 46 31
49 49 49
48 48 48
48 48 48
48 48 48
48 48 48
48 48 48
48 48 48
48 48 48
48 48 48
48 48 48
44 44 44
44 44 44
44 44 44
44 44 44
44 44 44
44 44 44
44 44 44
44 44 44
44 44 44
44 44 44
44 44 44
44 44 44
44 44 44
44 44 44
44 44 44
44 44 44
44 44 44
44 44 44
44 44 44
44 44 44
44 44 44
44 44 44
44 44 44
44 44 44
44 44 44
44 44 44
44 44 44
44 44 44
44 44 44
44 44 44
44 44 44
44 44 44
44 44 44
44 44 44
44 44 44
44 44 44
44 44 44
44 44 44
44 44 44
44 44 44
30 45 30
30 45 30
30 45 30
30 45 30
30 45 30
30 45 30
30 45 30
30 45 30
30 46 30
30 46 30
48 48 48
48 48 48
48 48 48
48 48 48
48 48 48
48 48 48
49 49 49
49 49 49
49 49 49
49 49 49
30 46 30
30 46 30
30 46 30
30 46 30
30 46 30
30 46 30
30 46 30
30 46 30
30 46 30
30 46 30
48 48 48
48 48 48
48 48 48
48 48 48
48 48 48
48 48 48
48 48 48
48 48 48
47 47 47
47 47 47
44 44 44
44 44 44
44 44 44
44 44 44
44 44 44
44 44 44
44 44 44
44 44 44
44 44 44
44 44 44
44 44 44
44 44 44
44 44 44
44 44 44
44 44 44
44 44 44
44 44 44
44 44 44
44 44 44
44 44 44
44 44 44
44 44 44
44 44 44
44 44 44
44 44 44
44 44 44
44 44 44
44 44 44
44 44 44
44 44 44
44 44 44
44 44 44
44 44 44
44 44 44
44 44 44
44 44 44
44 44 44
44 44 44
44 44 44
44 44 44
29 44 29
30 45 30
30 45 30
30 45 30
30 45 30
30 45 30
30 45 30
30 45 30
30 45 30
30 45 30
48 48 48
48 48 48
48 48 48
48 48 48
48 48 48
48 48 48
48 48 48
48 48 48
48 48 48
48 48 48
30 46 30
30 46 30
30 46 30
30 46 30
30 46 30
30 46 30
30 45 30
30 45 30
30 45 30
30 45 30
48 48 48
48 48 48
48 48 48
48 48 48
47 47 47
47 47 47
47 47 47
47 47 47
47 47 47
47 47 47
44 44 44
44 44 44
44 44 44
44 44 44
44 44 44
44 44 44
44 44 44
44 44 44
44 44 44
44 44 44
44 44 44
44 44 44
44 44 44
44 44 44
44 44 44
44 44 44
44 44 44
44 44 44
44 44 44
44 44 44
44 44 44
44 44 44
44 44 44
44 44 44
44 44 44
44 44 44
44 44 44
44 44 44
44 44 44
44 44 44
44 44 44
44 44 44
44 44 44
44 44 44
44 44 44
44 44 44
44 44 44
44 44 44
44 44 44
44 44 44
29 44 29
29 44 29
29 44 29
29 44 29
30 45 30
30 45 30
30 45 30
30 45 30
30 45 30
30 45 30
47 47 47
48 48 48
48 48 48
48 48 48
48 48 48
48 48 48
48 48 48
48 48 48
48 48 48
48 48 48
30 45 30
30 45 30
30 45 30
30 45 30
30 45 30
30 45 30
30 45 30
30 45 30
30 45 30
30 45 30
47 47 47
47 47 47
47 47 47
47 47 47
47 47 47
47 47 47
47 47 47
47 47 47
47 47 47
47 47 47
44 44 44
44 44 44
44 44 44
44 44 44
44 44 44
44 44 44
44 44 44
44 44 44
44 44 44
44 44 44
44 44 44
44 44 44
44 44 44
44 44 44
44 44 44
44 44 44
44 44 44
44 44 44
44 44 44
44 44 44
44 44 44
44 44 44
44 44 44
44 44 44
44 44 44
44 44 44
44 44 44
44 44 44
44 44 44
44 44 44
44 44 44
44 44 44
44 44 44
44 44 44
44 44 44
44 44 44
44 44 44
44 44 44
44 44 44
44 44 44
29 44 29
29 44 29
29 44 29
29 44 29
29 44 29
29 44 29
29 44 29
29 44 29
30 45 30
30 45 30
47 47 47
47 47 47
47 47 47
47 47 47
47 47 47
47 47 47
47 47 47
47 47 47
47 47 47
47 47 47
30 45 30
30 45 30
30 45 30
30 45 30
30 45 30
30 45 30
30 45 30
30 45 30
30 45 30
30 45 30
47 47 47
47 47 47
47 47 47
47 47 47
47 47 47
47 47 47
47 47 47
47 47 47
46 46 46
46 46 46
44 44 44
44 44 44
44 44 44
44 44 44
44 44 44
44 44 44
44 44 44
44 44 44
44 44 44
44 44 44
44 44 44
44 44 44
44 44 44
44 44 44
44 44 44
44 44 44
44 44 44
44 44 44
44 44 44
44 44 44
44 44 44
44 44 44
44 44 44
44 44 44
44 44 44
44 44 44
44 44 44
44 44 44
44 44 44
44 44 44
44 44 44
44 44 44
44 44 44
44 44 44
44 44 44
44 44 44
44 44 44
44 44 44
44 44 44
44 44 44
29 44 29
29 44 29
29 44 29
29 44 29
29 44 29
29 44 29
29 44 29
29 44 29
29 44 29
29 44 29
47 47 47
47 47 47
47 47 47
47 47 47
47 47 47
47 47 47
47 47 47
47 47 47
47 47 47
47 47 47
30 45 30
30 45 30
30 45 30
30 45 30
29 44 29
29 44 29
29 44 29
29 44 29
29 44 29
29 44 29
47 47 47
47 47 47
47 47 47
47 47 47
46 46 46
46 46 46
46 46 46
46 46 46
46 46 46
46 46 46
44 44 44
44 44 44
44 44 44
44 44 44
44 44 44
44 44 44
44 44 44
44 44 44
44 44 44
44 44 44
44 44 44
44 44 44
44 44 44
44 44 44
44 44 44
44 44 44
44 44 44
44 44 44
44 44 44
44 44 44
44 44 44
44 44 44
44 44 44
44 44 44
44 44 44
44 44 44
44 44 44
44 44 44
44 44 44
44 44 44
44 44 44
44 44 44
44 44 44
44 44 44
44 44 44
44 44 44
44 44 44
44 44 44
44 44 44
44 44 44
14 43 14
14 43 14
14 43 14
14 44 14
14 44 14
14 44 14
14 44 14
14 44 14
29 44 29
29 44 29
46 46 46
47 47 47
47 47 47
47 47 47
47 47 47
47 47 47
47 47 47
47 47 47
47 47 47
47 47 47
29 44 29
29 44 29
29 44 29
29 44 29
29 44 29
29 44 29
29 44 29
29 44 29
29 44 29
29 44 29
46 46 46
46 46 46
46 46 46
46 46 46
46 46 46
46 46 46
46 46 46
46 46 46
46 46 46
46 46 46
44 44 44
44 44 44
44 44 44
44 44 44
44 44 44
44 44 44
44 44 44
44 44 44
44 44 44
44 44 44
44 44 44
44 44 44
44 44 44
44 44 44
44 44 44
44 44 44
44 44 44
44 44 44
44 44 44
44 44 44
44 44 44
44 44 44
44 44 44
44 44 44
44 44 44
44 44 44
44 44 44
44 44 44
44 44 44
44 44 44
44 44 44
44 44 44
44 44 44
44 44 44
44 44 44
44 44 44
44 44 44
44 44 44
44 44 44
44 44 44
14 43 14
14 43 14
14 43 14
14 43 14
14 43 14
14 43 14
14 43 14
14 44 14
14 44 14
14 44 14
31 46 31
31 46 31
31 46 31
31 46 31
32 46 32
32 46 32
32 46 32
32 46 32
32 46 32
32 46 32
14 44 14
14 44 14
14 44 14
14 44 14
14 44 14
14 44 14
14 44 14
14 44 14
14 44 14
14 44 14
31 46 31
31 46 31
31 46 31
31 46 31
31 46 31
31 46 31
31 46 31
31 46 31
31 45 31
31 45 31
44 44 44
44 44 44
44 44 44
44 44 44
44 44 44
44 44 44
44 44 44
44 44 44
44 44 44
44 44 44
44 44 44
44 44 44
44 44 44
44 44 44
44 44 44
44 44 44
44 44 44
44 44 44
44 44 44
44 44 44
44 44 44
44 44 44
44 44 44
44 44 44
44 44 44
44 44 44
44 44 44
44 44 44
44 44 44
44 44 44
44 44 44
44 44 44
44 44 44
44 44 44
44 44 44
44 44 44
44 44 44
44 44 44
44 44 44
44 44 44
14 43 14
14 43 14
14 43 14
14 43 14
14 43 14
14 43 14
14 43 14
14 43 14
14 43 14
14 43 14
31 46 31
31 46 31
31 46 31
31 46 31
31 46 31
31 46 31
31 46 31
31 46 31
31 46 31
31 46 31
14 44 14
14 44 14
14 44 14
14 44 14
14 44 14
14 44 14
14 43 14
14 43 14
14 43 14
14 43 14
31 46 31
31 46 31
31 46 31
31 46 31
31 46 31
31 45 31
31 45 31
31 45 31
31 45 31
31 45 31
44 44 44
44 44 44
44 44 44
44 44 44
44 44 44
44 44 44
44 44 44
44 44 44
44 44 44
44 44 44
44 44 44
44 44 44
44 44 44
44 44 44
44 44 44
44 44 44
44 44 44
44 44 44
44 44 44
44 44 44
44 44 44
44 44 44
44 44 44
44 44 44
44 44 44
44 44 44
44 44 44
44 44 44
44 44 44
44 44 44
44 44 44
44 44 44
44 44 44
44 44 44
44 44 44
44 44 44
44 44 44
44 44 44
44 44 44
44 44 44
14 42 14
14 43 14
14 43 14
14 43 14
14 43 14
14 43 14
14 43 14
14 43 14
14 43 14
14 43 14
31 45 31
31 46 31
31 46 31
31 46 31
31 46 31
31 46 31
31 46 31
31 46 31
31 46 31
31 46 31
14 43 14
14 43 14
14 43 14
14 43 14
14 43 14
14 43 14
14 43 14
14 43 14
14 43 14
14 43 14
31 45 31
31 45 31
31 45 31
31 45 31
31 45 31
31 45 31
31 45 31
31 45 31
31 45 31
31 45 31
44 44 44
44 44 44
44 44 44
44 44 44
44 44 44
44 44 44
44 44 44
44 44 44
44 44 44
44 44 44
44 44 44
44 44 44
44 44 44
44 44 44
44 44 44
44 44 44
44 44 44
44 44 44
44 44 44
44 44 44
44 44 44
44 44 44
44 44 44
44 44 44
44 44 44
44 44 44
44 44 44
44 44 44
44 44 44
44 44 44
44 44 44
44 44 44
44 44 44
44 44 44
44 44 44
44 44 44
44 44 44
44 44 44
44 44 44
44 44 44
14 42 14
14 42 14
14 42 14
14 42 14
14 42 14
14 43 14
14 43 14
14 43 14
14 43 14
14 43 14
31 45 31
31 45 31
31 45 31
31 45 31
31 45 31
31 45 31
31 45 31
31 45 31
31 45 31
31 45 31
14 43 14
14 43 14
14 43 14
14 43 14
14 43 14
14 43 14
14 43 14
14 43 14
14 43 14
14 43 14
31 45 31
31 45 31
31 45 31
31 45 31
31 45 31
31 45 31
30 45 30
30 45 30
30 45 30
30 45 30
44 44 44
44 44 44
44 44 44
44 44 44
44 44 44
44 44 44
44 44 44
44 44 44
44 44 44
44 44 44
44 44 44
44 44 44
44 44 44
44 44 44
44 44 44
44 44 44
44 44 44
44 44 44
44 44 44
44 44 44
44 44 44
44 44 44
44 44 44
44 44 44
44 44 44
44 44 44
44 44 44
44 44 44
44 44 44
44 44 44
44 44 44
44 44 44
44 44 44
44 44 44
44 44 44
44 44 44
44 44 44
44 44 44
44 44 44
44 44 44
14 42 14
14 42 14
14 42 14
14 42 14
14 42 14
14 42 14
14 42 14
14 42 14
14 42 14
14 42 14
31 45 31
31 45 31
31 45 31
31 45 31
31 45 31
31 45 31
31 45 31
31 45 31
31 45 31
31 45 31
14 43 14
14 43 14
14 43 14
14 43 14
14 43 14
14 43 14
14 43 14
14 43 14
14 43 14
14 43 14
31 45 31
30 45 30
30 45 30
30 45 30
30 45 30
30 45 30
30 44 30
30 44 30
30 44 30
30 44 30
44 44 44
44 44 44
44 44 44
44 44 44
44 44 44
44 44 44
44 44 44
44 44 44
44 44 44
44 44 44
44 44 44
44 44 44
44 44 44
44 44 44
44 44 44
44 44 44
44 44 44
44 44 44
44 44 44
44 44 44
44 44 44
44 44 44
44 44 44
44 44 44
44 44 44
44 44 44
44 44 44
44 44 44
44 44 44
44 44 44
44 44 44
44 44 44
44 44 44
44 44 44
44 44 44
44 44 44
44 44 44
44 44 44
44 44 44
44 44 44
14 42 14
14 42 14
14 42 14
14 42 14
14 42 14
14 42 14
14 42 14
14 42 14
14 42 14
14 42 14
30 45 30
30 45 30
30 45 30
30 45 30
30 45 30
30 45 30
30 45 30
30 45 30
30 45 30
30 45 30
14 42 14
14 42 14
14 42 14
14 42 14
14 42 14
14 42 14
14 42 14
14 42 14
14 42 14
14 42 14
30 45 30
30 45 30
30 44 30
30 44 30
30 44 30
30 44 30
30 44 30
30 44 30
30 44 30
30 44 30
44 44 44
44 44 44
44 44 44
44 44 44
44 44 44
44 44 44
44 44 44
44 44 44
44 44 44
44 44 44
44 44 44
44 44 44
44 44 44
44 44 44
44 44 44
44 44 44
44 44 44
44 44 44
44 44 44
44 44 44
44 44 44
44 44 44
44 44 44
44 44 44
44 44 44
44 44 44
44 44 44
44 44 44
44 44 44
44 44 44
44 44 44
44 44 44
44 44 44
44 44 44
44 44 44
44 44 44
44 44 44
44 44 44
44 44 44
44 44 44
13 41 13
13 41 13
14 42 14
14 42 14
14 42 14
14 42 14
14 42 14
14 42 14
14 42 14
14 42 14
30 44 30
30 44 30
30 44 30
30 44 30
30 44 30
30 44 30
30 44 30
30 44 30
30 45 30
30 45 30
14 42 14
14 42 14
14 42 14
14 42 14
14 42 14
14 42 14
14 42 14
14 42 14
14 42 14
14 42 14
30 44 30
30 44 30
30 44 30
30 44 30
30 44 30
30 44 30
30 44 30
30 44 30
30 44 30
30 44 30
44 44 44
44 44 44
44 44 44
44 44 44
44 44 44
44 44 44
44 44 44
44 44 44
44 44 44
44 44 44
44 44 44
44 44 44
44 44 44
44 44 44
44 44 44
44 44 44
44 44 44
44 44 44
44 44 44
44 44 44
44 44 44
44 44 44
44 44 44
44 44 44
44 44 44
44 44 44
44 44 44
44 44 44
44 44 44
44 44 44
44 44 44
44 44 44
44 44 44
44 44 44
44 44 44
44 44 44
44 44 44
44 44 44
44 44 44
44 44 44
13 41 13
13 41 13
13 41 13
13 41 13
13 41 13
13 41 13
14 42 14
14 42 14
14 42 14
14 42 14
30 44 30
30 44 30
30 44 30
30 44 30
30 44 30
30 44 30
30 44 30
30 44 30
30 44 30
30 44 30
14 42 14
14 42 14
14 42 14
14 42 14
14 42 14
14 42 14
14 42 14
14 42 14
14 42 14
14 42 14
30 44 30
30 44 30
30 44 30
30 44 30
30 44 30
30 44 30
30 44 30
30 44 30
30 44 30
30 43 30
44 44 44
44 44 44
44 44 44
44 44 44
44 44 44
44 44 44
44 44 44
44 44 44
44 44 44
44 44 44
44 44 44
44 44 44
44 44 44
44 44 44
44 44 44
44 44 44
44 44 44
44 44 44
44 44 44
44 44 44
44 44 44
44 44 44
44 44 44
44 44 44
44 44 44
44 44 44
44 44 44
44 44 44
44 44 44
44 44 44
44 44 44
44 44 44
44 44 44
44 44 44
44 44 44
44 44 44
44 44 44
44 44 44
44 44 44
44 44 44
13 41 13
13 41 13
13 41 13
13 41 13
13 41 13
13 41 13
13 41 13
13 41 13
13 41 13
13 41 13
30 44 30
30 44 30
30 44 30
30 44 30
30 44 30
30 44 30
30 44 30
30 44 30
30 44 30
30 44 30
14 42 14
14 42 14
14 42 14
14 42 14
14 42 14
14 42 14
14 42 14
14 42 14
13 41 13
13 41 13
30 44 30
30 44 30
30 44 30
30 44 30
30 44 30
30 44 30
30 43 30
30 43 30
29 43 29
29 43 29
44 44 44
44 44 44
44 44 44
44 44 44
44 44 44
44 44 44
44 44 44
44 44 44
44 44 44
44 44 44
44 44 44
44 44 44
44 44 44
44 44 44
44 44 44
44 44 44
44 44 44
44 44 44
44 44 44
44 44 44
44 44 44
44 44 44
44 44 44
44 44 44
44 44 44
44 44 44
44 44 44
44 44 44
44 44 44
44 44 44
44 44 44
44 44 44
44 44 44
44 44 44
44 44 44
44 44 44
44 44 44
44 44 44
44 44 44
44 44 44
7 22 7
7 22 7
7 22 7
7 22 7
7 22 7
7 22 7
7 22 7
7 22 7
7 22 7
7 22 7
16 24 16
16 24 16
16 24 16
16 24 16
30 44 30
16 24 16
16 24 16
16 24 16
16 24 16
16 24 16
7 22 7
7 22 7
7 22 7
7 22 7
7 22 7
13 41 13
7 22 7
7 22 7
7 22 7
7 22 7
16 24 16
63 93 63
16 24 16
63 92 63
29 43 29
16 24 16
29 43 29
29 43 29
16 24 16
29 43 29
44 44 44
44 44 44
44 44 44
44 44 44
44 44 44
44 44 44
44 44 44
44 44 44
44 44 44
44 44 44
44 44 44
44 44 44
44 44 44
44 44 44
44 44 44
44 44 44
44 44 44
44 44 44
44 44 44
44 44 44
44 44 44
44 44 44
44 44 44
44 44 44
44 44 44
44 44 44
44 44 44
44 44 44
44 44 44
44 44 44
44 44 44
44 44 44
44 44 44
44 44 44
44 44 44
44 44 44
44 44 44
44 44 44
44 44 44
44 44 44
29 88 29
29 88 29
29 88 29
29 88 29
29 88 29
29 89 29
29 89 29
29 89 29
29 89 29
29 89 29
29 89 29
29 89 29
64 94 64
16 24 16
16 24 16
16 24 16
16 24 16
16 24 16
16 24 16
16 24 16
16 24 16
16 24 16
16 24 16
16 24 16
7 22 7
7 22 7
7 22 7
7 22 7
7 22 7
7 22 7
7 22 7
7 22 7
7 22 7
7 22 7
7 22 7
29 89 29
64 94 64
64 94 64
64 94 64
64 94 64
44 44 44
44 44 44
44 44 44
44 44 44
44 44 44
44 44 44
44 44 44
44 44 44
44 44 44
44 44 44
44 44 44
44 44 44
44 44 44
44 44 44
44 44 44
44 44 44
44 44 44
44 44 44
44 44 44
44 44 44
44 44 44
44 44 44
44 44 44
44 44 44
44 44 44
44 44 44
44 44 44
44 44 44
44 44 44
44 44 44
44 44 44
44 44 44
44 44 44
44 44 44
44 44 44
44 44 44
44 44 44
44 44 44
44 44 44
44 44 44
59 88 59
59 88 59
59 89 59
59 89 59
59 89 59
59 89 59
59 89 59
59 89 59
59 89 59
15 22 15
15 22 15
15 22 15
15 22 15
15 22 15
24 24 24
24 24 24
24 24 24
24 24 24
24 24 24
24 24 24
24 24 24
24 24 24
24 24 24
24 24 24
24 24 24
24 24 24
24 24 24
24 24 24
15 22 15
15 22 15
15 22 15
15 22 15
15 22 15
15 22 15
15 22 15
15 22 15
15 22 15
15 22 15
15 22 15
15 22 15
44 44 44
44 44 44
44 44 44
44 44 44
44 44 44
44 44 44
44 44 44
44 44 44
44 44 44
44 44 44
44 44 44
44 44 44
44 44 44
44 44 44
44 44 44
44 44 44
44 44 44
44 44 44
44 44 44
44 44 44
44 44 44
44 44 44
44 44 44
44 44 44
44 44 44
44 44 44
44 44 44
44 44 44
44 44 44
44 44 44
44 44 44
44 44 44
44 44 44
44 44 44
44 44 44
44 44 44
44 44 44
44 44 44
44 44 44
44 44 44
59 89 59
59 89 59
59 89 59
59 89 59
59 89 59
59 89 59
59 89 59
60 90 60
15 22 15
15 22 15
15 22 15
15 22 15
15 22 15
15 22 15
15 22 15
15 22 15
24 24 24
24 24 24
24 24 24
24 24 24
24 24 24
24 24 24
24 24 24
24 24 24
24 24 24
24 24 24
24 24 24
24 24 24
24 24 24
24 24 24
24 24 24
24 24 24
15 22 15
15 22 15
15 22 15
15 22 15
15 22 15
15 22 15
15 22 15
15 22 15
44 44 44
44 44 44
44 44 44
44 44 44
44 44 44
44 44 44
44 44 44
44 44 44
44 44 44
44 44 44
44 44 44
44 44 44
44 44 44
44 44 44
44 44 44
44 44 44
44 44 44
44 44 44
44 44 44
44 44 44
44 44 44
44 44 44
44 44 44
44 44 44
44 44 44
44 44 44
44 44 44
44 44 44
44 44 44
44 44 44
44 44 44
44 44 44
44 44 44
44 44 44
44 44 44
44 44 44
44 44 44
44 44 44
44 44 44
44 44 44
59 89 59
59 89 59
59 89 59
59 89 59
59 89 59
59 89 59
59 89 59
60 90 60
15 22 15
15 22 15
15 22 15
15 22 15
15 22 15
15 22 15
15 22 15
15 22 15
15 22 15
15 22 15
24 24 24
24 24 24
24 24 24
24 24 24
24 24 24
24 24 24
24 24 24
24 24 24
24 24 24
24 24 24
24 24 24
24 24 24
24 24 24
24 24 24
24 24 24
24 24 24
24 24 24
24 24 24
15 22 15
15 22 15
15 22 15
15 22 15
44 44 44
44 44 44
44 44 44
44 44 44
44 44 44
44 44 44
44 44 44
44 44 44
44 44 44
44 44 44
44 44 44
44 44 44
44 44 44
44 44 44
44 44 44
44 44 44
44 44 44
44 44 44
44 44 44
44 44 44
44 44 44
44 44 44
44 44 44
44 44 44
44 44 44
44 44 44
44 44 44
44 44 44
44 44 44
44 44 44
44 44 44
44 44 44
44 44 44
44 44 44
44 44 44
44 44 44
44 44 44
44 44 44
44 44 44
44 44 44
59 89 59
59 89 59
59 89 59
59 89 59
59 89 59
59 89 59
59 89 59
60 90 60
15 22 15
15 22 15
15 22 15
15 22 15
15 22 15
15 22 15
15 22 15
15 22 15
15 22 15
15 22 15
15 22 15
15 22 15
24 24 24
24 24 24
16 24 16
24 24 24
16 24 16
24 24 24
24 24 24
16 24 16
16 24 16
16 24 16
24 24 24
16 24 16
16 24 16
16 24 16
16 24 16
16 24 16
16 24 16
16 24 16
16 24 16
16 24 16
44 44 44
44 44 44
44 44 44
44 44 44
44 44 44
44 44 44
44 44 44
44 44 44
44 44 44
44 44 44
44 44 44
44 44 44
44 44 44
44 44 44
44 44 44
44 44 44
44 44 44
44 44 44
44 44 44
44 44 44
44 44 44
44 44 44
44 44 44
44 44 44
44 44 44
44 44 44
44 44 44
44 44 44
44 44 44
44 44 44
44 44 44
44 44 44
44 44 44
44 44 44
44 44 44
44 44 44
44 44 44
44 44 44
44 44 44
44 44 44
29 89 29
29 89 29
29 89 29
29 89 29
29 89 29
29 89 29
29 89 29
29 89 29
30 90 30
7 22 7
7 22 7
7 22 7
7 22 7
7 22 7
7 22 7
7 22 7
7 22 7
7 22 7
7 22 7
7 22 7
7 22 7
7 22 7
16 24 16
16 24 16
16 24 16
16 24 16
16 24 16
16 24 16
16 24 16
16 24 16
16 24 16
16 24 16
16 24 16
16 24 16
16 24 16
16 24 16
16 24 16
16 24 16
16 24 16
16 24 16
44 44 44
44 44 44
44 44 44
44 44 44
44 44 44
44 44 44
44 44 44
44 44 44
44 44 44
44 44 44
44 44 44
44 44 44
44 44 44
44 44 44
44 44 44
44 44 44
44 44 44
44 44 44
44 44 44
44 44 44
44 44 44
44 44 44
44 44 44
44 44 44
44 44 44
44 44 44
44 44 44
44 44 44
44 44 44
44 44 44
44 44 44
44 44 44
44 44 44
44 44 44
44 44 44
44 44 44
44 44 44
44 44 44
44 44 44
44 44 44
29 89 29
29 89 29
29 89 29
29 89 29
29 89 29
29 89 29
29 89 29
29 89 29
29 89 29
29 89 29
30 90 30
7 22 7
7 22 7
7 22 7
7 22 7
7 22 7
7 22 7
7 22 7
7 22 7
7 22 7
7 22 7
7 22 7
7 22 7
7 22 7
16 24 16
16 24 16
16 24 16
16 24 16
16 24 16
16 24 16
16 24 16
16 24 16
16 24 16
16 24 16
16 24 16
16 24 16
16 24 16
16 24 16
16 24 16
16 24 16
44 44 44
44 44 44
44 44 44
44 44 44
44 44 44
44 44 44
44 44 44
44 44 44
44 44 44
44 44 44
44 44 44
44 44 44
44 44 44
44 44 44
44 44 44
44 44 44
44 44 44
44 44 44
44 44 44
44 44 44
44 44 44
44 44 44
44 44 44
44 44 44
44 44 44
44 44 44
44 44 44
44 44 44
44 44 44
44 44 44
44 44 44
44 44 44
44 44 44
44 44 44
44 44 44
44 44 44
44 44 44
44 44 44
44 44 44
44 44 44
29 89 29
29 89 29
29 89 29
29 89 29
29 89 29
29 89 29
29 89 29
29 89 29
29 89 29
29 89 29
29 89 29
30 90 30
7 22 7
7 22 7
7 22 7
7 22 7
7 22 7
7 22 7
7 22 7
7 22 7
7 22 7
7 22 7
7 22 7
7 22 7
7 22 7
7 22 7
16 24 16
16 24 16
16 24 16
16 24 16
16 24 16
16 24 16
16 24 16
16 24 16
16 24 16
16 24 16
16 24 16
16 24 16
16 24 16
16 24 16
44 44 44
44 44 44
44 44 44
44 44 44
44 44 44
44 44 44
44 44 44
44 44 44
44 44 44
44 44 44
44 44 44
44 44 44
44 44 44
44 44 44
44 44 44
44 44 44
44 44 44
44 44 44
44 44 44
44 44 44
44 44 44
44 44 44
44 44 44
44 44 44
44 44 44
44 44 44
44 44 44
44 44 44
44 44 44
44 44 44
44 44 44
44 44 44
44 44 44
44 44 44
44 44 44
44 44 44
44 44 44
44 44 44
44 44 44
44 44 44
29 88 29
29 89 29
29 89 29
29 89 29
29 89 29
29 89 29
29 89 29
29 89 29
29 89 29
29 89 29
29 89 29
29 89 29
29 89 29
30 90 30
7 22 7
7 22 7
7 22 7
7 22 7
7 22 7
7 22 7
7 22 7
7 22 7
7 22 7
7 22 7
7 22 7
7 22 7
7 22 7
7 22 7
16 24 16
16 24 16
16 24 16
16 24 16
16 24 16
16 24 16
16 24 16
16 24 16
16 24 16
16 24 16
16 24 16
16 24 16
44 44 44
44 44 44
44 44 44
44 44 44
44 44 44
44 44 44
44 44 44
44 44 44
44 44 44
44 44 44
44 44 44
44 44 44
44 44 44
44 44 44
44 44 44
44 44 44
44 44 44
44 44 44
44 44 44
44 44 44
44 44 44
44 44 44
44 44 44
44 44 44
44 44 44
44 44 44
44 44 44
44 44 44
44 44 44
44 44 44
44 44 44
44 44 44
44 44 44
44 44 44
44 44 44
44 44 44
44 44 44
44 44 44
44 44 44
44 44 44
29 88 29
29 88 29
29 89 29
29 89 29
29 89 29
29 89 29
29 89 29
29 89 29
29 89 29
29 89 29
29 89 29
29 89 29
29 89 29
29 89 29
29 89 29
30 90 30
30 90 30
7 22 7
7 22 7
7 22 7
7 22 7
7 22 7
7 22 7
7 22 7
7 22 7
7 22 7
7 22 7
7 22 7
7 22 7
7 22 7
16 24 16
16 24 16
16 24 16
16 24 16
16 24 16
16 24 16
16 24 16
16 24 16
16 24 16
16 24 16
44 44 44
44 44 44
44 44 44
44 44 44
44 44 44
44 44 44
44 44 44
44 44 44
44 44 44
44 44 44
44 44 44
44 44 44
44 44 44
44 44 44
44 44 44
44 44 44
44 44 44
44 44 44
44 44 44
44 44 44
44 44 44
44 44 44
44 44 44
44 44 44
44 44 44
44 44 44
44 44 44
44 44 44
44 44 44
44 44 44
44 44 44
44 44 44
44 44 44
44 44 44
44 44 44
44 44 44
44 44 44
44 44 44
44 44 44
44 44 44
29 88 29
29 88 29
29 88 29
29 89 29
29 89 29
29 89 29
29 89 29
29 89 29
29 89 29
29 89 29
29 89 29
29 89 29
29 89 29
29 89 29
29 89 29
29 89 29
29 89 29
29 89 29
30 90 30
7 22 7
7 22 7
7 22 7
7 22 7
7 22 7
7 22 7
7 22 7
7 22 7
7 22 7
7 22 7
7 22 7
7 22 7
7 22 7
16 24 16
16 24 16
16 24 16
16 24 16
16 24 16
16 24 16
16 24 16
16 24 16
44 44 44
44 44 44
44 44 44
44 44 44
44 44 44
44 44 44
44 44 44
44 44 44
44 44 44
44 44 44
44 44 44
44 44 44
44 44 44
44 44 44
44 44 44
44 44 44
44 44 44
44 44 44
44 44 44
44 44 44
44 44 44
44 44 44
44 44 44
44 44 44
44 44 44
44 44 44
44 44 44
44 44 44
44 44 44
44 44 44
44 44 44
44 44 44
44 44 44
44 44 44
44 44 44
44 44 44
44 44 44
44 44 44
44 44 44
44 44 44
29 88 29
29 88 29
29 88 29
29 88 29
29 89 29
29 89 29
29 89 29
29 89 29
29 89 29
29 89 29
29 89 29
29 89 29
29 89 29
29 89 29
29 89 29
29 89 29
29 89 29
29 89 29
29 89 29
29 89 29
30 90 30
30 90 30
7 22 7
7 22 7
7 22 7
7 22 7
7 22 7
7 22 7
7 22 7
7 22 7
7 22 7
7 22 7
7 22 7
7 22 7
16 24 16
16 24 16
16 24 16
16 24 16
16 24 16
16 24 16
44 44 44
44 44 44
44 44 44
44 44 44
44 44 44
44 44 44
44 44 44
44 44 44
44 44 44
44 44 44
44 44 44
44 44 44
44 44 44
44 44 44
44 44 44
44 44 44
44 44 44
44 44 44
44 44 44
44 44 44
44 44 44
44 44 44
44 44 44
44 44 44
44 44 44
44 44 44
44 44 44
44 44 44
44 44 44
44 44 44
44 44 44
44 44 44
44 44 44
44 44 44
44 44 44
44 44 44
44 44 44
44 44 44
44 44 44
44 44 44
29 88 29
29 88 29
29 88 29
29 88 29
29 88 29
29 89 29
29 89 29
29 89 29
29 89 29
29 89 29
29 89 29
29 89 29
29 89 29
29 89 29
29 89 29
29 89 29
29 89 29
29 89 29
29 89 29
29 89 29
29 89 29
29 89 29
29 89 29
30 90 30
7 22 7
7 22 7
7 22 7
7 22 7
7 22 7
7 22 7
7 22 7
7 22 7
7 22 7
7 22 7
7 22 7
7 22 7
16 24 16
16 24 16
16 24 16
16 24 16
44 44 44
44 44 44
44 44 44
44 44 44
44 44 44
44 44 44
44 44 44
44 44 44
44 44 44
44 44 44
44 44 44
44 44 44
44 44 44
44 44 44
44 44 44
44 44 44
44 44 44
44 44 44
44 44 44
44 44 44
44 44 44
44 44 44
44 44 44
44 44 44
44 44 44
44 44 44
44 44 44
44 44 44
44 44 44
44 44 44
44 44 44
44 44 44
44 44 44
44 44 44
44 44 44
44 44 44
44 44 44
44 44 44
44 44 44
44 44 44
29 88 29
29 88 29
29 88 29
29 88 29
29 88 29
29 88 29
29 88 29
29 89 29
29 89 29
29 89 29
29 89 29
29 89 29
29 89 29
29 89 29
29 89 29
29 89 29
29 89 29
29 89 29
29 89 29
29 89 29
29 89 29
29 89 29
29 89 29
29 89 29
29 89 29
29 89 29
30 90 30
7 22 7
7 22 7
7 22 7
7 22 7
7 22 7
7 22 7
7 22 7
7 22 7
7 22 7
7 22 7
7 22 7
16 24 16
16 24 16
44 44 44
44 44 44
44 44 44
44 44 44
44 44 44
44 44 44
44 44 44
44 44 44
44 44 44
44 44 44
44 44 44
44 44 44
44 44 44
44 44 44
44 44 44
44 44 44
44 44 44
44 44 44
44 44 44
44 44 44
44 44 44
44 44 44
44 44 44
44 44 44
44 44 44
44 44 44
44 44 44
44 44 44
44 44 44
44 44 44
44 44 44
44 44 44
44 44 44
44 44 44
44 44 44
44 44 44
44 44 44
44 44 44
44 44 44
44 44 44
29 88 29
29 88 29
29 88 29
29 88 29
29 88 29
29 88 29
29 88 29
29 88 29
29 89 29
29 89 29
29 89 29
29 89 29
29 89 29
29 89 29
29 89 29
29 89 29
29 89 29
29 89 29
29 89 29
29 89 29
29 89 29
29 89 29
29 89 29
29 89 29
29 89 29
29 89 29
29 89 29
29 89 29
30 90 30
30 90 30
7 22 7
7 22 7
7 22 7
7 22 7
7 22 7
7 22 7
7 22 7
7 22 7
7 22 7
7 22 7
44 44 44
44 44 44
44 44 44
44 44 44
44 44 44
44 44 44
44 44 44
44 44 44
44 44 44
44 44 44
44 44 44
44 44 44
44 44 44
44 44 44
44 44 44
44 44 44
44 44 44
44 44 44
44 44 44
44 44 44
44 44 44
44 44 44
44 44 44
44 44 44
44 44 44
44 44 44
44 44 44
44 44 44
44 44 44
44 44 44
44 44 44
44 44 44
44 44 44
44 44 44
44 44 44
44 44 44
44 44 44
44 44 44
44 44 44
44 44 44
59 88 59
59 88 59
59 88 59
59 88 59
59 88 59
59 88 59
59 88 59
59 88 59
59 88 59
59 88 59
59 89 59
59 89 59
59 89 59
59 89 59
59 89 59
59 89 59
59 89 59
59 89 59
59 89 59
59 89 59
59 89 59
59 89 59
59 89 59
59 89 59
59 89 59
59 89 59
59 89 59
59 89 59
59 89 59
59 89 59
59 89 59
60 90 60
60 90 60
15 22 15
15 22 15
15 22 15
15 22 15
15 22 15
15 22 15
15 22 15
44 44 44
44 44 44
44 44 44
44 44 44
44 44 44
44 44 44
44 44 44
44 44 44
44 44 44
44 44 44
44 44 44
44 44 44
44 44 44
44 44 44
44 44 44
44 44 44
44 44 44
44 44 44
44 44 44
44 44 44
44 44 44
44 44 44
44 44 44
44 44 44
44 44 44
44 44 44
44 44 44
44 44 44
44 44 44
44 44 44
44 44 44
44 44 44
44 44 44
44 44 44
44 44 44
44 44 44
44 44 44
44 44 44
44 44 44
44 44 44
58 88 58
58 88 58
59 88 59
59 88 59
59 88 59
59 88 59
59 88 59
59 88 59
59 88 59
59 88 59
59 88 59
59 89 59
59 89 59
59 89 59
59 89 59
59 89 59
59 89 59
59 89 59
59 89 59
59 89 59
59 89 59
59 89 59
59 89 59
59 89 59
59 89 59
59 89 59
59 89 59
59 89 59
59 89 59
59 89 59
59 89 59
59 89 59
59 89 59
59 89 59
59 89 59
60 90 60
60 90 60
15 22 15
15 22 15
15 22 15
