P3
2 2
255
254 0 0
0 254 0
254 0 254
0 0 254
