P3
96 54
255
63 63 63
6 6 6
6 6 6
63 63 63
63 63 63
6 6 6
6 6 6
63 63 63
63 63 63
6 6 6
63 63 63
63 63 63
6 6 6
6 6 6
63 63 63
63 63 63
6 6 6
6 6 6
63 63 63
6 6 6
6 6 6
63 63 63
63 63 63
6 6 6
6 6 6
63 63 63
6 6 6
6 6 6
63 63 63
63 63 63
6 6 6
6 6 6
63 63 63
63 63 63
6 6 6
63 63 63
63 63 63
6 6 6
6 6 6
63 63 63
63 63 63
6 6 6
6 6 6
63 63 63
6 6 6
6 6 6
63 63 63
63 63 63
6 6 6
6 6 6
63 63 63
63 63 63
6 6 6
63 63 63
63 63 63
6 6 6
6 6 6
63 63 63
63 63 63
6 6 6
6 6 6
63 63 63
6 6 6
6 6 6
63 63 63
63 63 63
6 6 6
6 6 6
63 63 63
63 63 63
6 6 6
63 63 63
63 63 63
6 6 6
6 6 6
63 63 63
63 63 63
6 6 6
63 63 63
63 63 63
6 6 6
6 6 6
63 63 63
63 63 63
6 6 6
6 6 6
63 63 63
6 6 6
6 6 6
63 63 63
63 63 63
6 6 6
6 6 6
63 63 63
63 63 63
6 6 6
70 70 70
70 70 70
70 70 70
70 70 70
70 70 70
70 70 70
70 70 70
70 70 70
70 70 70
70 70 70
70 70 70
70 70 70
70 70 70
70 70 70
70 70 70
70 70 70
70 70 70
70 70 70
70 70 70
70 70 70
70 70 70
70 70 70
70 70 70
70 70 70
70 70 70
70 70 70
70 70 70
70 70 70
70 70 70
70 70 70
70 70 70
70 70 70
70 70 70
70 70 70
70 70 70
70 70 70
70 70 70
70 70 70
70 70 70
70 70 70
70 70 70
70 70 70
70 70 70
70 70 70
70 70 70
70 70 70
127 127 127
127 127 127
127 127 127
127 127 127
127 127 127
127 127 127
127 127 127
127 127 127
127 127 127
127 127 127
127 127 127
127 127 127
127 127 127
127 127 127
127 127 127
127 127 127
127 127 127
127 127 127
127 127 127
127 127 127
127 127 127
127 127 127
127 127 127
127 127 127
127 127 127
127 127 127
127 127 127
127 127 127
127 127 127
127 127 127
127 127 127
127 127 127
127 127 127
127 127 127
127 127 127
127 127 127
127 127 127
127 127 127
127 127 127
127 127 127
127 127 127
127 127 127
127 127 127
127 127 127
127 127 127
127 127 127
127 127 127
127 127 127
127 127 127
127 127 127
6 6 6
63 63 63
6 6 6
63 63 63
63 63 63
6 6 6
63 63 63
6 6 6
63 63 63
63 63 63
6 6 6
63 63 63
6 6 6
63 63 63
63 63 63
6 6 6
63 63 63
6 6 6
63 63 63
63 63 63
6 6 6
63 63 63
6 6 6
63 63 63
6 6 6
6 6 6
63 63 63
6 6 6
63 63 63
6 6 6
6 6 6
63 63 63
6 6 6
63 63 63
6 6 6
6 6 6
63 63 63
6 6 6
63 63 63
6 6 6
6 6 6
63 63 63
6 6 6
63 63 63
6 6 6
6 6 6
63 63 63
6 6 6
63 63 63
6 6 6
63 63 63
63 63 63
6 6 6
63 63 63
6 6 6
63 63 63
63 63 63
6 6 6
63 63 63
6 6 6
63 63 63
63 63 63
6 6 6
63 63 63
6 6 6
63 63 63
63 63 63
6 6 6
63 63 63
6 6 6
63 63 63
63 63 63
6 6 6
63 63 63
6 6 6
63 63 63
6 6 6
6 6 6
63 63 63
6 6 6
63 63 63
6 6 6
6 6 6
63 63 63
6 6 6
63 63 63
6 6 6
6 6 6
63 63 63
6 6 6
63 63 63
6 6 6
6 6 6
63 63 63
6 6 6
63 63 63
63 63 63
6 6 6
63 63 63
6 6 6
63 63 63
6 6 6
63 63 63
63 63 63
6 6 6
63 63 63
6 6 6
63 63 63
6 6 6
63 63 63
6 6 6
63 63 63
6 6 6
63 63 63
6 6 6
63 63 63
6 6 6
63 63 63
6 6 6
6 6 6
63 63 63
6 6 6
63 63 63
6 6 6
63 63 63
6 6 6
63 63 63
6 6 6
63 63 63
6 6 6
63 63 63
6 6 6
63 63 63
6 6 6
63 63 63
6 6 6
6 6 6
63 63 63
6 6 6
63 63 63
6 6 6
63 63 63
6 6 6
63 63 63
6 6 6
63 63 63
6 6 6
63 63 63
6 6 6
63 63 63
6 6 6
63 63 63
63 63 63
6 6 6
63 63 63
6 6 6
63 63 63
6 6 6
63 63 63
6 6 6
63 63 63
6 6 6
63 63 63
6 6 6
63 63 63
6 6 6
63 63 63
6 6 6
63 63 63
63 63 63
6 6 6
63 63 63
6 6 6
63 63 63
6 6 6
63 63 63
6 6 6
63 63 63
6 6 6
63 63 63
6 6 6
63 63 63
6 6 6
63 63 63
6 6 6
6 6 6
63 63 63
6 6 6
63 63 63
6 6 6
63 63 63
6 6 6
127 127 127
70 70 70
127 127 127
70 70 70
127 127 127
70 70 70
70 70 70
127 127 127
70 70 70
127 127 127
70 70 70
70 70 70
127 127 127
70 70 70
127 127 127
70 70 70
127 127 127
127 127 127
70 70 70
127 127 127
70 70 70
127 127 127
70 70 70
70 70 70
127 127 127
70 70 70
127 127 127
70 70 70
70 70 70
127 127 127
70 70 70
127 127 127
70 70 70
127 127 127
127 127 127
70 70 70
127 127 127
70 70 70
127 127 127
70 70 70
70 70 70
127 127 127
70 70 70
127 127 127
70 70 70
70 70 70
127 127 127
70 70 70
127 127 127
70 70 70
127 127 127
127 127 127
70 70 70
127 127 127
70 70 70
127 127 127
127 127 127
70 70 70
127 127 127
70 70 70
127 127 127
70 70 70
70 70 70
127 127 127
70 70 70
127 127 127
70 70 70
127 127 127
127 127 127
70 70 70
127 127 127
70 70 70
127 127 127
127 127 127
70 70 70
127 127 127
70 70 70
127 127 127
70 70 70
70 70 70
127 127 127
70 70 70
127 127 127
70 70 70
127 127 127
127 127 127
70 70 70
127 127 127
70 70 70
127 127 127
127 127 127
70 70 70
127 127 127
70 70 70
127 127 127
70 70 70
70 70 70
127 127 127
127 127 127
127 127 127
127 127 127
127 127 127
127 127 127
127 127 127
70 70 70
70 70 70
70 70 70
70 70 70
70 70 70
70 70 70
70 70 70
127 127 127
127 127 127
127 127 127
127 127 127
127 127 127
127 127 127
70 70 70
70 70 70
70 70 70
70 70 70
70 70 70
70 70 70
70 70 70
127 127 127
127 127 127
127 127 127
127 127 127
127 127 127
127 127 127
127 127 127
70 70 70
70 70 70
70 70 70
70 70 70
70 70 70
70 70 70
127 127 127
127 127 127
127 127 127
127 127 127
127 127 127
127 127 127
127 127 127
70 70 70
70 70 70
70 70 70
70 70 70
70 70 70
70 70 70
70 70 70
127 127 127
127 127 127
127 127 127
127 127 127
127 127 127
127 127 127
70 70 70
70 70 70
70 70 70
70 70 70
70 70 70
70 70 70
70 70 70
127 127 127
127 127 127
127 127 127
127 127 127
127 127 127
127 127 127
127 127 127
70 70 70
70 70 70
70 70 70
70 70 70
70 70 70
70 70 70
127 127 127
127 127 127
127 127 127
127 127 127
127 127 127
127 127 127
127 127 127
70 70 70
70 70 70
70 70 70
70 70 70
70 70 70
70 70 70
70 70 70
127 127 127
6 6 6
63 63 63
6 6 6
63 63 63
6 6 6
63 63 63
6 6 6
63 63 63
6 6 6
6 6 6
63 63 63
6 6 6
63 63 63
6 6 6
63 63 63
6 6 6
63 63 63
6 6 6
63 63 63
6 6 6
6 6 6
63 63 63
6 6 6
63 63 63
6 6 6
63 63 63
6 6 6
63 63 63
6 6 6
63 63 63
6 6 6
6 6 6
63 63 63
6 6 6
63 63 63
6 6 6
63 63 63
6 6 6
63 63 63
6 6 6
63 63 63
6 6 6
6 6 6
63 63 63
6 6 6
63 63 63
6 6 6
63 63 63
6 6 6
63 63 63
6 6 6
63 63 63
6 6 6
63 63 63
63 63 63
6 6 6
63 63 63
6 6 6
63 63 63
6 6 6
63 63 63
6 6 6
63 63 63
6 6 6
63 63 63
63 63 63
6 6 6
63 63 63
6 6 6
63 63 63
6 6 6
63 63 63
6 6 6
63 63 63
6 6 6
63 63 63
63 63 63
6 6 6
63 63 63
6 6 6
63 63 63
6 6 6
63 63 63
6 6 6
63 63 63
6 6 6
63 63 63
63 63 63
6 6 6
63 63 63
6 6 6
63 63 63
6 6 6
63 63 63
6 6 6
63 63 63
6 6 6
63 63 63
63 63 63
63 63 63
6 6 6
6 6 6
6 6 6
63 63 63
63 63 63
63 63 63
6 6 6
6 6 6
6 6 6
63 63 63
63 63 63
63 63 63
6 6 6
6 6 6
6 6 6
6 6 6
63 63 63
63 63 63
63 63 63
6 6 6
6 6 6
6 6 6
63 63 63
63 63 63
63 63 63
6 6 6
6 6 6
6 6 6
63 63 63
63 63 63
63 63 63
6 6 6
6 6 6
6 6 6
6 6 6
63 63 63
63 63 63
63 63 63
6 6 6
6 6 6
6 6 6
63 63 63
63 63 63
63 63 63
6 6 6
6 6 6
6 6 6
63 63 63
63 63 63
63 63 63
6 6 6
6 6 6
6 6 6
63 63 63
63 63 63
63 63 63
63 63 63
6 6 6
6 6 6
6 6 6
63 63 63
63 63 63
63 63 63
6 6 6
6 6 6
6 6 6
63 63 63
63 63 63
63 63 63
6 6 6
6 6 6
6 6 6
63 63 63
63 63 63
63 63 63
63 63 63
6 6 6
6 6 6
6 6 6
63 63 63
63 63 63
63 63 63
6 6 6
6 6 6
6 6 6
63 63 63
63 63 63
63 63 63
6 6 6
6 6 6
6 6 6
63 63 63
6 6 6
6 6 6
6 6 6
6 6 6
6 6 6
6 6 6
6 6 6
6 6 6
6 6 6
6 6 6
6 6 6
6 6 6
6 6 6
6 6 6
6 6 6
6 6 6
6 6 6
6 6 6
6 6 6
63 63 63
63 63 63
63 63 63
63 63 63
63 63 63
63 63 63
63 63 63
63 63 63
63 63 63
63 63 63
63 63 63
63 63 63
63 63 63
63 63 63
63 63 63
63 63 63
63 63 63
63 63 63
63 63 63
63 63 63
63 63 63
63 63 63
63 63 63
63 63 63
63 63 63
63 63 63
63 63 63
63 63 63
63 63 63
6 6 6
6 6 6
6 6 6
6 6 6
6 6 6
6 6 6
6 6 6
6 6 6
6 6 6
6 6 6
6 6 6
6 6 6
6 6 6
6 6 6
6 6 6
6 6 6
6 6 6
6 6 6
6 6 6
6 6 6
6 6 6
6 6 6
6 6 6
6 6 6
6 6 6
6 6 6
6 6 6
6 6 6
6 6 6
63 63 63
63 63 63
63 63 63
63 63 63
63 63 63
63 63 63
63 63 63
63 63 63
63 63 63
63 63 63
63 63 63
63 63 63
63 63 63
63 63 63
63 63 63
63 63 63
63 63 63
63 63 63
63 63 63
6 6 6
6 6 6
6 6 6
6 6 6
6 6 6
6 6 6
6 6 6
6 6 6
6 6 6
6 6 6
6 6 6
6 6 6
6 6 6
6 6 6
6 6 6
6 6 6
6 6 6
6 6 6
63 63 63
63 63 63
63 63 63
63 63 63
63 63 63
63 63 63
63 63 63
63 63 63
63 63 63
63 63 63
63 63 63
63 63 63
63 63 63
63 63 63
63 63 63
63 63 63
63 63 63
63 63 63
63 63 63
63 63 63
63 63 63
63 63 63
63 63 63
63 63 63
63 63 63
63 63 63
63 63 63
63 63 63
63 63 63
63 63 63
6 6 6
6 6 6
6 6 6
6 6 6
6 6 6
6 6 6
6 6 6
6 6 6
6 6 6
6 6 6
6 6 6
6 6 6
6 6 6
6 6 6
6 6 6
6 6 6
6 6 6
6 6 6
6 6 6
6 6 6
6 6 6
6 6 6
6 6 6
6 6 6
6 6 6
6 6 6
6 6 6
6 6 6
6 6 6
6 6 6
63 63 63
63 63 63
63 63 63
63 63 63
63 63 63
63 63 63
63 63 63
63 63 63
63 63 63
63 63 63
63 63 63
63 63 63
63 63 63
63 63 63
63 63 63
63 63 63
63 63 63
63 63 63
6 6 6
6 6 6
6 6 6
63 63 63
63 63 63
63 63 63
6 6 6
6 6 6
6 6 6
6 6 6
63 63 63
63 63 63
63 63 63
6 6 6
6 6 6
6 6 6
6 6 6
63 63 63
63 63 63
63 63 63
6 6 6
6 6 6
6 6 6
6 6 6
63 63 63
63 63 63
63 63 63
6 6 6
6 6 6
6 6 6
6 6 6
63 63 63
63 63 63
63 63 63
6 6 6
6 6 6
6 6 6
6 6 6
63 63 63
63 63 63
63 63 63
6 6 6
6 6 6
6 6 6
6 6 6
63 63 63
63 63 63
63 63 63
6 6 6
6 6 6
6 6 6
63 63 63
63 63 63
63 63 63
63 63 63
6 6 6
6 6 6
6 6 6
63 63 63
63 63 63
63 63 63
63 63 63
6 6 6
6 6 6
6 6 6
63 63 63
63 63 63
63 63 63
63 63 63
6 6 6
6 6 6
6 6 6
63 63 63
63 63 63
63 63 63
63 63 63
6 6 6
6 6 6
6 6 6
63 63 63
63 63 63
63 63 63
63 63 63
6 6 6
6 6 6
6 6 6
63 63 63
63 63 63
63 63 63
63 63 63
6 6 6
6 6 6
6 6 6
63 63 63
63 63 63
63 63 63
127 127 127
70 70 70
70 70 70
127 127 127
70 70 70
127 127 127
70 70 70
70 70 70
127 127 127
70 70 70
127 127 127
127 127 127
70 70 70
127 127 127
70 70 70
70 70 70
127 127 127
70 70 70
127 127 127
70 70 70
70 70 70
127 127 127
70 70 70
127 127 127
127 127 127
70 70 70
127 127 127
70 70 70
70 70 70
127 127 127
70 70 70
127 127 127
70 70 70
70 70 70
127 127 127
70 70 70
127 127 127
127 127 127
70 70 70
127 127 127
70 70 70
70 70 70
127 127 127
70 70 70
127 127 127
70 70 70
70 70 70
127 127 127
70 70 70
127 127 127
127 127 127
70 70 70
127 127 127
70 70 70
127 127 127
127 127 127
70 70 70
127 127 127
70 70 70
70 70 70
127 127 127
70 70 70
127 127 127
127 127 127
70 70 70
127 127 127
70 70 70
127 127 127
127 127 127
70 70 70
127 127 127
70 70 70
70 70 70
127 127 127
70 70 70
127 127 127
127 127 127
70 70 70
127 127 127
70 70 70
127 127 127
127 127 127
70 70 70
127 127 127
70 70 70
70 70 70
127 127 127
70 70 70
127 127 127
127 127 127
70 70 70
127 127 127
70 70 70
127 127 127
127 127 127
70 70 70
70 70 70
127 127 127
127 127 127
70 70 70
70 70 70
127 127 127
127 127 127
70 70 70
70 70 70
127 127 127
127 127 127
70 70 70
70 70 70
127 127 127
70 70 70
70 70 70
127 127 127
127 127 127
70 70 70
70 70 70
127 127 127
127 127 127
70 70 70
70 70 70
127 127 127
127 127 127
70 70 70
70 70 70
127 127 127
70 70 70
70 70 70
127 127 127
127 127 127
70 70 70
70 70 70
127 127 127
127 127 127
70 70 70
70 70 70
127 127 127
127 127 127
70 70 70
127 127 127
127 127 127
70 70 70
70 70 70
127 127 127
127 127 127
70 70 70
70 70 70
127 127 127
127 127 127
70 70 70
70 70 70
127 127 127
70 70 70
70 70 70
127 127 127
127 127 127
70 70 70
70 70 70
127 127 127
127 127 127
70 70 70
70 70 70
127 127 127
127 127 127
70 70 70
127 127 127
127 127 127
70 70 70
70 70 70
127 127 127
127 127 127
70 70 70
70 70 70
127 127 127
127 127 127
70 70 70
70 70 70
127 127 127
127 127 127
70 70 70
127 127 127
127 127 127
70 70 70
70 70 70
127 127 127
127 127 127
70 70 70
70 70 70
127 127 127
127 127 127
70 70 70
70 70 70
127 127 127
70 70 70
70 70 70
127 127 127
127 127 127
127 127 127
70 70 70
70 70 70
70 70 70
127 127 127
127 127 127
127 127 127
70 70 70
70 70 70
70 70 70
127 127 127
127 127 127
70 70 70
70 70 70
70 70 70
127 127 127
127 127 127
127 127 127
70 70 70
70 70 70
70 70 70
127 127 127
127 127 127
127 127 127
70 70 70
70 70 70
70 70 70
127 127 127
127 127 127
127 127 127
70 70 70
70 70 70
70 70 70
127 127 127
127 127 127
70 70 70
70 70 70
70 70 70
127 127 127
127 127 127
127 127 127
70 70 70
70 70 70
70 70 70
127 127 127
127 127 127
127 127 127
70 70 70
70 70 70
70 70 70
127 127 127
127 127 127
127 127 127
70 70 70
70 70 70
127 127 127
127 127 127
127 127 127
70 70 70
70 70 70
70 70 70
127 127 127
127 127 127
127 127 127
70 70 70
70 70 70
70 70 70
127 127 127
127 127 127
127 127 127
70 70 70
70 70 70
70 70 70
127 127 127
127 127 127
127 127 127
70 70 70
70 70 70
127 127 127
127 127 127
127 127 127
70 70 70
70 70 70
70 70 70
127 127 127
127 127 127
127 127 127
70 70 70
70 70 70
70 70 70
127 127 127
127 127 127
6 6 6
63 63 63
6 6 6
6 6 6
63 63 63
63 63 63
6 6 6
63 63 63
63 63 63
6 6 6
6 6 6
63 63 63
6 6 6
6 6 6
63 63 63
63 63 63
6 6 6
6 6 6
63 63 63
6 6 6
6 6 6
63 63 63
63 63 63
6 6 6
63 63 63
63 63 63
6 6 6
6 6 6
63 63 63
6 6 6
6 6 6
63 63 63
63 63 63
6 6 6
63 63 63
63 63 63
6 6 6
6 6 6
63 63 63
63 63 63
6 6 6
63 63 63
63 63 63
6 6 6
6 6 6
63 63 63
6 6 6
6 6 6
63 63 63
63 63 63
6 6 6
63 63 63
63 63 63
6 6 6
6 6 6
63 63 63
6 6 6
6 6 6
63 63 63
63 63 63
6 6 6
6 6 6
63 63 63
6 6 6
6 6 6
63 63 63
63 63 63
6 6 6
63 63 63
63 63 63
6 6 6
6 6 6
63 63 63
6 6 6
6 6 6
63 63 63
63 63 63
6 6 6
63 63 63
63 63 63
6 6 6
6 6 6
63 63 63
63 63 63
6 6 6
63 63 63
63 63 63
6 6 6
6 6 6
63 63 63
6 6 6
6 6 6
63 63 63
63 63 63
6 6 6
63 63 63
70 70 70
70 70 70
127 127 127
127 127 127
70 70 70
127 127 127
127 127 127
70 70 70
127 127 127
127 127 127
70 70 70
70 70 70
127 127 127
70 70 70
70 70 70
127 127 127
70 70 70
70 70 70
127 127 127
70 70 70
70 70 70
127 127 127
127 127 127
70 70 70
127 127 127
127 127 127
70 70 70
127 127 127
127 127 127
70 70 70
70 70 70
127 127 127
70 70 70
70 70 70
127 127 127
70 70 70
70 70 70
127 127 127
70 70 70
70 70 70
127 127 127
127 127 127
70 70 70
127 127 127
127 127 127
70 70 70
127 127 127
127 127 127
70 70 70
70 70 70
127 127 127
70 70 70
70 70 70
127 127 127
70 70 70
70 70 70
127 127 127
127 127 127
70 70 70
127 127 127
127 127 127
70 70 70
127 127 127
127 127 127
70 70 70
127 127 127
127 127 127
70 70 70
70 70 70
127 127 127
70 70 70
70 70 70
127 127 127
70 70 70
70 70 70
127 127 127
127 127 127
70 70 70
127 127 127
127 127 127
70 70 70
127 127 127
127 127 127
70 70 70
127 127 127
127 127 127
70 70 70
70 70 70
127 127 127
70 70 70
70 70 70
127 127 127
70 70 70
70 70 70
127 127 127
127 127 127
70 70 70
70 70 70
70 70 70
70 70 70
70 70 70
70 70 70
70 70 70
70 70 70
70 70 70
70 70 70
70 70 70
70 70 70
70 70 70
70 70 70
70 70 70
70 70 70
70 70 70
70 70 70
70 70 70
70 70 70
70 70 70
70 70 70
70 70 70
70 70 70
70 70 70
70 70 70
70 70 70
70 70 70
70 70 70
70 70 70
70 70 70
70 70 70
70 70 70
70 70 70
70 70 70
70 70 70
70 70 70
70 70 70
70 70 70
70 70 70
70 70 70
70 70 70
70 70 70
70 70 70
70 70 70
70 70 70
70 70 70
127 127 127
127 127 127
127 127 127
127 127 127
127 127 127
127 127 127
127 127 127
127 127 127
127 127 127
127 127 127
127 127 127
127 127 127
127 127 127
127 127 127
127 127 127
127 127 127
127 127 127
127 127 127
127 127 127
127 127 127
127 127 127
127 127 127
127 127 127
127 127 127
127 127 127
127 127 127
127 127 127
127 127 127
127 127 127
127 127 127
127 127 127
127 127 127
127 127 127
127 127 127
127 127 127
127 127 127
127 127 127
127 127 127
127 127 127
127 127 127
127 127 127
127 127 127
127 127 127
127 127 127
127 127 127
127 127 127
127 127 127
127 127 127
127 127 127
127 127 127
70 70 70
70 70 70
127 127 127
127 127 127
70 70 70
70 70 70
127 127 127
127 127 127
70 70 70
70 70 70
70 70 70
127 127 127
127 127 127
70 70 70
70 70 70
127 127 127
127 127 127
70 70 70
70 70 70
127 127 127
127 127 127
70 70 70
70 70 70
127 127 127
127 127 127
70 70 70
70 70 70
127 127 127
127 127 127
70 70 70
70 70 70
127 127 127
127 127 127
70 70 70
70 70 70
127 127 127
127 127 127
70 70 70
70 70 70
127 127 127
127 127 127
70 70 70
70 70 70
127 127 127
127 127 127
70 70 70
70 70 70
127 127 127
127 127 127
70 70 70
70 70 70
127 127 127
127 127 127
70 70 70
70 70 70
127 127 127
127 127 127
70 70 70
70 70 70
127 127 127
127 127 127
70 70 70
70 70 70
127 127 127
127 127 127
70 70 70
70 70 70
127 127 127
127 127 127
70 70 70
70 70 70
127 127 127
127 127 127
70 70 70
70 70 70
127 127 127
127 127 127
70 70 70
70 70 70
127 127 127
127 127 127
70 70 70
70 70 70
127 127 127
127 127 127
127 127 127
70 70 70
70 70 70
127 127 127
127 127 127
70 70 70
70 70 70
127 127 127
127 127 127
70 70 70
127 127 127
127 127 127
70 70 70
127 127 127
70 70 70
127 127 127
70 70 70
127 127 127
70 70 70
70 70 70
127 127 127
70 70 70
127 127 127
70 70 70
127 127 127
70 70 70
70 70 70
127 127 127
70 70 70
127 127 127
70 70 70
127 127 127
70 70 70
70 70 70
127 127 127
70 70 70
127 127 127
70 70 70
127 127 127
70 70 70
70 70 70
127 127 127
70 70 70
127 127 127
70 70 70
127 127 127
70 70 70
70 70 70
127 127 127
70 70 70
127 127 127
70 70 70
127 127 127
70 70 70
70 70 70
127 127 127
70 70 70
127 127 127
70 70 70
127 127 127
70 70 70
127 127 127
127 127 127
70 70 70
127 127 127
70 70 70
127 127 127
70 70 70
127 127 127
127 127 127
70 70 70
127 127 127
70 70 70
127 127 127
70 70 70
127 127 127
127 127 127
70 70 70
127 127 127
70 70 70
127 127 127
70 70 70
127 127 127
127 127 127
70 70 70
127 127 127
70 70 70
127 127 127
70 70 70
127 127 127
127 127 127
70 70 70
127 127 127
70 70 70
127 127 127
70 70 70
127 127 127
127 127 127
70 70 70
127 127 127
70 70 70
127 127 127
70 70 70
127 127 127
70 70 70
70 70 70
70 70 70
127 127 127
70 70 70
127 127 127
70 70 70
127 127 127
70 70 70
70 70 70
127 127 127
70 70 70
127 127 127
70 70 70
127 127 127
70 70 70
127 127 127
70 70 70
70 70 70
127 127 127
70 70 70
127 127 127
70 70 70
127 127 127
70 70 70
127 127 127
70 70 70
70 70 70
127 127 127
70 70 70
127 127 127
70 70 70
127 127 127
70 70 70
127 127 127
70 70 70
70 70 70
127 127 127
70 70 70
127 127 127
70 70 70
127 127 127
70 70 70
127 127 127
70 70 70
70 70 70
127 127 127
70 70 70
127 127 127
70 70 70
127 127 127
70 70 70
127 127 127
70 70 70
127 127 127
127 127 127
70 70 70
127 127 127
70 70 70
127 127 127
70 70 70
127 127 127
70 70 70
127 127 127
127 127 127
70 70 70
127 127 127
70 70 70
127 127 127
70 70 70
127 127 127
70 70 70
127 127 127
127 127 127
70 70 70
127 127 127
70 70 70
127 127 127
70 70 70
127 127 127
70 70 70
127 127 127
127 127 127
70 70 70
127 127 127
70 70 70
127 127 127
70 70 70
127 127 127
70 70 70
127 127 127
127 127 127
70 70 70
127 127 127
70 70 70
127 127 127
70 70 70
127 127 127
6 6 6
63 63 63
6 6 6
6 6 6
63 63 63
6 6 6
6 6 6
63 63 63
6 6 6
63 63 63
63 63 63
6 6 6
63 63 63
6 6 6
6 6 6
63 63 63
6 6 6
63 63 63
63 63 63
6 6 6
63 63 63
6 6 6
6 6 6
63 63 63
6 6 6
63 63 63
63 63 63
6 6 6
63 63 63
6 6 6
6 6 6
63 63 63
6 6 6
63 63 63
63 63 63
6 6 6
63 63 63
6 6 6
6 6 6
63 63 63
6 6 6
63 63 63
63 63 63
6 6 6
63 63 63
6 6 6
6 6 6
63 63 63
6 6 6
63 63 63
63 63 63
6 6 6
63 63 63
6 6 6
6 6 6
63 63 63
6 6 6
63 63 63
63 63 63
6 6 6
63 63 63
6 6 6
6 6 6
63 63 63
6 6 6
63 63 63
63 63 63
6 6 6
63 63 63
6 6 6
6 6 6
63 63 63
6 6 6
63 63 63
63 63 63
6 6 6
63 63 63
6 6 6
6 6 6
63 63 63
6 6 6
63 63 63
63 63 63
6 6 6
63 63 63
6 6 6
6 6 6
63 63 63
6 6 6
63 63 63
63 63 63
6 6 6
63 63 63
63 63 63
6 6 6
63 63 63
63 63 63
6 6 6
6 6 6
63 63 63
6 6 6
6 6 6
63 63 63
6 6 6
63 63 63
63 63 63
6 6 6
63 63 63
63 63 63
6 6 6
63 63 63
6 6 6
6 6 6
63 63 63
6 6 6
6 6 6
63 63 63
6 6 6
6 6 6
63 63 63
6 6 6
63 63 63
63 63 63
6 6 6
63 63 63
63 63 63
6 6 6
63 63 63
6 6 6
6 6 6
63 63 63
6 6 6
6 6 6
63 63 63
6 6 6
6 6 6
63 63 63
6 6 6
63 63 63
63 63 63
6 6 6
63 63 63
63 63 63
6 6 6
63 63 63
6 6 6
6 6 6
63 63 63
6 6 6
6 6 6
63 63 63
6 6 6
63 63 63
63 63 63
6 6 6
63 63 63
63 63 63
6 6 6
63 63 63
63 63 63
6 6 6
63 63 63
6 6 6
6 6 6
63 63 63
6 6 6
6 6 6
63 63 63
6 6 6
63 63 63
63 63 63
6 6 6
63 63 63
63 63 63
6 6 6
63 63 63
63 63 63
6 6 6
63 63 63
6 6 6
6 6 6
63 63 63
6 6 6
6 6 6
63 63 63
6 6 6
63 63 63
63 63 63
6 6 6
63 63 63
63 63 63
6 6 6
127 127 127
70 70 70
127 127 127
70 70 70
70 70 70
127 127 127
70 70 70
127 127 127
70 70 70
70 70 70
127 127 127
70 70 70
127 127 127
127 127 127
70 70 70
127 127 127
70 70 70
70 70 70
127 127 127
70 70 70
127 127 127
127 127 127
70 70 70
127 127 127
70 70 70
70 70 70
127 127 127
70 70 70
127 127 127
127 127 127
70 70 70
127 127 127
70 70 70
70 70 70
127 127 127
70 70 70
127 127 127
70 70 70
70 70 70
127 127 127
70 70 70
127 127 127
127 127 127
70 70 70
127 127 127
70 70 70
70 70 70
127 127 127
70 70 70
127 127 127
127 127 127
70 70 70
127 127 127
70 70 70
70 70 70
127 127 127
70 70 70
127 127 127
127 127 127
70 70 70
127 127 127
70 70 70
127 127 127
127 127 127
70 70 70
127 127 127
70 70 70
70 70 70
127 127 127
70 70 70
127 127 127
127 127 127
70 70 70
127 127 127
70 70 70
70 70 70
127 127 127
70 70 70
127 127 127
127 127 127
70 70 70
127 127 127
70 70 70
70 70 70
127 127 127
70 70 70
127 127 127
127 127 127
70 70 70
127 127 127
70 70 70
127 127 127
127 127 127
70 70 70
127 127 127
70 70 70
6 6 6
63 63 63
6 6 6
6 6 6
63 63 63
6 6 6
63 63 63
6 6 6
63 63 63
6 6 6
63 63 63
6 6 6
63 63 63
63 63 63
6 6 6
63 63 63
6 6 6
63 63 63
6 6 6
63 63 63
6 6 6
63 63 63
6 6 6
6 6 6
63 63 63
6 6 6
63 63 63
6 6 6
63 63 63
6 6 6
63 63 63
6 6 6
63 63 63
63 63 63
6 6 6
63 63 63
6 6 6
63 63 63
6 6 6
63 63 63
6 6 6
63 63 63
6 6 6
6 6 6
63 63 63
6 6 6
63 63 63
6 6 6
63 63 63
6 6 6
63 63 63
6 6 6
63 63 63
63 63 63
6 6 6
63 63 63
6 6 6
63 63 63
6 6 6
63 63 63
6 6 6
63 63 63
6 6 6
6 6 6
63 63 63
6 6 6
63 63 63
6 6 6
63 63 63
6 6 6
63 63 63
6 6 6
63 63 63
63 63 63
6 6 6
63 63 63
6 6 6
63 63 63
6 6 6
63 63 63
6 6 6
63 63 63
6 6 6
6 6 6
63 63 63
6 6 6
63 63 63
6 6 6
63 63 63
6 6 6
63 63 63
6 6 6
63 63 63
63 63 63
6 6 6
63 63 63
6 6 6
63 63 63
6 6 6
6 6 6
63 63 63
6 6 6
63 63 63
6 6 6
63 63 63
6 6 6
63 63 63
63 63 63
6 6 6
63 63 63
6 6 6
63 63 63
6 6 6
63 63 63
6 6 6
6 6 6
63 63 63
6 6 6
63 63 63
6 6 6
63 63 63
6 6 6
63 63 63
63 63 63
6 6 6
63 63 63
6 6 6
63 63 63
6 6 6
63 63 63
6 6 6
63 63 63
63 63 63
6 6 6
63 63 63
6 6 6
63 63 63
6 6 6
63 63 63
6 6 6
6 6 6
63 63 63
6 6 6
63 63 63
6 6 6
63 63 63
6 6 6
63 63 63
63 63 63
6 6 6
63 63 63
6 6 6
63 63 63
6 6 6
63 63 63
6 6 6
6 6 6
63 63 63
6 6 6
63 63 63
6 6 6
63 63 63
6 6 6
63 63 63
6 6 6
6 6 6
63 63 63
6 6 6
63 63 63
6 6 6
63 63 63
6 6 6
63 63 63
63 63 63
6 6 6
63 63 63
6 6 6
63 63 63
6 6 6
63 63 63
6 6 6
6 6 6
63 63 63
6 6 6
63 63 63
6 6 6
63 63 63
6 6 6
63 63 63
63 63 63
6 6 6
63 63 63
127 127 127
70 70 70
70 70 70
127 127 127
127 127 127
70 70 70
70 70 70
127 127 127
70 70 70
70 70 70
127 127 127
127 127 127
70 70 70
70 70 70
127 127 127
70 70 70
70 70 70
127 127 127
127 127 127
70 70 70
127 127 127
127 127 127
70 70 70
70 70 70
127 127 127
127 127 127
70 70 70
127 127 127
127 127 127
70 70 70
70 70 70
127 127 127
70 70 70
70 70 70
127 127 127
127 127 127
70 70 70
70 70 70
127 127 127
70 70 70
70 70 70
127 127 127
127 127 127
70 70 70
70 70 70
127 127 127
70 70 70
70 70 70
127 127 127
127 127 127
70 70 70
127 127 127
127 127 127
70 70 70
70 70 70
127 127 127
127 127 127
70 70 70
127 127 127
127 127 127
70 70 70
70 70 70
127 127 127
127 127 127
70 70 70
127 127 127
127 127 127
70 70 70
70 70 70
127 127 127
70 70 70
70 70 70
127 127 127
127 127 127
70 70 70
70 70 70
127 127 127
70 70 70
70 70 70
127 127 127
127 127 127
70 70 70
127 127 127
127 127 127
70 70 70
70 70 70
127 127 127
127 127 127
70 70 70
127 127 127
127 127 127
70 70 70
70 70 70
127 127 127
127 127 127
70 70 70
6 6 6
6 6 6
6 6 6
6 6 6
6 6 6
63 63 63
63 63 63
63 63 63
63 63 63
63 63 63
6 6 6
6 6 6
6 6 6
6 6 6
6 6 6
63 63 63
63 63 63
63 63 63
63 63 63
6 6 6
6 6 6
6 6 6
6 6 6
6 6 6
63 63 63
63 63 63
63 63 63
63 63 63
63 63 63
6 6 6
6 6 6
6 6 6
6 6 6
6 6 6
63 63 63
63 63 63
63 63 63
63 63 63
6 6 6
6 6 6
6 6 6
6 6 6
6 6 6
63 63 63
63 63 63
63 63 63
63 63 63
63 63 63
6 6 6
6 6 6
6 6 6
6 6 6
6 6 6
63 63 63
63 63 63
63 63 63
63 63 63
63 63 63
6 6 6
6 6 6
6 6 6
6 6 6
63 63 63
63 63 63
63 63 63
63 63 63
63 63 63
6 6 6
6 6 6
6 6 6
6 6 6
6 6 6
63 63 63
63 63 63
63 63 63
63 63 63
63 63 63
6 6 6
6 6 6
6 6 6
6 6 6
63 63 63
63 63 63
63 63 63
63 63 63
63 63 63
6 6 6
6 6 6
6 6 6
6 6 6
6 6 6
63 63 63
63 63 63
63 63 63
63 63 63
63 63 63
127 127 127
127 127 127
127 127 127
127 127 127
70 70 70
70 70 70
70 70 70
70 70 70
127 127 127
127 127 127
127 127 127
127 127 127
127 127 127
70 70 70
70 70 70
70 70 70
70 70 70
127 127 127
127 127 127
127 127 127
127 127 127
127 127 127
70 70 70
70 70 70
70 70 70
70 70 70
127 127 127
127 127 127
127 127 127
127 127 127
70 70 70
70 70 70
70 70 70
70 70 70
70 70 70
127 127 127
127 127 127
127 127 127
127 127 127
70 70 70
70 70 70
70 70 70
70 70 70
70 70 70
127 127 127
127 127 127
127 127 127
127 127 127
70 70 70
70 70 70
70 70 70
70 70 70
127 127 127
127 127 127
127 127 127
127 127 127
127 127 127
70 70 70
70 70 70
70 70 70
70 70 70
127 127 127
127 127 127
127 127 127
127 127 127
127 127 127
70 70 70
70 70 70
70 70 70
70 70 70
127 127 127
127 127 127
127 127 127
127 127 127
70 70 70
70 70 70
70 70 70
70 70 70
70 70 70
127 127 127
127 127 127
127 127 127
127 127 127
70 70 70
70 70 70
70 70 70
70 70 70
70 70 70
127 127 127
127 127 127
127 127 127
127 127 127
70 70 70
70 70 70
70 70 70
70 70 70
70 70 70
127 127 127
127 127 127
70 70 70
127 127 127
70 70 70
70 70 70
127 127 127
70 70 70
70 70 70
127 127 127
70 70 70
127 127 127
127 127 127
70 70 70
127 127 127
70 70 70
70 70 70
127 127 127
70 70 70
70 70 70
127 127 127
70 70 70
127 127 127
127 127 127
70 70 70
127 127 127
70 70 70
70 70 70
127 127 127
70 70 70
70 70 70
127 127 127
70 70 70
127 127 127
127 127 127
70 70 70
127 127 127
70 70 70
70 70 70
127 127 127
70 70 70
70 70 70
127 127 127
70 70 70
127 127 127
127 127 127
70 70 70
127 127 127
70 70 70
70 70 70
127 127 127
70 70 70
127 127 127
127 127 127
70 70 70
127 127 127
127 127 127
70 70 70
127 127 127
70 70 70
70 70 70
127 127 127
70 70 70
127 127 127
127 127 127
70 70 70
127 127 127
127 127 127
70 70 70
127 127 127
70 70 70
70 70 70
127 127 127
70 70 70
127 127 127
127 127 127
70 70 70
127 127 127
127 127 127
70 70 70
127 127 127
70 70 70
70 70 70
127 127 127
70 70 70
127 127 127
127 127 127
70 70 70
127 127 127
127 127 127
70 70 70
127 127 127
70 70 70
70 70 70
127 127 127
6 6 6
6 6 6
63 63 63
6 6 6
6 6 6
63 63 63
6 6 6
63 63 63
63 63 63
6 6 6
63 63 63
63 63 63
6 6 6
63 63 63
6 6 6
6 6 6
63 63 63
6 6 6
6 6 6
63 63 63
6 6 6
63 63 63
63 63 63
6 6 6
63 63 63
63 63 63
6 6 6
63 63 63
6 6 6
6 6 6
63 63 63
6 6 6
6 6 6
63 63 63
6 6 6
63 63 63
63 63 63
6 6 6
63 63 63
63 63 63
6 6 6
63 63 63
6 6 6
6 6 6
63 63 63
6 6 6
6 6 6
63 63 63
6 6 6
63 63 63
63 63 63
6 6 6
63 63 63
63 63 63
6 6 6
63 63 63
6 6 6
6 6 6
63 63 63
6 6 6
6 6 6
63 63 63
6 6 6
63 63 63
63 63 63
6 6 6
63 63 63
63 63 63
6 6 6
63 63 63
6 6 6
6 6 6
63 63 63
6 6 6
6 6 6
63 63 63
6 6 6
63 63 63
63 63 63
6 6 6
63 63 63
63 63 63
6 6 6
63 63 63
6 6 6
6 6 6
63 63 63
6 6 6
6 6 6
63 63 63
6 6 6
63 63 63
63 63 63
6 6 6
63 63 63
63 63 63
6 6 6
6 6 6
6 6 6
6 6 6
6 6 6
6 6 6
6 6 6
63 63 63
63 63 63
63 63 63
63 63 63
63 63 63
63 63 63
63 63 63
63 63 63
63 63 63
63 63 63
6 6 6
6 6 6
6 6 6
6 6 6
6 6 6
6 6 6
6 6 6
6 6 6
6 6 6
6 6 6
63 63 63
63 63 63
63 63 63
63 63 63
63 63 63
63 63 63
63 63 63
63 63 63
63 63 63
63 63 63
63 63 63
6 6 6
6 6 6
6 6 6
6 6 6
6 6 6
6 6 6
6 6 6
6 6 6
6 6 6
6 6 6
63 63 63
63 63 63
63 63 63
63 63 63
63 63 63
63 63 63
63 63 63
63 63 63
63 63 63
63 63 63
6 6 6
6 6 6
6 6 6
6 6 6
6 6 6
6 6 6
6 6 6
6 6 6
6 6 6
6 6 6
6 6 6
63 63 63
63 63 63
63 63 63
63 63 63
63 63 63
63 63 63
63 63 63
63 63 63
63 63 63
63 63 63
6 6 6
6 6 6
6 6 6
6 6 6
6 6 6
6 6 6
6 6 6
6 6 6
6 6 6
6 6 6
63 63 63
63 63 63
63 63 63
63 63 63
63 63 63
63 63 63
63 63 63
63 63 63
6 6 6
6 6 6
63 63 63
6 6 6
6 6 6
63 63 63
63 63 63
6 6 6
6 6 6
63 63 63
6 6 6
6 6 6
63 63 63
63 63 63
6 6 6
6 6 6
63 63 63
6 6 6
6 6 6
63 63 63
63 63 63
6 6 6
6 6 6
63 63 63
6 6 6
6 6 6
63 63 63
63 63 63
6 6 6
6 6 6
63 63 63
6 6 6
6 6 6
63 63 63
63 63 63
6 6 6
6 6 6
63 63 63
6 6 6
6 6 6
63 63 63
63 63 63
6 6 6
6 6 6
63 63 63
6 6 6
6 6 6
63 63 63
63 63 63
6 6 6
63 63 63
63 63 63
6 6 6
6 6 6
63 63 63
63 63 63
6 6 6
63 63 63
63 63 63
6 6 6
6 6 6
63 63 63
63 63 63
6 6 6
63 63 63
63 63 63
6 6 6
6 6 6
63 63 63
63 63 63
6 6 6
63 63 63
63 63 63
6 6 6
6 6 6
63 63 63
63 63 63
6 6 6
63 63 63
63 63 63
6 6 6
6 6 6
63 63 63
63 63 63
6 6 6
63 63 63
63 63 63
6 6 6
6 6 6
63 63 63
63 63 63
6 6 6
63 63 63
63 63 63
6 6 6
6 6 6
6 6 6
63 63 63
6 6 6
63 63 63
63 63 63
6 6 6
63 63 63
63 63 63
6 6 6
63 63 63
6 6 6
6 6 6
63 63 63
6 6 6
6 6 6
63 63 63
6 6 6
63 63 63
63 63 63
6 6 6
63 63 63
63 63 63
6 6 6
63 63 63
6 6 6
6 6 6
63 63 63
6 6 6
6 6 6
63 63 63
6 6 6
6 6 6
63 63 63
6 6 6
63 63 63
63 63 63
6 6 6
63 63 63
63 63 63
6 6 6
63 63 63
6 6 6
6 6 6
63 63 63
6 6 6
6 6 6
63 63 63
6 6 6
63 63 63
63 63 63
6 6 6
63 63 63
63 63 63
6 6 6
63 63 63
6 6 6
6 6 6
63 63 63
6 6 6
6 6 6
63 63 63
6 6 6
63 63 63
63 63 63
6 6 6
63 63 63
63 63 63
6 6 6
63 63 63
63 63 63
6 6 6
63 63 63
6 6 6
6 6 6
63 63 63
6 6 6
6 6 6
63 63 63
6 6 6
63 63 63
63 63 63
6 6 6
63 63 63
63 63 63
6 6 6
63 63 63
6 6 6
6 6 6
63 63 63
6 6 6
6 6 6
63 63 63
6 6 6
63 63 63
63 63 63
127 127 127
127 127 127
127 127 127
127 127 127
127 127 127
127 127 127
127 127 127
127 127 127
127 127 127
127 127 127
127 127 127
127 127 127
70 70 70
70 70 70
70 70 70
70 70 70
70 70 70
70 70 70
70 70 70
70 70 70
70 70 70
70 70 70
70 70 70
70 70 70
70 70 70
70 70 70
70 70 70
70 70 70
70 70 70
70 70 70
127 127 127
127 127 127
127 127 127
127 127 127
127 127 127
127 127 127
127 127 127
127 127 127
127 127 127
127 127 127
127 127 127
127 127 127
127 127 127
127 127 127
127 127 127
127 127 127
127 127 127
127 127 127
70 70 70
70 70 70
70 70 70
70 70 70
70 70 70
70 70 70
70 70 70
70 70 70
70 70 70
70 70 70
70 70 70
70 70 70
70 70 70
70 70 70
70 70 70
70 70 70
70 70 70
70 70 70
127 127 127
127 127 127
127 127 127
127 127 127
127 127 127
127 127 127
127 127 127
127 127 127
127 127 127
127 127 127
127 127 127
127 127 127
127 127 127
127 127 127
127 127 127
127 127 127
127 127 127
127 127 127
70 70 70
70 70 70
70 70 70
70 70 70
70 70 70
70 70 70
70 70 70
70 70 70
70 70 70
70 70 70
70 70 70
70 70 70
63 63 63
6 6 6
63 63 63
6 6 6
63 63 63
6 6 6
63 63 63
63 63 63
6 6 6
63 63 63
6 6 6
63 63 63
6 6 6
63 63 63
6 6 6
6 6 6
63 63 63
6 6 6
63 63 63
6 6 6
63 63 63
6 6 6
6 6 6
63 63 63
6 6 6
63 63 63
6 6 6
63 63 63
6 6 6
6 6 6
63 63 63
6 6 6
63 63 63
6 6 6
63 63 63
6 6 6
63 63 63
63 63 63
6 6 6
63 63 63
6 6 6
63 63 63
6 6 6
63 63 63
63 63 63
6 6 6
63 63 63
6 6 6
63 63 63
6 6 6
63 63 63
6 6 6
6 6 6
63 63 63
6 6 6
63 63 63
6 6 6
63 63 63
6 6 6
6 6 6
63 63 63
6 6 6
63 63 63
6 6 6
63 63 63
6 6 6
63 63 63
63 63 63
6 6 6
63 63 63
6 6 6
63 63 63
6 6 6
63 63 63
63 63 63
6 6 6
63 63 63
6 6 6
63 63 63
6 6 6
63 63 63
63 63 63
6 6 6
63 63 63
6 6 6
63 63 63
6 6 6
63 63 63
6 6 6
6 6 6
63 63 63
6 6 6
63 63 63
6 6 6
63 63 63
6 6 6
70 70 70
70 70 70
127 127 127
127 127 127
127 127 127
127 127 127
70 70 70
70 70 70
70 70 70
127 127 127
127 127 127
127 127 127
127 127 127
70 70 70
70 70 70
70 70 70
127 127 127
127 127 127
127 127 127
127 127 127
70 70 70
70 70 70
70 70 70
127 127 127
127 127 127
127 127 127
127 127 127
70 70 70
70 70 70
70 70 70
127 127 127
127 127 127
127 127 127
127 127 127
70 70 70
70 70 70
70 70 70
127 127 127
127 127 127
127 127 127
127 127 127
70 70 70
70 70 70
70 70 70
127 127 127
127 127 127
127 127 127
127 127 127
70 70 70
70 70 70
70 70 70
70 70 70
127 127 127
127 127 127
127 127 127
70 70 70
70 70 70
70 70 70
70 70 70
127 127 127
127 127 127
127 127 127
70 70 70
70 70 70
70 70 70
70 70 70
127 127 127
127 127 127
127 127 127
70 70 70
70 70 70
70 70 70
70 70 70
127 127 127
127 127 127
127 127 127
70 70 70
70 70 70
70 70 70
70 70 70
127 127 127
127 127 127
127 127 127
70 70 70
70 70 70
70 70 70
70 70 70
127 127 127
127 127 127
127 127 127
70 70 70
70 70 70
70 70 70
70 70 70
127 127 127
127 127 127
63 63 63
63 63 63
6 6 6
6 6 6
63 63 63
6 6 6
6 6 6
63 63 63
63 63 63
6 6 6
63 63 63
63 63 63
6 6 6
6 6 6
63 63 63
6 6 6
6 6 6
63 63 63
6 6 6
6 6 6
63 63 63
63 63 63
6 6 6
63 63 63
63 63 63
6 6 6
6 6 6
63 63 63
6 6 6
6 6 6
63 63 63
63 63 63
6 6 6
63 63 63
63 63 63
6 6 6
6 6 6
63 63 63
6 6 6
6 6 6
63 63 63
6 6 6
6 6 6
63 63 63
63 63 63
6 6 6
63 63 63
63 63 63
6 6 6
6 6 6
63 63 63
6 6 6
6 6 6
63 63 63
63 63 63
6 6 6
63 63 63
63 63 63
6 6 6
63 63 63
63 63 63
6 6 6
6 6 6
63 63 63
6 6 6
6 6 6
63 63 63
63 63 63
6 6 6
63 63 63
63 63 63
6 6 6
6 6 6
63 63 63
6 6 6
6 6 6
63 63 63
63 63 63
6 6 6
63 63 63
63 63 63
6 6 6
63 63 63
63 63 63
6 6 6
6 6 6
63 63 63
6 6 6
6 6 6
63 63 63
63 63 63
6 6 6
63 63 63
63 63 63
6 6 6
6 6 6
63 63 63
63 63 63
6 6 6
6 6 6
6 6 6
63 63 63
63 63 63
6 6 6
6 6 6
63 63 63
63 63 63
6 6 6
6 6 6
63 63 63
63 63 63
6 6 6
6 6 6
6 6 6
63 63 63
63 63 63
6 6 6
6 6 6
63 63 63
63 63 63
6 6 6
6 6 6
63 63 63
63 63 63
6 6 6
6 6 6
6 6 6
63 63 63
63 63 63
6 6 6
6 6 6
63 63 63
63 63 63
6 6 6
6 6 6
63 63 63
63 63 63
6 6 6
6 6 6
6 6 6
63 63 63
63 63 63
6 6 6
6 6 6
63 63 63
63 63 63
6 6 6
6 6 6
63 63 63
63 63 63
63 63 63
6 6 6
6 6 6
63 63 63
63 63 63
6 6 6
6 6 6
63 63 63
63 63 63
6 6 6
6 6 6
63 63 63
63 63 63
63 63 63
6 6 6
6 6 6
63 63 63
63 63 63
6 6 6
6 6 6
63 63 63
63 63 63
6 6 6
6 6 6
63 63 63
63 63 63
63 63 63
6 6 6
6 6 6
63 63 63
63 63 63
6 6 6
6 6 6
63 63 63
63 63 63
6 6 6
6 6 6
63 63 63
63 63 63
63 63 63
6 6 6
6 6 6
127 127 127
127 127 127
70 70 70
70 70 70
127 127 127
127 127 127
70 70 70
70 70 70
127 127 127
127 127 127
70 70 70
70 70 70
127 127 127
127 127 127
70 70 70
70 70 70
127 127 127
127 127 127
70 70 70
70 70 70
127 127 127
127 127 127
70 70 70
70 70 70
127 127 127
127 127 127
70 70 70
70 70 70
127 127 127
127 127 127
70 70 70
70 70 70
127 127 127
127 127 127
70 70 70
70 70 70
127 127 127
127 127 127
70 70 70
70 70 70
127 127 127
127 127 127
70 70 70
70 70 70
127 127 127
127 127 127
70 70 70
70 70 70
127 127 127
127 127 127
70 70 70
70 70 70
127 127 127
127 127 127
70 70 70
70 70 70
127 127 127
127 127 127
70 70 70
70 70 70
127 127 127
127 127 127
70 70 70
70 70 70
127 127 127
127 127 127
70 70 70
70 70 70
127 127 127
127 127 127
70 70 70
70 70 70
127 127 127
127 127 127
70 70 70
70 70 70
127 127 127
127 127 127
70 70 70
70 70 70
127 127 127
127 127 127
70 70 70
70 70 70
127 127 127
127 127 127
70 70 70
70 70 70
127 127 127
127 127 127
70 70 70
70 70 70
127 127 127
127 127 127
70 70 70
70 70 70
70 70 70
70 70 70
127 127 127
127 127 127
70 70 70
70 70 70
127 127 127
127 127 127
70 70 70
70 70 70
127 127 127
127 127 127
70 70 70
70 70 70
127 127 127
127 127 127
70 70 70
70 70 70
127 127 127
127 127 127
70 70 70
70 70 70
127 127 127
127 127 127
70 70 70
70 70 70
127 127 127
127 127 127
70 70 70
70 70 70
127 127 127
127 127 127
70 70 70
70 70 70
127 127 127
127 127 127
70 70 70
70 70 70
127 127 127
127 127 127
70 70 70
70 70 70
127 127 127
127 127 127
70 70 70
70 70 70
127 127 127
127 127 127
70 70 70
70 70 70
127 127 127
127 127 127
70 70 70
70 70 70
127 127 127
127 127 127
70 70 70
70 70 70
127 127 127
127 127 127
70 70 70
70 70 70
127 127 127
127 127 127
70 70 70
70 70 70
127 127 127
127 127 127
70 70 70
70 70 70
127 127 127
127 127 127
70 70 70
70 70 70
127 127 127
127 127 127
70 70 70
70 70 70
127 127 127
127 127 127
70 70 70
70 70 70
127 127 127
127 127 127
70 70 70
70 70 70
127 127 127
127 127 127
70 70 70
70 70 70
127 127 127
127 127 127
70 70 70
70 70 70
127 127 127
127 127 127
6 6 6
63 63 63
63 63 63
6 6 6
6 6 6
63 63 63
63 63 63
6 6 6
6 6 6
63 63 63
63 63 63
6 6 6
6 6 6
63 63 63
6 6 6
6 6 6
63 63 63
63 63 63
6 6 6
6 6 6
63 63 63
63 63 63
6 6 6
6 6 6
63 63 63
63 63 63
6 6 6
6 6 6
63 63 63
6 6 6
6 6 6
63 63 63
63 63 63
6 6 6
6 6 6
63 63 63
63 63 63
6 6 6
6 6 6
63 63 63
63 63 63
6 6 6
63 63 63
63 63 63
6 6 6
6 6 6
63 63 63
63 63 63
6 6 6
6 6 6
63 63 63
63 63 63
6 6 6
6 6 6
63 63 63
6 6 6
6 6 6
63 63 63
63 63 63
6 6 6
6 6 6
63 63 63
63 63 63
6 6 6
6 6 6
63 63 63
63 63 63
6 6 6
63 63 63
63 63 63
6 6 6
6 6 6
63 63 63
63 63 63
6 6 6
6 6 6
63 63 63
63 63 63
6 6 6
6 6 6
63 63 63
63 63 63
6 6 6
63 63 63
63 63 63
6 6 6
6 6 6
63 63 63
63 63 63
6 6 6
6 6 6
63 63 63
63 63 63
6 6 6
6 6 6
63 63 63
70 70 70
70 70 70
70 70 70
127 127 127
127 127 127
70 70 70
70 70 70
70 70 70
127 127 127
127 127 127
70 70 70
70 70 70
70 70 70
127 127 127
127 127 127
70 70 70
70 70 70
70 70 70
127 127 127
127 127 127
70 70 70
70 70 70
70 70 70
127 127 127
127 127 127
70 70 70
70 70 70
70 70 70
127 127 127
127 127 127
70 70 70
70 70 70
70 70 70
127 127 127
127 127 127
70 70 70
70 70 70
70 70 70
127 127 127
127 127 127
70 70 70
70 70 70
70 70 70
127 127 127
127 127 127
70 70 70
70 70 70
70 70 70
127 127 127
127 127 127
127 127 127
70 70 70
70 70 70
127 127 127
127 127 127
127 127 127
70 70 70
70 70 70
127 127 127
127 127 127
127 127 127
70 70 70
70 70 70
127 127 127
127 127 127
127 127 127
70 70 70
70 70 70
127 127 127
127 127 127
127 127 127
70 70 70
70 70 70
127 127 127
127 127 127
127 127 127
70 70 70
70 70 70
127 127 127
127 127 127
127 127 127
70 70 70
70 70 70
127 127 127
127 127 127
127 127 127
70 70 70
70 70 70
127 127 127
127 127 127
127 127 127
70 70 70
70 70 70
127 127 127
127 127 127
127 127 127
6 6 6
6 6 6
63 63 63
6 6 6
6 6 6
63 63 63
6 6 6
6 6 6
63 63 63
6 6 6
63 63 63
63 63 63
6 6 6
63 63 63
63 63 63
6 6 6
63 63 63
63 63 63
6 6 6
63 63 63
63 63 63
6 6 6
63 63 63
6 6 6
6 6 6
63 63 63
6 6 6
6 6 6
63 63 63
6 6 6
6 6 6
63 63 63
6 6 6
6 6 6
63 63 63
6 6 6
63 63 63
63 63 63
6 6 6
63 63 63
63 63 63
6 6 6
63 63 63
63 63 63
6 6 6
63 63 63
63 63 63
6 6 6
63 63 63
6 6 6
6 6 6
63 63 63
6 6 6
6 6 6
63 63 63
6 6 6
6 6 6
63 63 63
6 6 6
6 6 6
63 63 63
6 6 6
63 63 63
63 63 63
6 6 6
63 63 63
63 63 63
6 6 6
63 63 63
63 63 63
6 6 6
63 63 63
63 63 63
6 6 6
63 63 63
6 6 6
6 6 6
63 63 63
6 6 6
6 6 6
63 63 63
6 6 6
6 6 6
63 63 63
6 6 6
6 6 6
63 63 63
6 6 6
63 63 63
63 63 63
6 6 6
63 63 63
63 63 63
6 6 6
63 63 63
63 63 63
63 63 63
63 63 63
63 63 63
63 63 63
63 63 63
6 6 6
6 6 6
6 6 6
6 6 6
6 6 6
63 63 63
63 63 63
63 63 63
63 63 63
63 63 63
63 63 63
6 6 6
6 6 6
6 6 6
6 6 6
6 6 6
63 63 63
63 63 63
63 63 63
63 63 63
63 63 63
6 6 6
6 6 6
6 6 6
6 6 6
6 6 6
6 6 6
63 63 63
63 63 63
63 63 63
63 63 63
63 63 63
6 6 6
6 6 6
6 6 6
6 6 6
6 6 6
6 6 6
63 63 63
63 63 63
63 63 63
63 63 63
63 63 63
6 6 6
6 6 6
6 6 6
6 6 6
6 6 6
63 63 63
63 63 63
63 63 63
63 63 63
63 63 63
63 63 63
6 6 6
6 6 6
6 6 6
6 6 6
6 6 6
63 63 63
63 63 63
63 63 63
63 63 63
63 63 63
63 63 63
6 6 6
6 6 6
6 6 6
6 6 6
6 6 6
63 63 63
63 63 63
63 63 63
63 63 63
63 63 63
6 6 6
6 6 6
6 6 6
6 6 6
6 6 6
6 6 6
63 63 63
63 63 63
63 63 63
63 63 63
63 63 63
6 6 6
6 6 6
6 6 6
6 6 6
6 6 6
70 70 70
127 127 127
70 70 70
127 127 127
70 70 70
127 127 127
70 70 70
127 127 127
70 70 70
70 70 70
127 127 127
70 70 70
127 127 127
70 70 70
127 127 127
70 70 70
127 127 127
70 70 70
127 127 127
70 70 70
127 127 127
70 70 70
127 127 127
70 70 70
127 127 127
70 70 70
127 127 127
70 70 70
127 127 127
70 70 70
127 127 127
70 70 70
127 127 127
70 70 70
127 127 127
127 127 127
70 70 70
127 127 127
70 70 70
127 127 127
70 70 70
127 127 127
70 70 70
127 127 127
70 70 70
127 127 127
70 70 70
127 127 127
70 70 70
127 127 127
70 70 70
127 127 127
70 70 70
127 127 127
70 70 70
127 127 127
70 70 70
127 127 127
70 70 70
127 127 127
70 70 70
70 70 70
127 127 127
70 70 70
127 127 127
70 70 70
127 127 127
70 70 70
127 127 127
70 70 70
127 127 127
70 70 70
127 127 127
70 70 70
127 127 127
70 70 70
127 127 127
70 70 70
127 127 127
70 70 70
127 127 127
70 70 70
127 127 127
70 70 70
127 127 127
70 70 70
127 127 127
127 127 127
70 70 70
127 127 127
70 70 70
127 127 127
70 70 70
127 127 127
70 70 70
127 127 127
127 127 127
127 127 127
127 127 127
127 127 127
70 70 70
70 70 70
70 70 70
70 70 70
70 70 70
70 70 70
70 70 70
127 127 127
127 127 127
127 127 127
127 127 127
127 127 127
127 127 127
127 127 127
70 70 70
70 70 70
70 70 70
70 70 70
70 70 70
70 70 70
70 70 70
70 70 70
127 127 127
127 127 127
127 127 127
127 127 127
127 127 127
127 127 127
127 127 127
70 70 70
70 70 70
70 70 70
70 70 70
70 70 70
70 70 70
70 70 70
70 70 70
127 127 127
127 127 127
127 127 127
127 127 127
127 127 127
127 127 127
127 127 127
70 70 70
70 70 70
70 70 70
70 70 70
70 70 70
70 70 70
70 70 70
127 127 127
127 127 127
127 127 127
127 127 127
127 127 127
127 127 127
127 127 127
127 127 127
70 70 70
70 70 70
70 70 70
70 70 70
70 70 70
70 70 70
70 70 70
127 127 127
127 127 127
127 127 127
127 127 127
127 127 127
127 127 127
127 127 127
127 127 127
70 70 70
70 70 70
70 70 70
70 70 70
70 70 70
70 70 70
70 70 70
127 127 127
127 127 127
127 127 127
127 127 127
127 127 127
127 127 127
127 127 127
70 70 70
70 70 70
70 70 70
70 70 70
63 63 63
6 6 6
6 6 6
63 63 63
6 6 6
6 6 6
63 63 63
6 6 6
6 6 6
63 63 63
6 6 6
6 6 6
63 63 63
6 6 6
6 6 6
63 63 63
6 6 6
6 6 6
63 63 63
6 6 6
6 6 6
63 63 63
6 6 6
6 6 6
63 63 63
6 6 6
6 6 6
63 63 63
6 6 6
6 6 6
63 63 63
6 6 6
6 6 6
63 63 63
6 6 6
6 6 6
63 63 63
6 6 6
6 6 6
63 63 63
6 6 6
6 6 6
63 63 63
6 6 6
6 6 6
63 63 63
6 6 6
6 6 6
63 63 63
6 6 6
6 6 6
63 63 63
63 63 63
6 6 6
63 63 63
63 63 63
6 6 6
63 63 63
63 63 63
6 6 6
63 63 63
63 63 63
6 6 6
63 63 63
63 63 63
6 6 6
63 63 63
63 63 63
6 6 6
63 63 63
63 63 63
6 6 6
63 63 63
63 63 63
6 6 6
63 63 63
63 63 63
6 6 6
63 63 63
63 63 63
6 6 6
63 63 63
63 63 63
6 6 6
63 63 63
63 63 63
6 6 6
63 63 63
63 63 63
6 6 6
63 63 63
63 63 63
6 6 6
63 63 63
63 63 63
6 6 6
70 70 70
127 127 127
127 127 127
70 70 70
70 70 70
127 127 127
127 127 127
70 70 70
127 127 127
127 127 127
70 70 70
70 70 70
127 127 127
127 127 127
70 70 70
70 70 70
127 127 127
70 70 70
70 70 70
127 127 127
127 127 127
70 70 70
70 70 70
127 127 127
127 127 127
70 70 70
127 127 127
127 127 127
70 70 70
70 70 70
127 127 127
127 127 127
70 70 70
70 70 70
127 127 127
70 70 70
70 70 70
127 127 127
127 127 127
70 70 70
70 70 70
127 127 127
127 127 127
70 70 70
127 127 127
127 127 127
70 70 70
70 70 70
127 127 127
127 127 127
70 70 70
70 70 70
127 127 127
70 70 70
70 70 70
127 127 127
127 127 127
70 70 70
70 70 70
127 127 127
127 127 127
70 70 70
127 127 127
127 127 127
70 70 70
70 70 70
127 127 127
127 127 127
70 70 70
70 70 70
127 127 127
70 70 70
70 70 70
127 127 127
127 127 127
70 70 70
70 70 70
127 127 127
127 127 127
70 70 70
127 127 127
127 127 127
70 70 70
70 70 70
127 127 127
127 127 127
70 70 70
70 70 70
127 127 127
70 70 70
70 70 70
127 127 127
127 127 127
70 70 70
70 70 70
127 127 127
70 70 70
70 70 70
70 70 70
127 127 127
127 127 127
127 127 127
127 127 127
127 127 127
70 70 70
70 70 70
70 70 70
70 70 70
70 70 70
127 127 127
127 127 127
127 127 127
127 127 127
127 127 127
70 70 70
70 70 70
70 70 70
70 70 70
70 70 70
127 127 127
127 127 127
127 127 127
127 127 127
127 127 127
70 70 70
70 70 70
70 70 70
70 70 70
70 70 70
127 127 127
127 127 127
127 127 127
127 127 127
127 127 127
70 70 70
70 70 70
70 70 70
70 70 70
70 70 70
127 127 127
127 127 127
127 127 127
127 127 127
127 127 127
70 70 70
70 70 70
70 70 70
70 70 70
70 70 70
127 127 127
127 127 127
127 127 127
127 127 127
127 127 127
70 70 70
70 70 70
70 70 70
70 70 70
70 70 70
127 127 127
127 127 127
127 127 127
127 127 127
127 127 127
70 70 70
70 70 70
70 70 70
70 70 70
70 70 70
127 127 127
127 127 127
127 127 127
127 127 127
127 127 127
70 70 70
70 70 70
70 70 70
70 70 70
70 70 70
127 127 127
127 127 127
127 127 127
127 127 127
127 127 127
70 70 70
70 70 70
70 70 70
70 70 70
70 70 70
127 127 127
127 127 127
127 127 127
63 63 63
6 6 6
63 63 63
6 6 6
63 63 63
6 6 6
63 63 63
6 6 6
63 63 63
63 63 63
6 6 6
63 63 63
6 6 6
63 63 63
6 6 6
63 63 63
6 6 6
63 63 63
6 6 6
63 63 63
6 6 6
63 63 63
6 6 6
63 63 63
6 6 6
6 6 6
63 63 63
6 6 6
63 63 63
6 6 6
63 63 63
6 6 6
63 63 63
6 6 6
63 63 63
6 6 6
63 63 63
6 6 6
63 63 63
6 6 6
6 6 6
63 63 63
6 6 6
63 63 63
6 6 6
63 63 63
6 6 6
63 63 63
6 6 6
63 63 63
6 6 6
63 63 63
6 6 6
63 63 63
6 6 6
63 63 63
63 63 63
6 6 6
63 63 63
6 6 6
63 63 63
6 6 6
63 63 63
6 6 6
63 63 63
6 6 6
63 63 63
6 6 6
63 63 63
6 6 6
63 63 63
63 63 63
6 6 6
63 63 63
6 6 6
63 63 63
6 6 6
63 63 63
6 6 6
63 63 63
6 6 6
63 63 63
6 6 6
63 63 63
6 6 6
63 63 63
6 6 6
6 6 6
63 63 63
6 6 6
63 63 63
6 6 6
63 63 63
6 6 6
63 63 63
6 6 6
127 127 127
127 127 127
70 70 70
70 70 70
70 70 70
127 127 127
127 127 127
127 127 127
70 70 70
70 70 70
70 70 70
127 127 127
127 127 127
127 127 127
70 70 70
70 70 70
70 70 70
127 127 127
127 127 127
70 70 70
70 70 70
70 70 70
127 127 127
127 127 127
127 127 127
70 70 70
70 70 70
70 70 70
127 127 127
127 127 127
127 127 127
70 70 70
70 70 70
70 70 70
127 127 127
127 127 127
127 127 127
70 70 70
70 70 70
127 127 127
127 127 127
127 127 127
70 70 70
70 70 70
70 70 70
127 127 127
127 127 127
127 127 127
70 70 70
70 70 70
70 70 70
127 127 127
127 127 127
127 127 127
70 70 70
70 70 70
70 70 70
127 127 127
127 127 127
70 70 70
70 70 70
70 70 70
127 127 127
127 127 127
127 127 127
70 70 70
70 70 70
70 70 70
127 127 127
127 127 127
127 127 127
70 70 70
70 70 70
70 70 70
127 127 127
127 127 127
127 127 127
70 70 70
70 70 70
127 127 127
127 127 127
127 127 127
70 70 70
70 70 70
70 70 70
127 127 127
127 127 127
127 127 127
70 70 70
70 70 70
70 70 70
127 127 127
127 127 127
127 127 127
70 70 70
70 70 70
6 6 6
6 6 6
63 63 63
63 63 63
6 6 6
6 6 6
6 6 6
63 63 63
63 63 63
63 63 63
6 6 6
6 6 6
6 6 6
63 63 63
63 63 63
63 63 63
6 6 6
6 6 6
6 6 6
63 63 63
63 63 63
63 63 63
6 6 6
6 6 6
6 6 6
63 63 63
63 63 63
63 63 63
6 6 6
6 6 6
6 6 6
63 63 63
63 63 63
6 6 6
6 6 6
6 6 6
63 63 63
63 63 63
63 63 63
6 6 6
6 6 6
6 6 6
63 63 63
63 63 63
63 63 63
6 6 6
6 6 6
6 6 6
63 63 63
63 63 63
63 63 63
6 6 6
6 6 6
6 6 6
63 63 63
63 63 63
63 63 63
6 6 6
6 6 6
6 6 6
63 63 63
63 63 63
63 63 63
6 6 6
6 6 6
63 63 63
63 63 63
63 63 63
6 6 6
6 6 6
6 6 6
63 63 63
63 63 63
63 63 63
6 6 6
6 6 6
6 6 6
63 63 63
63 63 63
63 63 63
6 6 6
6 6 6
6 6 6
63 63 63
63 63 63
63 63 63
6 6 6
6 6 6
6 6 6
63 63 63
63 63 63
63 63 63
6 6 6
6 6 6
63 63 63
63 63 63
6 6 6
63 63 63
6 6 6
63 63 63
6 6 6
63 63 63
6 6 6
63 63 63
6 6 6
63 63 63
6 6 6
63 63 63
6 6 6
63 63 63
6 6 6
63 63 63
6 6 6
63 63 63
6 6 6
63 63 63
6 6 6
63 63 63
6 6 6
6 6 6
63 63 63
6 6 6
63 63 63
6 6 6
63 63 63
6 6 6
63 63 63
6 6 6
63 63 63
6 6 6
63 63 63
6 6 6
63 63 63
6 6 6
63 63 63
6 6 6
63 63 63
6 6 6
63 63 63
6 6 6
63 63 63
6 6 6
63 63 63
6 6 6
63 63 63
6 6 6
63 63 63
6 6 6
63 63 63
6 6 6
63 63 63
6 6 6
63 63 63
6 6 6
63 63 63
6 6 6
63 63 63
6 6 6
63 63 63
6 6 6
63 63 63
6 6 6
63 63 63
6 6 6
63 63 63
6 6 6
63 63 63
6 6 6
63 63 63
63 63 63
6 6 6
63 63 63
6 6 6
63 63 63
6 6 6
63 63 63
6 6 6
63 63 63
6 6 6
63 63 63
6 6 6
63 63 63
6 6 6
63 63 63
6 6 6
63 63 63
6 6 6
63 63 63
6 6 6
63 63 63
6 6 6
63 63 63
63 63 63
6 6 6
6 6 6
6 6 6
6 6 6
63 63 63
63 63 63
63 63 63
6 6 6
6 6 6
6 6 6
63 63 63
63 63 63
63 63 63
6 6 6
6 6 6
6 6 6
63 63 63
63 63 63
63 63 63
6 6 6
6 6 6
6 6 6
63 63 63
63 63 63
63 63 63
6 6 6
6 6 6
6 6 6
63 63 63
63 63 63
63 63 63
6 6 6
6 6 6
6 6 6
6 6 6
63 63 63
63 63 63
63 63 63
6 6 6
6 6 6
6 6 6
63 63 63
63 63 63
63 63 63
6 6 6
6 6 6
6 6 6
63 63 63
63 63 63
63 63 63
6 6 6
6 6 6
6 6 6
63 63 63
63 63 63
63 63 63
6 6 6
6 6 6
6 6 6
63 63 63
63 63 63
63 63 63
63 63 63
6 6 6
6 6 6
6 6 6
63 63 63
63 63 63
63 63 63
6 6 6
6 6 6
6 6 6
63 63 63
63 63 63
63 63 63
6 6 6
6 6 6
6 6 6
63 63 63
63 63 63
63 63 63
6 6 6
6 6 6
6 6 6
63 63 63
63 63 63
63 63 63
6 6 6
6 6 6
6 6 6
63 63 63
63 63 63
63 63 63
63 63 63
6 6 6
