P3
48 27
255
2 2 2
2 2 2
28 28 28
50 50 50
50 50 50
50 50 50
2 2 2
2 2 2
2 2 2
50 50 50
50 50 50
50 50 50
2 2 2
2 2 2
2 2 2
50 50 50
50 50 50
50 50 50
2 2 2
2 2 2
2 2 2
50 50 50
50 50 50
50 50 50
2 2 2
2 2 2
2 2 2
50 50 50
50 50 50
50 50 50
2 2 2
2 2 2
2 2 2
50 50 50
50 50 50
50 50 50
2 2 2
2 2 2
2 2 2
50 50 50
50 50 50
50 50 50
2 2 2
2 2 2
2 2 2
28 28 28
50 50 50
50 50 50
50 50 50
50 50 50
28 28 28
2 2 2
25 25 25
50 50 50
50 50 50
2 2 2
2 2 2
50 50 50
50 50 50
2 2 2
2 2 2
50 50 50
50 50 50
2 2 2
2 2 2
25 25 25
50 50 50
50 50 50
2 2 2
2 2 2
50 50 50
50 50 50
2 2 2
2 2 2
50 50 50
50 50 50
2 2 2
2 2 2
25 25 25
50 50 50
50 50 50
2 2 2
2 2 2
50 50 50
50 50 50
2 2 2
2 2 2
50 50 50
50 50 50
2 2 2
2 2 2
25 25 25
50 50 50
28 28 28
2 2 2
2 2 2
28 28 28
25 25 25
2 2 2
50 50 50
2 2 2
28 28 28
25 25 25
28 28 28
25 25 25
2 2 2
50 50 50
2 2 2
28 28 28
25 25 25
28 28 28
25 25 25
2 2 2
50 50 50
2 2 2
28 28 28
25 25 25
28 28 28
25 25 25
2 2 2
50 50 50
25 25 25
28 28 28
25 25 25
28 28 28
50 50 50
2 2 2
50 50 50
25 25 25
28 28 28
25 25 25
28 28 28
50 50 50
2 2 2
50 50 50
25 25 25
28 28 28
25 25 25
28 28 28
50 50 50
2 2 2
50 50 50
25 25 25
28 28 28
50 50 50
2 2 2
50 50 50
2 2 2
50 50 50
25 25 25
28 28 28
25 25 25
2 2 2
50 50 50
2 2 2
50 50 50
2 2 2
50 50 50
2 2 2
50 50 50
2 2 2
28 28 28
25 25 25
28 28 28
50 50 50
2 2 2
50 50 50
2 2 2
50 50 50
2 2 2
50 50 50
2 2 2
28 28 28
25 25 25
28 28 28
50 50 50
2 2 2
50 50 50
2 2 2
50 50 50
2 2 2
50 50 50
2 2 2
50 50 50
25 25 25
28 28 28
25 25 25
2 2 2
50 50 50
2 2 2
50 50 50
2 2 2
28 28 28
25 25 25
28 28 28
28 28 28
25 25 25
28 28 28
25 25 25
2 2 2
28 28 28
25 25 25
28 28 28
50 50 50
25 25 25
28 28 28
25 25 25
2 2 2
28 28 28
25 25 25
28 28 28
25 25 25
25 25 25
28 28 28
25 25 25
28 28 28
28 28 28
25 25 25
28 28 28
25 25 25
25 25 25
28 28 28
25 25 25
28 28 28
50 50 50
25 25 25
28 28 28
25 25 25
2 2 2
28 28 28
25 25 25
28 28 28
50 50 50
25 25 25
28 28 28
25 25 25
28 28 28
28 28 28
25 25 25
28 28 28
50 50 50
2 2 2
25 25 25
50 50 50
2 2 2
25 25 25
50 50 50
2 2 2
25 25 25
50 50 50
2 2 2
25 25 25
50 50 50
28 28 28
25 25 25
50 50 50
28 28 28
2 2 2
50 50 50
28 28 28
2 2 2
50 50 50
28 28 28
2 2 2
50 50 50
28 28 28
2 2 2
50 50 50
28 28 28
2 2 2
50 50 50
28 28 28
2 2 2
25 25 25
28 28 28
2 2 2
25 25 25
50 50 50
2 2 2
25 25 25
50 50 50
2 2 2
25 25 25
50 50 50
2 2 2
25 25 25
50 50 50
2 2 2
50 50 50
2 2 2
2 2 2
50 50 50
28 28 28
2 2 2
25 25 25
50 50 50
2 2 2
2 2 2
50 50 50
28 28 28
2 2 2
25 25 25
50 50 50
2 2 2
2 2 2
50 50 50
28 28 28
2 2 2
25 25 25
50 50 50
28 28 28
2 2 2
50 50 50
28 28 28
2 2 2
25 25 25
50 50 50
28 28 28
2 2 2
50 50 50
50 50 50
2 2 2
25 25 25
50 50 50
28 28 28
2 2 2
50 50 50
50 50 50
2 2 2
25 25 25
50 50 50
28 28 28
2 2 2
50 50 50
50 50 50
2 2 2
28 28 28
50 50 50
25 25 25
2 2 2
28 28 28
50 50 50
25 25 25
2 2 2
28 28 28
50 50 50
25 25 25
2 2 2
28 28 28
25 25 25
25 25 25
28 28 28
28 28 28
25 25 25
25 25 25
28 28 28
28 28 28
0 0 50
0 0 50
25 0 25
25 0 25
50 0 0
50 0 0
28 28 28
28 28 28
25 25 25
25 25 25
28 28 28
28 28 28
25 25 25
25 25 25
28 28 28
50 50 50
25 25 25
2 2 2
28 28 28
50 50 50
25 25 25
2 2 2
28 28 28
50 50 50
25 25 25
2 2 2
28 28 28
50 50 50
50 50 50
2 2 2
2 2 2
50 50 50
50 50 50
25 25 25
2 2 2
28 28 28
50 50 50
50 50 50
2 2 2
2 2 2
50 50 50
50 50 50
2 2 2
2 2 2
28 28 28
50 50 50
25 25 25
25 0 25
25 0 25
50 0 0
50 0 0
0 0 50
0 0 50
25 0 25
25 0 25
25 25 25
2 2 2
28 28 28
50 50 50
50 50 50
2 2 2
2 2 2
50 50 50
50 50 50
2 2 2
2 2 2
28 28 28
50 50 50
25 25 25
2 2 2
2 2 2
50 50 50
50 50 50
2 2 2
2 2 2
50 50 50
50 50 50
2 2 2
2 2 2
28 28 28
50 50 50
50 50 50
2 2 2
2 2 2
28 28 28
50 50 50
50 50 50
2 2 2
2 2 2
28 28 28
50 50 50
25 25 25
2 2 2
2 2 2
25 0 25
0 0 50
50 0 0
50 0 0
25 0 25
25 0 25
0 0 50
0 0 50
50 0 0
25 0 25
50 50 50
50 50 50
25 25 25
2 2 2
28 28 28
50 50 50
50 50 50
2 2 2
2 2 2
28 28 28
50 50 50
50 50 50
2 2 2
2 2 2
28 28 28
50 50 50
50 50 50
2 2 2
2 2 2
28 28 28
50 50 50
25 25 25
25 25 25
2 2 2
28 28 28
50 50 50
25 25 25
25 25 25
2 2 2
28 28 28
50 50 50
50 50 50
25 25 25
2 2 2
28 28 28
28 28 28
50 50 50
25 25 25
0 0 50
25 0 25
25 0 25
50 0 0
25 0 25
25 0 25
0 0 50
25 0 25
25 0 25
50 0 0
25 25 25
2 2 2
28 28 28
28 28 28
50 50 50
25 25 25
2 2 2
2 2 2
28 28 28
50 50 50
25 25 25
25 25 25
2 2 2
28 28 28
50 50 50
25 25 25
25 25 25
2 2 2
28 28 28
28 28 28
28 28 28
2 2 2
25 25 25
25 25 25
50 50 50
28 28 28
28 28 28
25 25 25
25 25 25
25 25 25
28 28 28
28 28 28
28 28 28
25 25 25
25 25 25
25 25 25
28 28 28
25 0 25
0 0 50
25 0 25
25 0 25
0 0 50
25 0 25
25 0 25
50 0 0
25 0 25
25 0 25
50 0 0
25 0 25
28 28 28
25 25 25
25 25 25
25 25 25
28 28 28
28 28 28
28 28 28
25 25 25
25 25 25
25 25 25
28 28 28
28 28 28
2 2 2
25 25 25
25 25 25
50 50 50
28 28 28
28 28 28
50 50 50
50 50 50
28 28 28
2 2 2
2 2 2
25 25 25
50 50 50
50 50 50
28 28 28
2 2 2
2 2 2
2 2 2
50 50 50
50 50 50
50 50 50
2 2 2
2 2 2
2 2 2
50 0 0
25 0 25
25 0 25
0 0 50
0 0 50
0 0 50
50 0 0
50 0 0
50 0 0
25 0 25
25 0 25
0 0 50
50 50 50
50 50 50
50 50 50
2 2 2
2 2 2
2 2 2
50 50 50
50 50 50
50 50 50
28 28 28
2 2 2
2 2 2
25 25 25
50 50 50
50 50 50
28 28 28
2 2 2
2 2 2
28 28 28
28 28 28
50 50 50
25 25 25
25 25 25
25 25 25
28 28 28
28 28 28
28 28 28
25 25 25
25 25 25
25 25 25
2 2 2
28 28 28
28 28 28
28 28 28
25 25 25
25 25 25
50 0 0
50 0 0
50 0 0
0 0 50
0 0 50
0 0 50
50 0 0
50 0 0
50 0 0
0 0 50
0 0 50
0 0 50
25 25 25
25 25 25
28 28 28
28 28 28
28 28 28
50 50 50
25 25 25
25 25 25
25 25 25
28 28 28
28 28 28
28 28 28
25 25 25
25 25 25
25 25 25
2 2 2
28 28 28
28 28 28
50 50 50
50 50 50
50 50 50
2 2 2
2 2 2
2 2 2
50 50 50
50 50 50
50 50 50
50 50 50
2 2 2
2 2 2
2 2 2
50 50 50
50 50 50
50 50 50
50 50 50
2 2 2
2 2 2
50 0 0
50 0 0
0 0 50
0 0 50
25 0 25
25 0 25
50 0 0
50 0 0
0 0 50
0 0 50
50 50 50
50 50 50
2 2 2
2 2 2
2 2 2
2 2 2
50 50 50
50 50 50
50 50 50
2 2 2
2 2 2
2 2 2
2 2 2
50 50 50
50 50 50
50 50 50
2 2 2
2 2 2
2 2 2
28 28 28
28 28 28
28 28 28
2 2 2
25 25 25
25 25 25
25 25 25
28 28 28
28 28 28
28 28 28
28 28 28
25 25 25
25 25 25
25 25 25
50 50 50
28 28 28
28 28 28
28 28 28
2 2 2
25 0 25
50 0 0
25 0 25
0 0 50
25 0 25
25 0 25
50 0 0
25 0 25
0 0 50
25 0 25
50 50 50
28 28 28
28 28 28
28 28 28
2 2 2
25 25 25
25 25 25
25 25 25
28 28 28
28 28 28
28 28 28
28 28 28
25 25 25
25 25 25
25 25 25
50 50 50
28 28 28
28 28 28
28 28 28
28 28 28
50 50 50
50 50 50
25 25 25
25 25 25
2 2 2
2 2 2
28 28 28
28 28 28
50 50 50
50 50 50
25 25 25
25 25 25
2 2 2
2 2 2
28 28 28
28 28 28
50 50 50
50 50 50
25 25 25
50 0 0
25 0 25
0 0 50
25 0 25
25 0 25
50 0 0
25 0 25
0 0 50
25 25 25
2 2 2
2 2 2
28 28 28
28 28 28
50 50 50
50 50 50
25 25 25
25 25 25
2 2 2
2 2 2
28 28 28
28 28 28
50 50 50
50 50 50
25 25 25
25 25 25
2 2 2
2 2 2
28 28 28
50 50 50
50 50 50
50 50 50
2 2 2
2 2 2
2 2 2
2 2 2
25 25 25
50 50 50
50 50 50
50 50 50
28 28 28
2 2 2
2 2 2
2 2 2
25 25 25
50 50 50
50 50 50
50 50 50
28 28 28
2 2 2
2 2 2
0 0 50
25 0 25
25 0 25
50 0 0
50 50 50
50 50 50
28 28 28
2 2 2
2 2 2
2 2 2
25 25 25
50 50 50
50 50 50
50 50 50
28 28 28
2 2 2
2 2 2
2 2 2
25 25 25
50 50 50
50 50 50
50 50 50
50 50 50
2 2 2
2 2 2
2 2 2
28 28 28
28 28 28
28 28 28
28 28 28
2 2 2
25 25 25
25 25 25
25 25 25
50 50 50
28 28 28
28 28 28
28 28 28
2 2 2
2 2 2
25 25 25
25 25 25
25 25 25
50 50 50
28 28 28
28 28 28
28 28 28
2 2 2
25 25 25
25 25 25
25 25 25
25 25 25
50 50 50
28 28 28
28 28 28
28 28 28
2 2 2
25 25 25
25 25 25
25 25 25
50 50 50
50 50 50
28 28 28
28 28 28
28 28 28
2 2 2
25 25 25
25 25 25
25 25 25
50 50 50
28 28 28
28 28 28
28 28 28
28 28 28
28 28 28
28 28 28
28 28 28
50 50 50
25 25 25
25 25 25
25 25 25
2 2 2
28 28 28
28 28 28
28 28 28
28 28 28
50 50 50
25 25 25
25 25 25
25 25 25
2 2 2
2 2 2
28 28 28
28 28 28
28 28 28
50 50 50
25 25 25
25 25 25
25 25 25
25 25 25
2 2 2
28 28 28
28 28 28
28 28 28
50 50 50
50 50 50
25 25 25
25 25 25
25 25 25
2 2 2
28 28 28
28 28 28
28 28 28
28 28 28
50 50 50
25 25 25
25 25 25
25 25 25
2 2 2
28 28 28
28 28 28
28 28 28
50 50 50
50 50 50
50 50 50
50 50 50
25 25 25
2 2 2
2 2 2
2 2 2
2 2 2
28 28 28
50 50 50
50 50 50
50 50 50
50 50 50
25 25 25
2 2 2
2 2 2
2 2 2
2 2 2
28 28 28
50 50 50
50 50 50
50 50 50
25 25 25
25 25 25
2 2 2
2 2 2
2 2 2
28 28 28
50 50 50
50 50 50
50 50 50
50 50 50
25 25 25
2 2 2
2 2 2
2 2 2
2 2 2
28 28 28
50 50 50
50 50 50
50 50 50
50 50 50
25 25 25
2 2 2
2 2 2
2 2 2
2 2 2
50 50 50
50 50 50
50 50 50
28 28 28
2 2 2
2 2 2
2 2 2
2 2 2
25 25 25
50 50 50
50 50 50
50 50 50
50 50 50
28 28 28
2 2 2
2 2 2
2 2 2
2 2 2
25 25 25
50 50 50
50 50 50
50 50 50
50 50 50
50 50 50
2 2 2
2 2 2
2 2 2
2 2 2
2 2 2
25 25 25
50 50 50
50 50 50
50 50 50
50 50 50
28 28 28
2 2 2
2 2 2
2 2 2
2 2 2
25 25 25
50 50 50
50 50 50
50 50 50
50 50 50
28 28 28
2 2 2
2 2 2
2 2 2
50 50 50
28 28 28
28 28 28
28 28 28
2 2 2
2 2 2
2 2 2
25 25 25
25 25 25
25 25 25
50 50 50
50 50 50
28 28 28
28 28 28
28 28 28
2 2 2
2 2 2
25 25 25
25 25 25
25 25 25
50 50 50
50 50 50
28 28 28
28 28 28
28 28 28
28 28 28
2 2 2
2 2 2
25 25 25
25 25 25
25 25 25
50 50 50
50 50 50
28 28 28
28 28 28
28 28 28
2 2 2
2 2 2
25 25 25
25 25 25
25 25 25
50 50 50
50 50 50
50 50 50
28 28 28
28 28 28
28 28 28
2 2 2
28 28 28
28 28 28
28 28 28
28 28 28
2 2 2
25 25 25
25 25 25
25 25 25
25 25 25
25 25 25
28 28 28
28 28 28
28 28 28
28 28 28
28 28 28
28 28 28
25 25 25
25 25 25
25 25 25
25 25 25
25 25 25
28 28 28
28 28 28
28 28 28
28 28 28
28 28 28
28 28 28
25 25 25
25 25 25
25 25 25
25 25 25
25 25 25
28 28 28
28 28 28
28 28 28
28 28 28
28 28 28
28 28 28
25 25 25
25 25 25
25 25 25
25 25 25
25 25 25
50 50 50
28 28 28
28 28 28
28 28 28
28 28 28
28 28 28
28 28 28
28 28 28
50 50 50
50 50 50
25 25 25
25 25 25
25 25 25
25 25 25
2 2 2
28 28 28
28 28 28
28 28 28
28 28 28
28 28 28
50 50 50
25 25 25
25 25 25
25 25 25
25 25 25
2 2 2
2 2 2
28 28 28
28 28 28
28 28 28
28 28 28
50 50 50
50 50 50
25 25 25
25 25 25
25 25 25
25 25 25
2 2 2
28 28 28
28 28 28
28 28 28
28 28 28
28 28 28
50 50 50
25 25 25
25 25 25
25 25 25
25 25 25
2 2 2
2 2 2
28 28 28
28 28 28
28 28 28
28 28 28
50 50 50
50 50 50
50 50 50
50 50 50
25 25 25
25 25 25
2 2 2
2 2 2
2 2 2
2 2 2
28 28 28
28 28 28
50 50 50
50 50 50
50 50 50
50 50 50
25 25 25
25 25 25
2 2 2
2 2 2
2 2 2
2 2 2
28 28 28
28 28 28
50 50 50
50 50 50
50 50 50
50 50 50
25 25 25
25 25 25
2 2 2
2 2 2
2 2 2
2 2 2
28 28 28
28 28 28
50 50 50
50 50 50
50 50 50
50 50 50
25 25 25
25 25 25
2 2 2
2 2 2
2 2 2
2 2 2
28 28 28
50 50 50
50 50 50
50 50 50
50 50 50
50 50 50
25 25 25
2 2 2
2 2 2
2 2 2
2 2 2
2 2 2
28 28 28
50 50 50
50 50 50
50 50 50
50 50 50
50 50 50
25 25 25
2 2 2
2 2 2
2 2 2
2 2 2
2 2 2
2 2 2
50 50 50
50 50 50
50 50 50
50 50 50
50 50 50
50 50 50
25 25 25
2 2 2
2 2 2
2 2 2
2 2 2
2 2 2
28 28 28
50 50 50
50 50 50
50 50 50
50 50 50
50 50 50
25 25 25
2 2 2
2 2 2
2 2 2
2 2 2
2 2 2
