P3
96 54
255
28 28 28
28 28 28
51 51 51
51 51 51
28 28 28
28 28 28
52 52 52
52 52 52
28 28 28
28 28 28
52 52 52
52 52 52
28 28 28
28 28 28
52 52 52
52 52 52
28 28 28
28 28 28
52 52 52
52 52 52
52 52 52
28 28 28
29 29 29
52 52 52
52 52 52
29 29 29
29 29 29
52 52 52
52 52 52
29 29 29
29 29 29
53 53 53
53 53 53
29 29 29
29 29 29
53 53 53
53 53 53
29 29 29
29 29 29
29 29 29
53 53 53
53 53 53
29 29 29
29 29 29
53 53 53
53 53 53
29 29 29
29 29 29
53 53 53
53 53 53
29 29 29
29 29 29
53 53 53
53 53 53
29 29 29
29 29 29
53 53 53
53 53 53
53 53 53
29 29 29
29 29 29
53 53 53
53 53 53
29 29 29
29 29 29
53 53 53
53 53 53
29 29 29
29 29 29
52 52 52
52 52 52
29 29 29
29 29 29
52 52 52
52 52 52
28 28 28
28 28 28
28 28 28
52 52 52
52 52 52
28 28 28
28 28 28
52 52 52
52 52 52
28 28 28
28 28 28
52 52 52
52 52 52
28 28 28
28 28 28
52 52 52
52 52 52
28 28 28
28 28 28
52 52 52
52 52 52
28 28 28
28 28 28
28 28 28
28 28 28
28 28 28
28 28 28
28 28 28
28 28 28
28 28 28
28 28 28
28 28 28
28 28 28
28 28 28
28 28 28
28 28 28
28 28 28
28 28 28
28 28 28
29 29 29
29 29 29
29 29 29
29 29 29
29 29 29
29 29 29
29 29 29
29 29 29
29 29 29
29 29 29
29 29 29
29 29 29
29 29 29
29 29 29
29 29 29
29 29 29
29 29 29
29 29 29
29 29 29
29 29 29
29 29 29
29 29 29
29 29 29
29 29 29
29 29 29
29 29 29
29 29 29
29 29 29
29 29 29
29 29 29
53 53 53
53 53 53
53 53 53
53 53 53
53 53 53
53 53 53
53 53 53
53 53 53
53 53 53
53 53 53
53 53 53
53 53 53
53 53 53
53 53 53
53 53 53
53 53 53
53 53 53
53 53 53
53 53 53
53 53 53
53 53 53
53 53 53
53 53 53
52 52 52
52 52 52
52 52 52
52 52 52
52 52 52
52 52 52
52 52 52
52 52 52
52 52 52
52 52 52
52 52 52
52 52 52
52 52 52
52 52 52
52 52 52
52 52 52
52 52 52
52 52 52
52 52 52
52 52 52
52 52 52
52 52 52
52 52 52
52 52 52
52 52 52
2 2 2
2 2 2
2 2 2
26 26 26
26 26 26
2 2 2
2 2 2
26 26 26
26 26 26
26 26 26
2 2 2
2 2 2
26 26 26
26 26 26
26 26 26
2 2 2
2 2 2
26 26 26
26 26 26
2 2 2
2 2 2
2 2 2
26 26 26
26 26 26
2 2 2
2 2 2
26 26 26
26 26 26
26 26 26
2 2 2
2 2 2
26 26 26
26 26 26
26 26 26
2 2 2
2 2 2
26 26 26
26 26 26
2 2 2
2 2 2
2 2 2
26 26 26
26 26 26
2 2 2
2 2 2
2 2 2
26 26 26
26 26 26
2 2 2
2 2 2
26 26 26
26 26 26
26 26 26
2 2 2
2 2 2
26 26 26
26 26 26
26 26 26
2 2 2
2 2 2
26 26 26
26 26 26
2 2 2
2 2 2
2 2 2
26 26 26
26 26 26
2 2 2
2 2 2
2 2 2
26 26 26
26 26 26
2 2 2
2 2 2
26 26 26
26 26 26
26 26 26
2 2 2
2 2 2
26 26 26
26 26 26
2 2 2
2 2 2
2 2 2
26 26 26
26 26 26
2 2 2
2 2 2
2 2 2
26 26 26
26 26 26
2 2 2
2 2 2
26 26 26
26 26 26
26 26 26
26 26 26
2 2 2
26 26 26
26 26 26
2 2 2
26 26 26
2 2 2
26 26 26
2 2 2
2 2 2
26 26 26
2 2 2
26 26 26
2 2 2
2 2 2
26 26 26
2 2 2
26 26 26
2 2 2
2 2 2
26 26 26
2 2 2
26 26 26
2 2 2
2 2 2
26 26 26
2 2 2
26 26 26
2 2 2
26 26 26
26 26 26
2 2 2
26 26 26
2 2 2
26 26 26
26 26 26
2 2 2
26 26 26
2 2 2
26 26 26
26 26 26
2 2 2
27 27 27
2 2 2
27 27 27
27 27 27
2 2 2
27 27 27
2 2 2
27 27 27
2 2 2
2 2 2
27 27 27
2 2 2
27 27 27
2 2 2
2 2 2
26 26 26
2 2 2
26 26 26
2 2 2
2 2 2
26 26 26
2 2 2
26 26 26
2 2 2
2 2 2
26 26 26
2 2 2
26 26 26
2 2 2
26 26 26
26 26 26
2 2 2
26 26 26
2 2 2
26 26 26
26 26 26
2 2 2
26 26 26
2 2 2
26 26 26
26 26 26
2 2 2
26 26 26
2 2 2
26 26 26
26 26 26
2 2 2
26 26 26
2 2 2
26 26 26
2 2 2
2 2 2
26 26 26
2 2 2
2 2 2
26 26 26
2 2 2
26 26 26
26 26 26
2 2 2
26 26 26
2 2 2
26 26 26
2 2 2
2 2 2
26 26 26
2 2 2
26 26 26
2 2 2
26 26 26
26 26 26
2 2 2
26 26 26
2 2 2
26 26 26
2 2 2
2 2 2
26 26 26
2 2 2
26 26 26
2 2 2
2 2 2
26 26 26
2 2 2
26 26 26
2 2 2
26 26 26
26 26 26
2 2 2
26 26 26
2 2 2
27 27 27
2 2 2
2 2 2
27 27 27
2 2 2
27 27 27
2 2 2
27 27 27
27 27 27
2 2 2
27 27 27
2 2 2
27 27 27
2 2 2
2 2 2
27 27 27
2 2 2
27 27 27
2 2 2
27 27 27
27 27 27
2 2 2
27 27 27
2 2 2
26 26 26
2 2 2
2 2 2
26 26 26
2 2 2
26 26 26
2 2 2
26 26 26
26 26 26
2 2 2
26 26 26
2 2 2
26 26 26
26 26 26
2 2 2
26 26 26
2 2 2
26 26 26
2 2 2
2 2 2
26 26 26
2 2 2
26 26 26
2 2 2
26 26 26
26 26 26
2 2 2
26 26 26
2 2 2
26 26 26
2 2 2
2 2 2
26 26 26
2 2 2
26 26 26
2 2 2
2 2 2
26 26 26
26 26 26
2 2 2
2 2 2
26 26 26
26 26 26
2 2 2
2 2 2
26 26 26
26 26 26
2 2 2
2 2 2
26 26 26
26 26 26
2 2 2
2 2 2
26 26 26
26 26 26
2 2 2
2 2 2
26 26 26
26 26 26
2 2 2
2 2 2
26 26 26
26 26 26
2 2 2
2 2 2
26 26 26
26 26 26
2 2 2
2 2 2
27 27 27
27 27 27
2 2 2
2 2 2
27 27 27
27 27 27
2 2 2
2 2 2
27 27 27
27 27 27
2 2 2
2 2 2
27 27 27
27 27 27
2 2 2
2 2 2
27 27 27
27 27 27
2 2 2
2 2 2
27 27 27
27 27 27
2 2 2
2 2 2
27 27 27
27 27 27
2 2 2
2 2 2
27 27 27
27 27 27
2 2 2
2 2 2
26 26 26
26 26 26
2 2 2
2 2 2
26 26 26
26 26 26
2 2 2
2 2 2
26 26 26
26 26 26
2 2 2
2 2 2
26 26 26
26 26 26
2 2 2
2 2 2
26 26 26
26 26 26
2 2 2
2 2 2
26 26 26
26 26 26
2 2 2
2 2 2
26 26 26
26 26 26
2 2 2
2 2 2
26 26 26
26 26 26
52 52 52
52 52 52
52 52 52
52 52 52
52 52 52
28 28 28
28 28 28
28 28 28
28 28 28
28 28 28
28 28 28
52 52 52
52 52 52
52 52 52
52 52 52
52 52 52
28 28 28
29 29 29
29 29 29
29 29 29
29 29 29
52 52 52
52 52 52
53 53 53
53 53 53
53 53 53
53 53 53
29 29 29
29 29 29
29 29 29
29 29 29
29 29 29
54 54 54
54 54 54
54 54 54
54 54 54
54 54 54
29 29 29
30 30 30
30 30 30
30 30 30
30 30 30
30 30 30
54 54 54
54 54 54
54 54 54
54 54 54
54 54 54
30 30 30
30 30 30
30 30 30
30 30 30
30 30 30
54 54 54
54 54 54
54 54 54
54 54 54
54 54 54
54 54 54
30 30 30
29 29 29
29 29 29
29 29 29
29 29 29
54 54 54
54 54 54
54 54 54
53 53 53
53 53 53
29 29 29
29 29 29
29 29 29
29 29 29
29 29 29
29 29 29
53 53 53
53 53 53
53 53 53
53 53 53
53 53 53
29 29 29
29 29 29
29 29 29
29 29 29
29 29 29
52 52 52
52 52 52
52 52 52
52 52 52
52 52 52
52 52 52
29 29 29
29 29 29
28 28 28
28 28 28
28 28 28
2 2 2
2 2 2
2 2 2
2 2 2
2 2 2
2 2 2
2 2 2
2 2 2
26 26 26
26 26 26
26 26 26
26 26 26
26 26 26
26 26 26
26 26 26
26 26 26
26 26 26
26 26 26
2 2 2
2 2 2
2 2 2
2 2 2
2 2 2
2 2 2
2 2 2
2 2 2
2 2 2
2 2 2
27 27 27
27 27 27
27 27 27
27 27 27
27 27 27
27 27 27
27 27 27
27 27 27
27 27 27
27 27 27
2 2 2
2 2 2
2 2 2
2 2 2
2 2 2
2 2 2
2 2 2
2 2 2
2 2 2
2 2 2
27 27 27
27 27 27
27 27 27
27 27 27
27 27 27
27 27 27
27 27 27
27 27 27
27 27 27
27 27 27
2 2 2
2 2 2
2 2 2
2 2 2
2 2 2
2 2 2
2 2 2
2 2 2
2 2 2
2 2 2
27 27 27
27 27 27
26 26 26
26 26 26
26 26 26
26 26 26
26 26 26
26 26 26
26 26 26
26 26 26
2 2 2
2 2 2
2 2 2
2 2 2
2 2 2
2 2 2
2 2 2
2 2 2
2 2 2
2 2 2
26 26 26
26 26 26
26 26 26
26 26 26
26 26 26
26 26 26
26 26 26
26 26 26
52 52 52
52 52 52
28 28 28
28 28 28
28 28 28
52 52 52
52 52 52
28 28 28
28 28 28
28 28 28
52 52 52
52 52 52
52 52 52
29 29 29
29 29 29
52 52 52
52 52 52
52 52 52
29 29 29
29 29 29
29 29 29
53 53 53
53 53 53
53 53 53
29 29 29
29 29 29
54 54 54
54 54 54
54 54 54
29 29 29
29 29 29
29 29 29
54 54 54
54 54 54
30 30 30
30 30 30
30 30 30
55 55 55
55 55 55
55 55 55
30 30 30
30 30 30
30 30 30
55 55 55
55 55 55
30 30 30
30 30 30
30 30 30
55 55 55
55 55 55
55 55 55
30 30 30
30 30 30
55 55 55
55 55 55
55 55 55
30 30 30
30 30 30
30 30 30
55 55 55
55 55 55
54 54 54
30 30 30
30 30 30
54 54 54
54 54 54
54 54 54
29 29 29
29 29 29
29 29 29
54 54 54
54 54 54
29 29 29
29 29 29
29 29 29
53 53 53
53 53 53
53 53 53
29 29 29
29 29 29
29 29 29
53 53 53
53 53 53
29 29 29
29 29 29
29 29 29
53 53 53
53 53 53
53 53 53
29 29 29
29 29 29
52 52 52
52 52 52
52 52 52
29 29 29
29 29 29
52 52 52
28 28 28
28 28 28
52 52 52
28 28 28
28 28 28
52 52 52
52 52 52
28 28 28
52 52 52
52 52 52
29 29 29
52 52 52
52 52 52
29 29 29
29 29 29
52 52 52
29 29 29
29 29 29
53 53 53
53 53 53
29 29 29
53 53 53
53 53 53
29 29 29
53 53 53
53 53 53
29 29 29
29 29 29
54 54 54
30 30 30
30 30 30
54 54 54
30 30 30
30 30 30
55 55 55
55 55 55
30 30 30
55 55 55
55 55 55
30 30 30
30 30 30
55 55 55
30 30 30
30 30 30
56 56 56
30 30 30
30 30 30
56 56 56
56 56 56
30 30 30
56 56 56
56 56 56
30 30 30
55 55 55
55 55 55
30 30 30
30 30 30
55 55 55
30 30 30
30 30 30
55 55 55
55 55 55
30 30 30
54 54 54
54 54 54
30 30 30
54 54 54
54 54 54
29 29 29
29 29 29
54 54 54
29 29 29
29 29 29
53 53 53
29 29 29
29 29 29
53 53 53
53 53 53
29 29 29
53 53 53
53 53 53
29 29 29
29 29 29
53 53 53
29 29 29
29 29 29
53 53 53
29 29 29
29 29 29
53 53 53
53 53 53
29 29 29
52 52 52
52 52 52
29 29 29
28 28 28
52 52 52
28 28 28
52 52 52
52 52 52
28 28 28
52 52 52
28 28 28
52 52 52
29 29 29
52 52 52
52 52 52
29 29 29
52 52 52
29 29 29
52 52 52
29 29 29
29 29 29
53 53 53
29 29 29
53 53 53
29 29 29
53 53 53
29 29 29
29 29 29
53 53 53
29 29 29
53 53 53
30 30 30
54 54 54
30 30 30
30 30 30
55 55 55
30 30 30
55 55 55
30 30 30
55 55 55
30 30 30
30 30 30
55 55 55
30 30 30
56 56 56
30 30 30
56 56 56
31 31 31
31 31 31
56 56 56
31 31 31
56 56 56
31 31 31
56 56 56
56 56 56
31 31 31
56 56 56
30 30 30
56 56 56
30 30 30
56 56 56
55 55 55
30 30 30
55 55 55
30 30 30
55 55 55
30 30 30
55 55 55
55 55 55
30 30 30
54 54 54
30 30 30
54 54 54
29 29 29
54 54 54
54 54 54
29 29 29
54 54 54
29 29 29
53 53 53
29 29 29
53 53 53
53 53 53
29 29 29
53 53 53
29 29 29
53 53 53
29 29 29
29 29 29
53 53 53
29 29 29
53 53 53
29 29 29
53 53 53
29 29 29
29 29 29
53 53 53
29 29 29
52 52 52
28 28 28
52 52 52
28 28 28
52 52 52
28 28 28
52 52 52
28 28 28
52 52 52
29 29 29
52 52 52
29 29 29
52 52 52
29 29 29
52 52 52
53 53 53
29 29 29
53 53 53
29 29 29
53 53 53
29 29 29
53 53 53
29 29 29
53 53 53
29 29 29
53 53 53
29 29 29
53 53 53
53 53 53
29 29 29
54 54 54
30 30 30
55 55 55
30 30 30
55 55 55
30 30 30
55 55 55
30 30 30
56 56 56
30 30 30
56 56 56
31 31 31
31 31 31
56 56 56
31 31 31
56 56 56
31 31 31
57 57 57
31 31 31
57 57 57
31 31 31
57 57 57
31 31 31
57 57 57
31 31 31
56 56 56
56 56 56
31 31 31
56 56 56
30 30 30
56 56 56
30 30 30
55 55 55
30 30 30
55 55 55
30 30 30
55 55 55
30 30 30
55 55 55
30 30 30
30 30 30
54 54 54
30 30 30
54 54 54
29 29 29
54 54 54
29 29 29
54 54 54
29 29 29
53 53 53
29 29 29
53 53 53
29 29 29
29 29 29
53 53 53
29 29 29
53 53 53
29 29 29
53 53 53
29 29 29
53 53 53
29 29 29
53 53 53
29 29 29
53 53 53
29 29 29
53 53 53
28 28 28
52 52 52
28 28 28
28 28 28
52 52 52
28 28 28
52 52 52
52 52 52
29 29 29
52 52 52
52 52 52
29 29 29
53 53 53
29 29 29
29 29 29
53 53 53
29 29 29
53 53 53
53 53 53
29 29 29
53 53 53
53 53 53
29 29 29
53 53 53
29 29 29
29 29 29
53 53 53
29 29 29
29 29 29
54 54 54
29 29 29
55 55 55
55 55 55
30 30 30
55 55 55
56 56 56
30 30 30
56 56 56
31 31 31
31 31 31
56 56 56
31 31 31
57 57 57
57 57 57
31 31 31
57 57 57
57 57 57
31 31 31
57 57 57
31 31 31
31 31 31
57 57 57
31 31 31
31 31 31
57 57 57
31 31 31
57 57 57
56 56 56
31 31 31
56 56 56
31 31 31
30 30 30
56 56 56
30 30 30
30 30 30
55 55 55
30 30 30
55 55 55
55 55 55
30 30 30
54 54 54
54 54 54
30 30 30
54 54 54
29 29 29
29 29 29
54 54 54
29 29 29
29 29 29
54 54 54
29 29 29
53 53 53
53 53 53
29 29 29
53 53 53
29 29 29
29 29 29
53 53 53
29 29 29
29 29 29
53 53 53
29 29 29
53 53 53
53 53 53
29 29 29
53 53 53
2 2 2
2 2 2
26 26 26
26 26 26
2 2 2
2 2 2
26 26 26
26 26 26
2 2 2
2 2 2
26 26 26
26 26 26
2 2 2
2 2 2
26 26 26
26 26 26
2 2 2
2 2 2
26 26 26
2 2 2
2 2 2
26 26 26
26 26 26
2 2 2
2 2 2
26 26 26
27 27 27
2 2 2
2 2 2
27 27 27
27 27 27
2 2 2
2 2 2
28 28 28
28 28 28
2 2 2
2 2 2
28 28 28
2 2 2
2 2 2
28 28 28
28 28 28
2 2 2
2 2 2
29 29 29
29 29 29
2 2 2
2 2 2
29 29 29
29 29 29
2 2 2
2 2 2
29 29 29
29 29 29
2 2 2
2 2 2
28 28 28
28 28 28
2 2 2
28 28 28
28 28 28
2 2 2
2 2 2
28 28 28
28 28 28
2 2 2
2 2 2
27 27 27
27 27 27
2 2 2
2 2 2
27 27 27
27 27 27
2 2 2
2 2 2
27 27 27
27 27 27
2 2 2
27 27 27
27 27 27
2 2 2
2 2 2
26 26 26
26 26 26
2 2 2
2 2 2
26 26 26
26 26 26
2 2 2
2 2 2
26 26 26
26 26 26
2 2 2
2 2 2
26 26 26
26 26 26
28 28 28
52 52 52
52 52 52
52 52 52
29 29 29
29 29 29
29 29 29
52 52 52
52 52 52
53 53 53
29 29 29
29 29 29
29 29 29
53 53 53
53 53 53
53 53 53
29 29 29
29 29 29
29 29 29
53 53 53
53 53 53
53 53 53
29 29 29
29 29 29
29 29 29
54 54 54
54 54 54
54 54 54
29 29 29
30 30 30
54 54 54
54 54 54
54 54 54
30 30 30
31 31 31
31 31 31
56 56 56
57 57 57
57 57 57
31 31 31
31 31 31
31 31 31
58 58 58
58 58 58
58 58 58
32 32 32
32 32 32
32 32 32
59 59 59
59 59 59
59 59 59
32 32 32
32 32 32
32 32 32
58 58 58
58 58 58
58 58 58
31 31 31
31 31 31
31 31 31
57 57 57
56 56 56
56 56 56
31 31 31
30 30 30
30 30 30
55 55 55
55 55 55
30 30 30
30 30 30
30 30 30
55 55 55
55 55 55
54 54 54
30 30 30
30 30 30
30 30 30
54 54 54
54 54 54
54 54 54
29 29 29
29 29 29
29 29 29
53 53 53
53 53 53
53 53 53
29 29 29
29 29 29
29 29 29
53 53 53
53 53 53
53 53 53
29 29 29
29 29 29
29 29 29
53 53 53
26 26 26
26 26 26
26 26 26
26 26 26
26 26 26
26 26 26
2 2 2
2 2 2
2 2 2
2 2 2
2 2 2
2 2 2
26 26 26
26 26 26
26 26 26
26 26 26
26 26 26
26 26 26
2 2 2
2 2 2
2 2 2
2 2 2
2 2 2
2 2 2
27 27 27
27 27 27
27 27 27
27 27 27
27 27 27
27 27 27
2 2 2
2 2 2
2 2 2
2 2 2
2 2 2
2 2 2
28 28 28
28 28 28
28 28 28
29 29 29
29 29 29
29 29 29
2 2 2
2 2 2
2 2 2
2 2 2
2 2 2
3 3 3
30 30 30
30 30 30
30 30 30
29 29 29
29 29 29
29 29 29
2 2 2
2 2 2
2 2 2
2 2 2
2 2 2
2 2 2
28 28 28
28 28 28
28 28 28
28 28 28
28 28 28
28 28 28
2 2 2
2 2 2
2 2 2
2 2 2
2 2 2
2 2 2
27 27 27
27 27 27
27 27 27
27 27 27
27 27 27
27 27 27
2 2 2
2 2 2
2 2 2
2 2 2
2 2 2
2 2 2
26 26 26
26 26 26
26 26 26
26 26 26
26 26 26
26 26 26
2 2 2
2 2 2
2 2 2
2 2 2
2 2 2
2 2 2
29 29 29
29 29 29
29 29 29
29 29 29
29 29 29
29 29 29
29 29 29
29 29 29
29 29 29
29 29 29
29 29 29
29 29 29
29 29 29
29 29 29
29 29 29
29 29 29
29 29 29
29 29 29
29 29 29
29 29 29
29 29 29
29 29 29
29 29 29
29 29 29
29 29 29
29 29 29
29 29 29
30 30 30
30 30 30
30 30 30
30 30 30
30 30 30
30 30 30
30 30 30
30 30 30
30 30 30
31 31 31
31 31 31
32 32 32
32 32 32
32 32 32
32 32 32
32 32 32
33 33 33
33 33 33
33 33 33
33 33 33
33 33 33
61 61 61
61 61 61
61 61 61
60 60 60
60 60 60
60 60 60
60 60 60
59 59 59
59 59 59
59 59 59
58 58 58
58 58 58
58 58 58
57 57 57
57 57 57
57 57 57
57 57 57
56 56 56
56 56 56
56 56 56
56 56 56
55 55 55
55 55 55
55 55 55
55 55 55
55 55 55
55 55 55
54 54 54
54 54 54
54 54 54
54 54 54
54 54 54
54 54 54
54 54 54
54 54 54
54 54 54
54 54 54
54 54 54
53 53 53
53 53 53
53 53 53
53 53 53
53 53 53
53 53 53
53 53 53
53 53 53
53 53 53
53 53 53
29 29 29
29 29 29
52 52 52
52 52 52
52 52 52
53 53 53
53 53 53
53 53 53
53 53 53
29 29 29
29 29 29
29 29 29
29 29 29
29 29 29
29 29 29
53 53 53
53 53 53
53 53 53
53 53 53
53 53 53
53 53 53
54 54 54
29 29 29
29 29 29
29 29 29
29 29 29
30 30 30
30 30 30
54 54 54
55 55 55
55 55 55
55 55 55
55 55 55
55 55 55
56 56 56
30 30 30
31 31 31
32 32 32
32 32 32
32 32 32
32 32 32
60 60 60
60 60 60
61 61 61
61 61 61
61 61 61
62 62 62
62 62 62
34 34 34
34 34 34
34 34 34
34 34 34
34 34 34
33 33 33
33 33 33
60 60 60
60 60 60
59 59 59
59 59 59
59 59 59
58 58 58
32 32 32
31 31 31
31 31 31
31 31 31
31 31 31
31 31 31
31 31 31
56 56 56
56 56 56
55 55 55
55 55 55
55 55 55
55 55 55
30 30 30
30 30 30
30 30 30
30 30 30
30 30 30
30 30 30
30 30 30
54 54 54
54 54 54
54 54 54
54 54 54
54 54 54
54 54 54
29 29 29
29 29 29
29 29 29
29 29 29
29 29 29
29 29 29
29 29 29
53 53 53
53 53 53
26 26 26
2 2 2
2 2 2
2 2 2
2 2 2
26 26 26
26 26 26
26 26 26
2 2 2
2 2 2
2 2 2
26 26 26
26 26 26
26 26 26
26 26 26
2 2 2
2 2 2
2 2 2
26 26 26
27 27 27
27 27 27
2 2 2
2 2 2
2 2 2
2 2 2
27 27 27
27 27 27
27 27 27
2 2 2
2 2 2
2 2 2
27 27 27
27 27 27
28 28 28
28 28 28
2 2 2
2 2 2
2 2 2
29 29 29
30 30 30
30 30 30
3 3 3
3 3 3
3 3 3
3 3 3
31 31 31
31 31 31
31 31 31
3 3 3
3 3 3
3 3 3
31 31 31
31 31 31
31 31 31
31 31 31
3 3 3
3 3 3
3 3 3
30 30 30
29 29 29
29 29 29
2 2 2
2 2 2
2 2 2
2 2 2
28 28 28
28 28 28
28 28 28
2 2 2
2 2 2
2 2 2
27 27 27
27 27 27
27 27 27
27 27 27
2 2 2
2 2 2
2 2 2
27 27 27
27 27 27
27 27 27
2 2 2
2 2 2
2 2 2
2 2 2
27 27 27
27 27 27
27 27 27
2 2 2
2 2 2
2 2 2
26 26 26
26 26 26
26 26 26
26 26 26
2 2 2
52 52 52
52 52 52
53 53 53
29 29 29
29 29 29
53 53 53
53 53 53
29 29 29
29 29 29
53 53 53
53 53 53
53 53 53
29 29 29
29 29 29
53 53 53
53 53 53
29 29 29
29 29 29
29 29 29
54 54 54
54 54 54
29 29 29
29 29 29
54 54 54
54 54 54
30 30 30
30 30 30
30 30 30
55 55 55
55 55 55
30 30 30
30 30 30
56 56 56
56 56 56
31 31 31
31 31 31
31 31 31
57 57 57
58 58 58
33 33 33
33 33 33
61 61 61
62 62 62
34 34 34
35 35 35
35 35 35
65 65 65
65 65 65
36 36 36
36 36 36
65 65 65
65 65 65
64 64 64
35 35 35
34 34 34
62 62 62
62 62 62
33 33 33
33 33 33
60 60 60
59 59 59
59 59 59
32 32 32
32 32 32
58 58 58
57 57 57
31 31 31
31 31 31
56 56 56
56 56 56
56 56 56
30 30 30
30 30 30
55 55 55
55 55 55
30 30 30
30 30 30
55 55 55
55 55 55
54 54 54
30 30 30
30 30 30
54 54 54
54 54 54
29 29 29
29 29 29
29 29 29
54 54 54
54 54 54
29 29 29
29 29 29
53 53 53
53 53 53
29 29 29
29 29 29
29 29 29
29 29 29
53 53 53
53 53 53
29 29 29
29 29 29
53 53 53
29 29 29
29 29 29
53 53 53
53 53 53
29 29 29
29 29 29
53 53 53
29 29 29
29 29 29
53 53 53
53 53 53
29 29 29
54 54 54
54 54 54
29 29 29
29 29 29
54 54 54
54 54 54
30 30 30
54 54 54
55 55 55
30 30 30
30 30 30
55 55 55
55 55 55
30 30 30
56 56 56
56 56 56
31 31 31
31 31 31
57 57 57
58 58 58
32 32 32
58 58 58
59 59 59
34 34 34
35 35 35
64 64 64
65 65 65
36 36 36
67 67 67
67 67 67
37 37 37
37 37 37
68 68 68
37 37 37
36 36 36
65 65 65
64 64 64
35 35 35
34 34 34
62 62 62
33 33 33
33 33 33
60 60 60
59 59 59
32 32 32
32 32 32
58 58 58
31 31 31
31 31 31
57 57 57
57 57 57
31 31 31
31 31 31
56 56 56
30 30 30
30 30 30
55 55 55
55 55 55
30 30 30
30 30 30
55 55 55
30 30 30
30 30 30
54 54 54
54 54 54
30 30 30
54 54 54
54 54 54
29 29 29
29 29 29
54 54 54
54 54 54
29 29 29
53 53 53
53 53 53
29 29 29
29 29 29
53 53 53
29 29 29
53 53 53
29 29 29
29 29 29
53 53 53
29 29 29
29 29 29
53 53 53
29 29 29
29 29 29
53 53 53
29 29 29
53 53 53
53 53 53
29 29 29
53 53 53
54 54 54
29 29 29
54 54 54
54 54 54
29 29 29
54 54 54
30 30 30
30 30 30
54 54 54
30 30 30
30 30 30
55 55 55
30 30 30
30 30 30
56 56 56
30 30 30
56 56 56
56 56 56
31 31 31
57 57 57
58 58 58
32 32 32
58 58 58
32 32 32
33 33 33
60 60 60
35 35 35
36 36 36
67 67 67
37 37 37
38 38 38
70 70 70
39 39 39
71 71 71
70 70 70
38 38 38
69 69 69
67 67 67
36 36 36
65 65 65
64 64 64
34 34 34
62 62 62
33 33 33
33 33 33
60 60 60
32 32 32
32 32 32
58 58 58
32 32 32
58 58 58
57 57 57
31 31 31
57 57 57
56 56 56
31 31 31
56 56 56
56 56 56
30 30 30
55 55 55
30 30 30
30 30 30
55 55 55
30 30 30
30 30 30
54 54 54
30 30 30
30 30 30
54 54 54
29 29 29
54 54 54
54 54 54
29 29 29
54 54 54
54 54 54
29 29 29
53 53 53
53 53 53
29 29 29
53 53 53
29 29 29
53 53 53
29 29 29
53 53 53
29 29 29
29 29 29
53 53 53
29 29 29
53 53 53
29 29 29
53 53 53
53 53 53
29 29 29
53 53 53
29 29 29
54 54 54
29 29 29
29 29 29
54 54 54
29 29 29
54 54 54
30 30 30
30 30 30
54 54 54
30 30 30
55 55 55
30 30 30
55 55 55
55 55 55
30 30 30
56 56 56
31 31 31
56 56 56
31 31 31
31 31 31
57 57 57
32 32 32
58 58 58
32 32 32
33 33 33
60 60 60
33 33 33
62 62 62
37 37 37
69 69 69
71 71 71
40 40 40
74 74 74
41 41 41
75 75 75
41 41 41
40 40 40
71 71 71
38 38 38
68 68 68
36 36 36
65 65 65
64 64 64
34 34 34
62 62 62
33 33 33
60 60 60
60 60 60
32 32 32
59 59 59
32 32 32
58 58 58
31 31 31
31 31 31
57 57 57
31 31 31
56 56 56
31 31 31
56 56 56
56 56 56
30 30 30
55 55 55
30 30 30
55 55 55
55 55 55
30 30 30
55 55 55
30 30 30
54 54 54
30 30 30
30 30 30
54 54 54
29 29 29
54 54 54
29 29 29
54 54 54
54 54 54
29 29 29
53 53 53
29 29 29
53 53 53
53 53 53
29 29 29
53 53 53
29 29 29
53 53 53
53 53 53
29 29 29
53 53 53
29 29 29
53 53 53
29 29 29
53 53 53
29 29 29
53 53 53
29 29 29
54 54 54
29 29 29
54 54 54
29 29 29
54 54 54
30 30 30
54 54 54
54 54 54
30 30 30
55 55 55
30 30 30
55 55 55
30 30 30
55 55 55
30 30 30
56 56 56
31 31 31
57 57 57
31 31 31
57 57 57
32 32 32
58 58 58
32 32 32
59 59 59
60 60 60
33 33 33
62 62 62
35 35 35
65 65 65
36 36 36
74 74 74
42 42 42
79 79 79
44 44 44
81 81 81
44 44 44
78 78 78
41 41 41
72 72 72
38 38 38
68 68 68
36 36 36
36 36 36
64 64 64
34 34 34
62 62 62
33 33 33
60 60 60
33 33 33
59 59 59
32 32 32
58 58 58
32 32 32
57 57 57
31 31 31
57 57 57
31 31 31
56 56 56
31 31 31
30 30 30
56 56 56
30 30 30
55 55 55
30 30 30
55 55 55
30 30 30
55 55 55
30 30 30
54 54 54
30 30 30
54 54 54
30 30 30
54 54 54
29 29 29
54 54 54
29 29 29
29 29 29
54 54 54
29 29 29
53 53 53
29 29 29
2 2 2
26 26 26
2 2 2
26 26 26
2 2 2
26 26 26
2 2 2
26 26 26
2 2 2
26 26 26
2 2 2
26 26 26
2 2 2
26 26 26
2 2 2
27 27 27
2 2 2
27 27 27
2 2 2
2 2 2
27 27 27
2 2 2
27 27 27
2 2 2
27 27 27
2 2 2
27 27 27
2 2 2
28 28 28
2 2 2
28 28 28
2 2 2
28 28 28
2 2 2
29 29 29
2 2 2
29 29 29
2 2 2
3 3 3
30 30 30
3 3 3
31 31 31
3 3 3
33 33 33
3 3 3
35 35 35
4 4 4
43 43 43
4 4 4
45 45 45
4 4 4
42 42 42
3 3 3
38 38 38
3 3 3
35 35 35
3 3 3
33 33 33
32 32 32
3 3 3
31 31 31
3 3 3
30 30 30
3 3 3
29 29 29
2 2 2
29 29 29
2 2 2
29 29 29
2 2 2
28 28 28
2 2 2
28 28 28
2 2 2
28 28 28
2 2 2
28 28 28
27 27 27
2 2 2
27 27 27
2 2 2
27 27 27
2 2 2
27 27 27
2 2 2
27 27 27
2 2 2
27 27 27
2 2 2
27 27 27
2 2 2
27 27 27
2 2 2
27 27 27
2 2 2
26 26 26
29 29 29
29 29 29
53 53 53
29 29 29
53 53 53
29 29 29
53 53 53
53 53 53
29 29 29
53 53 53
29 29 29
53 53 53
29 29 29
29 29 29
54 54 54
29 29 29
54 54 54
29 29 29
54 54 54
30 30 30
30 30 30
54 54 54
30 30 30
55 55 55
30 30 30
55 55 55
55 55 55
30 30 30
56 56 56
31 31 31
56 56 56
31 31 31
31 31 31
57 57 57
32 32 32
58 58 58
32 32 32
59 59 59
33 33 33
33 33 33
62 62 62
35 35 35
65 65 65
37 37 37
70 70 70
73 73 73
42 42 42
96 96 96
57 57 57
105 105 105
54 54 54
50 50 50
84 84 84
43 43 43
75 75 75
39 39 39
69 69 69
67 67 67
36 36 36
64 64 64
34 34 34
62 62 62
33 33 33
60 60 60
60 60 60
32 32 32
59 59 59
32 32 32
58 58 58
31 31 31
31 31 31
57 57 57
31 31 31
56 56 56
31 31 31
56 56 56
56 56 56
30 30 30
55 55 55
30 30 30
55 55 55
30 30 30
55 55 55
55 55 55
30 30 30
54 54 54
30 30 30
54 54 54
30 30 30
29 29 29
54 54 54
29 29 29
54 54 54
29 29 29
54 54 54
54 54 54
2 2 2
26 26 26
2 2 2
26 26 26
26 26 26
2 2 2
26 26 26
2 2 2
2 2 2
26 26 26
2 2 2
26 26 26
27 27 27
2 2 2
27 27 27
27 27 27
2 2 2
27 27 27
2 2 2
2 2 2
27 27 27
2 2 2
27 27 27
27 27 27
2 2 2
27 27 27
2 2 2
2 2 2
28 28 28
2 2 2
28 28 28
28 28 28
2 2 2
29 29 29
2 2 2
2 2 2
29 29 29
3 3 3
3 3 3
31 31 31
3 3 3
32 32 32
33 33 33
3 3 3
35 35 35
3 3 3
4 4 4
25 25 25
6 6 6
67 67 67
57 57 57
5 5 5
45 45 45
4 4 4
3 3 3
36 36 36
3 3 3
34 34 34
33 33 33
3 3 3
31 31 31
31 31 31
3 3 3
30 30 30
3 3 3
2 2 2
29 29 29
2 2 2
29 29 29
29 29 29
2 2 2
28 28 28
2 2 2
2 2 2
28 28 28
2 2 2
28 28 28
28 28 28
2 2 2
27 27 27
2 2 2
2 2 2
27 27 27
2 2 2
2 2 2
27 27 27
2 2 2
27 27 27
27 27 27
2 2 2
27 27 27
2 2 2
2 2 2
27 27 27
2 2 2
27 27 27
53 53 53
29 29 29
29 29 29
53 53 53
29 29 29
29 29 29
53 53 53
29 29 29
29 29 29
53 53 53
53 53 53
29 29 29
54 54 54
54 54 54
29 29 29
54 54 54
54 54 54
30 30 30
54 54 54
54 54 54
30 30 30
55 55 55
55 55 55
30 30 30
30 30 30
55 55 55
30 30 30
30 30 30
56 56 56
31 31 31
31 31 31
57 57 57
31 31 31
31 31 31
58 58 58
59 59 59
32 32 32
60 60 60
61 61 61
34 34 34
63 63 63
65 65 65
36 36 36
69 69 69
72 72 72
42 42 42
84 84 84
95 95 95
155 155 155
89 89 89
131 131 131
59 59 59
51 51 51
84 84 84
43 43 43
40 40 40
71 71 71
37 37 37
36 36 36
65 65 65
35 35 35
34 34 34
62 62 62
61 61 61
33 33 33
60 60 60
59 59 59
32 32 32
58 58 58
58 58 58
31 31 31
57 57 57
57 57 57
31 31 31
31 31 31
56 56 56
31 31 31
30 30 30
56 56 56
30 30 30
30 30 30
55 55 55
30 30 30
30 30 30
55 55 55
30 30 30
30 30 30
54 54 54
54 54 54
30 30 30
54 54 54
54 54 54
29 29 29
54 54 54
54 54 54
29 29 29
53 53 53
29 29 29
53 53 53
53 53 53
29 29 29
29 29 29
53 53 53
53 53 53
29 29 29
29 29 29
54 54 54
29 29 29
29 29 29
54 54 54
54 54 54
29 29 29
30 30 30
54 54 54
54 54 54
30 30 30
30 30 30
55 55 55
30 30 30
30 30 30
55 55 55
55 55 55
30 30 30
30 30 30
56 56 56
56 56 56
31 31 31
31 31 31
57 57 57
32 32 32
32 32 32
59 59 59
59 59 59
33 33 33
33 33 33
62 62 62
63 63 63
35 35 35
37 37 37
75 75 75
44 44 44
48 48 48
97 97 97
113 113 113
75 75 75
81 81 81
130 130 130
109 109 109
52 52 52
85 85 85
79 79 79
41 41 41
39 39 39
69 69 69
67 67 67
36 36 36
35 35 35
63 63 63
62 62 62
33 33 33
60 60 60
60 60 60
32 32 32
32 32 32
58 58 58
58 58 58
31 31 31
31 31 31
57 57 57
57 57 57
31 31 31
56 56 56
56 56 56
31 31 31
30 30 30
56 56 56
55 55 55
30 30 30
30 30 30
55 55 55
55 55 55
30 30 30
55 55 55
54 54 54
30 30 30
30 30 30
54 54 54
54 54 54
29 29 29
29 29 29
54 54 54
29 29 29
2 2 2
2 2 2
26 26 26
26 26 26
2 2 2
2 2 2
26 26 26
26 26 26
26 26 26
2 2 2
2 2 2
27 27 27
27 27 27
2 2 2
2 2 2
27 27 27
27 27 27
2 2 2
2 2 2
2 2 2
27 27 27
27 27 27
2 2 2
2 2 2
27 27 27
27 27 27
2 2 2
2 2 2
28 28 28
28 28 28
28 28 28
2 2 2
2 2 2
29 29 29
29 29 29
2 2 2
3 3 3
30 30 30
32 32 32
3 3 3
3 3 3
34 34 34
36 36 36
37 37 37
3 3 3
4 4 4
46 46 46
52 52 52
5 5 5
6 6 6
57 57 57
51 51 51
4 4 4
4 4 4
3 3 3
37 37 37
35 35 35
3 3 3
3 3 3
32 32 32
32 32 32
3 3 3
3 3 3
30 30 30
30 30 30
3 3 3
2 2 2
2 2 2
29 29 29
29 29 29
2 2 2
2 2 2
28 28 28
28 28 28
2 2 2
2 2 2
28 28 28
28 28 28
28 28 28
2 2 2
2 2 2
27 27 27
27 27 27
2 2 2
2 2 2
27 27 27
27 27 27
2 2 2
2 2 2
2 2 2
27 27 27
27 27 27
2 2 2
2 2 2
27 27 27
27 27 27
2 2 2
2 2 2
26 26 26
26 26 26
26 26 26
2 2 2
2 2 2
2 2 2
26 26 26
27 27 27
2 2 2
2 2 2
2 2 2
27 27 27
27 27 27
27 27 27
2 2 2
2 2 2
27 27 27
27 27 27
27 27 27
2 2 2
2 2 2
2 2 2
27 27 27
28 28 28
2 2 2
2 2 2
2 2 2
28 28 28
28 28 28
28 28 28
2 2 2
3 3 3
3 3 3
31 31 31
31 31 31
3 3 3
3 3 3
3 3 3
33 33 33
34 34 34
35 35 35
3 3 3
3 3 3
41 41 41
44 44 44
47 47 47
5 5 5
5 5 5
5 5 5
47 47 47
44 44 44
4 4 4
3 3 3
3 3 3
35 35 35
34 34 34
33 33 33
3 3 3
3 3 3
31 31 31
31 31 31
30 30 30
3 3 3
3 3 3
3 3 3
29 29 29
29 29 29
29 29 29
2 2 2
2 2 2
28 28 28
28 28 28
28 28 28
2 2 2
2 2 2
2 2 2
28 28 28
28 28 28
2 2 2
2 2 2
2 2 2
27 27 27
27 27 27
27 27 27
2 2 2
2 2 2
27 27 27
27 27 27
27 27 27
2 2 2
2 2 2
2 2 2
27 27 27
27 27 27
2 2 2
2 2 2
2 2 2
26 26 26
26 26 26
26 26 26
2 2 2
2 2 2
2 2 2
2 2 2
27 27 27
27 27 27
27 27 27
2 2 2
2 2 2
2 2 2
2 2 2
27 27 27
27 27 27
27 27 27
2 2 2
2 2 2
2 2 2
2 2 2
27 27 27
28 28 28
28 28 28
2 2 2
2 2 2
2 2 2
2 2 2
29 29 29
30 30 30
30 30 30
3 3 3
3 3 3
3 3 3
3 3 3
32 32 32
33 33 33
33 33 33
3 3 3
3 3 3
3 3 3
3 3 3
39 39 39
41 41 41
44 44 44
4 4 4
4 4 4
4 4 4
44 44 44
42 42 42
39 39 39
38 38 38
3 3 3
3 3 3
3 3 3
33 33 33
32 32 32
32 32 32
31 31 31
3 3 3
3 3 3
3 3 3
30 30 30
30 30 30
29 29 29
29 29 29
2 2 2
2 2 2
2 2 2
28 28 28
28 28 28
28 28 28
28 28 28
2 2 2
2 2 2
2 2 2
28 28 28
28 28 28
27 27 27
27 27 27
2 2 2
2 2 2
2 2 2
27 27 27
27 27 27
27 27 27
27 27 27
2 2 2
2 2 2
2 2 2
27 27 27
27 27 27
27 27 27
2 2 2
2 2 2
2 2 2
2 2 2
2 2 2
26 26 26
26 26 26
26 26 26
27 27 27
2 2 2
2 2 2
2 2 2
2 2 2
2 2 2
27 27 27
27 27 27
27 27 27
27 27 27
27 27 27
2 2 2
2 2 2
2 2 2
2 2 2
2 2 2
28 28 28
28 28 28
28 28 28
29 29 29
29 29 29
2 2 2
2 2 2
2 2 2
3 3 3
3 3 3
30 30 30
31 31 31
31 31 31
31 31 31
3 3 3
3 3 3
3 3 3
3 3 3
3 3 3
36 36 36
37 37 37
38 38 38
39 39 39
41 41 41
4 4 4
4 4 4
4 4 4
4 4 4
4 4 4
38 38 38
37 37 37
36 36 36
35 35 35
34 34 34
3 3 3
3 3 3
3 3 3
3 3 3
31 31 31
31 31 31
30 30 30
30 30 30
30 30 30
2 2 2
2 2 2
2 2 2
2 2 2
2 2 2
28 28 28
28 28 28
28 28 28
28 28 28
28 28 28
2 2 2
2 2 2
2 2 2
2 2 2
2 2 2
27 27 27
27 27 27
27 27 27
27 27 27
27 27 27
2 2 2
2 2 2
2 2 2
2 2 2
27 27 27
27 27 27
27 27 27
27 27 27
27 27 27
53 53 53
53 53 53
29 29 29
29 29 29
29 29 29
29 29 29
29 29 29
29 29 29
29 29 29
29 29 29
54 54 54
54 54 54
54 54 54
54 54 54
54 54 54
54 54 54
54 54 54
30 30 30
30 30 30
31 31 31
31 31 31
31 31 31
31 31 31
31 31 31
31 31 31
57 57 57
58 58 58
58 58 58
58 58 58
58 58 58
59 59 59
59 59 59
60 60 60
33 33 33
33 33 33
34 34 34
34 34 34
34 34 34
35 35 35
35 35 35
66 66 66
67 67 67
69 69 69
71 71 71
72 72 72
74 74 74
76 76 76
78 78 78
43 43 43
44 44 44
43 43 43
43 43 43
42 42 42
41 41 41
40 40 40
39 39 39
69 69 69
68 68 68
66 66 66
65 65 65
64 64 64
63 63 63
62 62 62
34 34 34
33 33 33
33 33 33
33 33 33
32 32 32
32 32 32
32 32 32
32 32 32
58 58 58
58 58 58
57 57 57
57 57 57
57 57 57
57 57 57
56 56 56
56 56 56
31 31 31
30 30 30
30 30 30
30 30 30
30 30 30
30 30 30
30 30 30
55 55 55
55 55 55
55 55 55
55 55 55
55 55 55
54 54 54
54 54 54
54 54 54
30 30 30
30 30 30
53 53 53
53 53 53
53 53 53
53 53 53
53 53 53
53 53 53
54 54 54
54 54 54
54 54 54
54 54 54
54 54 54
54 54 54
30 30 30
30 30 30
30 30 30
30 30 30
30 30 30
30 30 30
30 30 30
31 31 31
31 31 31
31 31 31
31 31 31
31 31 31
31 31 31
31 31 31
31 31 31
32 32 32
32 32 32
32 32 32
59 59 59
59 59 59
60 60 60
60 60 60
61 61 61
61 61 61
62 62 62
63 63 63
64 64 64
65 65 65
66 66 66
67 67 67
68 68 68
69 69 69
71 71 71
72 72 72
74 74 74
75 75 75
41 41 41
42 42 42
41 41 41
41 41 41
40 40 40
40 40 40
39 39 39
38 38 38
37 37 37
37 37 37
36 36 36
35 35 35
35 35 35
34 34 34
34 34 34
34 34 34
33 33 33
33 33 33
60 60 60
59 59 59
59 59 59
59 59 59
58 58 58
58 58 58
58 58 58
57 57 57
57 57 57
57 57 57
57 57 57
56 56 56
56 56 56
56 56 56
56 56 56
56 56 56
56 56 56
55 55 55
30 30 30
30 30 30
30 30 30
30 30 30
30 30 30
30 30 30
30 30 30
30 30 30
30 30 30
30 30 30
30 30 30
30 30 30
2 2 2
2 2 2
2 2 2
2 2 2
2 2 2
2 2 2
2 2 2
2 2 2
2 2 2
2 2 2
2 2 2
2 2 2
2 2 2
2 2 2
2 2 2
2 2 2
2 2 2
2 2 2
2 2 2
2 2 2
2 2 2
2 2 2
2 2 2
2 2 2
2 2 2
2 2 2
2 2 2
2 2 2
2 2 2
2 2 2
2 2 2
2 2 2
3 3 3
3 3 3
3 3 3
3 3 3
3 3 3
3 3 3
3 3 3
3 3 3
3 3 3
3 3 3
3 3 3
3 3 3
3 3 3
3 3 3
3 3 3
3 3 3
36 36 36
36 36 36
36 36 36
36 36 36
36 36 36
35 35 35
35 35 35
34 34 34
33 33 33
33 33 33
32 32 32
32 32 32
31 31 31
31 31 31
31 31 31
30 30 30
30 30 30
30 30 30
30 30 30
29 29 29
29 29 29
29 29 29
29 29 29
29 29 29
29 29 29
28 28 28
28 28 28
28 28 28
28 28 28
28 28 28
28 28 28
28 28 28
28 28 28
28 28 28
28 28 28
27 27 27
27 27 27
27 27 27
27 27 27
27 27 27
27 27 27
27 27 27
27 27 27
27 27 27
27 27 27
27 27 27
27 27 27
27 27 27
2 2 2
26 26 26
27 27 27
27 27 27
27 27 27
27 27 27
27 27 27
27 27 27
27 27 27
27 27 27
27 27 27
27 27 27
27 27 27
2 2 2
2 2 2
2 2 2
2 2 2
2 2 2
2 2 2
2 2 2
2 2 2
2 2 2
2 2 2
2 2 2
2 2 2
28 28 28
29 29 29
29 29 29
29 29 29
29 29 29
29 29 29
29 29 29
30 30 30
30 30 30
30 30 30
30 30 30
3 3 3
3 3 3
3 3 3
3 3 3
3 3 3
3 3 3
3 3 3
3 3 3
3 3 3
3 3 3
3 3 3
3 3 3
35 35 35
35 35 35
35 35 35
35 35 35
35 35 35
34 34 34
34 34 34
33 33 33
33 33 33
33 33 33
32 32 32
32 32 32
3 3 3
3 3 3
3 3 3
3 3 3
3 3 3
3 3 3
3 3 3
2 2 2
2 2 2
2 2 2
2 2 2
29 29 29
29 29 29
28 28 28
28 28 28
28 28 28
28 28 28
28 28 28
28 28 28
28 28 28
28 28 28
28 28 28
28 28 28
2 2 2
2 2 2
2 2 2
2 2 2
2 2 2
2 2 2
2 2 2
2 2 2
2 2 2
2 2 2
2 2 2
2 2 2
27 27 27
54 54 54
54 54 54
30 30 30
30 30 30
30 30 30
30 30 30
30 30 30
30 30 30
30 30 30
55 55 55
55 55 55
55 55 55
55 55 55
55 55 55
55 55 55
30 30 30
30 30 30
30 30 30
31 31 31
31 31 31
31 31 31
31 31 31
57 57 57
57 57 57
57 57 57
57 57 57
58 58 58
58 58 58
32 32 32
32 32 32
32 32 32
32 32 32
33 33 33
33 33 33
33 33 33
61 61 61
61 61 61
62 62 62
63 63 63
63 63 63
64 64 64
35 35 35
36 36 36
36 36 36
37 37 37
37 37 37
37 37 37
38 38 38
69 69 69
69 69 69
69 69 69
69 69 69
68 68 68
68 68 68
67 67 67
36 36 36
36 36 36
36 36 36
35 35 35
35 35 35
34 34 34
62 62 62
62 62 62
61 61 61
61 61 61
60 60 60
60 60 60
59 59 59
32 32 32
32 32 32
32 32 32
32 32 32
32 32 32
31 31 31
57 57 57
57 57 57
57 57 57
57 57 57
56 56 56
56 56 56
56 56 56
31 31 31
30 30 30
30 30 30
30 30 30
30 30 30
30 30 30
55 55 55
55 55 55
55 55 55
55 55 55
55 55 55
55 55 55
54 54 54
30 30 30
30 30 30
2 2 2
2 2 2
27 27 27
27 27 27
27 27 27
27 27 27
2 2 2
2 2 2
2 2 2
2 2 2
2 2 2
27 27 27
27 27 27
27 27 27
27 27 27
28 28 28
2 2 2
2 2 2
2 2 2
2 2 2
28 28 28
28 28 28
28 28 28
28 28 28
28 28 28
2 2 2
2 2 2
2 2 2
2 2 2
2 2 2
29 29 29
29 29 29
30 30 30
30 30 30
3 3 3
3 3 3
3 3 3
3 3 3
3 3 3
31 31 31
32 32 32
32 32 32
32 32 32
3 3 3
3 3 3
3 3 3
3 3 3
3 3 3
34 34 34
34 34 34
34 34 34
34 34 34
33 33 33
3 3 3
3 3 3
3 3 3
3 3 3
32 32 32
32 32 32
31 31 31
31 31 31
31 31 31
3 3 3
3 3 3
3 3 3
3 3 3
30 30 30
29 29 29
29 29 29
29 29 29
29 29 29
2 2 2
2 2 2
2 2 2
2 2 2
2 2 2
28 28 28
28 28 28
28 28 28
28 28 28
2 2 2
2 2 2
2 2 2
2 2 2
2 2 2
27 27 27
27 27 27
27 27 27
27 27 27
27 27 27
2 2 2
2 2 2
2 2 2
2 2 2
27 27 27
27 27 27
54 54 54
30 30 30
30 30 30
30 30 30
30 30 30
55 55 55
55 55 55
55 55 55
55 55 55
30 30 30
30 30 30
30 30 30
55 55 55
55 55 55
55 55 55
56 56 56
30 30 30
31 31 31
31 31 31
56 56 56
56 56 56
57 57 57
57 57 57
31 31 31
31 31 31
31 31 31
31 31 31
58 58 58
58 58 58
58 58 58
32 32 32
32 32 32
32 32 32
33 33 33
60 60 60
61 61 61
61 61 61
34 34 34
34 34 34
34 34 34
34 34 34
64 64 64
64 64 64
65 65 65
36 36 36
36 36 36
36 36 36
36 36 36
66 66 66
67 67 67
67 67 67
66 66 66
36 36 36
36 36 36
36 36 36
65 65 65
64 64 64
64 64 64
63 63 63
34 34 34
34 34 34
34 34 34
61 61 61
61 61 61
60 60 60
60 60 60
33 33 33
32 32 32
32 32 32
59 59 59
58 58 58
58 58 58
58 58 58
31 31 31
31 31 31
31 31 31
31 31 31
57 57 57
56 56 56
56 56 56
31 31 31
31 31 31
30 30 30
30 30 30
56 56 56
55 55 55
55 55 55
30 30 30
30 30 30
30 30 30
30 30 30
55 55 55
55 55 55
55 55 55
54 54 54
30 30 30
2 2 2
27 27 27
27 27 27
27 27 27
2 2 2
2 2 2
2 2 2
27 27 27
27 27 27
27 27 27
2 2 2
2 2 2
2 2 2
27 27 27
28 28 28
28 28 28
2 2 2
2 2 2
2 2 2
28 28 28
28 28 28
28 28 28
2 2 2
2 2 2
28 28 28
28 28 28
29 29 29
2 2 2
2 2 2
2 2 2
29 29 29
29 29 29
29 29 29
3 3 3
3 3 3
3 3 3
30 30 30
30 30 30
31 31 31
3 3 3
3 3 3
3 3 3
32 32 32
32 32 32
32 32 32
3 3 3
3 3 3
3 3 3
32 32 32
33 33 33
33 33 33
3 3 3
3 3 3
3 3 3
32 32 32
32 32 32
32 32 32
3 3 3
3 3 3
3 3 3
31 31 31
30 30 30
30 30 30
3 3 3
3 3 3
3 3 3
29 29 29
29 29 29
29 29 29
2 2 2
2 2 2
2 2 2
29 29 29
29 29 29
2 2 2
2 2 2
2 2 2
28 28 28
28 28 28
28 28 28
2 2 2
2 2 2
2 2 2
28 28 28
28 28 28
27 27 27
2 2 2
2 2 2
2 2 2
27 27 27
27 27 27
27 27 27
2 2 2
2 2 2
2 2 2
27 27 27
30 30 30
30 30 30
30 30 30
54 54 54
55 55 55
30 30 30
30 30 30
30 30 30
55 55 55
55 55 55
30 30 30
30 30 30
30 30 30
55 55 55
56 56 56
30 30 30
30 30 30
31 31 31
56 56 56
56 56 56
31 31 31
31 31 31
31 31 31
57 57 57
57 57 57
31 31 31
31 31 31
32 32 32
58 58 58
58 58 58
32 32 32
32 32 32
32 32 32
60 60 60
60 60 60
33 33 33
33 33 33
33 33 33
61 61 61
62 62 62
34 34 34
34 34 34
34 34 34
63 63 63
64 64 64
35 35 35
35 35 35
35 35 35
65 65 65
65 65 65
65 65 65
35 35 35
35 35 35
64 64 64
64 64 64
64 64 64
35 35 35
34 34 34
62 62 62
62 62 62
62 62 62
33 33 33
33 33 33
60 60 60
60 60 60
60 60 60
32 32 32
32 32 32
59 59 59
58 58 58
58 58 58
32 32 32
32 32 32
58 58 58
57 57 57
57 57 57
31 31 31
31 31 31
57 57 57
56 56 56
56 56 56
31 31 31
31 31 31
56 56 56
56 56 56
56 56 56
30 30 30
30 30 30
55 55 55
55 55 55
55 55 55
30 30 30
30 30 30
55 55 55
55 55 55
55 55 55
54 54 54
54 54 54
30 30 30
30 30 30
55 55 55
55 55 55
30 30 30
30 30 30
55 55 55
55 55 55
55 55 55
30 30 30
30 30 30
55 55 55
56 56 56
30 30 30
30 30 30
56 56 56
56 56 56
31 31 31
31 31 31
31 31 31
57 57 57
57 57 57
31 31 31
31 31 31
58 58 58
58 58 58
32 32 32
32 32 32
59 59 59
59 59 59
59 59 59
32 32 32
33 33 33
60 60 60
60 60 60
33 33 33
33 33 33
61 61 61
62 62 62
34 34 34
34 34 34
34 34 34
63 63 63
63 63 63
35 35 35
35 35 35
64 64 64
64 64 64
35 35 35
35 35 35
64 64 64
64 64 64
63 63 63
34 34 34
34 34 34
62 62 62
62 62 62
34 34 34
33 33 33
61 61 61
61 61 61
33 33 33
33 33 33
33 33 33
59 59 59
59 59 59
32 32 32
32 32 32
58 58 58
58 58 58
32 32 32
31 31 31
57 57 57
57 57 57
57 57 57
31 31 31
31 31 31
56 56 56
56 56 56
31 31 31
31 31 31
56 56 56
56 56 56
30 30 30
30 30 30
30 30 30
55 55 55
55 55 55
30 30 30
30 30 30
55 55 55
55 55 55
30 30 30
30 30 30
2 2 2
27 27 27
27 27 27
2 2 2
2 2 2
27 27 27
27 27 27
2 2 2
2 2 2
27 27 27
27 27 27
2 2 2
2 2 2
27 27 27
28 28 28
2 2 2
2 2 2
28 28 28
28 28 28
2 2 2
2 2 2
28 28 28
28 28 28
2 2 2
28 28 28
28 28 28
2 2 2
2 2 2
29 29 29
29 29 29
2 2 2
2 2 2
29 29 29
29 29 29
3 3 3
3 3 3
30 30 30
30 30 30
3 3 3
3 3 3
30 30 30
31 31 31
3 3 3
3 3 3
31 31 31
31 31 31
3 3 3
3 3 3
31 31 31
31 31 31
3 3 3
3 3 3
31 31 31
31 31 31
3 3 3
3 3 3
31 31 31
31 31 31
3 3 3
3 3 3
30 30 30
30 30 30
3 3 3
3 3 3
30 30 30
29 29 29
2 2 2
2 2 2
29 29 29
29 29 29
2 2 2
2 2 2
29 29 29
2 2 2
2 2 2
28 28 28
28 28 28
2 2 2
2 2 2
28 28 28
28 28 28
2 2 2
2 2 2
28 28 28
28 28 28
2 2 2
2 2 2
27 27 27
27 27 27
2 2 2
2 2 2
27 27 27
27 27 27
2 2 2
2 2 2
27 27 27
30 30 30
30 30 30
54 54 54
55 55 55
30 30 30
55 55 55
55 55 55
30 30 30
30 30 30
55 55 55
55 55 55
30 30 30
30 30 30
56 56 56
30 30 30
30 30 30
56 56 56
56 56 56
31 31 31
31 31 31
56 56 56
31 31 31
31 31 31
57 57 57
57 57 57
31 31 31
31 31 31
58 58 58
32 32 32
32 32 32
58 58 58
59 59 59
32 32 32
32 32 32
59 59 59
60 60 60
33 33 33
60 60 60
61 61 61
33 33 33
33 33 33
61 61 61
62 62 62
34 34 34
62 62 62
62 62 62
34 34 34
34 34 34
63 63 63
63 63 63
34 34 34
34 34 34
63 63 63
34 34 34
34 34 34
62 62 62
62 62 62
34 34 34
33 33 33
61 61 61
33 33 33
33 33 33
60 60 60
60 60 60
33 33 33
32 32 32
59 59 59
59 59 59
32 32 32
58 58 58
58 58 58
32 32 32
31 31 31
57 57 57
57 57 57
31 31 31
57 57 57
57 57 57
31 31 31
31 31 31
56 56 56
56 56 56
31 31 31
56 56 56
56 56 56
30 30 30
30 30 30
55 55 55
55 55 55
30 30 30
30 30 30
55 55 55
30 30 30
30 30 30
55 55 55
55 55 55
54 54 54
30 30 30
55 55 55
55 55 55
30 30 30
30 30 30
55 55 55
30 30 30
30 30 30
55 55 55
55 55 55
30 30 30
55 55 55
56 56 56
30 30 30
56 56 56
56 56 56
31 31 31
31 31 31
56 56 56
31 31 31
31 31 31
57 57 57
57 57 57
31 31 31
57 57 57
57 57 57
31 31 31
58 58 58
58 58 58
32 32 32
32 32 32
59 59 59
32 32 32
32 32 32
60 60 60
60 60 60
33 33 33
60 60 60
61 61 61
33 33 33
61 61 61
61 61 61
34 34 34
34 34 34
62 62 62
34 34 34
34 34 34
62 62 62
62 62 62
34 34 34
62 62 62
62 62 62
34 34 34
34 34 34
62 62 62
34 34 34
33 33 33
61 61 61
33 33 33
33 33 33
60 60 60
60 60 60
33 33 33
59 59 59
59 59 59
32 32 32
32 32 32
58 58 58
32 32 32
32 32 32
58 58 58
31 31 31
31 31 31
57 57 57
57 57 57
31 31 31
57 57 57
57 57 57
31 31 31
31 31 31
56 56 56
31 31 31
31 31 31
56 56 56
30 30 30
30 30 30
55 55 55
55 55 55
30 30 30
55 55 55
55 55 55
30 30 30
30 30 30
55 55 55
30 30 30
27 27 27
2 2 2
2 2 2
27 27 27
2 2 2
2 2 2
27 27 27
2 2 2
2 2 2
27 27 27
2 2 2
2 2 2
27 27 27
2 2 2
2 2 2
28 28 28
2 2 2
2 2 2
28 28 28
2 2 2
2 2 2
28 28 28
2 2 2
2 2 2
28 28 28
2 2 2
2 2 2
29 29 29
2 2 2
2 2 2
29 29 29
2 2 2
2 2 2
29 29 29
2 2 2
2 2 2
30 30 30
3 3 3
3 3 3
30 30 30
3 3 3
3 3 3
30 30 30
3 3 3
3 3 3
30 30 30
3 3 3
3 3 3
31 31 31
31 31 31
3 3 3
31 31 31
31 31 31
3 3 3
30 30 30
30 30 30
3 3 3
30 30 30
30 30 30
3 3 3
30 30 30
30 30 30
3 3 3
30 30 30
29 29 29
2 2 2
29 29 29
29 29 29
2 2 2
29 29 29
29 29 29
2 2 2
29 29 29
28 28 28
2 2 2
28 28 28
28 28 28
2 2 2
28 28 28
28 28 28
2 2 2
28 28 28
28 28 28
2 2 2
28 28 28
28 28 28
2 2 2
27 27 27
27 27 27
2 2 2
27 27 27
27 27 27
2 2 2
27 27 27
27 27 27
2 2 2
27 27 27
27 27 27
2 2 2
27 27 27
27 27 27
2 2 2
27 27 27
2 2 2
2 2 2
27 27 27
2 2 2
2 2 2
27 27 27
2 2 2
28 28 28
28 28 28
2 2 2
28 28 28
28 28 28
2 2 2
28 28 28
2 2 2
2 2 2
28 28 28
2 2 2
2 2 2
28 28 28
2 2 2
29 29 29
29 29 29
2 2 2
29 29 29
29 29 29
2 2 2
29 29 29
2 2 2
2 2 2
30 30 30
3 3 3
3 3 3
30 30 30
3 3 3
30 30 30
30 30 30
3 3 3
30 30 30
30 30 30
3 3 3
30 30 30
3 3 3
3 3 3
30 30 30
3 3 3
3 3 3
30 30 30
3 3 3
30 30 30
30 30 30
3 3 3
30 30 30
30 30 30
3 3 3
30 30 30
2 2 2
2 2 2
29 29 29
2 2 2
2 2 2
29 29 29
2 2 2
29 29 29
29 29 29
2 2 2
28 28 28
28 28 28
2 2 2
28 28 28
2 2 2
2 2 2
28 28 28
2 2 2
2 2 2
28 28 28
2 2 2
28 28 28
28 28 28
2 2 2
27 27 27
27 27 27
2 2 2
27 27 27
2 2 2
2 2 2
27 27 27
2 2 2
2 2 2
2 2 2
27 27 27
2 2 2
27 27 27
27 27 27
2 2 2
27 27 27
2 2 2
2 2 2
27 27 27
2 2 2
27 27 27
27 27 27
2 2 2
28 28 28
2 2 2
28 28 28
28 28 28
2 2 2
28 28 28
2 2 2
2 2 2
28 28 28
2 2 2
28 28 28
28 28 28
2 2 2
29 29 29
2 2 2
2 2 2
29 29 29
2 2 2
29 29 29
29 29 29
2 2 2
29 29 29
2 2 2
29 29 29
30 30 30
3 3 3
30 30 30
3 3 3
3 3 3
30 30 30
3 3 3
30 30 30
30 30 30
3 3 3
30 30 30
3 3 3
3 3 3
30 30 30
3 3 3
30 30 30
30 30 30
3 3 3
30 30 30
3 3 3
3 3 3
30 30 30
3 3 3
30 30 30
2 2 2
2 2 2
29 29 29
2 2 2
29 29 29
29 29 29
2 2 2
29 29 29
2 2 2
2 2 2
29 29 29
2 2 2
28 28 28
28 28 28
2 2 2
28 28 28
2 2 2
2 2 2
28 28 28
2 2 2
28 28 28
2 2 2
2 2 2
28 28 28
2 2 2
27 27 27
27 27 27
2 2 2
27 27 27
2 2 2
2 2 2
27 27 27
2 2 2
27 27 27
2 2 2
27 27 27
2 2 2
27 27 27
27 27 27
2 2 2
27 27 27
2 2 2
27 27 27
27 27 27
2 2 2
27 27 27
2 2 2
28 28 28
28 28 28
2 2 2
28 28 28
2 2 2
28 28 28
28 28 28
2 2 2
28 28 28
2 2 2
28 28 28
2 2 2
2 2 2
28 28 28
2 2 2
29 29 29
2 2 2
2 2 2
29 29 29
2 2 2
29 29 29
2 2 2
2 2 2
29 29 29
2 2 2
29 29 29
3 3 3
3 3 3
30 30 30
3 3 3
30 30 30
3 3 3
3 3 3
30 30 30
3 3 3
30 30 30
3 3 3
30 30 30
30 30 30
3 3 3
30 30 30
3 3 3
30 30 30
30 30 30
3 3 3
30 30 30
3 3 3
30 30 30
29 29 29
2 2 2
29 29 29
2 2 2
29 29 29
29 29 29
2 2 2
29 29 29
2 2 2
29 29 29
29 29 29
2 2 2
28 28 28
2 2 2
28 28 28
2 2 2
2 2 2
28 28 28
2 2 2
28 28 28
2 2 2
2 2 2
28 28 28
2 2 2
28 28 28
2 2 2
2 2 2
27 27 27
2 2 2
27 27 27
2 2 2
2 2 2
27 27 27
2 2 2
27 27 27
2 2 2
27 27 27
2 2 2
27 27 27
27 27 27
2 2 2
27 27 27
2 2 2
27 27 27
2 2 2
27 27 27
27 27 27
2 2 2
28 28 28
2 2 2
28 28 28
2 2 2
28 28 28
28 28 28
2 2 2
28 28 28
2 2 2
28 28 28
2 2 2
2 2 2
28 28 28
2 2 2
28 28 28
2 2 2
29 29 29
2 2 2
2 2 2
29 29 29
2 2 2
29 29 29
2 2 2
29 29 29
2 2 2
2 2 2
29 29 29
3 3 3
30 30 30
3 3 3
30 30 30
3 3 3
3 3 3
30 30 30
3 3 3
30 30 30
3 3 3
30 30 30
30 30 30
3 3 3
30 30 30
3 3 3
30 30 30
3 3 3
30 30 30
30 30 30
3 3 3
29 29 29
2 2 2
29 29 29
2 2 2
29 29 29
29 29 29
2 2 2
29 29 29
2 2 2
29 29 29
2 2 2
29 29 29
28 28 28
2 2 2
28 28 28
2 2 2
28 28 28
2 2 2
2 2 2
28 28 28
2 2 2
28 28 28
2 2 2
28 28 28
2 2 2
2 2 2
28 28 28
2 2 2
27 27 27
2 2 2
27 27 27
2 2 2
2 2 2
27 27 27
2 2 2
27 27 27
30 30 30
55 55 55
30 30 30
55 55 55
30 30 30
30 30 30
55 55 55
30 30 30
55 55 55
30 30 30
55 55 55
30 30 30
56 56 56
30 30 30
56 56 56
56 56 56
31 31 31
56 56 56
31 31 31
56 56 56
31 31 31
57 57 57
31 31 31
57 57 57
57 57 57
31 31 31
57 57 57
31 31 31
57 57 57
31 31 31
58 58 58
32 32 32
58 58 58
32 32 32
32 32 32
59 59 59
32 32 32
59 59 59
32 32 32
59 59 59
32 32 32
59 59 59
33 33 33
33 33 33
60 60 60
33 33 33
60 60 60
33 33 33
60 60 60
33 33 33
60 60 60
33 33 33
60 60 60
60 60 60
33 33 33
60 60 60
33 33 33
60 60 60
32 32 32
59 59 59
32 32 32
59 59 59
59 59 59
32 32 32
59 59 59
32 32 32
58 58 58
32 32 32
58 58 58
32 32 32
58 58 58
31 31 31
31 31 31
57 57 57
31 31 31
57 57 57
31 31 31
57 57 57
31 31 31
56 56 56
31 31 31
31 31 31
56 56 56
31 31 31
56 56 56
30 30 30
56 56 56
30 30 30
55 55 55
30 30 30
55 55 55
55 55 55
30 30 30
55 55 55
30 30 30
55 55 55
30 30 30
55 55 55
30 30 30
55 55 55
30 30 30
55 55 55
30 30 30
55 55 55
55 55 55
30 30 30
55 55 55
30 30 30
56 56 56
30 30 30
56 56 56
30 30 30
56 56 56
31 31 31
56 56 56
31 31 31
56 56 56
31 31 31
57 57 57
31 31 31
31 31 31
57 57 57
31 31 31
57 57 57
31 31 31
58 58 58
32 32 32
58 58 58
32 32 32
58 58 58
32 32 32
58 58 58
32 32 32
59 59 59
32 32 32
59 59 59
59 59 59
32 32 32
59 59 59
32 32 32
60 60 60
33 33 33
60 60 60
33 33 33
60 60 60
33 33 33
60 60 60
33 33 33
60 60 60
33 33 33
60 60 60
33 33 33
32 32 32
59 59 59
32 32 32
59 59 59
32 32 32
59 59 59
32 32 32
59 59 59
32 32 32
58 58 58
32 32 32
58 58 58
32 32 32
58 58 58
31 31 31
57 57 57
57 57 57
31 31 31
57 57 57
31 31 31
57 57 57
31 31 31
57 57 57
31 31 31
56 56 56
31 31 31
56 56 56
31 31 31
56 56 56
30 30 30
56 56 56
30 30 30
30 30 30
55 55 55
30 30 30
55 55 55
30 30 30
55 55 55
30 30 30
55 55 55
30 30 30
55 55 55
30 30 30
55 55 55
30 30 30
55 55 55
30 30 30
55 55 55
30 30 30
55 55 55
30 30 30
55 55 55
30 30 30
56 56 56
30 30 30
56 56 56
31 31 31
56 56 56
31 31 31
56 56 56
31 31 31
56 56 56
31 31 31
57 57 57
31 31 31
31 31 31
57 57 57
31 31 31
57 57 57
31 31 31
58 58 58
32 32 32
58 58 58
32 32 32
58 58 58
32 32 32
58 58 58
32 32 32
59 59 59
32 32 32
59 59 59
32 32 32
59 59 59
32 32 32
59 59 59
32 32 32
59 59 59
32 32 32
60 60 60
33 33 33
60 60 60
33 33 33
59 59 59
32 32 32
59 59 59
32 32 32
59 59 59
32 32 32
59 59 59
32 32 32
59 59 59
32 32 32
59 59 59
32 32 32
58 58 58
32 32 32
58 58 58
32 32 32
58 58 58
31 31 31
58 58 58
57 57 57
31 31 31
57 57 57
31 31 31
57 57 57
31 31 31
57 57 57
31 31 31
56 56 56
31 31 31
56 56 56
31 31 31
56 56 56
30 30 30
56 56 56
30 30 30
56 56 56
30 30 30
55 55 55
30 30 30
55 55 55
30 30 30
55 55 55
30 30 30
55 55 55
