P3
96 54
255
0 0 0
0 0 0
0 0 0
0 0 0
0 0 0
0 0 0
0 0 0
0 0 0
0 0 0
0 0 0
0 0 0
0 0 0
0 0 0
0 0 0
0 0 0
0 0 0
0 0 0
0 0 0
0 0 0
0 0 0
0 0 0
0 0 0
0 0 0
0 0 0
0 0 0
0 0 0
0 0 0
0 0 0
0 0 0
0 0 0
0 0 0
0 0 0
0 0 0
0 0 0
0 0 0
0 0 0
0 0 0
0 0 0
0 0 0
0 0 0
0 0 0
0 0 0
0 0 0
0 0 0
0 0 0
0 0 0
0 0 0
0 0 0
0 0 0
0 0 0
0 0 0
0 0 0
0 0 0
0 0 0
0 0 0
0 0 0
0 0 0
0 0 0
0 0 0
0 0 0
0 0 0
0 0 0
0 0 0
0 0 0
0 0 0
0 0 0
0 0 0
0 0 0
0 0 0
0 0 0
0 0 0
0 0 0
0 0 0
0 0 0
0 0 0
0 0 0
0 0 0
0 0 0
0 0 0
0 0 0
0 0 0
0 0 0
0 0 0
0 0 0
0 0 0
0 0 0
0 0 0
0 0 0
0 0 0
0 0 0
0 0 0
0 0 0
0 0 0
0 0 0
0 0 0
0 0 0
0 0 0
0 0 0
0 0 0
0 0 0
0 0 0
0 0 0
0 0 0
0 0 0
0 0 0
0 0 0
0 0 0
0 0 0
0 0 0
0 0 0
0 0 0
0 0 0
0 0 0
0 0 0
0 0 0
0 0 0
0 0 0
0 0 0
0 0 0
0 0 0
0 0 0
0 0 0
0 0 0
0 0 0
0 0 0
0 0 0
0 0 0
0 0 0
0 0 0
0 0 0
0 0 0
0 0 0
0 0 0
0 0 0
0 0 0
0 0 0
0 0 0
0 0 0
0 0 0
0 0 0
0 0 0
0 0 0
0 0 0
0 0 0
0 0 0
0 0 0
0 0 0
0 0 0
0 0 0
0 0 0
0 0 0
0 0 0
0 0 0
0 0 0
0 0 0
0 0 0
0 0 0
0 0 0
0 0 0
0 0 0
0 0 0
0 0 0
0 0 0
0 0 0
0 0 0
0 0 0
0 0 0
0 0 0
0 0 0
0 0 0
0 0 0
0 0 0
0 0 0
0 0 0
0 0 0
0 0 0
0 0 0
0 0 0
0 0 0
0 0 0
0 0 0
0 0 0
0 0 0
0 0 0
0 0 0
0 0 0
0 0 0
0 0 0
0 0 0
0 0 0
0 0 0
0 0 0
0 0 0
0 0 0
0 0 0
0 0 0
0 0 0
0 0 0
0 0 0
0 0 0
0 0 0
0 0 0
0 0 0
0 0 0
0 0 0
0 0 0
0 0 0
0 0 0
0 0 0
0 0 0
0 0 0
0 0 0
0 0 0
0 0 0
0 0 0
0 0 0
0 0 0
0 0 0
0 0 0
0 0 0
0 0 0
0 0 0
0 0 0
0 0 0
0 0 0
0 0 0
0 0 0
0 0 0
0 0 0
0 0 0
0 0 0
0 0 0
0 0 0
0 0 0
0 0 0
0 0 0
0 0 0
0 0 0
0 0 0
0 0 0
0 0 0
0 0 0
0 0 0
0 0 0
0 0 0
0 0 0
0 0 0
0 0 0
0 0 0
0 0 0
0 0 0
0 0 0
0 0 0
0 0 0
0 0 0
0 0 0
0 0 0
0 0 0
0 0 0
0 0 0
0 0 0
0 0 0
0 0 0
0 0 0
0 0 0
0 0 0
0 0 0
0 0 0
0 0 0
0 0 0
0 0 0
0 0 0
0 0 0
0 0 0
0 0 0
0 0 0
0 0 0
0 0 0
0 0 0
0 0 0
0 0 0
0 0 0
0 0 0
0 0 0
0 0 0
0 0 0
0 0 0
0 0 0
0 0 0
0 0 0
0 0 0
0 0 0
0 0 0
0 0 0
0 0 0
0 0 0
0 0 0
0 0 0
0 0 0
0 0 0
0 0 0
0 0 0
0 0 0
0 0 0
0 0 0
0 0 0
0 0 0
0 0 0
0 0 0
0 0 0
0 0 0
0 0 0
0 0 0
0 0 0
0 0 0
0 0 0
0 0 0
0 0 0
0 0 0
0 0 0
0 0 0
0 0 0
0 0 0
0 0 0
0 0 0
0 0 0
0 0 0
0 0 0
0 0 0
0 0 0
0 0 0
0 0 0
0 0 0
0 0 0
0 0 0
0 0 0
0 0 0
0 0 0
0 0 0
0 0 0
0 0 0
0 0 0
0 0 0
0 0 0
0 0 0
0 0 0
0 0 0
0 0 0
0 0 0
0 0 0
0 0 0
0 0 0
0 0 0
0 0 0
0 0 0
0 0 0
0 0 0
0 0 0
0 0 0
0 0 0
0 0 0
0 0 0
0 0 0
0 0 0
0 0 0
0 0 0
0 0 0
0 0 0
0 0 0
0 0 0
0 0 0
0 0 0
0 0 0
0 0 0
0 0 0
0 0 0
0 0 0
0 0 0
0 0 0
0 0 0
0 0 0
0 0 0
0 0 0
0 0 0
0 0 0
0 0 0
0 0 0
0 0 0
0 0 0
0 0 0
0 0 0
0 0 0
0 0 0
0 0 0
0 0 0
0 0 0
0 0 0
0 0 0
0 0 0
0 0 0
0 0 0
0 0 0
0 0 0
0 0 0
0 0 0
0 0 0
0 0 0
0 0 0
0 0 0
0 0 0
0 0 0
0 0 0
0 0 0
0 0 0
0 0 0
0 0 0
0 0 0
0 0 0
0 0 0
0 0 0
0 0 0
0 0 0
0 0 0
0 0 0
0 0 0
0 0 0
0 0 0
0 0 0
0 0 0
0 0 0
0 0 0
0 0 0
0 0 0
0 0 0
0 0 0
0 0 0
0 0 0
0 0 0
0 0 0
0 0 0
0 0 0
0 0 0
0 0 0
0 0 0
0 0 0
0 0 0
0 0 0
0 0 0
0 0 0
0 0 0
0 0 0
0 0 0
0 0 0
0 0 0
0 0 0
0 0 0
0 0 0
0 0 0
0 0 0
0 0 0
0 0 0
0 0 0
0 0 0
0 0 0
0 0 0
0 0 0
0 0 0
0 0 0
0 0 0
0 0 0
0 0 0
0 0 0
0 0 0
0 0 0
0 0 0
0 0 0
0 0 0
0 0 0
0 0 0
0 0 0
0 0 0
0 0 0
0 0 0
0 0 0
0 0 0
0 0 0
0 0 0
0 0 0
0 0 0
0 0 0
0 0 0
0 0 0
0 0 0
0 0 0
0 0 0
0 0 0
0 0 0
0 0 0
0 0 0
0 0 0
0 0 0
0 0 0
0 0 0
0 0 0
0 0 0
0 0 0
0 0 0
0 0 0
0 0 0
0 0 0
0 0 0
0 0 0
0 0 0
0 0 0
0 0 0
0 0 0
0 0 0
0 0 0
0 0 0
0 0 0
0 0 0
0 0 0
0 0 0
0 0 0
0 0 0
0 0 0
0 0 0
0 0 0
0 0 0
0 0 0
0 0 0
0 0 0
0 0 0
0 0 0
0 0 0
0 0 0
0 0 0
0 0 0
0 0 0
0 0 0
0 0 0
0 0 0
0 0 0
0 0 0
0 0 0
0 0 0
0 0 0
0 0 0
0 0 0
0 0 0
0 0 0
0 0 0
0 0 0
0 0 0
0 0 0
0 0 0
0 0 0
0 0 0
0 0 0
0 0 0
0 0 0
0 0 0
0 0 0
0 0 0
0 0 0
0 0 0
0 0 0
0 0 0
0 0 0
0 0 0
0 0 0
0 0 0
0 0 0
0 0 0
0 0 0
0 0 0
0 0 0
0 0 0
0 0 0
0 0 0
0 0 0
0 0 0
0 0 0
0 0 0
0 0 0
0 0 0
0 0 0
0 0 0
0 0 0
0 0 0
0 0 0
0 0 0
0 0 0
0 0 0
0 0 0
0 0 0
0 0 0
0 0 0
0 0 0
0 0 0
0 0 0
0 0 0
0 0 0
0 0 0
0 0 0
0 0 0
0 0 0
0 0 0
0 0 0
0 0 0
0 0 0
0 0 0
0 0 0
0 0 0
0 0 0
0 0 0
0 0 0
0 0 0
0 0 0
0 0 0
0 0 0
0 0 0
0 0 0
0 0 0
0 0 0
0 0 0
0 0 0
0 0 0
0 0 0
0 0 0
0 0 0
0 0 0
0 0 0
0 0 0
0 0 0
0 0 0
0 0 0
0 0 0
0 0 0
0 0 0
0 0 0
0 0 0
0 0 0
0 0 0
0 0 0
0 0 0
0 0 0
0 0 0
0 0 0
0 0 0
0 0 0
0 0 0
0 0 0
0 0 0
0 0 0
0 0 0
0 0 0
0 0 0
0 0 0
0 0 0
0 0 0
0 0 0
0 0 0
0 0 0
0 0 0
0 0 0
0 0 0
0 0 0
0 0 0
0 0 0
0 0 0
0 0 0
0 0 0
0 0 0
0 0 0
0 0 0
0 0 0
0 0 0
0 0 0
0 0 0
0 0 0
0 0 0
0 0 0
0 0 0
0 0 0
0 0 0
0 0 0
0 0 0
0 0 0
0 0 0
0 0 0
0 0 0
0 0 0
0 0 0
0 0 0
0 0 0
0 0 0
0 0 0
0 0 0
0 0 0
0 0 0
0 0 0
0 0 0
0 0 0
0 0 0
0 0 0
0 0 0
0 0 0
0 0 0
0 0 0
0 0 0
0 0 0
0 0 0
0 0 0
0 0 0
0 0 0
0 0 0
0 0 0
0 0 0
0 0 0
0 0 0
0 0 0
0 0 0
0 0 0
0 0 0
0 0 0
0 0 0
0 0 0
0 0 0
0 0 0
0 0 0
0 0 0
0 0 0
0 0 0
0 0 0
0 0 0
0 0 0
0 0 0
0 0 0
0 0 0
0 0 0
0 0 0
0 0 0
0 0 0
0 0 0
0 0 0
0 0 0
0 0 0
0 0 0
0 0 0
0 0 0
0 0 0
0 0 0
0 0 0
0 0 0
0 0 0
0 0 0
0 0 0
0 0 0
0 0 0
0 0 0
0 0 0
0 0 0
0 0 0
0 0 0
0 0 0
0 0 0
0 0 0
0 0 0
0 0 0
0 0 0
0 0 0
0 0 0
0 0 0
0 0 0
0 0 0
0 0 0
0 0 0
0 0 0
0 0 0
0 0 0
0 0 0
0 0 0
0 0 0
0 0 0
0 0 0
0 0 0
0 0 0
0 0 0
0 0 0
0 0 0
0 0 0
0 0 0
0 0 0
0 0 0
0 0 0
0 0 0
0 0 0
0 0 0
0 0 0
0 0 0
0 0 0
0 0 0
0 0 0
0 0 0
0 0 0
0 0 0
0 0 0
0 0 0
0 0 0
0 0 0
0 0 0
0 0 0
0 0 0
0 0 0
0 0 0
0 0 0
0 0 0
0 0 0
0 0 0
0 0 0
0 0 0
0 0 0
0 0 0
0 0 0
0 0 0
0 0 0
0 0 0
0 0 0
0 0 0
0 0 0
0 0 0
0 0 0
0 0 0
0 0 0
0 0 0
0 0 0
0 0 0
0 0 0
0 0 0
0 0 0
0 0 0
0 0 0
0 0 0
0 0 0
0 0 0
0 0 0
0 0 0
0 0 0
0 0 0
0 0 0
0 0 0
0 0 0
0 0 0
0 0 0
0 0 0
0 0 0
0 0 0
0 0 0
0 0 0
0 0 0
0 0 0
0 0 0
0 0 0
0 0 0
0 0 0
0 0 0
0 0 0
0 0 0
0 0 0
0 0 0
0 0 0
0 0 0
0 0 0
0 0 0
0 0 0
0 0 0
0 0 0
0 0 0
0 0 0
0 0 0
0 0 0
0 0 0
0 0 0
0 0 0
0 0 0
0 0 0
0 0 0
0 0 0
0 0 0
0 0 0
0 0 0
0 0 0
0 0 0
0 0 0
0 0 0
0 0 0
0 0 0
0 0 0
0 0 0
0 0 0
0 0 0
0 0 0
0 0 0
0 0 0
0 0 0
0 0 0
0 0 0
0 0 0
0 0 0
0 0 0
0 0 0
0 0 0
0 0 0
0 0 0
0 0 0
0 0 0
0 0 0
0 0 0
0 0 0
0 0 0
0 0 0
0 0 0
0 0 0
0 0 0
0 0 0
0 0 0
0 0 0
0 0 0
0 0 0
0 0 0
0 0 0
0 0 0
0 0 0
0 0 0
0 0 0
0 0 0
0 0 0
0 0 0
0 0 0
0 0 0
0 0 0
0 0 0
0 0 0
0 0 0
0 0 0
0 0 0
0 0 0
0 0 0
0 0 0
0 0 0
0 0 0
0 0 0
0 0 0
0 0 0
0 0 0
0 0 0
0 0 0
0 0 0
0 0 0
0 0 0
0 0 0
0 0 0
0 0 0
0 0 0
0 0 0
0 0 0
0 0 0
0 0 0
0 0 0
0 0 0
0 0 0
0 0 0
0 0 0
0 0 0
0 0 0
0 0 0
0 0 0
0 0 0
0 0 0
0 0 0
0 0 0
0 0 0
0 0 0
0 0 0
0 0 0
0 0 0
0 0 0
0 0 0
0 0 0
0 0 0
0 0 0
0 0 0
0 0 0
0 0 0
0 0 0
0 0 0
0 0 0
0 0 0
0 0 0
0 0 0
0 0 0
0 0 0
0 0 0
0 0 0
0 0 0
0 0 0
0 0 0
0 0 0
0 0 0
0 0 0
0 0 0
0 0 0
0 0 0
0 0 0
0 0 0
0 0 0
0 0 0
0 0 0
0 0 0
0 0 0
0 0 0
0 0 0
0 0 0
0 0 0
0 0 0
0 0 0
0 0 0
0 0 0
0 0 0
0 0 0
0 0 0
0 0 0
0 0 0
0 0 0
0 0 0
0 0 0
0 0 0
0 0 0
0 0 0
0 0 0
0 0 0
0 0 0
0 0 0
0 0 0
0 0 0
0 0 0
0 0 0
0 0 0
0 0 0
0 0 0
0 0 0
0 0 0
0 0 0
0 0 0
0 0 0
0 0 0
0 0 0
0 0 0
0 0 0
0 0 0
0 0 0
0 0 0
0 0 0
0 0 0
0 0 0
0 0 0
0 0 0
0 0 0
0 0 0
0 0 0
0 0 0
0 0 0
0 0 0
0 0 0
0 0 0
0 0 0
0 0 0
0 0 0
0 0 0
0 0 0
0 0 0
0 0 0
0 0 0
0 0 0
0 0 0
0 0 0
0 0 0
0 0 0
0 0 0
0 0 0
0 0 0
0 0 0
0 0 0
0 0 0
0 0 0
0 0 0
0 0 0
0 0 0
0 0 0
0 0 0
0 0 0
0 0 0
0 0 0
0 0 0
0 0 0
0 0 0
0 0 0
0 0 0
0 0 0
0 0 0
0 0 0
0 0 0
0 0 0
0 0 0
0 0 0
0 0 0
0 0 0
0 0 0
0 0 0
0 0 0
0 0 0
0 0 0
0 0 0
0 0 0
0 0 0
0 0 0
0 0 0
0 0 0
0 0 0
0 0 0
0 0 0
0 0 0
0 0 0
0 0 0
0 0 0
0 0 0
0 0 0
0 0 0
0 0 0
0 0 0
0 0 0
0 0 0
0 0 0
0 0 0
0 0 0
0 0 0
0 0 0
0 0 0
0 0 0
0 0 0
0 0 0
0 0 0
0 0 0
0 0 0
0 0 0
0 0 0
0 0 0
0 0 0
0 0 0
0 0 0
0 0 0
0 0 0
0 0 0
0 0 0
0 0 0
0 0 0
0 0 0
0 0 0
0 0 0
0 0 0
0 0 0
0 0 0
0 0 0
0 0 0
0 0 0
0 0 0
0 0 0
0 0 0
0 0 0
0 0 0
0 0 0
0 0 0
0 0 0
0 0 0
0 0 0
0 0 0
0 0 0
0 0 0
0 0 0
0 0 0
0 0 0
0 0 0
0 0 0
0 0 0
0 0 0
0 0 0
0 0 0
0 0 0
0 0 0
0 0 0
0 0 0
0 0 0
0 0 0
0 0 0
0 0 0
0 0 0
0 0 0
0 0 0
0 0 0
0 0 0
0 0 0
0 0 0
0 0 0
0 0 0
0 0 0
0 0 0
0 0 0
0 0 0
0 0 0
0 0 0
0 0 0
0 0 0
0 0 0
0 0 0
0 0 0
0 0 0
0 0 0
0 0 0
0 0 0
0 0 0
0 0 0
0 0 0
0 0 0
0 0 0
0 0 0
0 0 0
0 0 0
0 0 0
0 0 0
0 0 0
0 0 0
0 0 0
0 0 0
0 0 0
0 0 0
0 0 0
0 0 0
0 0 0
0 0 0
0 0 0
0 0 0
0 0 0
0 0 0
0 0 0
0 0 0
0 0 0
0 0 0
0 0 0
0 0 0
0 0 0
0 0 0
0 0 0
0 0 0
0 0 0
0 0 0
0 0 0
0 0 0
0 0 0
0 0 0
0 0 0
0 0 0
0 0 0
0 0 0
0 0 0
0 0 0
0 0 0
0 0 0
0 0 0
0 0 0
0 0 0
0 0 0
0 0 0
0 0 0
0 0 0
0 0 0
0 0 0
0 0 0
0 0 0
0 0 0
0 0 0
0 0 0
0 0 0
0 0 0
0 0 0
0 0 0
0 0 0
0 0 0
0 0 0
0 0 0
0 0 0
0 0 0
0 0 0
0 0 0
0 0 0
0 0 0
0 0 0
0 0 0
0 0 0
0 0 0
0 0 0
0 0 0
0 0 0
0 0 0
0 0 0
0 0 0
0 0 0
0 0 0
0 0 0
0 0 0
0 0 0
0 0 0
0 0 0
0 0 0
0 0 0
0 0 0
0 0 0
0 0 0
0 0 0
0 0 0
0 0 0
0 0 0
0 0 0
0 0 0
0 0 0
0 0 0
0 0 0
0 0 0
0 0 0
0 0 0
0 0 0
0 0 0
0 0 0
0 0 0
0 0 0
0 0 0
0 0 0
0 0 0
0 0 0
0 0 0
0 0 0
0 0 0
0 0 0
0 0 0
0 0 0
0 0 0
0 0 0
0 0 0
0 0 0
0 0 0
0 0 0
0 0 0
0 0 0
0 0 0
0 0 0
0 0 0
0 0 0
0 0 0
0 0 0
0 0 0
0 0 0
0 0 0
0 0 0
0 0 0
0 0 0
0 0 0
0 0 0
0 0 0
0 0 0
0 0 0
0 0 0
0 0 0
0 0 0
0 0 0
0 0 0
0 0 0
0 0 0
0 0 0
0 0 0
0 0 0
0 0 0
0 0 0
0 0 0
0 0 0
0 0 0
0 0 0
0 0 0
0 0 0
0 0 0
0 0 0
0 0 0
0 0 0
0 0 0
0 0 0
0 0 0
0 0 0
0 0 0
0 0 0
0 0 0
0 0 0
0 0 0
0 0 0
0 0 0
0 0 0
0 0 0
0 0 0
0 0 0
0 0 0
0 0 0
0 0 0
0 0 0
0 0 0
0 0 0
0 0 0
0 0 0
0 0 0
0 0 0
0 0 0
0 0 0
0 0 0
0 0 0
0 0 0
0 0 0
0 0 0
0 0 0
0 0 0
0 0 0
0 0 0
0 0 0
0 0 0
0 0 0
0 0 0
0 0 0
0 0 0
0 0 0
0 0 0
0 0 0
0 0 0
0 0 0
0 0 0
0 0 0
0 0 0
0 0 0
0 0 0
0 0 0
0 0 0
0 0 0
0 0 0
0 0 0
0 0 0
0 0 0
0 0 0
0 0 0
0 0 0
0 0 0
0 0 0
0 0 0
0 0 0
0 0 0
0 0 0
0 0 0
0 0 0
0 0 0
0 0 0
0 0 0
0 0 0
0 0 0
0 0 0
0 0 0
0 0 0
0 0 0
0 0 0
0 0 0
0 0 0
0 0 0
0 0 0
0 0 0
0 0 0
0 0 0
0 0 0
0 0 0
0 0 0
0 0 0
0 0 0
0 0 0
0 0 0
0 0 0
0 0 0
0 0 0
0 0 0
0 0 0
0 0 0
0 0 0
0 0 0
0 0 0
0 0 0
0 0 0
0 0 0
0 0 0
0 0 0
0 0 0
0 0 0
0 0 0
0 0 0
0 0 0
0 0 0
0 0 0
0 0 0
0 0 0
0 0 0
0 0 0
0 0 0
0 0 0
0 0 0
0 0 0
0 0 0
0 0 0
0 0 0
0 0 0
0 0 0
0 0 0
0 0 0
0 0 0
0 0 0
0 0 0
0 0 0
0 0 0
0 0 0
0 0 0
0 0 0
0 0 0
0 0 0
0 0 0
0 0 0
0 0 0
0 0 0
0 0 0
0 0 0
0 0 0
0 0 0
0 0 0
0 0 0
0 0 0
0 0 0
0 0 0
0 0 0
0 0 0
0 0 0
0 0 0
0 0 0
0 0 0
0 0 0
0 0 0
0 0 0
0 0 0
0 0 0
0 0 0
0 0 0
0 0 0
0 0 0
0 0 0
0 0 0
0 0 0
0 0 0
0 0 0
0 0 0
0 0 0
0 0 0
0 0 0
0 0 0
0 0 0
0 0 0
0 0 0
0 0 0
0 0 0
0 0 0
0 0 0
0 0 0
0 0 0
0 0 0
0 0 0
0 0 0
0 0 0
0 0 0
0 0 0
0 0 0
0 0 0
0 0 0
0 0 0
0 0 0
0 0 0
0 0 0
0 0 0
0 0 0
0 0 0
0 0 0
0 0 0
0 0 0
0 0 0
0 0 0
0 0 0
0 0 0
0 0 0
0 0 0
0 0 0
0 0 0
0 0 0
0 0 0
0 0 0
0 0 0
0 0 0
0 0 0
0 0 0
0 0 0
0 0 0
0 0 0
0 0 0
0 0 0
0 0 0
0 0 0
0 0 0
0 0 0
0 0 0
0 0 0
0 0 0
0 0 0
0 0 0
0 0 0
0 0 0
0 0 0
0 0 0
0 0 0
0 0 0
0 0 0
0 0 0
0 0 0
0 0 0
0 0 0
0 0 0
0 0 0
0 0 0
0 0 0
0 0 0
0 0 0
0 0 0
0 0 0
0 0 0
0 0 0
0 0 0
0 0 0
0 0 0
0 0 0
0 0 0
0 0 0
0 0 0
0 0 0
0 0 0
0 0 0
0 0 0
0 0 0
0 0 0
0 0 0
0 0 0
0 0 0
0 0 0
0 0 0
0 0 0
0 0 0
0 0 0
0 0 0
0 0 0
0 0 0
0 0 0
0 0 0
0 0 0
0 0 0
0 0 0
0 0 0
0 0 0
0 0 0
0 0 0
0 0 0
0 0 0
0 0 0
0 0 0
0 0 0
0 0 0
0 0 0
0 0 0
0 0 0
0 0 0
0 0 0
0 0 0
0 0 0
0 0 0
0 0 0
0 0 0
0 0 0
0 0 0
0 0 0
0 0 0
0 0 0
0 0 0
0 0 0
0 0 0
0 0 0
0 0 0
0 0 0
0 0 0
0 0 0
0 0 0
0 0 0
0 0 0
0 0 0
0 0 0
0 0 0
0 0 0
0 0 0
2 2 2
25 25 25
2 2 2
2 2 2
25 25 25
2 2 2
25 25 25
25 25 25
2 2 2
25 25 25
25 25 25
2 2 2
25 25 25
25 25 25
2 2 2
25 25 25
2 2 2
2 2 2
25 25 25
2 2 2
2 2 2
25 25 25
2 2 2
2 2 2
25 25 25
2 2 2
26 26 26
26 26 26
2 2 2
26 26 26
26 26 26
2 2 2
26 26 26
26 26 26
2 2 2
26 26 26
26 26 26
2 2 2
26 26 26
2 2 2
2 2 2
26 26 26
2 2 2
2 2 2
26 26 26
2 2 2
2 2 2
26 26 26
2 2 2
26 26 26
26 26 26
2 2 2
26 26 26
26 26 26
2 2 2
26 26 26
26 26 26
2 2 2
26 26 26
2 2 2
2 2 2
26 26 26
2 2 2
2 2 2
26 26 26
2 2 2
2 2 2
26 26 26
2 2 2
2 2 2
26 26 26
2 2 2
26 26 26
26 26 26
2 2 2
25 25 25
25 25 25
2 2 2
25 25 25
25 25 25
2 2 2
25 25 25
2 2 2
2 2 2
25 25 25
2 2 2
2 2 2
25 25 25
2 2 2
2 2 2
25 25 25
2 2 2
25 25 25
25 25 25
2 2 2
25 25 25
55 55 55
55 55 55
30 30 30
30 30 30
30 30 30
55 55 55
55 55 55
30 30 30
30 30 30
55 55 55
55 55 55
30 30 30
30 30 30
55 55 55
55 55 55
30 30 30
30 30 30
30 30 30
55 55 55
55 55 55
30 30 30
30 30 30
56 56 56
56 56 56
30 30 30
30 30 30
55 55 55
55 55 55
30 30 30
30 30 30
31 31 31
56 56 56
56 56 56
31 31 31
31 31 31
56 56 56
56 56 56
31 31 31
31 31 31
56 56 56
56 56 56
31 31 31
31 31 31
31 31 31
56 56 56
56 56 56
31 31 31
31 31 31
56 56 56
56 56 56
31 31 31
31 31 31
56 56 56
56 56 56
56 56 56
31 31 31
31 31 31
56 56 56
56 56 56
31 31 31
31 31 31
56 56 56
56 56 56
31 31 31
31 31 31
56 56 56
56 56 56
56 56 56
31 31 31
31 31 31
56 56 56
56 56 56
31 31 31
30 30 30
56 56 56
56 56 56
30 30 30
30 30 30
56 56 56
56 56 56
56 56 56
30 30 30
30 30 30
55 55 55
55 55 55
30 30 30
30 30 30
55 55 55
55 55 55
30 30 30
30 30 30
55 55 55
55 55 55
55 55 55
30 30 30
30 30 30
29 29 29
2 2 2
2 2 2
29 29 29
2 2 2
2 2 2
29 29 29
2 2 2
2 2 2
29 29 29
2 2 2
2 2 2
29 29 29
29 29 29
2 2 2
29 29 29
29 29 29
2 2 2
29 29 29
29 29 29
3 3 3
30 30 30
30 30 30
3 3 3
30 30 30
29 29 29
2 2 2
2 2 2
29 29 29
2 2 2
2 2 2
29 29 29
2 2 2
3 3 3
30 30 30
3 3 3
3 3 3
30 30 30
30 30 30
3 3 3
30 30 30
30 30 30
3 3 3
30 30 30
30 30 30
3 3 3
30 30 30
30 30 30
3 3 3
3 3 3
30 30 30
3 3 3
3 3 3
30 30 30
3 3 3
3 3 3
30 30 30
3 3 3
3 3 3
30 30 30
30 30 30
3 3 3
30 30 30
30 30 30
3 3 3
30 30 30
30 30 30
3 3 3
30 30 30
30 30 30
3 3 3
3 3 3
30 30 30
3 3 3
3 3 3
30 30 30
3 3 3
3 3 3
30 30 30
3 3 3
3 3 3
30 30 30
3 3 3
3 3 3
30 30 30
29 29 29
2 2 2
29 29 29
29 29 29
2 2 2
29 29 29
29 29 29
2 2 2
29 29 29
29 29 29
2 2 2
30 30 30
3 3 3
30 30 30
3 3 3
30 30 30
30 30 30
3 3 3
31 31 31
3 3 3
31 31 31
3 3 3
31 31 31
3 3 3
31 31 31
3 3 3
31 31 31
3 3 3
31 31 31
3 3 3
31 31 31
3 3 3
32 32 32
32 32 32
3 3 3
32 32 32
3 3 3
32 32 32
3 3 3
30 30 30
3 3 3
30 30 30
3 3 3
30 30 30
3 3 3
31 31 31
3 3 3
32 32 32
3 3 3
33 33 33
33 33 33
3 3 3
33 33 33
3 3 3
33 33 33
3 3 3
33 33 33
3 3 3
33 33 33
3 3 3
33 33 33
3 3 3
33 33 33
3 3 3
33 33 33
3 3 3
33 33 33
3 3 3
3 3 3
33 33 33
3 3 3
33 33 33
3 3 3
33 33 33
3 3 3
33 33 33
3 3 3
33 33 33
3 3 3
33 33 33
3 3 3
33 33 33
3 3 3
33 33 33
3 3 3
3 3 3
32 32 32
3 3 3
32 32 32
3 3 3
32 32 32
3 3 3
32 32 32
3 3 3
32 32 32
3 3 3
32 32 32
3 3 3
32 32 32
3 3 3
31 31 31
3 3 3
3 3 3
31 31 31
3 3 3
31 31 31
3 3 3
64 64 64
35 35 35
64 64 64
64 64 64
35 35 35
65 65 65
35 35 35
35 35 35
65 65 65
36 36 36
65 65 65
66 66 66
36 36 36
66 66 66
66 66 66
36 36 36
66 66 66
36 36 36
37 37 37
67 67 67
37 37 37
37 37 37
68 68 68
37 37 37
68 68 68
68 68 68
37 37 37
68 68 68
69 69 69
35 35 35
64 64 64
35 35 35
35 35 35
65 65 65
35 35 35
65 65 65
65 65 65
36 36 36
65 65 65
71 71 71
39 39 39
71 71 71
39 39 39
39 39 39
71 71 71
39 39 39
11 4 9
8 4 13
35 24 27
31 24 31
72 72 72
39 39 39
72 72 72
72 72 72
39 39 39
72 72 72
39 39 39
39 39 39
72 72 72
39 39 39
39 39 39
72 72 72
39 39 39
72 72 72
72 72 72
39 39 39
71 71 71
39 39 39
39 39 39
71 71 71
39 39 39
39 39 39
71 71 71
39 39 39
70 70 70
70 70 70
38 38 38
70 70 70
70 70 70
38 38 38
69 69 69
38 38 38
38 38 38
69 69 69
38 38 38
37 37 37
68 68 68
37 37 37
68 68 68
68 68 68
37 37 37
67 67 67
37 37 37
37 37 37
67 67 67
36 36 36
3 3 3
3 3 3
33 33 33
3 3 3
3 3 3
34 34 34
34 34 34
3 3 3
34 34 34
34 34 34
3 3 3
3 3 3
34 34 34
34 34 34
3 3 3
35 35 35
35 35 35
3 3 3
3 3 3
35 35 35
35 35 35
3 3 3
35 35 35
35 35 35
3 3 3
3 3 3
36 36 36
3 3 3
3 3 3
36 36 36
36 36 36
3 3 3
3 3 3
34 34 34
3 3 3
3 3 3
34 34 34
34 34 34
3 3 3
34 34 34
34 34 34
3 3 3
3 3 3
38 38 38
38 38 38
55 52 60
54 51 59
50 50 64
99 91 99
52 49 62
61 49 52
3 3 3
3 3 3
38 38 38
38 38 38
3 3 3
3 3 3
38 38 38
3 3 3
3 3 3
38 38 38
38 38 38
3 3 3
38 38 38
38 38 38
3 3 3
3 3 3
38 38 38
38 38 38
3 3 3
38 38 38
38 38 38
3 3 3
3 3 3
38 38 38
3 3 3
3 3 3
37 37 37
37 37 37
3 3 3
3 3 3
37 37 37
3 3 3
3 3 3
37 37 37
36 36 36
3 3 3
3 3 3
36 36 36
3 3 3
3 3 3
36 36 36
36 36 36
3 3 3
35 35 35
35 35 35
3 3 3
35 35 35
35 35 35
3 3 3
3 3 3
35 35 35
35 35 35
3 3 3
3 3 3
35 35 35
36 36 36
3 3 3
3 3 3
36 36 36
36 36 36
3 3 3
3 3 3
36 36 36
37 37 37
3 3 3
3 3 3
37 37 37
37 37 37
3 3 3
3 3 3
3 3 3
38 38 38
38 38 38
3 3 3
3 3 3
38 38 38
38 38 38
3 3 3
3 3 3
35 35 35
35 35 35
3 3 3
3 3 3
36 36 36
36 36 36
3 3 3
3 3 3
36 36 36
40 40 40
4 4 4
45 45 57
53 49 58
53 49 58
101 89 91
79 77 90
9 2 9
41 41 41
4 4 4
4 4 4
41 41 41
41 41 41
4 4 4
4 4 4
41 41 41
41 41 41
4 4 4
4 4 4
41 41 41
41 41 41
4 4 4
4 4 4
41 41 41
41 41 41
4 4 4
4 4 4
41 41 41
41 41 41
41 41 41
4 4 4
4 4 4
40 40 40
40 40 40
4 4 4
4 4 4
40 40 40
40 40 40
4 4 4
3 3 3
39 39 39
39 39 39
3 3 3
3 3 3
39 39 39
39 39 39
3 3 3
3 3 3
38 38 38
38 38 38
3 3 3
3 3 3
38 38 38
72 72 72
40 40 40
40 40 40
73 73 73
73 73 73
40 40 40
40 40 40
40 40 40
74 74 74
74 74 74
41 41 41
41 41 41
75 75 75
75 75 75
76 76 76
42 42 42
42 42 42
77 77 77
77 77 77
77 77 77
42 42 42
43 43 43
78 78 78
79 79 79
43 43 43
43 43 43
44 44 44
80 80 80
80 80 80
44 44 44
44 44 44
81 81 81
82 82 82
82 82 82
45 45 45
45 45 45
74 74 74
74 74 74
74 74 74
41 41 41
41 41 41
75 75 75
75 75 75
41 41 41
41 41 41
40 40 52
53 45 50
49 45 54
93 81 84
88 80 88
10 3 10
87 87 87
88 88 88
48 48 48
48 48 48
88 88 88
88 88 88
48 48 48
48 48 48
48 48 48
89 89 89
89 89 89
48 48 48
48 48 48
48 48 48
88 88 88
88 88 88
48 48 48
48 48 48
88 88 88
88 88 88
88 88 88
48 48 48
48 48 48
87 87 87
87 87 87
47 47 47
47 47 47
47 47 47
86 86 86
85 85 85
47 47 47
46 46 46
46 46 46
84 84 84
84 84 84
46 46 46
46 46 46
83 83 83
82 82 82
82 82 82
45 45 45
45 45 45
81 81 81
81 81 81
44 44 44
3 3 3
3 3 3
37 37 37
37 37 37
38 38 38
3 3 3
3 3 3
38 38 38
38 38 38
38 38 38
3 3 3
3 3 3
3 3 3
39 39 39
39 39 39
39 39 39
3 3 3
4 4 4
40 40 40
40 40 40
40 40 40
4 4 4
4 4 4
4 4 4
41 41 41
41 41 41
4 4 4
4 4 4
4 4 4
42 42 42
42 42 42
42 42 42
4 4 4
4 4 4
43 43 43
43 43 43
43 43 43
4 4 4
3 3 3
2 2 2
25 25 25
25 25 25
25 25 25
2 2 2
2 2 2
0 0 10
3 0 8
4 0 9
11 0 2
2 0 12
7 0 7
46 46 46
46 46 46
4 4 4
4 4 4
4 4 4
47 47 47
47 47 47
47 47 47
4 4 4
4 4 4
4 4 4
47 47 47
47 47 47
4 4 4
4 4 4
4 4 4
47 47 47
47 47 47
47 47 47
4 4 4
4 4 4
46 46 46
46 46 46
46 46 46
4 4 4
4 4 4
4 4 4
46 46 46
45 45 45
4 4 4
4 4 4
4 4 4
45 45 45
45 45 45
44 44 44
4 4 4
4 4 4
4 4 4
44 44 44
43 43 43
4 4 4
4 4 4
4 4 4
43 43 43
42 42 42
3 3 3
3 3 3
3 3 3
39 39 39
39 39 39
39 39 39
3 3 3
3 3 3
3 3 3
40 40 40
40 40 40
40 40 40
4 4 4
4 4 4
4 4 4
41 41 41
41 41 41
41 41 41
4 4 4
4 4 4
4 4 4
42 42 42
42 42 42
42 42 42
4 4 4
4 4 4
4 4 4
43 43 43
43 43 43
44 44 44
4 4 4
4 4 4
4 4 4
45 45 45
45 45 45
45 45 45
4 4 4
4 4 4
4 4 4
46 46 46
46 46 46
32 32 32
2 2 2
2 2 2
2 2 2
2 0 7
3 0 8
0 0 12
6 0 6
2 0 10
10 0 2
49 49 49
49 49 49
49 49 49
4 4 4
4 4 4
4 4 4
49 49 49
50 50 50
50 50 50
5 5 5
5 5 5
5 5 5
50 50 50
50 50 50
50 50 50
5 5 5
5 5 5
5 5 5
50 50 50
50 50 50
49 49 49
4 4 4
4 4 4
4 4 4
49 49 49
49 49 49
49 49 49
4 4 4
4 4 4
4 4 4
48 48 48
48 48 48
48 48 48
4 4 4
4 4 4
4 4 4
47 47 47
47 47 47
46 46 46
4 4 4
4 4 4
4 4 4
46 46 46
45 45 45
45 45 45
79 79 79
44 44 44
44 44 44
44 44 44
80 80 80
81 81 81
81 81 81
81 81 81
45 45 45
45 45 45
45 45 45
83 83 83
83 83 83
84 84 84
46 46 46
46 46 46
46 46 46
47 47 47
86 86 86
86 86 86
87 87 87
48 48 48
48 48 48
48 48 48
48 48 48
89 89 89
89 89 89
90 90 90
49 49 49
50 50 50
50 50 50
92 92 92
92 92 92
93 93 93
94 94 94
52 52 52
52 52 52
52 52 52
96 96 96
96 96 96
97 97 97
53 53 53
54 54 54
54 54 54
36 36 36
66 66 66
50 50 50
2 0 7
8 0 2
56 56 56
56 56 56
102 102 102
103 103 103
103 103 103
104 104 104
57 57 57
57 57 57
57 57 57
105 105 105
105 105 105
105 105 105
58 58 58
58 58 58
58 58 58
58 58 58
106 106 106
106 106 106
106 106 106
58 58 58
58 58 58
58 58 58
105 105 105
105 105 105
105 105 105
105 105 105
57 57 57
57 57 57
57 57 57
104 104 104
103 103 103
103 103 103
102 102 102
56 56 56
56 56 56
55 55 55
101 101 101
100 100 100
100 100 100
54 54 54
54 54 54
54 54 54
54 54 54
97 97 97
97 97 97
96 96 96
53 53 53
81 81 81
82 82 82
82 82 82
82 82 82
45 45 45
45 45 45
46 46 46
84 84 84
84 84 84
85 85 85
85 85 85
47 47 47
47 47 47
47 47 47
47 47 47
87 87 87
87 87 87
88 88 88
88 88 88
49 49 49
49 49 49
49 49 49
90 90 90
91 91 91
91 91 91
92 92 92
51 51 51
51 51 51
51 51 51
51 51 51
94 94 94
95 95 95
96 96 96
53 53 53
53 53 53
53 53 53
54 54 54
99 99 99
99 99 99
100 100 100
101 101 101
55 55 55
56 56 56
56 56 56
103 103 103
104 104 104
108 104 108
107 105 111
65 58 60
63 58 63
58 58 58
59 59 59
108 108 108
108 108 108
109 109 109
60 60 60
60 60 60
60 60 60
61 61 61
111 111 111
111 111 111
111 111 111
112 112 112
61 61 61
61 61 61
61 61 61
112 112 112
112 112 112
112 112 112
112 112 112
61 61 61
61 61 61
61 61 61
61 61 61
111 111 111
111 111 111
110 110 110
60 60 60
60 60 60
60 60 60
60 60 60
108 108 108
108 108 108
107 107 107
107 107 107
58 58 58
58 58 58
58 58 58
58 58 58
104 104 104
104 104 104
103 103 103
56 56 56
56 56 56
56 56 56
55 55 55
4 4 4
4 4 4
4 4 4
4 4 4
42 42 42
42 42 42
43 43 43
43 43 43
4 4 4
4 4 4
4 4 4
4 4 4
44 44 44
44 44 44
44 44 44
44 44 44
4 4 4
4 4 4
4 4 4
4 4 4
46 46 46
46 46 46
46 46 46
46 46 46
4 4 4
4 4 4
4 4 4
4 4 4
48 48 48
48 48 48
48 48 48
49 49 49
4 4 4
4 4 4
5 5 5
5 5 5
50 50 50
51 51 51
51 51 51
51 51 51
5 5 5
5 5 5
5 5 5
5 5 5
53 53 53
56 54 60
56 54 60
54 54 64
10 5 10
7 5 13
13 5 7
5 5 5
56 56 56
56 56 56
57 57 57
57 57 57
5 5 5
5 5 5
5 5 5
5 5 5
58 58 58
58 58 58
58 58 58
59 59 59
5 5 5
5 5 5
5 5 5
5 5 5
59 59 59
59 59 59
59 59 59
59 59 59
5 5 5
5 5 5
5 5 5
5 5 5
58 58 58
58 58 58
58 58 58
57 57 57
5 5 5
5 5 5
5 5 5
5 5 5
56 56 56
56 56 56
56 56 56
55 55 55
5 5 5
5 5 5
5 5 5
5 5 5
54 54 54
54 54 54
53 53 53
53 53 53
42 42 42
43 43 43
43 43 43
43 43 43
43 43 43
4 4 4
4 4 4
4 4 4
4 4 4
44 44 44
44 44 44
45 45 45
45 45 45
4 4 4
4 4 4
4 4 4
4 4 4
4 4 4
46 46 46
47 47 47
47 47 47
47 47 47
4 4 4
4 4 4
4 4 4
4 4 4
49 49 49
49 49 49
49 49 49
49 49 49
50 50 50
5 5 5
5 5 5
5 5 5
5 5 5
51 51 51
52 52 52
52 52 52
53 53 53
5 5 5
5 5 5
5 5 5
5 5 5
5 5 5
55 55 55
55 55 64
59 56 63
59 56 63
14 5 7
7 5 14
11 5 11
5 5 5
58 58 58
59 59 59
59 59 59
59 59 59
60 60 60
6 6 6
6 6 6
6 6 6
6 6 6
61 61 61
61 61 61
62 62 62
62 62 62
6 6 6
6 6 6
6 6 6
6 6 6
6 6 6
62 62 62
62 62 62
62 62 62
62 62 62
6 6 6
6 6 6
6 6 6
6 6 6
61 61 61
61 61 61
60 60 60
60 60 60
60 60 60
6 6 6
5 5 5
5 5 5
5 5 5
58 58 58
58 58 58
58 58 58
57 57 57
5 5 5
5 5 5
5 5 5
5 5 5
5 5 5
87 87 87
48 48 48
48 48 48
48 48 48
49 49 49
49 49 49
90 90 90
90 90 90
90 90 90
91 91 91
91 91 91
50 50 50
50 50 50
51 51 51
51 51 51
94 94 94
94 94 94
95 95 95
95 95 95
96 96 96
53 53 53
53 53 53
53 53 53
54 54 54
54 54 54
99 99 99
100 100 100
101 101 101
101 101 101
56 56 56
56 56 56
57 57 57
57 57 57
57 57 57
105 105 105
106 106 106
107 107 107
108 108 108
109 109 109
60 60 60
60 60 60
61 61 61
61 61 61
113 113 113
114 114 114
115 115 123
122 116 120
120 116 124
74 64 66
71 65 71
71 65 71
66 66 66
66 66 66
122 122 122
123 123 123
124 124 124
125 125 125
69 69 69
69 69 69
70 70 70
70 70 70
71 71 71
129 129 129
130 130 130
130 130 130
131 131 131
131 131 131
72 72 72
72 72 72
72 72 72
72 72 72
131 131 131
131 131 131
131 131 131
130 130 130
130 130 130
71 71 71
71 71 71
71 71 71
70 70 70
70 70 70
127 127 127
127 127 127
126 126 126
125 125 125
68 68 68
68 68 68
68 68 68
67 67 67
67 67 67
121 121 121
121 121 121
120 120 120
119 119 119
118 118 118
65 65 65
4 4 4
4 4 4
4 4 4
45 45 45
45 45 45
45 45 45
45 45 45
46 46 46
4 4 4
4 4 4
4 4 4
4 4 4
4 4 4
47 47 47
47 47 47
48 48 48
48 48 48
48 48 48
4 4 4
4 4 4
4 4 4
4 4 4
5 5 5
50 50 50
50 50 50
50 50 50
51 51 51
51 51 51
5 5 5
5 5 5
5 5 5
5 5 5
5 5 5
53 53 53
54 54 54
54 54 54
54 54 54
55 55 55
5 5 5
5 5 5
5 5 5
5 5 5
5 5 5
58 58 58
58 58 58
94 92 99
93 88 93
67 62 67
39 27 27
61 57 65
17 9 12
6 6 6
6 6 6
63 63 63
63 63 63
64 64 64
64 64 64
65 65 65
6 6 6
6 6 6
6 6 6
6 6 6
6 6 6
68 68 68
68 68 68
68 68 68
68 68 68
69 69 69
6 6 6
6 6 6
6 6 6
6 6 6
6 6 6
69 69 69
69 69 69
68 68 68
68 68 68
68 68 68
6 6 6
6 6 6
6 6 6
6 6 6
6 6 6
66 66 66
66 66 66
65 65 65
65 65 65
64 64 64
6 6 6
6 6 6
6 6 6
6 6 6
6 6 6
62 62 62
62 62 62
61 61 61
90 90 90
91 91 91
91 91 91
92 92 92
92 92 92
51 51 51
51 51 51
51 51 51
51 51 51
52 52 52
52 52 52
95 95 95
96 96 96
96 96 96
97 97 97
97 97 97
54 54 54
54 54 54
54 54 54
55 55 55
55 55 55
101 101 101
101 101 101
102 102 102
103 103 103
103 103 103
104 104 104
57 57 57
58 58 58
58 58 58
59 59 59
59 59 59
108 108 108
109 109 109
110 110 110
111 111 111
112 112 112
62 62 62
62 62 62
63 63 63
63 63 63
64 64 64
64 64 64
118 118 118
119 119 119
120 120 120
199 194 199
128 126 135
110 102 106
95 91 98
69 69 69
70 70 70
71 71 71
130 130 130
131 131 131
132 132 132
134 134 134
135 135 135
136 136 136
75 75 75
76 76 76
77 77 77
77 77 77
78 78 78
142 142 142
143 143 143
144 144 144
144 144 144
145 145 145
80 80 80
80 80 80
80 80 80
80 80 80
80 80 80
79 79 79
145 145 145
144 144 144
143 143 143
143 143 143
142 142 142
78 78 78
77 77 77
77 77 77
76 76 76
76 76 76
137 137 137
136 136 136
136 136 136
135 135 135
134 134 134
133 133 133
72 72 72
72 72 72
72 72 72
71 71 71
71 71 71
92 92 92
92 92 92
93 93 93
51 51 51
51 51 51
52 52 52
52 52 52
52 52 52
96 96 96
96 96 96
96 96 96
97 97 97
98 98 98
98 98 98
54 54 54
54 54 54
55 55 55
55 55 55
55 55 55
56 56 56
102 102 102
103 103 103
103 103 103
104 104 104
105 105 105
58 58 58
58 58 58
58 58 58
59 59 59
59 59 59
60 60 60
110 110 110
110 110 110
111 111 111
112 112 112
113 113 113
114 114 114
63 63 63
63 63 63
64 64 64
64 64 64
65 65 65
120 120 120
121 121 121
122 122 122
123 123 123
124 124 124
125 125 125
69 69 69
70 70 70
71 71 71
71 71 71
72 72 72
73 73 73
134 134 134
136 136 136
137 137 137
139 139 139
140 140 140
78 78 78
78 78 78
79 79 79
80 80 80
81 81 81
81 81 81
149 149 149
150 150 150
151 151 151
152 152 152
152 152 152
153 153 153
84 84 84
84 84 84
84 84 84
84 84 84
83 83 83
152 152 152
151 151 151
150 150 150
150 150 150
149 149 149
148 148 148
81 81 81
80 80 80
80 80 80
79 79 79
78 78 78
78 78 78
141 141 141
140 140 140
139 139 139
138 138 138
137 137 137
75 75 75
74 74 74
74 74 74
4 4 4
4 4 4
4 4 4
4 4 4
4 4 4
4 4 4
48 48 48
48 48 48
48 48 48
49 49 49
49 49 49
49 49 49
4 4 4
5 5 5
5 5 5
5 5 5
5 5 5
5 5 5
51 51 51
51 51 51
52 52 52
52 52 52
52 52 52
52 52 52
5 5 5
5 5 5
5 5 5
5 5 5
5 5 5
5 5 5
55 55 55
55 55 55
56 56 56
56 56 56
57 57 57
57 57 57
5 5 5
5 5 5
5 5 5
5 5 5
5 5 5
6 6 6
61 61 61
61 61 61
62 62 62
62 62 62
63 63 63
63 63 63
6 6 6
6 6 6
6 6 6
6 6 6
6 6 6
6 6 6
68 68 68
69 69 69
70 70 70
71 71 71
72 72 72
72 72 72
7 7 7
7 7 7
7 7 7
7 7 7
7 7 7
7 7 7
78 78 78
78 78 78
79 79 79
79 79 79
80 80 80
80 80 80
8 8 8
8 8 8
8 8 8
8 8 8
8 8 8
7 7 7
79 79 79
78 78 78
78 78 78
77 77 77
77 77 77
76 76 76
7 7 7
7 7 7
7 7 7
7 7 7
7 7 7
7 7 7
72 72 72
72 72 72
71 71 71
71 71 71
70 70 70
70 70 70
4 4 4
4 4 4
4 4 4
4 4 4
48 48 48
48 48 48
48 48 48
49 49 49
49 49 49
49 49 49
4 4 4
5 5 5
5 5 5
5 5 5
5 5 5
5 5 5
51 51 51
51 51 51
52 52 52
52 52 52
52 52 52
53 53 53
53 53 53
5 5 5
5 5 5
5 5 5
5 5 5
5 5 5
5 5 5
55 55 55
56 56 56
56 56 56
57 57 57
57 57 57
57 57 57
5 5 5
5 5 5
5 5 5
5 5 5
6 6 6
6 6 6
6 6 6
61 61 61
62 62 62
63 63 63
63 63 63
64 64 64
64 64 64
6 6 6
6 6 6
6 6 6
6 6 6
6 6 6
6 6 6
70 70 70
70 70 70
71 71 71
72 72 72
73 73 73
74 74 74
75 75 75
7 7 7
7 7 7
7 7 7
7 7 7
7 7 7
8 8 8
81 81 81
82 82 82
82 82 82
83 83 83
83 83 83
83 83 83
8 8 8
8 8 8
8 8 8
8 8 8
8 8 8
8 8 8
8 8 8
82 82 82
81 81 81
81 81 81
80 80 80
79 79 79
79 79 79
7 7 7
7 7 7
7 7 7
7 7 7
7 7 7
7 7 7
74 74 74
74 74 74
73 73 73
73 73 73
4 4 4
4 4 4
48 48 48
48 48 48
49 49 49
49 49 49
49 49 49
49 49 49
5 5 5
5 5 5
5 5 5
5 5 5
5 5 5
5 5 5
5 5 5
51 51 51
52 52 52
52 52 52
52 52 52
53 53 53
53 53 53
5 5 5
5 5 5
5 5 5
5 5 5
5 5 5
5 5 5
5 5 5
56 56 56
56 56 56
56 56 56
57 57 57
57 57 57
58 58 58
58 58 58
5 5 5
5 5 5
6 6 6
6 6 6
6 6 6
6 6 6
62 62 62
62 62 62
63 63 63
63 63 63
64 64 64
65 65 65
65 65 65
6 6 6
6 6 6
6 6 6
6 6 6
6 6 6
7 7 7
7 7 7
71 71 71
72 72 72
73 73 73
74 74 74
75 75 75
76 76 76
7 7 7
7 7 7
7 7 7
8 8 8
8 8 8
8 8 8
8 8 8
84 84 84
85 85 85
85 85 85
86 86 86
86 86 86
87 87 87
87 87 87
8 8 8
8 8 8
8 8 8
8 8 8
8 8 8
8 8 8
85 85 85
84 84 84
84 84 84
83 83 83
82 82 82
81 81 81
81 81 81
8 8 8
7 7 7
7 7 7
7 7 7
7 7 7
7 7 7
76 76 76
75 75 75
97 97 97
98 98 98
98 98 98
99 99 99
99 99 99
100 100 100
55 55 55
55 55 55
55 55 55
56 56 56
56 56 56
56 56 56
56 56 56
104 104 104
104 104 104
105 105 105
105 105 105
106 106 106
106 106 106
107 107 107
59 59 59
59 59 59
60 60 60
60 60 60
60 60 60
61 61 61
61 61 61
112 112 112
113 113 113
114 114 114
115 115 115
116 116 116
116 116 116
117 117 117
65 65 65
65 65 65
66 66 66
66 66 66
67 67 67
67 67 67
68 68 68
125 125 125
126 126 126
127 127 127
128 128 128
130 130 130
131 131 131
132 132 132
73 73 73
74 74 74
75 75 75
76 76 76
76 76 76
77 77 77
78 78 78
144 144 144
146 146 146
148 148 148
150 150 150
152 152 152
154 154 154
156 156 156
87 87 87
88 88 88
89 89 89
90 90 90
91 91 91
93 93 93
94 94 94
173 173 173
175 175 175
176 176 176
178 178 178
179 179 179
180 180 180
180 180 180
99 99 99
99 99 99
99 99 99
98 98 98
98 98 98
97 97 97
97 97 97
175 175 175
173 173 173
172 172 172
170 170 170
169 169 169
167 167 167
165 165 165
90 90 90
89 89 89
88 88 88
87 87 87
87 87 87
86 86 86
98 98 98
99 99 99
99 99 99
100 100 100
55 55 55
55 55 55
55 55 55
56 56 56
56 56 56
56 56 56
57 57 57
57 57 57
104 104 104
105 105 105
105 105 105
106 106 106
106 106 106
107 107 107
108 108 108
59 59 59
60 60 60
60 60 60
60 60 60
61 61 61
61 61 61
61 61 61
113 113 113
114 114 114
114 114 114
115 115 115
116 116 116
117 117 117
117 117 117
65 65 65
65 65 65
66 66 66
66 66 66
67 67 67
67 67 67
68 68 68
68 68 68
126 126 126
127 127 127
128 128 128
129 129 129
130 130 130
132 132 132
133 133 133
74 74 74
74 74 74
75 75 75
76 76 76
77 77 77
78 78 78
79 79 79
145 145 145
147 147 147
149 149 149
150 150 150
152 152 152
154 154 154
156 156 156
159 159 159
88 88 88
89 89 89
91 91 91
92 92 92
93 93 93
94 94 94
96 96 96
176 176 176
178 178 178
180 180 180
182 182 182
183 183 183
184 184 184
185 185 185
102 102 102
102 102 102
101 101 101
101 101 101
101 101 101
100 100 100
99 99 99
179 179 179
178 178 178
176 176 176
175 175 175
173 173 173
171 171 171
169 169 169
168 168 168
91 91 91
90 90 90
89 89 89
89 89 89
100 100 100
100 100 100
55 55 55
55 55 55
56 56 56
56 56 56
56 56 56
56 56 56
57 57 57
57 57 57
104 104 104
105 105 105
105 105 105
106 106 106
106 106 106
107 107 107
107 107 107
108 108 108
60 60 60
60 60 60
60 60 60
61 61 61
61 61 61
61 61 61
62 62 62
113 113 113
114 114 114
115 115 115
115 115 115
116 116 116
117 117 117
118 118 118
118 118 118
65 65 65
66 66 66
66 66 66
67 67 67
67 67 67
68 68 68
68 68 68
126 126 126
127 127 127
128 128 128
129 129 129
130 130 130
131 131 131
132 132 132
134 134 134
74 74 74
75 75 75
76 76 76
76 76 76
77 77 77
78 78 78
79 79 79
80 80 80
147 147 147
149 149 149
151 151 151
153 153 153
155 155 155
157 157 157
159 159 159
88 88 88
89 89 89
91 91 91
92 92 92
93 93 93
94 94 94
96 96 96
97 97 97
179 179 179
181 181 181
182 182 182
184 184 184
185 185 185
187 187 187
187 187 187
103 103 103
103 103 103
103 103 103
103 103 103
102 102 102
102 102 102
101 101 101
100 100 100
181 181 181
180 180 180
178 178 178
176 176 176
175 175 175
173 173 173
171 171 171
170 170 170
92 92 92
91 91 91
5 5 5
5 5 5
5 5 5
5 5 5
5 5 5
5 5 5
5 5 5
5 5 5
52 52 52
52 52 52
52 52 52
53 53 53
53 53 53
53 53 53
53 53 53
54 54 54
5 5 5
5 5 5
5 5 5
5 5 5
5 5 5
5 5 5
5 5 5
5 5 5
56 56 56
57 57 57
57 57 57
58 58 58
58 58 58
58 58 58
59 59 59
59 59 59
5 5 5
6 6 6
6 6 6
6 6 6
6 6 6
6 6 6
6 6 6
6 6 6
63 63 63
64 64 64
64 64 64
65 65 65
65 65 65
66 66 66
66 66 66
67 67 67
6 6 6
6 6 6
6 6 6
7 7 7
7 7 7
7 7 7
7 7 7
7 7 7
73 73 73
74 74 74
75 75 75
76 76 76
77 77 77
78 78 78
79 79 79
80 80 80
8 8 8
8 8 8
8 8 8
8 8 8
8 8 8
8 8 8
8 8 8
8 8 8
90 90 90
91 91 91
92 92 92
92 92 92
93 93 93
94 94 94
94 94 94
94 94 94
9 9 9
9 9 9
9 9 9
9 9 9
9 9 9
9 9 9
9 9 9
9 9 9
91 91 91
90 90 90
89 89 89
88 88 88
88 88 88
87 87 87
86 86 86
85 85 85
5 5 5
5 5 5
5 5 5
5 5 5
5 5 5
5 5 5
5 5 5
52 52 52
52 52 52
53 53 53
53 53 53
53 53 53
53 53 53
54 54 54
54 54 54
5 5 5
5 5 5
5 5 5
5 5 5
5 5 5
5 5 5
5 5 5
5 5 5
57 57 57
57 57 57
57 57 57
58 58 58
58 58 58
58 58 58
59 59 59
59 59 59
5 5 5
6 6 6
6 6 6
6 6 6
6 6 6
6 6 6
6 6 6
6 6 6
6 6 6
63 63 63
64 64 64
64 64 64
65 65 65
65 65 65
66 66 66
66 66 66
67 67 67
6 6 6
6 6 6
6 6 6
7 7 7
7 7 7
7 7 7
7 7 7
7 7 7
73 73 73
74 74 74
75 75 75
76 76 76
77 77 77
78 78 78
78 78 78
79 79 79
80 80 80
8 8 8
8 8 8
8 8 8
8 8 8
8 8 8
8 8 8
8 8 8
8 8 8
90 90 90
91 91 91
92 92 92
92 92 92
93 93 93
94 94 94
94 94 94
94 94 94
9 9 9
9 9 9
9 9 9
9 9 9
9 9 9
9 9 9
9 9 9
9 9 9
92 92 92
91 91 91
90 90 90
89 89 89
89 89 89
88 88 88
87 87 87
5 5 5
5 5 5
5 5 5
5 5 5
5 5 5
52 52 52
52 52 52
53 53 53
53 53 53
53 53 53
53 53 53
54 54 54
54 54 54
54 54 54
5 5 5
5 5 5
5 5 5
5 5 5
5 5 5
5 5 5
5 5 5
5 5 5
57 57 57
57 57 57
57 57 57
58 58 58
58 58 58
58 58 58
59 59 59
59 59 59
59 59 59
6 6 6
6 6 6
6 6 6
6 6 6
6 6 6
6 6 6
6 6 6
6 6 6
63 63 63
64 64 64
64 64 64
65 65 65
65 65 65
66 66 66
66 66 66
67 67 67
67 67 67
6 6 6
6 6 6
6 6 6
7 7 7
7 7 7
7 7 7
7 7 7
7 7 7
7 7 7
74 74 74
75 75 75
75 75 75
76 76 76
77 77 77
78 78 78
79 79 79
80 80 80
8 8 8
8 8 8
8 8 8
8 8 8
8 8 8
8 8 8
8 8 8
8 8 8
8 8 8
90 90 90
90 90 90
91 91 91
92 92 92
93 93 93
93 93 93
94 94 94
94 94 94
9 9 9
9 9 9
9 9 9
9 9 9
9 9 9
9 9 9
9 9 9
9 9 9
9 9 9
91 91 91
91 91 91
90 90 90
89 89 89
88 88 88
5 5 5
5 5 5
5 5 5
52 52 52
52 52 52
52 52 52
53 53 53
53 53 53
53 53 53
53 53 53
54 54 54
54 54 54
5 5 5
5 5 5
5 5 5
5 5 5
5 5 5
5 5 5
5 5 5
5 5 5
5 5 5
57 57 57
57 57 57
57 57 57
58 58 58
58 58 58
58 58 58
59 59 59
59 59 59
59 59 59
6 6 6
6 6 6
6 6 6
6 6 6
6 6 6
6 6 6
6 6 6
6 6 6
6 6 6
63 63 63
64 64 64
64 64 64
65 65 65
65 65 65
66 66 66
66 66 66
67 67 67
67 67 67
6 6 6
6 6 6
6 6 6
7 7 7
7 7 7
7 7 7
7 7 7
7 7 7
7 7 7
74 74 74
74 74 74
75 75 75
76 76 76
77 77 77
77 77 77
78 78 78
79 79 79
80 80 80
8 8 8
8 8 8
8 8 8
8 8 8
8 8 8
8 8 8
8 8 8
8 8 8
8 8 8
89 89 89
90 90 90
91 91 91
91 91 91
92 92 92
92 92 92
93 93 93
93 93 93
93 93 93
9 9 9
9 9 9
9 9 9
9 9 9
9 9 9
9 9 9
9 9 9
9 9 9
9 9 9
91 91 91
90 90 90
89 89 89
5 5 5
5 5 5
52 52 52
52 52 52
53 53 53
53 53 53
53 53 53
53 53 53
54 54 54
54 54 54
54 54 54
5 5 5
5 5 5
5 5 5
5 5 5
5 5 5
5 5 5
5 5 5
5 5 5
5 5 5
57 57 57
57 57 57
57 57 57
58 58 58
58 58 58
58 58 58
59 59 59
59 59 59
59 59 59
6 6 6
6 6 6
6 6 6
6 6 6
6 6 6
6 6 6
6 6 6
6 6 6
6 6 6
6 6 6
64 64 64
64 64 64
64 64 64
65 65 65
65 65 65
66 66 66
66 66 66
67 67 67
67 67 67
6 6 6
6 6 6
6 6 6
7 7 7
7 7 7
7 7 7
7 7 7
7 7 7
7 7 7
73 73 73
74 74 74
75 75 75
75 75 75
76 76 76
77 77 77
78 78 78
78 78 78
79 79 79
80 80 80
8 8 8
8 8 8
8 8 8
8 8 8
8 8 8
8 8 8
8 8 8
8 8 8
8 8 8
88 88 88
89 89 89
90 90 90
90 90 90
91 91 91
92 92 92
92 92 92
92 92 92
92 92 92
9 9 9
9 9 9
9 9 9
9 9 9
9 9 9
9 9 9
9 9 9
9 9 9
9 9 9
91 91 91
90 90 90
105 105 105
105 105 105
106 106 106
106 106 106
107 107 107
107 107 107
107 107 107
108 108 108
108 108 108
109 109 109
60 60 60
60 60 60
60 60 60
61 61 61
61 61 61
61 61 61
62 62 62
62 62 62
62 62 62
114 114 114
115 115 115
115 115 115
116 116 116
116 116 116
117 117 117
118 118 118
118 118 118
119 119 119
120 120 120
66 66 66
66 66 66
67 67 67
67 67 67
67 67 67
68 68 68
68 68 68
69 69 69
69 69 69
127 127 127
128 128 128
129 129 129
130 130 130
130 130 130
131 131 131
132 132 132
133 133 133
134 134 134
135 135 135
75 75 75
75 75 75
76 76 76
76 76 76
77 77 77
78 78 78
78 78 78
79 79 79
80 80 80
80 80 80
148 148 148
149 149 149
150 150 150
152 152 152
153 153 153
155 155 155
156 156 156
158 158 158
159 159 159
88 88 88
89 89 89
90 90 90
91 91 91
92 92 92
93 93 93
94 94 94
95 95 95
96 96 96
96 96 96
176 176 176
177 177 177
179 179 179
180 180 180
181 181 181
182 182 182
182 182 182
183 183 183
184 184 184
101 101 101
101 101 101
101 101 101
101 101 101
101 101 101
101 101 101
100 100 100
100 100 100
100 100 100
99 99 99
106 106 106
106 106 106
106 106 106
107 107 107
107 107 107
108 108 108
108 108 108
109 109 109
60 60 60
60 60 60
60 60 60
61 61 61
61 61 61
61 61 61
61 61 61
62 62 62
62 62 62
62 62 62
114 114 114
115 115 115
115 115 115
116 116 116
116 116 116
117 117 117
118 118 118
118 118 118
119 119 119
119 119 119
66 66 66
66 66 66
67 67 67
67 67 67
67 67 67
68 68 68
68 68 68
69 69 69
69 69 69
69 69 69
127 127 127
128 128 128
129 129 129
130 130 130
131 131 131
131 131 131
132 132 132
133 133 133
134 134 134
135 135 135
75 75 75
75 75 75
76 76 76
76 76 76
77 77 77
77 77 77
78 78 78
79 79 79
79 79 79
80 80 80
147 147 147
148 148 148
150 150 150
151 151 151
152 152 152
153 153 153
155 155 155
156 156 156
158 158 158
159 159 159
88 88 88
90 90 90
91 91 91
92 92 92
94 94 94
95 95 95
97 97 97
98 98 98
98 98 98
98 98 98
176 176 176
177 177 177
177 177 177
178 178 178
179 179 179
180 180 180
180 180 180
181 181 181
182 182 182
182 182 182
100 100 100
100 100 100
100 100 100
100 100 100
100 100 100
100 100 100
99 99 99
99 99 99
106 106 106
107 107 107
107 107 107
108 108 108
108 108 108
108 108 108
109 109 109
60 60 60
60 60 60
60 60 60
61 61 61
61 61 61
61 61 61
61 61 61
62 62 62
62 62 62
62 62 62
114 114 114
115 115 115
115 115 115
116 116 116
116 116 116
117 117 117
117 117 117
118 118 118
119 119 119
119 119 119
120 120 120
66 66 66
66 66 66
67 67 67
67 67 67
68 68 68
68 68 68
68 68 68
69 69 69
69 69 69
69 69 69
127 127 127
128 128 128
129 129 129
130 130 130
131 131 131
132 132 132
132 132 132
133 133 133
134 134 134
135 135 135
75 75 75
75 75 75
76 76 76
76 76 76
77 77 77
77 77 77
78 78 78
78 78 78
79 79 79
80 80 80
146 146 146
147 147 147
149 149 149
150 150 150
151 151 151
152 152 152
154 154 154
155 155 155
156 156 156
158 158 158
88 88 88
90 90 90
92 92 92
95 95 95
98 98 98
101 101 101
103 103 103
105 105 105
105 105 105
104 104 104
102 102 102
178 178 178
177 177 177
177 177 177
177 177 177
177 177 177
178 178 178
178 178 178
179 179 179
180 180 180
180 180 180
99 99 99
99 99 99
99 99 99
99 99 99
99 99 99
99 99 99
99 99 99
107 107 107
107 107 107
108 108 108
108 108 108
109 109 109
109 109 109
60 60 60
60 60 60
60 60 60
61 61 61
61 61 61
61 61 61
61 61 61
62 62 62
62 62 62
62 62 62
114 114 114
115 115 115
115 115 115
116 116 116
116 116 116
117 117 117
117 117 117
118 118 118
119 119 119
119 119 119
120 120 120
66 66 66
66 66 66
67 67 67
67 67 67
67 67 67
68 68 68
68 68 68
68 68 68
69 69 69
69 69 69
127 127 127
128 128 128
128 128 128
129 129 129
130 130 130
131 131 131
132 132 132
132 132 132
133 133 133
134 134 134
135 135 135
74 74 74
75 75 75
75 75 75
76 76 76
77 77 77
77 77 77
78 78 78
78 78 78
79 79 79
79 79 79
80 80 80
147 147 147
148 148 148
149 149 149
150 150 150
151 151 151
152 152 152
154 154 154
155 155 155
157 157 157
159 159 159
91 91 91
95 95 95
99 99 99
105 105 105
110 110 110
115 115 115
119 119 119
119 119 119
117 117 117
113 113 113
108 108 108
181 181 181
178 178 178
176 176 176
176 176 176
176 176 176
176 176 176
177 177 177
177 177 177
178 178 178
178 178 178
98 98 98
98 98 98
98 98 98
98 98 98
98 98 98
98 98 98
108 108 108
108 108 108
108 108 108
109 109 109
60 60 60
60 60 60
60 60 60
61 61 61
61 61 61
61 61 61
61 61 61
62 62 62
62 62 62
62 62 62
62 62 62
114 114 114
115 115 115
115 115 115
116 116 116
116 116 116
117 117 117
117 117 117
118 118 118
118 118 118
119 119 119
119 119 119
66 66 66
66 66 66
66 66 66
67 67 67
67 67 67
67 67 67
68 68 68
68 68 68
69 69 69
69 69 69
69 69 69
127 127 127
128 128 128
129 129 129
129 129 129
130 130 130
131 131 131
132 132 132
132 132 132
133 133 133
134 134 134
135 135 135
74 74 74
75 75 75
75 75 75
76 76 76
76 76 76
77 77 77
77 77 77
78 78 78
78 78 78
79 79 79
80 80 80
146 146 146
147 147 147
148 148 148
149 149 149
150 150 150
151 151 151
153 153 153
155 155 155
157 157 157
160 160 160
164 164 164
99 99 99
106 106 106
114 114 114
123 123 123
132 132 132
138 138 138
140 140 140
138 138 138
132 132 132
124 124 124
115 115 115
184 184 184
179 179 179
176 176 176
175 175 175
174 174 174
174 174 174
175 175 175
175 175 175
176 176 176
176 176 176
177 177 177
97 97 97
97 97 97
97 97 97
97 97 97
108 108 108
108 108 108
109 109 109
60 60 60
60 60 60
60 60 60
61 61 61
61 61 61
61 61 61
61 61 61
62 62 62
62 62 62
62 62 62
62 62 62
114 114 114
115 115 115
115 115 115
116 116 116
116 116 116
117 117 117
117 117 117
118 118 118
118 118 118
119 119 119
119 119 119
120 120 120
66 66 66
66 66 66
67 67 67
67 67 67
67 67 67
68 68 68
68 68 68
68 68 68
69 69 69
69 69 69
69 69 69
127 127 127
128 128 128
129 129 129
129 129 129
130 130 130
131 131 131
132 132 132
132 132 132
133 133 133
134 134 134
135 135 135
74 74 74
75 75 75
75 75 75
76 76 76
76 76 76
77 77 77
77 77 77
78 78 78
78 78 78
79 79 79
79 79 79
145 145 145
146 146 146
147 147 147
148 148 148
149 149 149
151 151 151
152 152 152
154 154 154
157 157 157
160 160 160
166 166 166
103 103 103
112 112 112
124 124 124
137 137 137
150 150 150
159 159 159
164 164 164
163 163 163
156 156 156
145 145 145
132 132 132
120 120 120
186 186 186
179 179 179
175 175 175
173 173 173
173 173 173
173 173 173
173 173 173
174 174 174
174 174 174
175 175 175
175 175 175
96 96 96
96 96 96
96 96 96
109 109 109
109 109 109
60 60 60
60 60 60
60 60 60
61 61 61
61 61 61
61 61 61
61 61 61
62 62 62
62 62 62
62 62 62
62 62 62
114 114 114
115 115 115
115 115 115
116 116 116
116 116 116
117 117 117
117 117 117
118 118 118
118 118 118
119 119 119
119 119 119
120 120 120
66 66 66
66 66 66
66 66 66
67 67 67
67 67 67
67 67 67
68 68 68
68 68 68
68 68 68
69 69 69
69 69 69
127 127 127
127 127 127
128 128 128
129 129 129
129 129 129
130 130 130
131 131 131
132 132 132
132 132 132
133 133 133
134 134 134
135 135 135
74 74 74
75 75 75
75 75 75
76 76 76
76 76 76
76 76 76
77 77 77
77 77 77
78 78 78
78 78 78
79 79 79
79 79 79
146 146 146
147 147 147
147 147 147
149 149 149
150 150 150
151 151 151
153 153 153
156 156 156
161 161 161
168 168 168
177 177 177
118 118 118
133 133 133
149 149 149
164 164 164
177 177 177
185 185 185
186 186 186
180 180 180
168 168 168
152 152 152
136 136 136
122 122 122
186 186 186
179 179 179
174 174 174
172 172 172
172 172 172
172 172 172
172 172 172
172 172 172
173 173 173
173 173 173
174 174 174
95 95 95
96 96 96
