P3
48 27
255
2 2 2
2 2 2
31 31 31
57 57 57
57 57 57
57 57 57
2 2 2
2 2 2
2 2 2
58 58 58
58 58 58
58 58 58
2 2 2
2 2 2
2 2 2
59 59 59
59 59 59
59 59 59
2 2 2
2 2 2
2 2 2
59 59 59
59 59 59
59 59 59
2 2 2
2 2 2
2 2 2
59 59 59
59 59 59
59 59 59
2 2 2
2 2 2
2 2 2
59 59 59
59 59 59
59 59 59
2 2 2
2 2 2
2 2 2
58 58 58
58 58 58
58 58 58
2 2 2
2 2 2
2 2 2
31 31 31
57 57 57
57 57 57
60 60 60
60 60 60
33 33 33
3 3 3
30 30 30
61 61 61
61 61 61
3 3 3
3 3 3
62 62 62
62 62 62
3 3 3
3 3 3
63 63 63
63 63 63
3 3 3
3 3 3
32 32 32
64 64 64
64 64 64
3 3 3
3 3 3
64 64 64
64 64 64
3 3 3
3 3 3
64 64 64
64 64 64
3 3 3
3 3 3
32 32 32
64 64 64
64 64 64
3 3 3
3 3 3
63 63 63
63 63 63
3 3 3
3 3 3
62 62 62
62 62 62
3 3 3
3 3 3
30 30 30
61 61 61
33 33 33
3 3 3
3 3 3
35 35 35
31 31 31
3 3 3
64 64 64
3 3 3
35 35 35
32 32 32
36 36 36
33 33 33
3 3 3
66 66 66
3 3 3
37 37 37
33 33 33
37 37 37
34 34 34
3 3 3
68 68 68
3 3 3
37 37 37
34 34 34
38 38 38
34 34 34
3 3 3
69 69 69
34 34 34
38 38 38
34 34 34
38 38 38
69 69 69
3 3 3
68 68 68
34 34 34
37 37 37
34 34 34
37 37 37
67 67 67
3 3 3
66 66 66
33 33 33
36 36 36
33 33 33
36 36 36
65 65 65
3 3 3
64 64 64
32 32 32
35 35 35
66 66 66
3 3 3
67 67 67
3 3 3
68 68 68
34 34 34
37 37 37
34 34 34
3 3 3
70 70 70
3 3 3
71 71 71
3 3 3
71 71 71
3 3 3
72 72 72
3 3 3
40 40 40
36 36 36
40 40 40
74 74 74
3 3 3
74 74 74
3 3 3
74 74 74
3 3 3
74 74 74
3 3 3
40 40 40
37 37 37
40 40 40
73 73 73
3 3 3
73 73 73
3 3 3
72 72 72
3 3 3
71 71 71
3 3 3
70 70 70
35 35 35
38 38 38
34 34 34
3 3 3
68 68 68
3 3 3
68 68 68
3 3 3
38 38 38
35 35 35
38 38 38
39 39 39
35 35 35
39 39 39
36 36 36
3 3 3
40 40 40
37 37 37
41 41 41
75 75 75
37 37 37
41 41 41
38 38 38
3 3 3
42 42 42
38 38 38
43 43 43
39 39 39
39 39 39
43 43 43
39 39 39
43 43 43
43 43 43
39 39 39
43 43 43
39 39 39
39 39 39
43 43 43
39 39 39
43 43 43
78 78 78
38 38 38
42 42 42
38 38 38
3 3 3
41 41 41
37 37 37
41 41 41
74 74 74
37 37 37
40 40 40
36 36 36
39 39 39
39 39 39
35 35 35
39 39 39
73 73 73
3 3 3
37 37 37
74 74 74
3 3 3
37 37 37
76 76 76
3 3 3
38 38 38
78 78 78
3 3 3
39 39 39
79 79 79
44 44 44
40 40 40
81 81 81
45 45 45
4 4 4
82 82 82
45 45 45
4 4 4
84 84 84
46 46 46
4 4 4
84 84 84
46 46 46
4 4 4
84 84 84
46 46 46
4 4 4
83 83 83
45 45 45
4 4 4
41 41 41
45 45 45
4 4 4
40 40 40
80 80 80
4 4 4
39 39 39
78 78 78
3 3 3
38 38 38
77 77 77
3 3 3
38 38 38
75 75 75
3 3 3
76 76 76
3 3 3
3 3 3
77 77 77
43 43 43
3 3 3
39 39 39
80 80 80
4 4 4
4 4 4
82 82 82
45 45 45
4 4 4
42 42 42
85 85 85
4 4 4
4 4 4
87 87 87
48 48 48
4 4 4
44 44 44
89 89 89
49 49 49
4 4 4
89 89 89
49 49 49
4 4 4
44 44 44
89 89 89
49 49 49
4 4 4
88 88 88
88 88 88
4 4 4
43 43 43
86 86 86
47 47 47
4 4 4
84 84 84
83 83 83
4 4 4
41 41 41
81 81 81
44 44 44
4 4 4
79 79 79
79 79 79
3 3 3
43 43 43
79 79 79
40 40 40
4 4 4
45 45 45
82 82 82
41 41 41
4 4 4
46 46 46
85 85 85
43 43 43
4 4 4
48 48 48
44 44 44
44 44 44
49 49 49
50 50 50
45 45 45
46 46 46
51 51 51
51 51 51
47 47 47
47 47 47
52 52 52
52 52 52
47 47 47
47 47 47
52 52 52
52 52 52
47 47 47
47 47 47
51 51 51
51 51 51
46 46 46
46 46 46
50 50 50
90 90 90
45 45 45
4 4 4
48 48 48
87 87 87
43 43 43
4 4 4
46 46 46
84 84 84
41 41 41
4 4 4
45 45 45
82 82 82
82 82 82
4 4 4
4 4 4
85 85 85
85 85 85
43 43 43
4 4 4
48 48 48
89 89 89
90 90 90
4 4 4
4 4 4
92 92 92
93 93 93
4 4 4
4 4 4
52 52 52
96 96 96
48 48 48
4 4 4
4 4 4
99 99 99
100 100 100
5 5 5
5 5 5
100 100 100
100 100 100
50 50 50
5 5 5
54 54 54
99 99 99
98 98 98
4 4 4
4 4 4
96 96 96
95 95 95
4 4 4
4 4 4
51 51 51
92 92 92
45 45 45
4 4 4
4 4 4
88 88 88
87 87 87
4 4 4
4 4 4
85 85 85
85 85 85
4 4 4
4 4 4
48 48 48
89 89 89
89 89 89
4 4 4
4 4 4
51 51 51
93 93 93
94 94 94
4 4 4
4 4 4
53 53 53
98 98 98
49 49 49
5 5 5
5 5 5
102 102 102
103 103 103
52 52 52
5 5 5
5 5 5
105 105 105
106 106 106
53 53 53
5 5 5
5 5 5
105 105 105
105 105 105
52 52 52
5 5 5
56 56 56
102 102 102
101 101 101
5 5 5
4 4 4
54 54 54
97 97 97
96 96 96
4 4 4
4 4 4
51 51 51
92 92 92
91 91 91
4 4 4
4 4 4
48 48 48
88 88 88
44 44 44
45 45 45
4 4 4
50 50 50
93 93 93
47 47 47
47 47 47
4 4 4
53 53 53
98 98 98
99 99 99
50 50 50
5 5 5
56 56 56
57 57 57
105 105 105
53 53 53
5 5 5
5 5 5
59 59 59
109 109 109
55 55 55
55 55 55
5 5 5
61 61 61
112 112 112
111 111 111
55 55 55
5 5 5
60 60 60
60 60 60
108 108 108
54 54 54
5 5 5
5 5 5
57 57 57
103 103 103
51 51 51
50 50 50
5 5 5
54 54 54
97 97 97
48 48 48
47 47 47
4 4 4
51 51 51
49 49 49
50 50 50
4 4 4
46 46 46
47 47 47
95 95 95
52 52 52
53 53 53
49 49 49
49 49 49
50 50 50
56 56 56
56 56 56
57 57 57
52 52 52
53 53 53
54 54 54
60 60 60
60 60 60
61 61 61
56 56 56
57 57 57
115 115 115
63 63 63
64 64 64
5 5 5
58 58 58
58 58 58
64 64 64
64 64 64
64 64 64
58 58 58
57 57 57
57 57 57
62 62 62
61 61 61
61 61 61
54 54 54
54 54 54
53 53 53
58 58 58
57 57 57
5 5 5
51 51 51
50 50 50
99 99 99
54 54 54
53 53 53
93 93 93
94 94 94
52 52 52
4 4 4
4 4 4
49 49 49
99 99 99
100 100 100
55 55 55
5 5 5
5 5 5
5 5 5
106 106 106
107 107 107
109 109 109
5 5 5
5 5 5
5 5 5
114 114 114
116 116 116
117 117 117
5 5 5
6 6 6
6 6 6
122 122 122
123 123 123
123 123 123
6 6 6
6 6 6
6 6 6
123 123 123
122 122 122
121 121 121
6 6 6
5 5 5
5 5 5
116 116 116
115 115 115
113 113 113
61 61 61
5 5 5
5 5 5
53 53 53
106 106 106
104 104 104
57 57 57
5 5 5
5 5 5
52 52 52
53 53 53
97 97 97
49 49 49
49 49 49
50 50 50
56 56 56
56 56 56
57 57 57
52 52 52
53 53 53
54 54 54
5 5 5
61 61 61
62 62 62
62 62 62
57 57 57
58 58 58
59 59 59
66 66 66
67 67 67
68 68 68
125 125 125
63 63 63
63 63 63
6 6 6
71 71 71
71 71 71
71 71 71
65 65 65
65 65 65
64 64 64
70 70 70
69 69 69
69 69 69
123 123 123
61 61 61
60 60 60
59 59 59
64 64 64
63 63 63
62 62 62
56 56 56
55 55 55
54 54 54
5 5 5
58 58 58
57 57 57
98 98 98
99 99 99
100 100 100
5 5 5
5 5 5
5 5 5
104 104 104
106 106 106
107 107 107
108 108 108
5 5 5
5 5 5
5 5 5
114 114 114
116 116 116
117 117 117
119 119 119
6 6 6
6 6 6
6 6 6
63 63 63
128 128 128
130 130 130
131 131 131
6 6 6
6 6 6
6 6 6
68 68 68
137 137 137
137 137 137
136 136 136
6 6 6
6 6 6
6 6 6
6 6 6
129 129 129
128 128 128
126 126 126
6 6 6
6 6 6
6 6 6
5 5 5
116 116 116
115 115 115
113 113 113
5 5 5
5 5 5
5 5 5
55 55 55
55 55 55
56 56 56
5 5 5
52 52 52
53 53 53
53 53 53
59 59 59
60 60 60
61 61 61
62 62 62
57 57 57
58 58 58
58 58 58
119 119 119
66 66 66
67 67 67
68 68 68
6 6 6
64 64 64
65 65 65
66 66 66
74 74 74
75 75 75
76 76 76
77 77 77
71 71 71
71 71 71
72 72 72
144 144 144
79 79 79
78 78 78
78 78 78
7 7 7
69 69 69
68 68 68
67 67 67
72 72 72
71 71 71
70 70 70
68 68 68
61 61 61
60 60 60
59 59 59
117 117 117
63 63 63
62 62 62
61 61 61
56 56 56
103 103 103
105 105 105
53 53 53
53 53 53
5 5 5
5 5 5
61 61 61
62 62 62
114 114 114
115 115 115
58 58 58
59 59 59
6 6 6
6 6 6
68 68 68
69 69 69
128 128 128
130 130 130
66 66 66
67 67 67
6 6 6
6 6 6
78 78 78
79 79 79
146 146 146
148 148 148
75 75 75
75 75 75
7 7 7
7 7 7
82 82 82
82 82 82
147 147 147
145 145 145
71 71 71
70 70 70
6 6 6
6 6 6
72 72 72
71 71 71
128 128 128
125 125 125
61 61 61
60 60 60
5 5 5
5 5 5
63 63 63
105 105 105
106 106 106
107 107 107
5 5 5
5 5 5
5 5 5
5 5 5
56 56 56
115 115 115
116 116 116
118 118 118
66 66 66
6 6 6
6 6 6
6 6 6
63 63 63
129 129 129
131 131 131
133 133 133
74 74 74
6 6 6
7 7 7
7 7 7
7 7 7
149 149 149
152 152 152
154 154 154
156 156 156
87 87 87
7 7 7
7 7 7
7 7 7
78 78 78
154 154 154
152 152 152
149 149 149
80 80 80
7 7 7
7 7 7
6 6 6
67 67 67
132 132 132
130 130 130
128 128 128
125 125 125
6 6 6
6 6 6
6 6 6
58 58 58
59 59 59
60 60 60
60 60 60
5 5 5
56 56 56
57 57 57
58 58 58
117 117 117
65 65 65
66 66 66
67 67 67
6 6 6
6 6 6
64 64 64
65 65 65
66 66 66
134 134 134
75 75 75
76 76 76
78 78 78
7 7 7
73 73 73
75 75 75
76 76 76
78 78 78
159 159 159
89 89 89
90 90 90
91 91 91
8 8 8
83 83 83
82 82 82
81 81 81
159 159 159
156 156 156
84 84 84
82 82 82
80 80 80
7 7 7
70 70 70
68 68 68
67 67 67
132 132 132
71 71 71
70 70 70
69 69 69
68 68 68
60 60 60
60 60 60
61 61 61
112 112 112
57 57 57
57 57 57
58 58 58
5 5 5
66 66 66
66 66 66
67 67 67
68 68 68
126 126 126
64 64 64
65 65 65
66 66 66
6 6 6
6 6 6
76 76 76
78 78 78
79 79 79
148 148 148
75 75 75
77 77 77
78 78 78
80 80 80
8 8 8
92 92 92
93 93 93
94 94 94
173 173 173
173 173 173
85 85 85
84 84 84
83 83 83
8 8 8
87 87 87
85 85 85
83 83 83
81 81 81
145 145 145
71 71 71
69 69 69
68 68 68
6 6 6
72 72 72
71 71 71
70 70 70
111 111 111
112 112 112
113 113 113
114 114 114
58 58 58
5 5 5
5 5 5
6 6 6
6 6 6
68 68 68
125 125 125
127 127 127
129 129 129
130 130 130
66 66 66
6 6 6
6 6 6
6 6 6
7 7 7
79 79 79
147 147 147
150 150 150
154 154 154
78 78 78
80 80 80
8 8 8
8 8 8
8 8 8
96 96 96
177 177 177
179 179 179
179 179 179
178 178 178
88 88 88
8 8 8
8 8 8
8 8 8
8 8 8
86 86 86
153 153 153
150 150 150
146 146 146
143 143 143
70 70 70
6 6 6
6 6 6
6 6 6
6 6 6
112 112 112
114 114 114
115 115 115
64 64 64
5 5 5
5 5 5
6 6 6
6 6 6
62 62 62
125 125 125
127 127 127
129 129 129
131 131 131
73 73 73
6 6 6
6 6 6
6 6 6
7 7 7
72 72 72
147 147 147
149 149 149
153 153 153
156 156 156
159 159 159
8 8 8
8 8 8
8 8 8
8 8 8
8 8 8
90 90 90
183 183 183
184 184 184
183 183 183
181 181 181
98 98 98
8 8 8
8 8 8
8 8 8
8 8 8
79 79 79
154 154 154
151 151 151
147 147 147
144 144 144
78 78 78
6 6 6
6 6 6
6 6 6
114 114 114
63 63 63
64 64 64
65 65 65
5 5 5
6 6 6
6 6 6
62 62 62
62 62 62
63 63 63
129 129 129
131 131 131
73 73 73
74 74 74
75 75 75
6 6 6
7 7 7
71 71 71
73 73 73
74 74 74
151 151 151
154 154 154
87 87 87
88 88 88
91 91 91
93 93 93
8 8 8
8 8 8
90 90 90
92 92 92
93 93 93
187 187 187
187 187 187
102 102 102
100 100 100
98 98 98
8 8 8
8 8 8
83 83 83
81 81 81
79 79 79
155 155 155
151 151 151
148 148 148
80 80 80
78 78 78
77 77 77
6 6 6
63 63 63
64 64 64
65 65 65
66 66 66
6 6 6
61 61 61
62 62 62
63 63 63
63 63 63
64 64 64
72 72 72
73 73 73
74 74 74
75 75 75
76 76 76
77 77 77
71 71 71
72 72 72
73 73 73
75 75 75
76 76 76
86 86 86
87 87 87
89 89 89
91 91 91
93 93 93
95 95 95
89 89 89
91 91 91
93 93 93
95 95 95
94 94 94
104 104 104
103 103 103
102 102 102
100 100 100
98 98 98
96 96 96
85 85 85
83 83 83
81 81 81
79 79 79
77 77 77
152 152 152
81 81 81
80 80 80
78 78 78
77 77 77
64 64 64
65 65 65
66 66 66
121 121 121
123 123 123
62 62 62
63 63 63
63 63 63
64 64 64
6 6 6
72 72 72
73 73 73
74 74 74
75 75 75
77 77 77
142 142 142
72 72 72
73 73 73
74 74 74
75 75 75
7 7 7
7 7 7
88 88 88
90 90 90
92 92 92
94 94 94
174 174 174
179 179 179
95 95 95
108 108 108
114 114 114
102 102 102
10 10 10
104 104 104
103 103 103
101 101 101
99 99 99
97 97 97
174 174 174
85 85 85
83 83 83
81 81 81
79 79 79
7 7 7
7 7 7
82 82 82
80 80 80
79 79 79
65 65 65
120 120 120
121 121 121
123 123 123
124 124 124
63 63 63
63 63 63
6 6 6
6 6 6
6 6 6
6 6 6
74 74 74
75 75 75
139 139 139
141 141 141
143 143 143
145 145 145
73 73 73
75 75 75
7 7 7
7 7 7
7 7 7
8 8 8
90 90 90
92 92 92
171 171 171
174 174 174
179 179 179
194 194 194
146 146 146
180 180 180
55 55 55
16 16 16
9 9 9
9 9 9
102 102 102
100 100 100
179 179 179
176 176 176
172 172 172
168 168 168
82 82 82
80 80 80
7 7 7
7 7 7
7 7 7
7 7 7
80 80 80
120 120 120
122 122 122
123 123 123
124 124 124
126 126 126
63 63 63
6 6 6
6 6 6
6 6 6
6 6 6
6 6 6
75 75 75
138 138 138
140 140 140
142 142 142
144 144 144
146 146 146
74 74 74
7 7 7
7 7 7
7 7 7
7 7 7
8 8 8
8 8 8
168 168 168
171 171 171
174 174 174
179 179 179
196 196 196
253 253 253
219 219 219
95 95 95
29 29 29
10 10 10
9 9 9
9 9 9
101 101 101
181 181 181
177 177 177
174 174 174
170 170 170
167 167 167
82 82 82
8 8 8
7 7 7
7 7 7
7 7 7
7 7 7
