P3
96 54
255
34 34 34
62 62 62
31 31 31
34 34 34
60 60 60
3 3 3
33 33 33
30 30 30
3 3 3
33 33 33
30 30 30
33 33 33
61 61 61
30 30 30
28 22 33
28 22 33
29 22 31
11 2 8
11 2 8
11 2 8
13 2 6
9 2 4
27 20 23
27 20 23
27 20 23
27 20 23
27 20 23
27 20 23
27 20 23
27 20 23
27 20 23
27 20 23
27 20 23
9 2 4
6 2 6
6 2 6
6 2 6
6 2 6
6 2 6
25 22 29
25 22 29
25 22 29
25 22 29
25 22 29
27 22 27
27 22 27
27 22 27
27 22 27
27 22 27
27 22 27
27 22 27
27 22 27
29 22 25
29 22 25
29 22 25
29 22 25
29 22 25
46 41 46
46 41 46
46 41 46
46 41 46
46 41 46
43 41 48
23 20 27
23 20 27
23 20 27
23 20 27
23 20 27
23 20 27
23 20 27
23 20 27
23 20 27
23 20 27
23 20 27
43 41 48
46 41 52
47 41 50
47 41 50
47 41 50
31 22 29
33 22 28
33 22 28
32 32 32
3 3 3
35 35 35
32 32 32
35 35 35
64 64 64
31 31 31
35 35 35
63 63 63
3 3 3
34 34 34
31 31 31
3 3 3
34 34 34
62 62 62
34 34 34
3 3 3
63 63 63
34 34 34
30 30 30
60 60 60
33 33 33
30 30 30
61 61 61
33 33 33
30 30 30
61 61 61
28 22 33
28 22 33
28 22 33
32 22 29
32 22 29
32 22 29
11 2 8
30 19 24
6 2 6
27 20 23
27 20 23
27 20 23
27 20 23
27 20 23
27 20 23
27 20 23
27 20 23
27 20 23
27 20 23
27 20 23
27 20 23
6 2 6
6 2 6
6 2 6
6 2 6
6 2 6
25 22 29
25 22 29
25 22 29
25 22 29
25 22 29
27 22 27
27 22 27
27 22 27
27 22 27
27 22 27
27 22 27
27 22 27
27 22 27
29 22 25
29 22 25
29 22 25
29 22 25
29 22 25
46 41 46
46 41 46
46 41 46
46 41 46
46 41 46
23 20 27
23 20 27
23 20 27
23 20 27
23 20 27
23 20 27
23 20 27
23 20 27
23 20 27
23 20 27
23 20 27
23 20 27
46 41 46
63 58 69
47 41 50
29 22 32
29 22 32
29 22 32
33 22 28
33 22 28
33 22 28
3 3 3
32 32 32
35 35 35
3 3 3
32 32 32
35 35 35
3 3 3
32 32 32
35 35 35
3 3 3
63 63 63
34 34 34
3 3 3
34 34 34
63 63 63
31 31 31
35 35 35
64 64 64
32 32 32
33 33 33
61 61 61
30 30 30
3 3 3
62 62 62
31 31 31
3 3 3
28 22 33
28 22 33
28 22 33
30 22 30
32 22 29
32 22 29
33 22 27
6 2 6
25 20 25
25 20 25
27 20 23
27 20 23
27 20 23
27 20 23
27 20 23
27 20 23
27 20 23
27 20 23
27 20 23
27 20 23
27 20 23
27 20 23
25 20 25
6 2 6
6 2 6
6 2 6
4 2 9
25 22 29
25 22 29
25 22 29
25 22 29
27 22 27
27 22 27
27 22 27
27 22 27
27 22 27
27 22 27
27 22 27
27 22 27
29 22 25
29 22 25
29 22 25
29 22 25
48 41 43
46 41 46
46 41 46
46 41 46
25 20 25
23 20 27
23 20 27
23 20 27
23 20 27
23 20 27
23 20 27
23 20 27
23 20 27
23 20 27
23 20 27
23 20 27
23 20 27
25 20 25
25 20 25
46 41 46
27 22 33
29 22 32
29 22 32
30 22 30
33 22 28
33 22 28
33 22 28
66 66 66
33 33 33
3 3 3
65 65 65
32 32 32
3 3 3
35 35 35
32 32 32
3 3 3
35 35 35
32 32 32
3 3 3
35 35 35
64 64 64
64 64 64
3 3 3
3 3 3
64 64 64
3 3 3
3 3 3
62 62 62
3 3 3
3 3 3
62 62 62
31 31 31
28 22 33
28 22 33
28 22 33
30 22 30
30 22 30
30 22 30
32 22 29
33 22 27
27 22 27
25 20 25
25 20 25
25 20 25
27 20 23
27 20 23
27 20 23
27 20 23
27 20 23
27 20 23
27 20 23
27 20 23
27 20 23
27 20 23
27 20 23
27 20 23
25 20 25
6 2 6
6 2 6
6 2 6
25 22 29
25 22 29
25 22 29
25 22 29
25 22 29
27 22 27
27 22 27
27 22 27
27 22 27
27 22 27
27 22 27
29 22 25
29 22 25
29 22 25
29 22 25
29 22 25
46 41 46
46 41 46
46 41 46
25 20 25
23 20 27
23 20 27
23 20 27
23 20 27
23 20 27
23 20 27
23 20 27
23 20 27
23 20 27
23 20 27
23 20 27
23 20 27
25 20 25
25 20 25
25 20 25
27 22 27
27 22 33
29 22 32
30 22 30
30 22 30
30 22 30
33 22 28
33 22 28
33 22 28
33 33 33
3 3 3
66 66 66
66 66 66
3 3 3
65 65 65
65 65 65
3 3 3
65 65 65
65 65 65
3 3 3
3 3 3
64 64 64
35 35 35
3 3 3
32 32 32
65 65 65
3 3 3
32 32 32
66 66 66
36 36 36
3 3 3
63 63 63
34 34 34
28 22 33
28 22 33
28 22 33
30 22 30
30 22 30
30 22 30
30 22 30
35 24 28
27 22 27
46 41 46
25 20 25
25 20 25
25 20 25
27 20 23
27 20 23
27 20 23
27 20 23
27 20 23
27 20 23
27 20 23
27 20 23
27 20 23
27 20 23
27 20 23
25 20 25
25 20 25
6 2 6
6 2 6
25 22 29
25 22 29
25 22 29
25 22 29
25 22 29
27 22 27
27 22 27
27 22 27
27 22 27
27 22 27
27 22 27
29 22 25
29 22 25
29 22 25
29 22 25
29 22 25
46 41 46
46 41 46
25 20 25
25 20 25
23 20 27
23 20 27
23 20 27
23 20 27
23 20 27
23 20 27
23 20 27
23 20 27
23 20 27
23 20 27
23 20 27
25 20 25
25 20 25
25 20 25
6 2 6
27 22 27
41 36 48
30 22 30
30 22 30
30 22 30
30 22 30
33 22 28
33 22 28
33 22 28
37 37 37
3 3 3
67 67 67
36 36 36
3 3 3
33 33 33
66 66 66
3 3 3
33 33 33
65 65 65
36 36 36
3 3 3
65 65 65
35 35 35
3 3 3
32 32 32
66 66 66
36 36 36
33 33 33
66 66 66
36 36 36
3 3 3
31 31 31
35 35 35
28 22 33
28 22 33
30 22 30
30 22 30
30 22 30
30 22 30
30 22 30
27 22 27
27 22 27
46 41 46
46 41 46
25 20 25
25 20 25
25 20 25
27 20 23
27 20 23
27 20 23
27 20 23
27 20 23
27 20 23
27 20 23
27 20 23
27 20 23
27 20 23
27 20 23
25 20 25
6 2 6
6 2 6
25 22 29
25 22 29
25 22 29
25 22 29
25 22 29
27 22 27
27 22 27
27 22 27
27 22 27
27 22 27
27 22 27
29 22 25
29 22 25
29 22 25
29 22 25
29 22 25
46 41 46
46 41 46
25 20 25
23 20 27
23 20 27
23 20 27
23 20 27
23 20 27
23 20 27
23 20 27
23 20 27
23 20 27
23 20 27
23 20 27
25 20 25
25 20 25
25 20 25
6 2 6
6 2 6
27 22 27
27 22 27
30 22 30
30 22 30
30 22 30
30 22 30
30 22 30
33 22 28
33 22 28
37 37 37
34 34 34
68 68 68
37 37 37
3 3 3
33 33 33
36 36 36
3 3 3
33 33 33
66 66 66
36 36 36
3 3 3
65 65 65
36 36 36
3 3 3
33 33 33
66 66 66
36 36 36
33 33 33
33 33 33
37 37 37
3 3 3
34 34 34
28 22 33
28 22 33
28 22 33
30 22 30
30 22 30
30 22 30
30 22 30
30 22 30
27 22 27
27 22 27
46 41 46
46 41 46
46 41 46
46 41 46
25 20 25
25 20 25
27 20 23
27 20 23
27 20 23
27 20 23
27 20 23
27 20 23
27 20 23
27 20 23
27 20 23
27 20 23
25 20 25
25 20 25
6 2 6
6 2 6
25 22 29
25 22 29
25 22 29
25 22 29
27 22 27
27 22 27
27 22 27
27 22 27
27 22 27
27 22 27
29 22 25
29 22 25
29 22 25
29 22 25
46 41 46
46 41 46
25 20 25
25 20 25
23 20 27
23 20 27
23 20 27
23 20 27
23 20 27
23 20 27
23 20 27
23 20 27
23 20 27
23 20 27
25 20 25
25 20 25
6 2 6
6 2 6
6 2 6
6 2 6
27 22 27
27 22 27
30 22 30
30 22 30
30 22 30
30 22 30
30 22 30
33 22 28
33 22 28
33 22 28
34 34 34
69 69 69
37 37 37
34 34 34
34 34 34
37 37 37
3 3 3
33 33 33
67 67 67
36 36 36
3 3 3
66 66 66
36 36 36
3 3 3
33 33 33
67 67 67
37 37 37
3 3 3
34 34 34
68 68 68
37 37 37
34 34 34
28 22 33
28 22 33
30 22 30
30 22 30
30 22 30
30 22 30
30 22 30
30 22 30
27 22 27
27 22 27
46 41 46
46 41 46
46 41 46
46 41 46
46 41 46
25 20 25
25 20 25
27 20 23
27 20 23
27 20 23
27 20 23
27 20 23
27 20 23
27 20 23
27 20 23
27 20 23
27 20 23
25 20 25
25 20 25
6 2 6
25 22 29
25 22 29
25 22 29
25 22 29
27 22 27
27 22 27
27 22 27
27 22 27
27 22 27
27 22 27
29 22 25
29 22 25
29 22 25
29 22 25
46 41 46
25 20 25
25 20 25
23 20 27
23 20 27
23 20 27
23 20 27
23 20 27
23 20 27
23 20 27
23 20 27
23 20 27
23 20 27
25 20 25
25 20 25
6 2 6
6 2 6
6 2 6
6 2 6
6 2 6
27 22 27
27 22 27
30 22 30
30 22 30
30 22 30
30 22 30
30 22 30
30 22 30
33 22 28
33 22 28
35 35 35
38 38 38
3 3 3
34 34 34
69 69 69
37 37 37
3 3 3
34 34 34
67 67 67
37 37 37
3 3 3
67 67 67
67 67 67
3 3 3
3 3 3
68 68 68
37 37 37
3 3 3
34 34 34
69 69 69
38 38 38
3 3 3
28 22 33
28 22 33
30 22 30
30 22 30
30 22 30
30 22 30
30 22 30
30 22 30
27 22 27
27 22 27
46 41 46
46 41 46
46 41 46
46 41 46
46 41 46
46 41 46
25 20 25
25 20 25
27 20 23
27 20 23
27 20 23
27 20 23
27 20 23
27 20 23
27 20 23
27 20 23
27 20 23
25 20 25
25 20 25
6 2 6
25 22 29
25 22 29
25 22 29
25 22 29
27 22 27
27 22 27
27 22 27
27 22 27
27 22 27
27 22 27
29 22 25
29 22 25
29 22 25
29 22 25
46 41 46
25 20 25
25 20 25
23 20 27
23 20 27
23 20 27
23 20 27
23 20 27
23 20 27
23 20 27
23 20 27
23 20 27
25 20 25
25 20 25
6 2 6
6 2 6
6 2 6
6 2 6
6 2 6
6 2 6
27 22 27
27 22 27
30 22 30
30 22 30
30 22 30
30 22 30
30 22 30
30 22 30
33 22 28
33 22 28
71 71 71
38 38 38
3 3 3
35 35 35
69 69 69
38 38 38
3 3 3
68 68 68
68 68 68
3 3 3
3 3 3
67 67 67
67 67 67
3 3 3
3 3 3
68 68 68
69 69 69
3 3 3
3 3 3
69 69 69
70 70 70
28 22 32
30 22 30
30 22 30
30 22 30
30 22 30
30 22 30
30 22 30
30 22 30
32 22 29
27 22 27
27 22 27
27 22 27
46 41 46
46 41 46
46 41 46
46 41 46
46 41 46
46 41 46
25 20 25
25 20 25
27 20 23
27 20 23
27 20 23
27 20 23
27 20 23
27 20 23
27 20 23
27 20 23
27 20 23
25 20 25
25 20 25
6 2 6
25 22 29
25 22 29
25 22 29
25 22 29
27 22 27
27 22 27
27 22 27
27 22 27
29 22 25
29 22 25
29 22 25
29 22 25
46 41 46
25 20 25
25 20 25
23 20 27
23 20 27
23 20 27
23 20 27
23 20 27
23 20 27
23 20 27
23 20 27
23 20 27
25 20 25
25 20 25
6 2 6
6 2 6
6 2 6
6 2 6
6 2 6
6 2 6
27 22 27
27 22 27
27 22 27
29 22 32
30 22 30
30 22 30
30 22 30
30 22 30
30 22 30
30 22 30
30 22 30
32 22 28
3 3 3
3 3 3
71 71 71
70 70 70
3 3 3
3 3 3
69 69 69
69 69 69
3 3 3
3 3 3
3 3 3
68 68 68
68 68 68
3 3 3
3 3 3
69 69 69
69 69 69
3 3 3
3 3 3
70 70 70
28 22 32
28 22 32
32 22 28
32 22 28
30 22 30
30 22 30
30 22 30
30 22 30
30 22 30
27 22 27
27 22 27
27 22 27
46 41 46
46 41 46
46 41 46
46 41 46
46 41 46
46 41 46
46 41 46
25 20 25
25 20 25
27 20 23
27 20 23
27 20 23
27 20 23
27 20 23
27 20 23
27 20 23
27 20 23
25 20 25
25 20 25
6 2 6
25 22 29
25 22 29
25 22 29
25 22 29
27 22 27
27 22 27
27 22 27
27 22 27
29 22 25
29 22 25
29 22 25
29 22 25
46 41 46
25 20 25
25 20 25
23 20 27
23 20 27
23 20 27
23 20 27
23 20 27
23 20 27
23 20 27
23 20 27
25 20 25
25 20 25
6 2 6
6 2 6
6 2 6
6 2 6
6 2 6
6 2 6
6 2 6
27 22 27
27 22 27
27 22 27
30 22 30
30 22 30
30 22 30
30 22 30
30 22 30
28 22 32
28 22 32
32 22 28
32 22 28
3 3 3
72 72 72
71 71 71
3 3 3
3 3 3
70 70 70
70 70 70
3 3 3
3 3 3
69 69 69
3 3 3
38 38 38
69 69 69
34 34 34
35 35 35
38 38 38
38 38 38
35 35 35
35 35 35
39 39 39
28 22 32
28 22 32
32 22 28
32 22 28
32 22 28
32 22 28
30 22 30
30 22 30
30 22 30
27 22 27
27 22 27
27 22 27
27 22 27
46 41 46
46 41 46
46 41 46
46 41 46
46 41 46
46 41 46
46 41 46
25 20 25
25 20 25
27 20 23
27 20 23
27 20 23
27 20 23
27 20 23
27 20 23
27 20 23
27 20 23
25 20 25
25 20 25
25 22 29
25 22 29
25 22 29
25 22 29
27 22 27
27 22 27
27 22 27
27 22 27
29 22 25
29 22 25
29 22 25
29 22 25
25 20 25
25 20 25
23 20 27
23 20 27
23 20 27
23 20 27
23 20 27
23 20 27
23 20 27
23 20 27
25 20 25
25 20 25
6 2 6
6 2 6
6 2 6
6 2 6
6 2 6
6 2 6
6 2 6
27 22 27
27 22 27
27 22 27
27 22 27
30 22 30
30 22 30
30 22 30
28 22 32
28 22 32
28 22 32
28 22 32
32 22 28
32 22 28
40 40 40
36 36 36
36 36 36
39 39 39
39 39 39
35 35 35
35 35 35
3 3 3
38 38 38
70 70 70
34 34 34
69 69 69
38 38 38
3 3 3
35 35 35
71 71 71
39 39 39
3 3 3
36 36 36
72 72 72
28 22 32
31 22 30
32 22 28
32 22 28
32 22 28
32 22 28
32 22 28
32 22 28
30 22 30
27 22 27
27 22 27
27 22 27
27 22 27
46 41 46
46 41 46
46 41 46
46 41 46
46 41 46
46 41 46
46 41 46
46 41 46
46 41 46
25 20 25
27 20 23
27 20 23
27 20 23
27 20 23
27 20 23
27 20 23
27 20 23
25 20 25
25 20 25
6 2 6
25 22 29
25 22 29
25 22 29
27 22 27
27 22 27
27 22 27
27 22 27
29 22 25
29 22 25
29 22 25
46 41 46
25 20 25
25 20 25
23 20 27
23 20 27
23 20 27
23 20 27
23 20 27
23 20 27
23 20 27
25 20 25
6 2 6
6 2 6
6 2 6
6 2 6
6 2 6
6 2 6
6 2 6
6 2 6
6 2 6
27 22 27
27 22 27
27 22 27
27 22 27
30 22 30
28 22 32
28 22 32
28 22 32
28 22 32
28 22 32
28 22 32
30 22 31
32 22 28
3 3 3
36 36 36
73 73 73
40 40 40
3 3 3
36 36 36
72 72 72
39 39 39
3 3 3
35 35 35
3 3 3
70 70 70
70 70 70
3 3 3
3 3 3
39 39 39
72 72 72
36 36 36
3 3 3
3 3 3
28 22 32
31 22 30
31 22 30
32 22 28
32 22 28
32 22 28
32 22 28
32 22 28
32 22 28
29 22 25
29 22 25
27 22 27
27 22 27
27 22 27
46 41 46
46 41 46
46 41 46
46 41 46
46 41 46
46 41 46
46 41 46
46 41 46
46 41 46
25 20 25
27 20 23
27 20 23
27 20 23
27 20 23
27 20 23
27 20 23
27 20 23
25 20 25
25 20 25
25 22 29
25 22 29
25 22 29
27 22 27
27 22 27
27 22 27
27 22 27
29 22 25
29 22 25
29 22 25
25 20 25
25 20 25
23 20 27
23 20 27
23 20 27
23 20 27
23 20 27
23 20 27
23 20 27
25 20 25
6 2 6
6 2 6
6 2 6
6 2 6
6 2 6
6 2 6
6 2 6
6 2 6
6 2 6
27 22 27
27 22 27
27 22 27
25 22 29
25 22 29
28 22 32
28 22 32
28 22 32
28 22 32
28 22 32
28 22 32
30 22 31
30 22 31
32 22 28
75 75 75
74 74 74
37 37 37
3 3 3
40 40 40
73 73 73
72 72 72
3 3 3
3 3 3
71 71 71
35 35 35
39 39 39
39 39 39
35 35 35
36 36 36
39 39 39
40 40 40
40 40 40
36 36 36
28 22 33
28 22 33
30 22 30
30 22 30
31 22 30
32 22 28
32 22 28
32 22 28
32 22 28
32 22 28
29 22 25
29 22 25
29 22 25
29 22 25
27 22 27
27 22 27
46 41 46
46 41 46
46 41 46
46 41 46
46 41 46
46 41 46
46 41 46
46 41 46
46 41 46
25 20 25
27 20 23
27 20 23
27 20 23
27 20 23
27 20 23
27 20 23
25 20 25
25 20 25
4 2 9
25 22 29
25 22 29
27 22 27
27 22 27
27 22 27
27 22 27
29 22 25
29 22 25
48 41 43
25 20 25
25 20 25
23 20 27
23 20 27
23 20 27
23 20 27
23 20 27
23 20 27
25 20 25
6 2 6
6 2 6
6 2 6
6 2 6
6 2 6
6 2 6
6 2 6
6 2 6
6 2 6
27 22 27
27 22 27
25 22 29
25 22 29
25 22 29
25 22 29
28 22 32
28 22 32
28 22 32
28 22 32
28 22 32
30 22 31
30 22 30
30 22 30
33 22 28
33 22 28
37 37 37
41 41 41
41 41 41
40 40 40
37 37 37
36 36 36
40 40 40
40 40 40
36 36 36
35 35 35
71 71 71
72 72 72
3 3 3
3 3 3
73 73 73
73 73 73
40 40 40
3 3 3
28 22 33
30 22 30
30 22 30
30 22 30
30 22 30
32 22 29
34 22 26
32 22 28
32 22 28
32 22 28
29 22 25
29 22 25
29 22 25
29 22 25
29 22 25
29 22 25
27 22 27
46 41 46
46 41 46
46 41 46
46 41 46
46 41 46
46 41 46
46 41 46
46 41 46
46 41 46
25 20 25
27 20 23
27 20 23
27 20 23
27 20 23
27 20 23
27 20 23
25 20 25
4 2 9
25 22 29
25 22 29
27 22 27
27 22 27
27 22 27
27 22 27
29 22 25
29 22 25
48 41 43
25 20 25
23 20 27
23 20 27
23 20 27
23 20 27
23 20 27
23 20 27
25 20 25
6 2 6
6 2 6
6 2 6
6 2 6
6 2 6
6 2 6
6 2 6
6 2 6
6 2 6
27 22 27
25 22 29
25 22 29
25 22 29
25 22 29
25 22 29
25 22 29
28 22 32
28 22 32
28 22 32
26 22 34
29 22 32
30 22 30
30 22 30
30 22 30
30 22 30
33 22 28
76 76 76
41 41 41
3 3 3
3 3 3
74 74 74
74 74 74
3 3 3
3 3 3
36 36 36
3 3 3
39 39 39
39 39 39
36 36 36
36 36 36
40 40 40
40 40 40
74 74 74
37 37 37
28 22 33
30 22 30
30 22 30
30 22 30
30 22 30
30 22 30
32 22 29
32 22 29
32 22 29
32 22 28
29 22 25
29 22 25
29 22 25
29 22 25
29 22 25
29 22 25
29 22 25
29 22 25
46 41 46
46 41 46
46 41 46
46 41 46
46 41 46
46 41 46
46 41 46
46 41 46
46 41 46
25 20 25
27 20 23
27 20 23
27 20 23
27 20 23
27 20 23
25 20 25
6 2 6
25 22 29
25 22 29
25 22 29
27 22 27
27 22 27
29 22 25
29 22 25
29 22 25
46 41 46
25 20 25
23 20 27
23 20 27
23 20 27
23 20 27
23 20 27
25 20 25
6 2 6
6 2 6
6 2 6
6 2 6
6 2 6
6 2 6
6 2 6
6 2 6
6 2 6
25 22 29
25 22 29
25 22 29
25 22 29
25 22 29
25 22 29
25 22 29
25 22 29
28 22 32
29 22 32
29 22 32
29 22 32
30 22 30
30 22 30
30 22 30
30 22 30
30 22 30
33 22 28
38 38 38
3 3 3
42 42 42
41 41 41
37 37 37
37 37 37
41 41 41
40 40 40
74 74 74
36 36 36
73 73 73
40 40 40
3 3 3
3 3 3
37 37 37
74 74 74
75 75 75
3 3 3
28 22 33
30 22 30
30 22 30
30 22 30
30 22 30
30 22 30
30 22 30
32 22 29
32 22 29
32 22 29
32 22 29
27 22 27
29 22 25
29 22 25
29 22 25
29 22 25
29 22 25
29 22 25
29 22 25
29 22 25
46 41 46
46 41 46
46 41 46
46 41 46
46 41 46
46 41 46
46 41 46
46 41 46
25 20 25
27 20 23
27 20 23
27 20 23
27 20 23
27 20 23
6 2 6
4 2 9
25 22 29
25 22 29
27 22 27
27 22 27
29 22 25
29 22 25
48 41 43
46 41 46
23 20 27
23 20 27
23 20 27
23 20 27
23 20 27
25 20 25
6 2 6
6 2 6
6 2 6
6 2 6
6 2 6
6 2 6
6 2 6
6 2 6
25 22 29
25 22 29
25 22 29
25 22 29
25 22 29
25 22 29
25 22 29
25 22 29
27 22 27
29 22 32
29 22 32
29 22 32
29 22 32
30 22 30
30 22 30
30 22 30
30 22 30
30 22 30
30 22 30
33 22 28
78 78 78
3 3 3
3 3 3
38 38 38
76 76 76
76 76 76
41 41 41
3 3 3
37 37 37
3 3 3
40 40 40
40 40 40
37 37 37
37 37 37
3 3 3
41 41 41
41 41 41
38 38 38
28 22 33
30 22 30
30 22 30
30 22 30
30 22 30
30 22 30
30 22 30
30 22 30
32 22 29
32 22 29
32 22 29
27 22 27
27 22 27
27 22 27
27 22 27
29 22 25
29 22 25
29 22 25
29 22 25
29 22 25
29 22 25
48 41 43
46 41 46
46 41 46
46 41 46
46 41 46
46 41 46
46 41 46
46 41 46
25 20 25
27 20 23
27 20 23
27 20 23
27 20 23
9 2 4
4 2 9
25 22 29
25 22 29
27 22 27
27 22 27
29 22 25
29 22 25
48 41 43
43 41 48
23 20 27
23 20 27
23 20 27
23 20 27
25 20 25
6 2 6
6 2 6
6 2 6
6 2 6
6 2 6
6 2 6
6 2 6
4 2 9
25 22 29
25 22 29
25 22 29
25 22 29
25 22 29
25 22 29
27 22 27
27 22 27
27 22 27
27 22 27
29 22 32
29 22 32
29 22 32
30 22 30
30 22 30
30 22 30
30 22 30
30 22 30
30 22 30
30 22 30
33 22 28
39 39 39
43 43 43
43 43 43
77 77 77
38 38 38
38 38 38
42 42 42
41 41 41
75 75 75
36 36 36
74 74 74
74 74 74
3 3 3
3 3 3
3 3 3
76 76 76
76 76 76
42 42 42
28 22 33
30 22 30
30 22 30
30 22 30
30 22 30
30 22 30
30 22 30
30 22 30
30 22 30
32 22 29
32 22 29
27 22 27
27 22 27
27 22 27
27 22 27
27 22 27
27 22 27
27 22 27
29 22 25
29 22 25
29 22 25
29 22 25
29 22 25
48 41 43
46 41 46
46 41 46
46 41 46
46 41 46
46 41 46
46 41 46
46 41 46
27 20 23
27 20 23
9 2 4
9 2 4
4 2 9
4 2 9
25 22 29
27 22 27
27 22 27
29 22 25
48 41 43
48 41 43
43 41 48
43 41 48
23 20 27
23 20 27
6 2 6
6 2 6
6 2 6
6 2 6
6 2 6
6 2 6
6 2 6
4 2 9
25 22 29
25 22 29
25 22 29
25 22 29
39 36 43
41 36 41
41 37 41
41 37 41
41 37 41
42 37 42
42 37 42
42 37 42
43 37 47
43 37 47
45 37 45
45 37 45
30 22 30
30 22 30
30 22 30
30 22 30
30 22 30
30 22 30
33 22 28
44 44 44
3 3 3
3 3 3
78 78 78
78 78 78
77 77 77
3 3 3
3 3 3
38 38 38
37 37 37
41 41 41
41 41 41
37 37 37
38 38 38
38 38 38
42 42 42
42 42 42
42 42 42
28 22 33
30 22 30
30 22 30
30 22 30
30 22 30
30 22 30
30 22 30
30 22 30
30 22 30
30 22 30
30 22 30
32 22 29
27 22 27
27 22 27
27 22 27
27 22 27
27 22 27
27 22 27
27 22 27
27 22 27
27 22 27
29 22 25
29 22 25
29 22 25
29 22 25
46 41 46
46 41 46
46 41 46
46 41 46
46 41 46
46 41 46
46 41 46
9 2 4
9 2 4
9 2 4
6 2 6
4 2 9
25 22 29
25 22 29
29 22 25
29 22 25
48 41 43
46 41 46
43 41 48
43 41 48
43 41 48
6 2 6
6 2 6
6 2 6
6 2 6
6 2 6
6 2 6
6 2 6
25 22 29
25 22 29
39 36 43
39 36 43
41 36 41
41 36 41
41 37 41
41 37 41
42 37 42
42 37 42
42 37 42
42 37 42
42 37 42
43 37 47
45 37 45
45 37 45
45 37 45
45 37 45
45 37 45
45 37 45
45 37 45
30 22 30
30 22 30
30 22 30
33 22 28
44 44 44
44 44 44
44 44 44
39 39 39
39 39 39
39 39 39
42 42 42
42 42 42
38 38 38
3 3 3
75 75 75
75 75 75
38 38 38
3 3 3
3 3 3
42 42 42
78 78 78
78 78 78
28 22 33
30 22 30
30 22 30
30 22 30
30 22 30
30 22 30
30 22 30
30 22 30
30 22 30
30 22 30
30 22 30
30 22 30
27 22 27
27 22 27
27 22 27
27 22 27
27 22 27
27 22 27
27 22 27
27 22 27
27 22 27
27 22 27
27 22 27
27 22 27
29 22 25
29 22 25
29 22 25
27 22 27
27 22 27
27 22 27
27 22 27
27 22 27
27 22 27
9 2 4
6 2 6
6 2 6
7 2 12
4 2 8
29 25 29
29 25 29
52 45 48
51 41 46
46 41 46
46 41 46
43 41 48
27 22 27
27 22 27
27 22 27
27 22 27
27 22 27
27 22 27
25 22 29
25 22 29
39 36 43
41 36 41
41 37 41
41 37 41
42 37 42
42 37 42
42 37 42
42 37 42
42 37 42
42 37 42
42 37 42
42 37 42
42 37 42
45 37 45
45 37 45
45 37 45
45 37 45
45 37 45
45 37 45
45 37 45
45 37 45
45 37 45
30 22 30
30 22 30
33 22 28
4 4 4
4 4 4
44 44 44
80 80 80
79 79 79
39 39 39
3 3 3
3 3 3
77 77 77
37 37 37
76 76 76
42 42 42
42 42 42
38 38 38
38 38 38
78 78 78
43 43 43
43 43 43
28 22 33
10 2 10
10 2 10
10 2 10
10 2 10
10 2 10
10 2 10
10 2 10
10 2 10
10 2 10
10 2 10
10 2 10
10 2 10
6 2 6
27 22 27
27 22 27
27 22 27
27 22 27
27 22 27
27 22 27
27 22 27
27 22 27
27 22 27
27 22 27
27 22 27
27 22 27
27 22 27
27 22 27
29 22 25
27 22 27
27 22 27
27 22 27
27 22 27
25 22 29
11 2 8
8 2 4
6 2 6
4 2 8
6 2 6
50 45 50
52 45 48
50 45 50
48 45 52
47 41 50
29 22 25
27 22 27
27 22 27
27 22 27
27 22 27
25 22 29
27 22 27
41 36 41
41 37 41
41 37 41
42 37 42
42 37 42
42 37 42
42 37 42
42 37 42
42 37 42
42 37 42
42 37 42
42 37 42
42 37 42
73 68 73
76 68 76
76 68 76
76 68 76
77 69 77
77 69 77
77 69 77
77 69 77
77 69 77
77 69 77
77 69 77
77 69 77
49 41 49
33 22 28
45 45 45
45 45 45
4 4 4
40 40 40
40 40 40
44 44 44
43 43 43
3 3 3
39 39 39
3 3 3
42 42 42
77 77 77
77 77 77
39 39 39
3 3 3
3 3 3
43 43 43
80 80 80
7 2 12
10 2 10
10 2 10
10 2 10
10 2 10
10 2 10
10 2 10
10 2 10
10 2 10
10 2 10
10 2 10
10 2 10
10 2 10
6 2 6
6 2 6
6 2 6
6 2 6
6 2 6
6 2 6
6 2 6
6 2 6
27 22 27
27 22 27
27 22 27
27 22 27
27 22 27
27 22 27
27 22 27
27 22 27
27 22 27
27 22 27
25 22 29
25 22 29
27 25 31
29 25 29
8 2 4
8 2 4
4 2 8
25 22 29
29 22 25
52 45 48
48 45 52
48 45 52
29 25 29
31 25 27
29 22 25
29 22 25
27 22 27
27 22 27
27 22 27
42 37 42
42 37 42
42 37 42
42 37 42
42 37 42
42 37 42
42 37 42
73 68 73
73 68 73
73 68 73
73 68 73
73 69 73
73 69 73
73 69 73
74 69 74
77 69 77
77 69 77
77 69 77
77 69 77
77 69 77
77 69 77
77 69 77
77 69 77
77 69 77
77 69 77
77 69 77
77 69 77
51 41 46
4 4 4
45 45 45
82 82 82
82 82 82
40 40 40
4 4 4
4 4 4
43 43 43
79 79 79
38 38 38
77 77 77
77 77 77
43 43 43
3 3 3
3 3 3
39 39 39
80 80 80
80 80 80
44 44 44
7 2 12
7 2 12
7 2 12
7 2 12
7 2 12
7 2 12
7 2 12
7 2 12
7 2 12
7 2 12
7 2 12
7 2 12
7 2 12
6 2 6
6 2 6
6 2 6
6 2 6
6 2 6
6 2 6
6 2 6
6 2 6
6 2 6
6 2 6
6 2 6
6 2 6
27 22 27
27 22 27
27 22 27
27 22 27
27 22 27
27 22 27
28 22 33
29 25 29
29 25 29
29 25 29
8 2 4
25 22 29
25 22 29
29 22 25
29 22 25
48 45 52
29 25 29
29 25 29
29 25 29
33 22 28
27 22 27
27 22 27
27 22 27
42 37 42
42 37 42
42 37 42
73 68 73
73 68 73
73 68 73
73 69 73
74 69 74
74 69 74
74 69 74
74 69 74
74 69 74
74 69 74
74 69 74
74 69 74
79 69 75
79 69 75
79 69 75
80 69 75
80 69 75
80 69 75
80 69 75
80 69 75
80 69 75
80 69 75
80 69 75
80 69 75
80 69 75
47 47 47
4 4 4
4 4 4
41 41 41
83 83 83
82 82 82
45 45 45
4 4 4
4 4 4
40 40 40
38 38 38
42 42 42
43 43 43
43 43 43
39 39 39
39 39 39
40 40 40
44 44 44
44 44 44
45 45 45
7 2 12
7 2 12
7 2 12
7 2 12
7 2 12
7 2 12
7 2 12
7 2 12
7 2 12
7 2 12
7 2 12
7 2 12
7 2 12
7 2 12
4 2 9
4 2 9
4 2 9
4 2 9
4 2 9
4 2 9
4 2 9
6 2 6
6 2 6
6 2 6
6 2 6
6 2 6
6 2 6
6 2 6
6 2 6
27 22 27
30 22 30
29 25 29
31 25 27
29 25 29
29 25 29
48 45 52
27 22 27
27 22 27
27 22 27
27 22 27
8 2 4
29 25 29
29 25 29
27 25 31
29 25 29
30 22 30
27 22 27
74 69 74
74 69 74
74 69 74
74 69 74
74 69 74
112 108 112
113 108 113
113 108 113
115 108 110
115 108 110
115 108 110
115 108 111
115 108 111
115 108 111
115 108 111
118 108 114
80 70 75
80 70 75
80 70 75
80 70 75
80 70 75
80 70 75
80 70 75
80 70 75
80 70 75
80 70 75
80 70 75
80 70 75
80 70 75
47 47 47
47 47 47
46 46 46
42 42 42
42 42 42
41 41 41
45 45 45
45 45 45
44 44 44
40 40 40
3 3 3
43 43 43
79 79 79
79 79 79
40 40 40
4 4 4
4 4 4
44 44 44
82 82 82
82 82 82
7 2 12
7 2 12
7 2 12
7 2 12
7 2 12
7 2 12
7 2 12
7 2 12
7 2 12
7 2 12
7 2 12
7 2 12
7 2 12
7 2 12
7 2 12
4 2 9
4 2 9
4 2 9
4 2 9
4 2 9
4 2 9
4 2 9
4 2 9
4 2 9
4 2 9
4 2 9
4 2 9
6 2 6
6 2 6
8 2 11
10 2 10
29 25 29
29 25 29
29 25 29
50 45 50
48 45 52
50 45 50
29 22 25
25 22 29
6 2 6
8 2 4
6 2 6
29 25 29
29 25 29
29 25 29
49 41 49
79 70 76
75 70 75
75 70 75
77 70 72
116 109 111
116 109 111
116 109 111
116 109 111
116 109 111
116 109 111
116 109 111
116 109 111
116 109 111
116 109 111
116 109 111
119 109 115
119 109 115
119 109 115
119 109 115
119 109 115
80 70 76
80 70 76
80 70 76
80 70 76
80 70 76
80 70 76
80 70 76
80 70 76
80 70 76
80 70 76
4 4 4
4 4 4
47 47 47
85 85 85
84 84 84
42 42 42
4 4 4
4 4 4
45 45 45
81 81 81
39 39 39
79 79 79
79 79 79
44 44 44
4 4 4
4 4 4
40 40 40
82 82 82
83 83 83
83 83 83
7 2 12
7 2 12
7 2 12
7 2 12
7 2 12
7 2 12
7 2 12
7 2 12
7 2 12
6 2 13
6 2 13
6 2 13
6 2 13
6 2 13
6 2 13
6 2 13
4 2 9
4 2 9
4 2 9
4 2 9
4 2 9
4 2 9
4 2 9
4 2 9
4 2 9
4 2 9
4 2 9
4 2 9
4 2 9
4 2 15
4 2 8
4 2 8
48 45 52
48 45 52
50 45 50
52 45 48
50 45 50
48 45 52
8 2 4
6 2 6
4 2 8
6 2 6
8 2 4
8 2 4
52 45 48
52 45 48
85 71 74
78 71 74
117 110 113
117 110 113
117 110 113
117 110 113
117 110 113
117 110 112
117 110 112
117 110 112
117 110 112
117 110 112
117 110 112
117 110 112
122 110 114
122 110 114
122 110 114
122 110 114
121 110 114
121 110 114
121 110 114
120 109 115
81 70 76
81 70 76
81 70 76
81 70 76
81 70 76
81 70 76
81 70 76
81 70 76
4 4 4
4 4 4
4 4 4
43 43 43
85 85 85
85 85 85
46 46 46
4 4 4
4 4 4
41 41 41
39 39 39
43 43 43
44 44 44
44 44 44
4 4 4
40 40 40
41 41 41
83 83 83
46 46 46
46 46 46
7 2 12
7 2 12
6 2 13
6 2 13
6 2 13
6 2 13
6 2 13
6 2 13
6 2 13
6 2 13
6 2 13
6 2 13
6 2 13
6 2 13
6 2 13
6 2 13
6 2 13
4 2 9
4 2 9
4 2 9
4 2 9
4 2 9
4 2 9
4 2 9
4 2 9
4 2 9
4 2 9
6 2 6
6 2 13
8 2 11
4 2 8
25 22 29
25 22 29
27 22 27
50 45 50
52 45 48
50 45 50
29 25 29
29 25 29
6 2 6
4 2 8
6 2 6
27 22 27
29 22 25
29 22 25
52 45 48
82 72 79
123 112 117
117 112 117
119 112 114
119 112 114
119 111 114
118 111 114
118 111 114
118 111 114
118 111 113
118 111 113
118 111 113
118 111 113
122 111 115
122 110 114
122 110 114
122 110 114
122 110 114
122 110 114
122 110 114
122 110 114
122 110 114
122 110 114
83 71 75
83 71 75
83 71 75
83 71 75
83 71 75
81 71 76
81 71 76
49 49 49
48 48 48
4 4 4
43 43 43
43 43 43
85 85 85
46 46 46
46 46 46
46 46 46
41 41 41
4 4 4
44 44 44
44 44 44
81 81 81
41 41 41
41 41 41
4 4 4
46 46 46
46 46 46
85 85 85
85 85 85
6 2 13
6 2 13
6 2 13
6 2 13
6 2 13
6 2 13
6 2 13
6 2 13
6 2 13
6 2 13
6 2 13
6 2 13
6 2 13
6 2 13
6 2 13
6 2 13
6 2 13
4 2 9
4 2 9
4 2 9
6 2 6
6 2 6
6 2 6
6 2 6
6 2 6
6 2 6
8 2 11
8 2 11
27 20 30
27 22 27
27 22 27
27 22 27
27 22 27
27 22 27
48 45 52
31 25 27
31 25 27
27 25 31
27 25 31
8 2 4
27 22 27
27 22 27
27 22 27
27 22 27
27 22 27
46 37 43
123 114 120
123 114 120
118 113 118
118 113 118
118 113 118
117 113 117
117 112 117
117 112 117
119 112 114
119 112 114
119 112 114
123 111 116
123 111 115
123 111 115
123 111 115
123 111 115
123 111 115
123 111 115
123 111 115
123 111 115
123 111 115
123 111 115
122 111 115
83 71 75
83 71 75
83 71 75
83 71 75
83 71 75
4 4 4
4 4 4
49 49 49
49 49 49
88 88 88
43 43 43
43 43 43
4 4 4
46 46 46
46 46 46
84 84 84
4 4 4
81 81 81
81 81 81
82 82 82
4 4 4
4 4 4
4 4 4
4 4 4
85 85 85
85 85 85
86 86 86
6 2 13
6 2 13
6 2 13
6 2 13
6 2 13
6 2 13
6 2 13
6 2 13
6 2 13
6 2 13
6 2 13
6 2 13
6 2 13
6 2 13
8 2 11
8 2 11
8 2 11
8 2 11
8 2 11
8 2 11
6 2 6
6 2 6
6 2 6
6 2 6
6 2 6
27 20 30
27 20 30
27 20 30
27 20 30
27 22 27
29 22 25
29 22 25
27 22 27
25 22 29
6 2 6
29 25 29
29 25 29
29 25 29
29 25 29
50 45 50
29 22 25
27 22 27
25 22 29
25 22 29
27 22 27
67 58 64
67 58 64
67 57 64
67 57 64
119 114 119
119 114 119
119 114 119
118 113 118
118 113 118
123 113 119
122 113 119
122 113 119
122 112 119
122 112 119
122 112 118
124 112 116
124 112 116
124 112 116
124 112 116
123 111 116
123 111 115
123 111 115
123 111 115
123 111 115
123 111 115
83 71 76
83 71 75
83 71 75
83 71 75
4 4 4
4 4 4
4 4 4
90 90 90
89 89 89
88 88 88
87 87 87
4 4 4
4 4 4
4 4 4
84 84 84
40 40 40
81 81 81
45 45 45
45 45 45
4 4 4
4 4 4
42 42 42
42 42 42
85 85 85
47 47 47
47 47 47
6 2 13
6 2 13
6 2 13
6 2 13
6 2 13
6 2 13
6 2 13
6 2 13
8 2 11
8 2 11
8 2 11
8 2 11
8 2 11
8 2 11
8 2 11
8 2 11
8 2 11
8 2 11
8 2 11
10 2 10
10 2 10
10 2 10
10 2 10
28 20 28
27 20 30
27 20 30
27 20 30
27 20 30
27 20 30
25 22 29
27 22 27
27 22 27
27 22 27
8 2 4
6 2 6
27 25 31
27 25 31
31 25 27
31 25 27
50 45 50
48 45 52
27 22 27
27 22 27
27 22 27
29 22 25
68 59 65
68 58 65
68 58 65
67 58 64
67 58 64
65 57 65
123 115 123
123 115 123
122 114 122
122 114 122
123 114 120
123 114 120
123 113 120
123 113 119
123 113 119
122 113 119
122 113 119
122 112 119
122 112 119
122 112 118
122 112 118
124 112 116
124 112 116
124 112 116
124 112 116
123 111 116
84 72 76
84 72 76
84 72 76
51 51 51
51 51 51
4 4 4
45 45 45
45 45 45
89 89 89
88 88 88
48 48 48
47 47 47
4 4 4
42 42 42
40 40 40
45 45 45
45 45 45
45 45 45
41 41 41
42 42 42
42 42 42
42 42 42
47 47 47
47 47 47
48 48 48
44 44 44
10 2 10
8 2 11
8 2 11
8 2 11
8 2 11
8 2 11
8 2 11
8 2 11
8 2 11
10 2 10
10 2 10
10 2 10
10 2 10
10 2 10
10 2 10
10 2 10
10 2 10
10 2 10
10 2 10
48 40 48
48 40 48
46 40 49
46 40 49
46 40 49
46 40 49
47 40 50
44 40 52
23 20 34
23 20 34
27 22 27
27 22 27
8 2 4
8 2 4
6 2 6
4 2 8
27 25 31
31 25 27
52 45 48
50 45 50
48 45 52
48 45 52
27 22 27
27 22 27
73 60 62
73 60 62
71 59 63
68 59 65
68 59 65
68 58 65
68 58 65
67 58 64
66 58 66
65 57 65
123 115 123
123 115 123
122 114 122
122 114 122
122 114 122
122 114 122
121 113 121
121 113 121
121 113 121
121 113 121
122 113 119
122 113 119
122 112 119
122 112 119
122 112 119
122 112 118
122 112 118
82 72 78
80 72 80
47 47 47
52 52 52
51 51 51
51 51 51
45 45 45
45 45 45
45 45 45
44 44 44
48 48 48
48 48 48
47 47 47
43 43 43
4 4 4
45 45 45
83 83 83
83 83 83
42 42 42
42 42 42
4 4 4
4 4 4
47 47 47
48 48 48
88 88 88
89 89 89
10 2 10
10 2 10
10 2 10
10 2 10
10 2 10
10 2 10
10 2 10
10 2 10
10 2 10
10 2 10
10 2 10
10 2 10
10 2 10
10 2 10
10 2 10
10 2 10
28 20 28
48 40 48
46 40 49
46 40 49
46 40 49
46 40 49
46 40 49
47 40 50
44 40 52
43 40 54
43 40 54
43 41 54
43 41 54
27 22 27
8 2 4
8 2 4
8 2 4
6 2 6
4 2 8
6 2 6
50 45 50
52 45 48
50 45 50
48 45 52
48 45 52
48 45 52
27 22 27
74 61 63
74 60 63
73 60 62
73 60 62
71 59 63
68 59 65
68 59 65
68 58 65
68 58 65
67 58 64
67 58 64
66 58 66
65 57 65
123 115 123
123 115 123
122 114 122
122 114 122
122 114 122
122 114 122
122 114 122
121 113 121
121 113 121
121 113 121
121 113 121
121 113 121
121 113 121
120 113 120
120 112 120
80 72 80
4 4 4
4 4 4
52 52 52
51 51 51
92 92 92
91 91 91
45 45 45
45 45 45
4 4 4
4 4 4
48 48 48
87 87 87
4 4 4
83 83 83
84 84 84
84 84 84
46 46 46
4 4 4
4 4 4
4 4 4
87 87 87
88 88 88
89 89 89
90 90 90
10 2 10
10 2 10
10 2 10
10 2 10
10 2 10
10 2 10
10 2 10
10 2 10
10 2 10
10 2 10
10 2 10
10 2 10
28 20 28
28 20 28
28 20 28
48 40 48
46 40 49
46 40 49
46 40 49
46 40 49
46 40 49
47 40 50
44 40 52
44 40 52
45 40 51
47 40 50
47 41 50
43 41 54
43 41 54
10 4 13
8 2 4
8 2 4
8 2 4
6 2 6
4 2 8
6 2 6
50 45 50
52 45 48
50 45 50
48 45 52
48 45 52
48 45 52
133 123 130
75 61 64
74 61 63
70 60 67
70 60 67
71 60 65
71 60 64
71 59 63
68 59 65
68 59 65
68 58 65
68 58 65
68 58 65
67 58 64
66 58 66
66 58 66
65 57 65
65 57 65
123 115 123
122 114 122
122 114 122
122 114 122
122 114 122
122 114 122
121 113 121
121 113 121
121 113 121
121 113 121
121 113 121
81 73 81
4 4 4
4 4 4
4 4 4
4 4 4
93 93 93
92 92 92
91 91 91
50 50 50
4 4 4
4 4 4
4 4 4
88 88 88
41 41 41
84 84 84
84 84 84
46 46 46
47 47 47
4 4 4
43 43 43
43 43 43
88 88 88
89 89 89
49 49 49
49 49 49
4 4 4
10 2 10
10 2 10
10 2 10
10 2 10
10 2 10
10 2 10
10 2 10
28 20 28
28 20 28
28 20 28
28 20 28
28 20 28
28 20 28
48 40 48
46 40 49
46 40 49
46 40 49
46 40 49
47 40 50
47 40 50
47 40 50
45 40 51
47 40 50
47 41 50
47 41 50
47 41 50
47 41 50
10 4 13
10 4 13
10 4 13
8 2 4
6 2 6
4 2 8
4 2 8
27 22 27
27 22 27
52 45 48
52 45 48
50 45 50
48 45 52
134 124 131
133 124 130
133 124 130
71 61 68
70 61 67
70 61 67
70 60 67
70 60 67
71 60 65
69 59 66
69 59 66
68 59 65
68 59 65
68 58 65
68 58 65
68 58 65
66 58 66
66 58 66
66 58 66
65 57 65
65 57 65
65 57 65
65 57 65
122 114 122
122 114 122
122 114 122
122 114 122
122 114 122
121 114 121
121 113 121
99 99 99
54 54 54
53 53 53
4 4 4
4 4 4
47 47 47
46 46 46
92 92 92
50 50 50
50 50 50
4 4 4
4 4 4
44 44 44
42 42 42
46 46 46
46 46 46
47 47 47
47 47 47
43 43 43
43 43 43
44 44 44
49 49 49
49 49 49
49 49 49
50 50 50
46 46 46
10 2 10
10 2 10
10 2 10
28 20 28
28 20 28
28 20 28
28 20 28
28 20 28
28 20 28
28 20 28
28 20 28
28 20 28
48 40 48
46 40 49
46 40 49
46 40 49
49 40 47
49 40 47
47 40 50
45 40 51
45 40 51
47 40 50
47 41 50
47 41 50
47 41 50
47 41 50
14 4 9
10 4 13
10 4 13
10 4 13
10 4 13
4 2 8
4 2 8
4 2 8
27 22 27
27 22 27
52 45 48
52 45 48
52 45 48
134 125 131
134 125 131
134 125 131
134 124 131
129 124 134
71 61 68
71 61 68
70 61 67
70 60 67
70 60 67
71 60 65
71 60 64
69 59 66
66 59 68
66 59 68
68 59 65
68 58 65
68 58 65
66 58 66
66 58 66
66 58 66
66 58 66
66 58 66
65 57 65
65 57 65
65 57 65
65 57 65
65 57 65
122 114 122
122 114 122
122 114 122
50 50 50
54 54 54
54 54 54
53 53 53
53 53 53
47 47 47
47 47 47
46 46 46
51 51 51
50 50 50
50 50 50
49 49 49
44 44 44
4 4 4
46 46 46
47 47 47
86 86 86
86 86 86
43 43 43
44 44 44
4 4 4
4 4 4
49 49 49
50 50 50
92 92 92
46 46 46
46 46 46
28 20 28
28 20 28
28 20 28
28 20 28
28 20 28
28 20 28
28 20 28
28 20 28
28 20 28
28 20 28
48 40 48
48 40 48
46 40 49
49 40 47
49 40 47
47 40 50
47 40 50
45 40 51
45 40 52
47 40 50
47 41 50
47 41 50
47 41 50
47 41 50
12 4 11
14 4 9
10 4 13
10 4 13
12 5 15
8 5 19
9 5 17
9 5 17
25 22 29
27 22 27
27 22 27
29 22 25
136 124 128
136 124 128
138 125 127
134 125 131
134 125 131
134 125 131
130 124 135
131 124 133
71 61 68
71 61 68
70 61 67
70 61 67
70 60 67
71 60 65
71 60 65
69 60 66
69 59 66
66 59 68
66 59 68
68 59 65
66 58 66
66 58 66
66 58 66
66 58 66
66 58 66
66 58 66
66 58 66
65 57 65
65 57 65
65 57 65
65 57 65
65 57 65
51 51 51
50 50 50
5 5 5
54 54 54
54 54 54
97 97 97
96 96 96
47 47 47
47 47 47
4 4 4
4 4 4
50 50 50
50 50 50
90 90 90
4 4 4
47 47 47
86 86 86
86 86 86
87 87 87
4 4 4
4 4 4
4 4 4
4 4 4
91 91 91
91 91 91
92 92 92
93 93 93
4 4 4
28 20 28
28 20 28
28 20 28
28 20 28
28 20 28
28 20 28
28 20 28
28 20 28
28 20 28
48 40 48
48 40 48
50 40 46
49 40 47
47 40 50
47 40 50
45 40 51
45 40 51
45 40 52
47 41 50
47 41 50
47 41 50
47 41 50
47 41 50
50 41 48
14 4 9
14 4 9
12 5 15
12 5 15
12 5 15
8 5 19
9 5 17
9 5 17
64 59 71
64 60 72
73 61 65
73 61 65
136 124 128
136 124 129
138 125 127
135 125 132
135 125 132
135 125 132
130 125 135
130 124 135
69 62 71
71 61 68
71 61 68
70 61 67
70 61 67
70 60 67
71 60 65
71 60 65
71 60 64
69 59 66
69 59 66
66 59 68
64 59 69
67 59 67
66 58 66
66 58 66
66 58 66
66 58 66
66 58 66
66 58 66
66 58 66
65 57 65
65 57 65
65 57 65
104 104 104
5 5 5
5 5 5
5 5 5
4 4 4
98 98 98
97 97 97
96 96 96
95 95 95
4 4 4
4 4 4
4 4 4
50 50 50
91 91 91
42 42 42
86 86 86
86 86 86
87 87 87
48 48 48
4 4 4
4 4 4
4 4 4
45 45 45
91 91 91
92 92 92
93 93 93
51 51 51
4 4 4
4 4 4
28 20 28
28 20 28
28 20 28
28 20 28
28 20 28
28 20 28
28 20 28
48 40 48
50 40 46
50 40 46
48 40 48
47 40 50
45 40 51
45 40 51
45 40 52
45 40 52
47 41 50
47 41 50
47 41 50
47 41 50
47 41 50
50 41 48
14 4 9
14 4 9
16 5 11
12 5 15
12 5 15
9 5 17
8 5 19
9 5 17
9 5 17
64 60 72
67 60 70
70 61 67
73 61 65
136 124 128
136 125 129
138 125 128
137 125 130
135 125 132
135 125 132
131 125 136
130 125 135
130 124 135
69 62 71
71 61 68
71 61 68
70 61 67
70 61 67
70 60 67
71 60 65
71 60 65
71 60 65
71 60 64
69 59 66
67 59 67
65 59 69
64 59 69
67 59 67
66 58 66
66 58 66
66 58 66
66 58 66
66 58 66
66 58 66
66 58 66
106 106 106
105 105 105
57 57 57
5 5 5
5 5 5
5 5 5
49 49 49
98 98 98
97 97 97
96 96 96
52 52 52
4 4 4
4 4 4
4 4 4
45 45 45
43 43 43
86 86 86
48 48 48
48 48 48
48 48 48
4 4 4
45 45 45
45 45 45
45 45 45
92 92 92
51 51 51
51 51 51
52 52 52
4 4 4
48 48 48
28 20 28
28 20 28
28 20 28
28 20 28
28 20 28
28 20 28
28 20 28
50 40 46
48 40 48
48 40 48
47 40 50
45 40 51
45 40 51
45 40 52
45 40 52
47 41 50
47 41 50
47 41 50
47 41 50
47 41 50
50 41 48
14 4 9
14 4 9
16 5 11
14 5 12
12 5 15
12 5 15
8 5 19
8 5 19
9 5 17
10 5 17
64 60 72
68 60 68
69 61 69
73 61 65
136 124 128
136 125 129
138 125 128
139 125 128
135 126 132
135 126 132
133 125 134
131 125 136
130 125 135
130 124 135
69 62 71
71 61 68
71 61 68
70 61 67
70 61 67
70 60 67
71 60 65
71 60 65
71 60 65
71 60 64
69 59 66
67 59 67
67 59 67
65 59 69
67 59 67
66 58 66
66 58 66
66 58 66
66 58 66
66 58 66
66 58 66
53 53 53
106 106 106
57 57 57
56 56 56
56 56 56
5 5 5
50 50 50
49 49 49
48 48 48
96 96 96
52 52 52
52 52 52
51 51 51
4 4 4
46 46 46
43 43 43
48 48 48
48 48 48
48 48 48
49 49 49
44 44 44
45 45 45
45 45 45
46 46 46
51 51 51
51 51 51
52 52 52
52 52 52
48 48 48
48 48 48
49 49 49
28 20 28
28 20 28
28 20 28
28 20 28
30 20 26
50 40 46
48 40 48
47 40 50
47 40 50
47 40 50
45 40 51
45 40 52
45 40 52
45 41 52
47 41 50
47 41 50
47 41 50
47 41 50
50 41 48
14 4 9
14 4 9
16 5 11
14 5 12
14 5 12
12 5 15
9 5 17
8 5 19
8 5 19
9 5 17
63 59 71
64 60 72
68 60 68
69 61 69
73 61 65
74 62 66
136 124 129
138 125 128
139 125 128
137 126 130
135 126 132
133 126 134
132 125 134
131 125 135
130 125 135
130 124 135
69 62 70
71 61 68
71 61 68
70 61 67
70 61 67
72 61 65
71 60 65
71 60 65
71 60 65
69 60 66
69 59 66
69 59 66
67 59 67
65 59 69
64 59 69
67 59 67
66 58 66
66 58 66
66 58 66
54 54 54
54 54 54
53 53 53
58 58 58
57 57 57
56 56 56
56 56 56
50 50 50
49 49 49
49 49 49
48 48 48
53 53 53
52 52 52
52 52 52
51 51 51
46 46 46
4 4 4
48 48 48
48 48 48
89 89 89
89 89 89
45 45 45
45 45 45
45 45 45
4 4 4
51 51 51
51 51 51
52 52 52
96 96 96
96 96 96
48 48 48
49 49 49
4 4 4
28 20 28
28 20 28
30 20 26
28 20 28
47 40 50
47 40 50
47 40 50
47 40 50
47 40 50
47 40 50
45 41 52
45 41 52
46 41 52
47 41 50
47 41 50
47 41 50
50 41 48
14 4 9
14 4 9
14 4 9
16 5 11
14 5 12
12 5 15
12 5 15
8 5 19
8 5 19
8 5 19
9 5 17
63 59 71
64 60 72
68 60 68
69 61 69
73 61 65
74 62 66
136 124 128
138 125 127
139 125 128
139 126 128
135 126 132
135 126 132
133 125 134
131 125 136
130 125 135
130 125 135
130 124 135
69 62 70
71 61 68
71 61 68
70 61 67
72 61 66
72 61 65
71 60 65
70 60 66
70 60 66
69 60 66
69 60 66
69 59 66
69 59 65
67 59 67
64 59 69
67 59 67
66 58 66
112 112 112
55 55 55
54 54 54
5 5 5
5 5 5
57 57 57
57 57 57
56 56 56
101 101 101
50 50 50
49 49 49
49 49 49
4 4 4
4 4 4
52 52 52
52 52 52
93 93 93
4 4 4
48 48 48
88 88 88
89 89 89
90 90 90
45 45 45
4 4 4
4 4 4
4 4 4
4 4 4
94 94 94
95 95 95
96 96 96
97 97 97
49 49 49
4 4 4
5 5 5
5 5 5
26 20 30
26 20 30
26 20 30
47 40 50
47 40 50
47 40 50
47 40 50
47 40 50
47 41 50
45 41 52
46 41 52
47 41 50
47 41 50
47 41 50
50 41 48
14 4 9
14 4 9
14 4 9
16 5 11
14 5 12
14 5 12
12 5 15
9 5 17
8 5 19
8 5 19
8 5 19
9 5 17
64 59 71
64 60 72
68 60 68
69 61 69
73 61 65
74 62 66
136 124 128
138 125 127
139 125 128
139 125 128
137 126 130
135 126 132
133 126 134
133 125 134
131 125 136
130 125 135
130 124 135
130 124 135
69 62 70
71 61 68
71 61 68
70 61 67
72 61 66
72 61 65
70 60 67
70 60 66
70 60 66
69 60 66
69 60 66
69 59 66
69 59 66
69 59 65
69 59 65
114 114 114
113 113 113
111 111 111
55 55 55
5 5 5
5 5 5
5 5 5
5 5 5
103 103 103
102 102 102
101 101 101
100 100 100
49 49 49
4 4 4
4 4 4
4 4 4
52 52 52
94 94 94
44 44 44
88 88 88
89 89 89
90 90 90
90 90 90
4 4 4
4 4 4
4 4 4
4 4 4
47 47 47
95 95 95
96 96 96
97 97 97
54 54 54
4 4 4
5 5 5
5 5 5
5 5 5
24 20 32
26 20 30
26 20 30
47 40 50
47 40 50
47 40 50
47 40 50
47 41 50
47 41 50
47 41 50
46 41 52
46 41 52
47 41 50
50 41 48
14 4 9
14 4 9
14 4 9
12 4 11
14 5 12
14 5 12
12 5 15
12 5 15
8 5 19
8 5 19
8 5 19
8 5 19
9 5 17
64 60 71
64 60 72
68 60 68
69 61 69
73 61 65
73 62 66
136 124 128
138 125 127
139 125 128
139 125 128
139 126 128
135 126 132
135 126 132
133 125 134
132 125 134
132 125 134
130 125 135
130 124 135
129 124 134
69 62 70
71 61 68
72 61 66
72 61 66
70 61 67
70 61 67
70 60 67
70 60 66
70 60 66
69 60 66
69 60 66
69 59 66
69 59 66
71 59 63
115 115 115
114 114 114
112 112 112
111 111 111
60 60 60
5 5 5
5 5 5
5 5 5
52 52 52
103 103 103
102 102 102
101 101 101
100 100 100
4 4 4
4 4 4
4 4 4
4 4 4
47 47 47
44 44 44
89 89 89
89 89 89
49 49 49
50 50 50
4 4 4
4 4 4
4 4 4
47 47 47
47 47 47
96 96 96
96 96 96
53 53 53
54 54 54
4 4 4
5 5 5
50 50 50
51 51 51
51 51 51
26 20 30
26 20 30
47 40 50
47 40 50
47 40 50
47 41 50
47 41 50
47 41 50
47 41 50
47 41 50
46 41 52
47 41 50
12 4 11
14 4 9
14 4 9
12 4 11
14 5 12
14 5 12
14 5 12
12 5 15
9 5 17
8 5 19
8 5 19
8 5 19
8 5 19
62 59 73
64 60 72
64 60 72
68 60 68
69 61 69
73 61 65
73 62 66
75 62 64
138 125 127
138 125 128
139 125 128
139 125 128
137 126 130
135 126 132
133 125 134
132 125 134
132 125 134
132 125 134
130 125 135
130 124 135
131 124 133
71 61 68
72 61 66
71 61 67
71 61 67
70 61 67
70 61 67
70 60 67
70 60 66
70 60 66
69 60 66
69 60 66
69 59 66
59 59 59
58 58 58
57 57 57
113 113 113
111 111 111
60 60 60
60 60 60
5 5 5
5 5 5
52 52 52
52 52 52
102 102 102
101 101 101
100 100 100
54 54 54
54 54 54
4 4 4
4 4 4
47 47 47
44 44 44
89 89 89
49 49 49
50 50 50
50 50 50
50 50 50
46 46 46
47 47 47
47 47 47
47 47 47
96 96 96
53 53 53
54 54 54
54 54 54
5 5 5
50 50 50
51 51 51
51 51 51
52 52 52
105 105 105
26 20 30
47 40 50
47 41 50
47 41 50
47 41 50
47 41 50
47 41 50
47 41 50
47 41 51
47 41 51
11 4 12
12 4 11
12 4 11
12 4 11
12 4 11
14 5 12
14 5 12
12 5 15
12 5 15
8 5 19
8 5 19
8 5 19
8 5 19
8 5 19
62 59 73
64 60 72
64 60 72
68 60 68
69 61 69
73 61 65
73 61 66
75 62 64
138 124 127
138 125 127
139 125 128
139 125 128
139 125 128
135 126 132
135 125 132
133 125 134
132 125 134
132 125 134
132 125 133
132 124 133
131 124 133
133 124 131
71 61 68
71 61 68
71 61 67
70 61 67
70 61 67
70 60 67
70 60 67
70 60 66
70 60 66
69 60 66
6 6 6
59 59 59
58 58 58
57 57 57
57 57 57
112 112 112
61 61 61
60 60 60
59 59 59
5 5 5
53 53 53
52 52 52
51 51 51
51 51 51
55 55 55
55 55 55
54 54 54
54 54 54
4 4 4
48 48 48
44 44 44
49 49 49
50 50 50
50 50 50
50 50 50
93 93 93
46 46 46
47 47 47
47 47 47
48 48 48
53 53 53
53 53 53
54 54 54
54 54 54
100 100 100
50 50 50
51 51 51
52 52 52
52 52 52
58 58 58
59 59 59
26 20 30
47 41 50
47 41 50
47 41 50
47 41 50
47 41 50
47 41 51
47 41 51
50 41 48
14 4 9
12 4 11
12 4 11
12 4 11
14 5 12
14 5 12
14 5 12
12 5 15
9 5 17
8 5 19
8 5 19
8 5 19
8 5 19
8 5 19
62 59 73
62 60 73
66 60 70
68 60 68
69 61 69
71 61 67
75 61 64
75 62 64
138 124 127
138 125 127
138 125 128
139 125 128
139 125 128
137 125 130
135 125 132
133 125 134
132 125 134
132 125 134
132 125 134
132 125 133
131 124 133
130 124 134
69 62 70
71 61 68
71 61 68
71 61 67
70 61 67
70 61 67
70 60 67
70 60 67
70 60 66
68 68 68
67 67 67
60 60 60
59 59 59
58 58 58
57 57 57
5 5 5
61 61 61
60 60 60
60 60 60
59 59 59
53 53 53
52 52 52
52 52 52
51 51 51
5 5 5
55 55 55
55 55 55
54 54 54
54 54 54
48 48 48
4 4 4
49 49 49
50 50 50
50 50 50
92 92 92
93 93 93
47 47 47
47 47 47
4 4 4
4 4 4
53 53 53
54 54 54
54 54 54
100 100 100
101 101 101
51 51 51
51 51 51
5 5 5
5 5 5
58 58 58
59 59 59
60 60 60
47 41 50
47 41 50
47 41 50
47 41 50
47 41 50
47 41 51
50 41 48
14 4 9
14 4 9
14 4 9
14 4 9
12 4 11
14 5 12
14 5 12
12 5 15
12 5 15
9 5 17
8 5 19
8 5 19
8 5 19
8 5 19
8 5 19
62 59 73
62 60 73
65 60 71
68 60 68
69 61 69
72 61 66
75 61 64
75 62 64
138 124 127
138 125 127
138 125 127
139 125 128
139 125 128
137 125 130
135 125 132
135 125 132
132 125 134
132 125 134
132 125 134
130 125 135
130 124 135
130 124 134
129 124 134
69 61 70
71 61 68
71 61 67
71 61 67
70 61 67
70 61 67
70 60 67
69 69 69
68 68 68
67 67 67
120 120 120
119 119 119
58 58 58
57 57 57
5 5 5
5 5 5
61 61 61
60 60 60
59 59 59
107 107 107
106 106 106
52 52 52
51 51 51
5 5 5
5 5 5
55 55 55
54 54 54
54 54 54
97 97 97
4 4 4
50 50 50
91 91 91
92 92 92
93 93 93
94 94 94
47 47 47
4 4 4
4 4 4
4 4 4
53 53 53
54 54 54
99 99 99
100 100 100
101 101 101
51 51 51
5 5 5
5 5 5
5 5 5
5 5 5
59 59 59
109 109 109
111 111 111
47 41 50
47 41 50
47 41 50
47 41 51
50 41 48
14 4 9
14 4 9
14 4 9
14 4 9
14 4 9
14 4 9
15 5 11
14 5 12
12 5 15
9 5 17
8 5 19
8 5 19
8 5 19
8 5 19
8 5 19
8 5 19
62 59 73
62 60 73
65 60 71
67 60 70
70 61 67
72 61 66
75 61 64
75 62 64
138 124 127
138 124 127
138 125 127
138 125 128
139 125 128
139 125 128
137 125 130
135 125 132
132 125 134
131 125 135
131 125 135
130 125 135
130 124 135
130 124 134
130 124 134
129 124 134
69 61 70
71 61 68
71 61 67
70 61 67
70 61 67
6 6 6
6 6 6
68 68 68
123 123 123
121 121 121
119 119 119
118 118 118
58 58 58
5 5 5
5 5 5
5 5 5
60 60 60
60 60 60
108 108 108
106 106 106
105 105 105
52 52 52
5 5 5
5 5 5
5 5 5
5 5 5
54 54 54
98 98 98
4 4 4
91 91 91
92 92 92
93 93 93
93 93 93
94 94 94
4 4 4
4 4 4
4 4 4
4 4 4
49 49 49
99 99 99
100 100 100
101 101 101
102 102 102
5 5 5
5 5 5
5 5 5
5 5 5
5 5 5
109 109 109
110 110 110
111 111 111
113 113 113
47 41 50
47 41 51
50 41 48
14 4 9
14 4 9
14 4 9
14 4 9
14 4 9
14 4 9
14 4 9
15 5 11
13 5 13
13 5 13
9 5 17
8 5 19
8 5 19
8 5 19
8 5 19
8 5 19
8 5 19
62 59 73
62 60 73
66 60 70
68 60 68
69 61 69
71 61 67
75 61 64
75 62 64
137 124 127
138 124 127
138 125 127
138 125 127
138 125 128
139 125 128
137 125 129
133 125 133
133 125 133
131 125 135
131 125 135
130 125 135
130 125 135
130 124 135
130 124 134
129 124 134
129 123 134
69 61 70
71 61 67
71 61 67
6 6 6
6 6 6
6 6 6
6 6 6
123 123 123
122 122 122
120 120 120
118 118 118
117 117 117
5 5 5
5 5 5
5 5 5
5 5 5
55 55 55
108 108 108
107 107 107
106 106 106
105 105 105
5 5 5
5 5 5
5 5 5
5 5 5
5 5 5
99 99 99
45 45 45
92 92 92
92 92 92
93 93 93
51 51 51
52 52 52
4 4 4
4 4 4
4 4 4
49 49 49
49 49 49
99 99 99
100 100 100
101 101 101
56 56 56
5 5 5
5 5 5
5 5 5
5 5 5
54 54 54
109 109 109
110 110 110
112 112 112
62 62 62
63 63 63
5 5 5
14 4 9
14 4 9
14 4 9
14 4 9
14 4 9
14 4 9
14 4 9
14 4 9
15 5 11
13 5 13
13 5 13
9 5 17
9 5 17
9 5 17
9 5 17
9 5 17
9 5 17
10 5 17
64 59 71
64 60 72
66 60 70
68 60 68
69 61 69
71 61 67
73 61 65
73 61 66
136 124 128
136 124 128
136 125 129
137 125 129
137 125 129
137 125 129
137 125 129
133 125 133
133 125 133
131 125 135
131 125 135
130 125 135
130 125 135
130 124 135
130 124 134
129 124 134
129 123 134
129 123 133
136 136 136
73 73 73
72 72 72
6 6 6
6 6 6
6 6 6
62 62 62
122 122 122
121 121 121
119 119 119
117 117 117
63 63 63
5 5 5
5 5 5
5 5 5
55 55 55
54 54 54
108 108 108
107 107 107
105 105 105
57 57 57
57 57 57
5 5 5
5 5 5
5 5 5
49 49 49
45 45 45
92 92 92
93 93 93
51 51 51
52 52 52
52 52 52
4 4 4
4 4 4
48 48 48
49 49 49
49 49 49
100 100 100
101 101 101
56 56 56
56 56 56
57 57 57
5 5 5
5 5 5
53 53 53
54 54 54
110 110 110
111 111 111
61 61 61
62 62 62
63 63 63
5 5 5
5 5 5
14 4 9
14 4 9
14 4 9
14 4 9
14 4 9
14 4 9
14 4 9
13 5 13
13 5 13
11 5 16
9 5 17
9 5 17
9 5 17
9 5 17
9 5 17
9 5 17
63 59 71
64 60 71
64 60 72
66 60 70
68 60 68
69 61 69
71 61 67
73 61 65
73 61 65
74 62 66
136 124 128
136 124 128
137 125 129
137 125 129
137 125 129
137 125 129
135 125 131
133 125 133
133 125 133
131 125 135
130 125 135
130 125 135
130 124 135
130 124 134
130 124 134
129 123 134
138 138 138
136 136 136
73 73 73
72 72 72
71 71 71
6 6 6
6 6 6
62 62 62
61 61 61
121 121 121
120 120 120
65 65 65
64 64 64
63 63 63
5 5 5
5 5 5
55 55 55
55 55 55
54 54 54
107 107 107
106 106 106
57 57 57
57 57 57
56 56 56
5 5 5
5 5 5
50 50 50
46 46 46
92 92 92
51 51 51
51 51 51
52 52 52
52 52 52
4 4 4
48 48 48
49 49 49
49 49 49
49 49 49
100 100 100
55 55 55
56 56 56
57 57 57
57 57 57
5 5 5
53 53 53
54 54 54
54 54 54
55 55 55
61 61 61
62 62 62
62 62 62
63 63 63
64 64 64
59 59 59
60 60 60
60 60 60
14 4 9
14 4 9
14 4 9
14 4 9
12 4 12
13 5 13
13 5 13
11 5 16
9 5 17
9 5 17
9 5 17
9 5 17
9 5 17
9 5 17
63 59 71
64 60 71
64 60 72
66 60 70
68 60 68
69 61 69
71 61 67
73 61 65
73 61 65
73 62 66
136 124 128
136 124 128
136 124 129
137 125 129
137 125 129
137 125 129
135 125 131
133 125 133
133 125 133
133 125 133
130 125 135
130 125 135
130 124 135
130 124 134
71 71 71
70 70 70
69 69 69
75 75 75
74 74 74
73 73 73
71 71 71
70 70 70
63 63 63
62 62 62
61 61 61
61 61 61
120 120 120
65 65 65
64 64 64
63 63 63
63 63 63
5 5 5
55 55 55
55 55 55
54 54 54
54 54 54
107 107 107
58 58 58
57 57 57
57 57 57
56 56 56
5 5 5
50 50 50
