P3
64 36
255
0 0 0
0 0 0
0 0 0
0 0 0
0 0 0
0 0 0
0 0 0
0 0 0
0 0 0
0 0 0
0 0 0
0 0 0
0 0 0
0 0 0
0 0 0
0 0 0
0 0 0
0 0 0
0 0 0
0 0 0
0 0 0
0 0 0
0 0 0
0 0 0
0 0 0
120 0 120
235 0 5
120 0 120
120 0 120
5 0 235
5 0 235
120 0 120
120 0 120
235 0 5
235 0 5
120 0 120
120 0 120
5 0 235
120 0 120
0 0 0
0 0 0
0 0 0
0 0 0
0 0 0
0 0 0
0 0 0
0 0 0
0 0 0
0 0 0
0 0 0
0 0 0
0 0 0
0 0 0
0 0 0
0 0 0
0 0 0
0 0 0
0 0 0
0 0 0
0 0 0
0 0 0
0 0 0
0 0 0
0 0 0
0 0 0
0 0 0
0 0 0
0 0 0
0 0 0
0 0 0
0 0 0
0 0 0
0 0 0
0 0 0
0 0 0
0 0 0
0 0 0
0 0 0
0 0 0
0 0 0
0 0 0
0 0 0
0 0 0
0 0 0
0 0 0
0 0 0
0 0 0
0 0 0
0 0 0
235 0 5
235 0 5
114 0 126
120 0 120
5 0 235
120 0 120
120 0 120
120 0 120
120 0 120
235 0 5
120 0 120
126 0 114
5 0 235
5 0 235
0 0 0
0 0 0
0 0 0
0 0 0
0 0 0
0 0 0
0 0 0
0 0 0
0 0 0
0 0 0
0 0 0
0 0 0
0 0 0
0 0 0
0 0 0
0 0 0
0 0 0
0 0 0
0 0 0
0 0 0
0 0 0
0 0 0
0 0 0
0 0 0
0 0 0
0 0 0
0 0 0
0 0 0
0 0 0
0 0 0
0 0 0
0 0 0
0 0 0
0 0 0
0 0 0
0 0 0
0 0 0
0 0 0
0 0 0
0 0 0
0 0 0
0 0 0
0 0 0
0 0 0
0 0 0
0 0 0
0 0 0
0 0 0
0 0 0
235 0 5
235 0 5
229 0 11
114 0 126
120 0 120
5 0 235
120 0 120
120 0 120
120 0 120
120 0 120
235 0 5
120 0 120
126 0 114
11 0 229
5 0 235
5 0 235
0 0 0
0 0 0
0 0 0
0 0 0
0 0 0
0 0 0
0 0 0
0 0 0
0 0 0
0 0 0
0 0 0
0 0 0
0 0 0
0 0 0
0 0 0
0 0 0
0 0 0
0 0 0
0 0 0
0 0 0
0 0 0
0 0 0
0 0 0
0 0 0
0 0 0
0 0 0
0 0 0
0 0 0
0 0 0
0 0 0
0 0 0
0 0 0
0 0 0
0 0 0
0 0 0
0 0 0
0 0 0
0 0 0
0 0 0
0 0 0
0 0 0
0 0 0
0 0 0
0 0 0
0 0 0
0 0 0
0 0 0
0 0 0
120 0 120
229 0 11
229 0 11
114 0 126
0 0 240
5 0 235
120 0 120
120 0 120
120 0 120
120 0 120
235 0 5
240 0 0
126 0 114
11 0 229
11 0 229
120 0 120
0 0 0
0 0 0
0 0 0
0 0 0
0 0 0
0 0 0
0 0 0
0 0 0
0 0 0
0 0 0
0 0 0
0 0 0
0 0 0
0 0 0
0 0 0
0 0 0
0 0 0
0 0 0
0 0 0
0 0 0
0 0 0
0 0 0
0 0 0
0 0 0
0 0 0
0 0 0
0 0 0
0 0 0
0 0 0
0 0 0
0 0 0
0 0 0
0 0 0
0 0 0
0 0 0
0 0 0
0 0 0
0 0 0
0 0 0
0 0 0
0 0 0
0 0 0
0 0 0
0 0 0
0 0 0
0 0 0
0 0 0
0 0 0
120 0 120
229 0 11
229 0 11
114 0 126
0 0 240
5 0 235
120 0 120
120 0 120
120 0 120
120 0 120
235 0 5
240 0 0
126 0 114
11 0 229
11 0 229
120 0 120
0 0 0
0 0 0
0 0 0
0 0 0
0 0 0
0 0 0
0 0 0
0 0 0
0 0 0
0 0 0
0 0 0
0 0 0
0 0 0
0 0 0
0 0 0
0 0 0
0 0 0
0 0 0
0 0 0
0 0 0
0 0 0
0 0 0
0 0 0
0 0 0
0 0 0
0 0 0
0 0 0
0 0 0
0 0 0
0 0 0
0 0 0
0 0 0
0 0 0
0 0 0
0 0 0
0 0 0
0 0 0
0 0 0
0 0 0
0 0 0
0 0 0
0 0 0
0 0 0
0 0 0
0 0 0
0 0 0
0 0 0
0 0 0
114 0 126
229 0 11
229 0 11
114 0 126
0 0 240
5 0 235
120 0 120
120 0 120
120 0 120
120 0 120
235 0 5
240 0 0
126 0 114
11 0 229
11 0 229
126 0 114
0 0 0
0 0 0
0 0 0
0 0 0
0 0 0
0 0 0
0 0 0
0 0 0
0 0 0
0 0 0
0 0 0
0 0 0
0 0 0
0 0 0
0 0 0
0 0 0
0 0 0
0 0 0
0 0 0
0 0 0
0 0 0
0 0 0
0 0 0
0 0 0
0 0 0
0 0 0
0 0 0
0 0 0
0 0 0
0 0 0
0 0 0
0 0 0
0 0 0
0 0 0
0 0 0
0 0 0
0 0 0
0 0 0
0 0 0
0 0 0
0 0 0
0 0 0
0 0 0
0 0 0
0 0 0
0 0 0
0 0 0
0 0 0
114 0 126
229 0 11
229 0 11
114 0 126
0 0 240
5 0 235
120 0 120
120 0 120
120 0 120
120 0 120
235 0 5
240 0 0
126 0 114
11 0 229
11 0 229
126 0 114
0 0 0
0 0 0
0 0 0
0 0 0
0 0 0
0 0 0
0 0 0
0 0 0
0 0 0
0 0 0
0 0 0
0 0 0
0 0 0
0 0 0
0 0 0
0 0 0
0 0 0
0 0 0
0 0 0
0 0 0
0 0 0
0 0 0
0 0 0
0 0 0
0 0 0
0 0 0
0 0 0
0 0 0
0 0 0
0 0 0
0 0 0
0 0 0
0 0 0
0 0 0
0 0 0
0 0 0
0 0 0
0 0 0
0 0 0
0 0 0
0 0 0
0 0 0
0 0 0
0 0 0
0 0 0
0 0 0
0 0 0
0 0 0
114 0 126
229 0 11
229 0 11
114 0 126
0 0 240
5 0 235
120 0 120
120 0 120
120 0 120
120 0 120
235 0 5
240 0 0
126 0 114
11 0 229
11 0 229
126 0 114
0 0 0
0 0 0
0 0 0
0 0 0
0 0 0
0 0 0
0 0 0
0 0 0
0 0 0
0 0 0
0 0 0
0 0 0
0 0 0
0 0 0
0 0 0
0 0 0
0 0 0
0 0 0
0 0 0
0 0 0
0 0 0
0 0 0
0 0 0
0 0 0
0 0 0
0 0 0
0 0 0
0 0 0
0 0 0
0 0 0
0 0 0
0 0 0
0 0 0
0 0 0
0 0 0
0 0 0
0 0 0
0 0 0
0 0 0
0 0 0
0 0 0
0 0 0
0 0 0
0 0 0
0 0 0
0 0 0
0 0 0
0 0 0
114 0 126
229 0 11
229 0 11
114 0 126
0 0 240
5 0 235
120 0 120
120 0 120
120 0 120
120 0 120
235 0 5
240 0 0
126 0 114
11 0 229
11 0 229
126 0 114
0 0 0
0 0 0
0 0 0
0 0 0
0 0 0
0 0 0
0 0 0
0 0 0
0 0 0
0 0 0
0 0 0
0 0 0
0 0 0
0 0 0
0 0 0
0 0 0
0 0 0
0 0 0
0 0 0
0 0 0
0 0 0
0 0 0
0 0 0
0 0 0
0 0 0
0 0 0
0 0 0
0 0 0
0 0 0
0 0 0
0 0 0
0 0 0
0 0 0
0 0 0
0 0 0
0 0 0
0 0 0
0 0 0
0 0 0
0 0 0
0 0 0
0 0 0
0 0 0
0 0 0
0 0 0
0 0 0
0 0 0
114 0 126
229 0 11
229 0 11
229 0 11
114 0 126
0 0 240
0 0 240
120 0 120
120 0 120
120 0 120
120 0 120
240 0 0
240 0 0
126 0 114
11 0 229
11 0 229
11 0 229
126 0 114
0 0 0
0 0 0
0 0 0
0 0 0
0 0 0
0 0 0
0 0 0
0 0 0
0 0 0
0 0 0
0 0 0
0 0 0
0 0 0
0 0 0
0 0 0
0 0 0
0 0 0
0 0 0
0 0 0
0 0 0
0 0 0
0 0 0
0 0 0
0 0 0
0 0 0
0 0 0
0 0 0
0 0 0
0 0 0
0 0 0
0 0 0
0 0 0
0 0 0
0 0 0
0 0 0
0 0 0
0 0 0
0 0 0
0 0 0
0 0 0
0 0 0
0 0 0
0 0 0
0 0 0
0 0 0
0 0 0
114 0 126
229 0 11
229 0 11
114 0 126
114 0 126
0 0 240
0 0 240
120 0 120
120 0 120
120 0 120
120 0 120
240 0 0
240 0 0
126 0 114
126 0 114
11 0 229
11 0 229
126 0 114
0 0 0
0 0 0
0 0 0
0 0 0
0 0 0
0 0 0
0 0 0
0 0 0
0 0 0
0 0 0
0 0 0
0 0 0
0 0 0
0 0 0
0 0 0
0 0 0
0 0 0
0 0 0
0 0 0
0 0 0
0 0 0
0 0 0
0 0 0
0 0 0
0 0 0
0 0 0
0 0 0
0 0 0
0 0 0
0 0 0
0 0 0
0 0 0
0 0 0
0 0 0
0 0 0
0 0 0
0 0 0
0 0 0
0 0 0
0 0 0
0 0 0
0 0 0
0 0 0
0 0 0
0 0 0
0 0 0
114 0 126
229 0 11
229 0 11
114 0 126
114 0 126
0 0 240
0 0 240
120 0 120
120 0 120
120 0 120
120 0 120
240 0 0
240 0 0
126 0 114
126 0 114
11 0 229
11 0 229
126 0 114
0 0 0
0 0 0
0 0 0
0 0 0
0 0 0
0 0 0
0 0 0
0 0 0
0 0 0
0 0 0
0 0 0
0 0 0
0 0 0
0 0 0
0 0 0
0 0 0
0 0 0
0 0 0
0 0 0
0 0 0
0 0 0
0 0 0
0 0 0
0 0 0
0 0 0
0 0 0
0 0 0
0 0 0
0 0 0
0 0 0
0 0 0
0 0 0
0 0 0
0 0 0
0 0 0
0 0 0
0 0 0
0 0 0
0 0 0
0 0 0
0 0 0
0 0 0
0 0 0
0 0 0
0 0 0
0 0 0
114 0 126
235 0 5
235 0 5
114 0 126
114 0 126
0 0 240
0 0 240
120 0 120
120 0 120
120 0 120
120 0 120
240 0 0
240 0 0
126 0 114
126 0 114
5 0 235
5 0 235
126 0 114
0 0 0
0 0 0
0 0 0
0 0 0
0 0 0
0 0 0
0 0 0
0 0 0
0 0 0
0 0 0
0 0 0
0 0 0
0 0 0
0 0 0
0 0 0
0 0 0
0 0 0
0 0 0
0 0 0
0 0 0
0 0 0
0 0 0
0 0 0
0 0 0
0 0 0
0 0 0
0 0 0
0 0 0
0 0 0
0 0 0
0 0 0
0 0 0
0 0 0
0 0 0
0 0 0
0 0 0
0 0 0
0 0 0
0 0 0
0 0 0
0 0 0
0 0 0
0 0 0
0 0 0
0 0 0
0 0 0
120 0 120
235 0 5
235 0 5
114 0 126
114 0 126
0 0 240
0 0 240
120 0 120
120 0 120
120 0 120
120 0 120
240 0 0
240 0 0
126 0 114
126 0 114
5 0 235
5 0 235
120 0 120
0 0 0
0 0 0
0 0 0
0 0 0
0 0 0
0 0 0
0 0 0
0 0 0
0 0 0
0 0 0
0 0 0
0 0 0
0 0 0
0 0 0
0 0 0
0 0 0
0 0 0
0 0 0
0 0 0
0 0 0
0 0 0
0 0 0
0 0 0
0 0 0
0 0 0
0 0 0
0 0 0
0 0 0
0 0 0
0 0 0
0 0 0
0 0 0
0 0 0
0 0 0
0 0 0
0 0 0
0 0 0
0 0 0
0 0 0
0 0 0
0 0 0
0 0 0
0 0 0
0 0 0
0 0 0
0 0 0
120 0 120
235 0 5
235 0 5
114 0 126
114 0 126
0 0 240
0 0 240
120 0 120
120 0 120
120 0 120
120 0 120
240 0 0
240 0 0
126 0 114
126 0 114
5 0 235
5 0 235
120 0 120
0 0 0
0 0 0
0 0 0
0 0 0
0 0 0
0 0 0
0 0 0
0 0 0
0 0 0
0 0 0
0 0 0
0 0 0
0 0 0
0 0 0
0 0 0
0 0 0
0 0 0
0 0 0
0 0 0
0 0 0
0 0 0
0 0 0
0 0 0
0 0 0
0 0 0
0 0 0
0 0 0
0 0 0
0 0 0
0 0 0
0 0 0
0 0 0
0 0 0
0 0 0
0 0 0
0 0 0
0 0 0
0 0 0
0 0 0
0 0 0
0 0 0
0 0 0
0 0 0
0 0 0
0 0 0
114 0 126
120 0 120
235 0 5
235 0 5
114 0 126
114 0 126
0 0 240
0 0 240
120 0 120
120 0 120
120 0 120
120 0 120
240 0 0
240 0 0
126 0 114
126 0 114
5 0 235
5 0 235
120 0 120
126 0 114
0 0 0
0 0 0
0 0 0
0 0 0
0 0 0
0 0 0
0 0 0
0 0 0
0 0 0
0 0 0
0 0 0
0 0 0
0 0 0
0 0 0
0 0 0
0 0 0
0 0 0
0 0 0
0 0 0
0 0 0
0 0 0
0 0 0
0 0 0
0 0 0
0 0 0
0 0 0
0 0 0
0 0 0
0 0 0
0 0 0
0 0 0
0 0 0
0 0 0
0 0 0
0 0 0
0 0 0
0 0 0
0 0 0
0 0 0
0 0 0
0 0 0
0 0 0
0 0 0
0 0 0
114 0 126
235 0 5
235 0 5
235 0 5
114 0 126
114 0 126
0 0 240
0 0 240
120 0 120
120 0 120
120 0 120
120 0 120
240 0 0
240 0 0
126 0 114
126 0 114
5 0 235
5 0 235
5 0 235
126 0 114
0 0 0
0 0 0
0 0 0
0 0 0
0 0 0
0 0 0
0 0 0
0 0 0
0 0 0
0 0 0
0 0 0
0 0 0
0 0 0
0 0 0
0 0 0
0 0 0
0 0 0
0 0 0
0 0 0
0 0 0
0 0 0
0 0 0
0 0 0
0 0 0
0 0 0
0 0 0
0 0 0
0 0 0
0 0 0
0 0 0
0 0 0
0 0 0
0 0 0
0 0 0
0 0 0
0 0 0
0 0 0
0 0 0
0 0 0
0 0 0
0 0 0
0 0 0
0 0 0
0 0 0
120 0 120
235 0 5
235 0 5
235 0 5
120 0 120
0 0 240
0 0 240
0 0 240
120 0 120
120 0 120
120 0 120
120 0 120
240 0 0
240 0 0
240 0 0
120 0 120
5 0 235
5 0 235
5 0 235
120 0 120
0 0 0
0 0 0
0 0 0
0 0 0
0 0 0
0 0 0
0 0 0
0 0 0
0 0 0
0 0 0
0 0 0
0 0 0
0 0 0
0 0 0
0 0 0
0 0 0
0 0 0
0 0 0
0 0 0
0 0 0
0 0 0
0 0 0
0 0 0
0 0 0
0 0 0
0 0 0
0 0 0
0 0 0
0 0 0
0 0 0
0 0 0
0 0 0
0 0 0
0 0 0
0 0 0
0 0 0
0 0 0
0 0 0
0 0 0
0 0 0
0 0 0
0 0 0
0 0 0
0 0 0
120 0 120
235 0 5
235 0 5
235 0 5
120 0 120
0 0 240
0 0 240
0 0 240
120 0 120
120 0 120
120 0 120
120 0 120
240 0 0
240 0 0
240 0 0
120 0 120
5 0 235
5 0 235
5 0 235
120 0 120
0 0 0
0 0 0
0 0 0
0 0 0
0 0 0
0 0 0
0 0 0
0 0 0
0 0 0
0 0 0
0 0 0
0 0 0
0 0 0
0 0 0
0 0 0
0 0 0
0 0 0
0 0 0
0 0 0
0 0 0
0 0 0
0 0 0
0 0 0
0 0 0
0 0 0
0 0 0
0 0 0
0 0 0
0 0 0
0 0 0
0 0 0
0 0 0
0 0 0
0 0 0
0 0 0
0 0 0
0 0 0
0 0 0
0 0 0
0 0 0
0 0 0
0 0 0
0 0 0
0 0 0
120 0 120
235 0 5
235 0 5
235 0 5
120 0 120
0 0 240
0 0 240
0 0 240
120 0 120
120 0 120
120 0 120
120 0 120
240 0 0
240 0 0
240 0 0
120 0 120
5 0 235
5 0 235
5 0 235
120 0 120
0 0 0
0 0 0
0 0 0
0 0 0
0 0 0
0 0 0
0 0 0
0 0 0
0 0 0
0 0 0
0 0 0
0 0 0
0 0 0
0 0 0
0 0 0
0 0 0
0 0 0
0 0 0
0 0 0
0 0 0
0 0 0
0 0 0
0 0 0
0 0 0
0 0 0
0 0 0
0 0 0
0 0 0
0 0 0
0 0 0
0 0 0
0 0 0
0 0 0
0 0 0
0 0 0
0 0 0
0 0 0
0 0 0
0 0 0
0 0 0
0 0 0
0 0 0
0 0 0
0 0 0
120 0 120
235 0 5
235 0 5
120 0 120
120 0 120
0 0 240
0 0 240
0 0 240
120 0 120
120 0 120
120 0 120
120 0 120
240 0 0
240 0 0
240 0 0
120 0 120
120 0 120
5 0 235
5 0 235
120 0 120
0 0 0
0 0 0
0 0 0
0 0 0
0 0 0
0 0 0
0 0 0
0 0 0
0 0 0
0 0 0
0 0 0
0 0 0
0 0 0
0 0 0
0 0 0
0 0 0
0 0 0
0 0 0
0 0 0
0 0 0
0 0 0
0 0 0
0 0 0
0 0 0
0 0 0
0 0 0
0 0 0
0 0 0
0 0 0
0 0 0
0 0 0
0 0 0
0 0 0
0 0 0
0 0 0
0 0 0
0 0 0
0 0 0
0 0 0
0 0 0
0 0 0
0 0 0
0 0 0
229 0 11
120 0 120
235 0 5
235 0 5
120 0 120
120 0 120
0 0 240
0 0 240
0 0 240
120 0 120
120 0 120
120 0 120
120 0 120
240 0 0
240 0 0
240 0 0
120 0 120
120 0 120
5 0 235
5 0 235
120 0 120
11 0 229
0 0 0
0 0 0
0 0 0
0 0 0
0 0 0
0 0 0
0 0 0
0 0 0
0 0 0
0 0 0
0 0 0
0 0 0
0 0 0
0 0 0
0 0 0
0 0 0
0 0 0
0 0 0
0 0 0
0 0 0
0 0 0
0 0 0
0 0 0
0 0 0
0 0 0
0 0 0
0 0 0
0 0 0
0 0 0
0 0 0
0 0 0
0 0 0
0 0 0
0 0 0
0 0 0
0 0 0
0 0 0
0 0 0
0 0 0
0 0 0
0 0 0
0 0 0
120 0 120
120 0 120
235 0 5
235 0 5
120 0 120
120 0 120
0 0 240
0 0 240
0 0 240
120 0 120
120 0 120
120 0 120
120 0 120
240 0 0
240 0 0
240 0 0
120 0 120
120 0 120
5 0 235
5 0 235
120 0 120
120 0 120
0 0 0
0 0 0
0 0 0
0 0 0
0 0 0
0 0 0
0 0 0
0 0 0
0 0 0
0 0 0
0 0 0
0 0 0
0 0 0
0 0 0
0 0 0
0 0 0
0 0 0
0 0 0
0 0 0
0 0 0
0 0 0
0 0 0
0 0 0
0 0 0
0 0 0
0 0 0
0 0 0
0 0 0
0 0 0
0 0 0
0 0 0
0 0 0
0 0 0
0 0 0
0 0 0
0 0 0
0 0 0
0 0 0
0 0 0
0 0 0
0 0 0
0 0 0
120 0 120
235 0 5
235 0 5
235 0 5
120 0 120
120 0 120
0 0 240
0 0 240
0 0 240
120 0 120
120 0 120
120 0 120
120 0 120
240 0 0
240 0 0
240 0 0
120 0 120
120 0 120
5 0 235
5 0 235
5 0 235
120 0 120
0 0 0
0 0 0
0 0 0
0 0 0
0 0 0
0 0 0
0 0 0
0 0 0
0 0 0
0 0 0
0 0 0
0 0 0
0 0 0
0 0 0
0 0 0
0 0 0
0 0 0
0 0 0
0 0 0
0 0 0
0 0 0
0 0 0
0 0 0
0 0 0
0 0 0
0 0 0
0 0 0
0 0 0
0 0 0
0 0 0
0 0 0
0 0 0
0 0 0
0 0 0
0 0 0
0 0 0
0 0 0
0 0 0
0 0 0
0 0 0
0 0 0
0 0 0
120 0 120
235 0 5
235 0 5
235 0 5
120 0 120
120 0 120
0 0 240
0 0 240
0 0 240
120 0 120
120 0 120
120 0 120
120 0 120
240 0 0
240 0 0
240 0 0
120 0 120
120 0 120
5 0 235
5 0 235
5 0 235
120 0 120
0 0 0
0 0 0
0 0 0
0 0 0
0 0 0
0 0 0
0 0 0
0 0 0
0 0 0
0 0 0
0 0 0
0 0 0
0 0 0
0 0 0
0 0 0
0 0 0
0 0 0
0 0 0
0 0 0
0 0 0
0 0 0
0 0 0
0 0 0
0 0 0
0 0 0
0 0 0
0 0 0
0 0 0
0 0 0
0 0 0
0 0 0
0 0 0
0 0 0
0 0 0
0 0 0
0 0 0
0 0 0
0 0 0
0 0 0
0 0 0
0 0 0
0 0 0
120 0 120
240 0 0
235 0 5
235 0 5
120 0 120
120 0 120
0 0 240
0 0 240
0 0 240
120 0 120
120 0 120
120 0 120
120 0 120
240 0 0
240 0 0
240 0 0
120 0 120
120 0 120
5 0 235
5 0 235
0 0 240
120 0 120
0 0 0
0 0 0
0 0 0
0 0 0
0 0 0
0 0 0
0 0 0
0 0 0
0 0 0
0 0 0
0 0 0
0 0 0
0 0 0
0 0 0
0 0 0
0 0 0
0 0 0
0 0 0
0 0 0
0 0 0
0 0 0
0 0 0
0 0 0
0 0 0
0 0 0
0 0 0
0 0 0
0 0 0
0 0 0
0 0 0
0 0 0
0 0 0
0 0 0
0 0 0
0 0 0
0 0 0
0 0 0
0 0 0
0 0 0
0 0 0
0 0 0
0 0 0
120 0 120
240 0 0
235 0 5
235 0 5
120 0 120
120 0 120
0 0 240
0 0 240
0 0 240
120 0 120
120 0 120
120 0 120
120 0 120
240 0 0
240 0 0
240 0 0
120 0 120
120 0 120
5 0 235
5 0 235
0 0 240
120 0 120
0 0 0
0 0 0
0 0 0
0 0 0
0 0 0
0 0 0
0 0 0
0 0 0
0 0 0
0 0 0
0 0 0
0 0 0
0 0 0
0 0 0
0 0 0
0 0 0
0 0 0
0 0 0
0 0 0
0 0 0
0 0 0
0 0 0
0 0 0
0 0 0
0 0 0
0 0 0
0 0 0
0 0 0
0 0 0
0 0 0
0 0 0
0 0 0
0 0 0
0 0 0
0 0 0
0 0 0
0 0 0
0 0 0
0 0 0
0 0 0
0 0 0
0 0 0
120 0 120
240 0 0
235 0 5
235 0 5
120 0 120
114 0 126
0 0 240
0 0 240
0 0 240
120 0 120
120 0 120
120 0 120
120 0 120
240 0 0
240 0 0
240 0 0
126 0 114
120 0 120
5 0 235
5 0 235
0 0 240
120 0 120
0 0 0
0 0 0
0 0 0
0 0 0
0 0 0
0 0 0
0 0 0
0 0 0
0 0 0
0 0 0
0 0 0
0 0 0
0 0 0
0 0 0
0 0 0
0 0 0
0 0 0
0 0 0
0 0 0
0 0 0
0 0 0
0 0 0
0 0 0
0 0 0
0 0 0
0 0 0
0 0 0
0 0 0
0 0 0
0 0 0
0 0 0
0 0 0
0 0 0
0 0 0
0 0 0
0 0 0
0 0 0
0 0 0
0 0 0
0 0 0
0 0 0
120 0 120
126 0 114
240 0 0
235 0 5
235 0 5
120 0 120
114 0 126
0 0 240
0 0 240
0 0 240
120 0 120
120 0 120
120 0 120
120 0 120
240 0 0
240 0 0
240 0 0
126 0 114
120 0 120
5 0 235
5 0 235
0 0 240
114 0 126
120 0 120
0 0 0
0 0 0
0 0 0
0 0 0
0 0 0
0 0 0
0 0 0
0 0 0
0 0 0
0 0 0
0 0 0
0 0 0
0 0 0
0 0 0
0 0 0
0 0 0
0 0 0
0 0 0
0 0 0
0 0 0
0 0 0
0 0 0
0 0 0
0 0 0
0 0 0
0 0 0
0 0 0
0 0 0
0 0 0
0 0 0
0 0 0
0 0 0
0 0 0
0 0 0
0 0 0
0 0 0
0 0 0
0 0 0
0 0 0
0 0 0
120 0 120
126 0 114
240 0 0
235 0 5
235 0 5
120 0 120
114 0 126
0 0 240
0 0 240
0 0 240
120 0 120
120 0 120
120 0 120
120 0 120
240 0 0
240 0 0
240 0 0
126 0 114
120 0 120
5 0 235
5 0 235
0 0 240
114 0 126
120 0 120
0 0 0
0 0 0
0 0 0
0 0 0
0 0 0
0 0 0
0 0 0
0 0 0
0 0 0
0 0 0
0 0 0
0 0 0
0 0 0
0 0 0
0 0 0
0 0 0
0 0 0
0 0 0
0 0 0
0 0 0
0 0 0
0 0 0
0 0 0
0 0 0
0 0 0
0 0 0
0 0 0
0 0 0
0 0 0
0 0 0
0 0 0
0 0 0
0 0 0
0 0 0
0 0 0
0 0 0
0 0 0
0 0 0
0 0 0
0 0 0
120 0 120
240 0 0
240 0 0
235 0 5
120 0 120
120 0 120
0 0 240
0 0 240
0 0 240
0 0 240
120 0 120
120 0 120
120 0 120
120 0 120
240 0 0
240 0 0
240 0 0
240 0 0
120 0 120
120 0 120
5 0 235
0 0 240
0 0 240
120 0 120
0 0 0
0 0 0
0 0 0
0 0 0
0 0 0
0 0 0
0 0 0
0 0 0
0 0 0
0 0 0
0 0 0
0 0 0
0 0 0
0 0 0
0 0 0
0 0 0
0 0 0
0 0 0
0 0 0
0 0 0
39 39 39
39 39 39
39 39 39
39 39 39
39 39 39
39 39 39
39 39 39
39 39 39
39 39 39
39 39 39
39 39 39
39 39 39
39 39 39
39 39 39
39 39 39
39 39 39
39 39 39
39 39 39
39 39 39
39 39 39
120 0 120
241 0 0
241 0 0
235 0 5
120 0 120
120 0 120
0 0 241
0 0 240
0 0 241
0 0 241
120 0 120
120 0 120
120 0 120
120 0 120
241 0 0
241 0 0
241 0 0
240 0 0
120 0 120
120 0 120
5 0 235
0 0 240
0 0 241
120 0 120
40 40 40
40 40 40
40 40 40
40 40 40
40 40 40
40 40 40
40 40 40
40 40 40
40 40 40
40 40 40
40 40 40
40 40 40
40 40 40
40 40 40
40 40 40
40 40 40
40 40 40
40 40 40
40 40 40
40 40 40
54 54 54
54 54 54
50 50 50
50 50 50
45 45 45
46 46 46
50 50 50
50 50 50
46 46 46
46 46 46
51 51 51
51 51 51
46 46 46
46 46 46
51 51 51
51 51 51
4 4 4
46 46 46
94 94 94
51 51 51
120 0 120
241 0 0
240 0 0
235 0 5
120 0 120
120 0 120
0 0 240
0 0 241
0 0 241
0 0 240
120 0 120
120 0 120
120 0 120
120 0 120
241 0 0
240 0 0
240 0 0
241 0 0
120 0 120
120 0 120
5 0 235
0 0 241
0 0 241
120 0 120
64 64 64
5 5 5
58 58 58
116 116 116
63 63 63
63 63 63
57 57 57
57 57 57
63 63 63
62 62 62
56 56 56
56 56 56
62 62 62
61 61 61
55 55 55
55 55 55
61 61 61
60 60 60
55 55 55
54 54 54
65 65 65
65 65 65
6 6 6
55 55 55
55 55 55
55 55 55
101 101 101
50 50 50
50 50 50
50 50 50
5 5 5
56 56 56
56 56 56
56 56 56
102 102 102
51 51 51
51 51 51
51 51 51
5 5 5
56 56 56
120 0 120
241 0 0
235 0 5
235 0 5
120 0 120
120 0 120
0 0 241
0 0 241
0 0 241
114 0 126
120 0 120
120 0 120
120 0 120
120 0 120
126 0 114
240 0 0
240 0 0
241 0 0
120 0 120
120 0 120
5 0 235
5 0 235
0 0 241
120 0 120
80 80 80
145 145 145
72 72 72
72 72 72
72 72 72
7 7 7
78 78 78
78 78 78
78 78 78
141 141 141
70 70 70
70 70 70
69 69 69
6 6 6
76 76 76
75 75 75
75 75 75
136 136 136
67 67 67
67 67 67
7 7 7
7 7 7
75 75 75
75 75 75
107 107 107
107 107 107
107 107 107
107 107 107
59 59 59
59 59 59
5 5 5
5 5 5
5 5 5
54 54 54
54 54 54
54 54 54
109 109 109
109 109 109
109 109 109
235 0 5
120 0 120
241 0 0
235 0 6
235 0 5
120 0 120
120 0 120
0 0 240
0 0 240
0 0 241
114 0 126
120 0 120
120 0 120
120 0 120
120 0 120
126 0 114
241 0 0
241 0 0
241 0 0
120 0 120
120 0 120
5 0 235
5 0 235
0 0 240
120 0 120
5 0 235
8 8 8
8 8 8
8 8 8
83 83 83
83 83 83
82 82 82
165 165 165
164 164 164
163 163 163
89 89 89
89 89 89
8 8 8
8 8 8
8 8 8
7 7 7
79 79 79
78 78 78
157 157 157
156 156 156
81 81 81
82 82 82
82 82 82
82 82 82
83 83 83
8 8 8
61 61 61
61 61 61
61 61 61
61 61 61
61 61 61
61 61 61
62 62 62
56 56 56
56 56 56
56 56 56
56 56 56
56 56 56
56 56 56
120 0 120
126 0 115
241 0 0
235 0 6
235 0 5
120 0 120
120 0 120
0 0 241
0 0 241
0 0 241
114 0 126
120 0 120
120 0 120
120 0 120
120 0 120
126 0 114
241 0 0
240 0 0
240 0 0
120 0 120
120 0 120
5 0 235
5 0 235
0 0 241
114 0 126
120 0 120
92 92 92
92 92 92
92 92 92
92 92 92
91 91 91
91 91 91
100 100 100
100 100 100
99 99 99
99 99 99
99 99 99
98 98 98
98 98 98
178 178 178
88 88 88
88 88 88
87 87 87
87 87 87
87 87 87
