P3
64 36
255
0 0 0
0 0 0
0 0 0
0 0 0
0 0 0
0 0 0
0 0 0
0 0 0
0 0 0
0 0 0
0 0 0
0 0 0
0 0 0
0 0 0
0 0 0
0 0 0
0 0 0
0 0 0
0 0 0
0 0 0
0 0 0
0 0 0
0 0 0
0 0 0
0 0 0
0 0 0
0 0 0
0 0 0
0 0 0
0 0 0
0 0 0
0 0 0
0 0 0
0 0 0
0 0 0
0 0 0
0 0 0
0 0 0
0 0 0
0 0 0
0 0 0
0 0 0
0 0 0
0 0 0
0 0 0
0 0 0
0 0 0
0 0 0
0 0 0
0 0 0
0 0 0
0 0 0
0 0 0
0 0 0
0 0 0
0 0 0
0 0 0
0 0 0
0 0 0
0 0 0
0 0 0
0 0 0
0 0 0
0 0 0
0 0 0
0 0 0
0 0 0
0 0 0
0 0 0
0 0 0
0 0 0
0 0 0
0 0 0
0 0 0
0 0 0
0 0 0
0 0 0
0 0 0
0 0 0
0 0 0
0 0 0
0 0 0
0 0 0
0 0 0
0 0 0
0 0 0
0 0 0
0 0 0
0 0 0
0 0 0
0 0 0
0 0 0
0 0 0
0 0 0
0 0 0
0 0 0
0 0 0
0 0 0
0 0 0
0 0 0
0 0 0
0 0 0
0 0 0
0 0 240
0 0 240
0 0 0
0 0 0
0 0 0
0 0 0
0 0 0
0 0 0
0 0 0
0 0 0
0 0 0
0 0 0
0 0 0
0 0 0
0 0 0
0 0 0
0 0 0
0 0 0
0 0 0
0 0 0
0 0 0
0 0 0
0 0 0
0 0 0
0 0 0
0 0 0
0 0 0
0 0 0
0 0 0
0 0 0
0 0 0
0 0 0
0 0 0
0 0 0
0 0 0
0 0 0
0 0 0
0 0 0
0 0 0
0 0 0
0 0 0
0 0 0
0 0 0
0 0 0
0 0 0
0 0 0
0 0 0
0 0 0
0 0 0
0 0 0
0 0 0
0 0 0
0 0 0
0 0 0
0 0 0
0 0 0
0 0 0
0 0 0
0 0 0
0 0 0
0 0 0
120 0 120
120 0 120
120 0 120
0 0 240
0 0 240
0 0 0
0 0 0
0 0 0
0 0 0
0 0 0
0 0 0
0 0 0
0 0 0
0 0 0
0 0 0
0 0 0
0 0 0
0 0 0
0 0 0
0 0 0
0 0 0
0 0 0
0 0 0
0 0 0
0 0 0
0 0 0
0 0 0
0 0 0
0 0 0
0 0 0
0 0 0
0 0 0
0 0 0
0 0 0
0 0 0
0 0 0
0 0 0
0 0 0
0 0 0
0 0 0
0 0 0
0 0 0
0 0 0
0 0 0
0 0 0
0 0 0
0 0 0
0 0 0
0 0 0
0 0 0
0 0 0
0 0 0
0 0 0
0 0 0
0 0 0
0 0 0
0 0 0
0 0 0
0 0 0
0 0 0
0 0 0
0 0 240
0 0 240
120 0 120
120 0 120
120 0 120
235 0 5
114 0 126
114 0 126
0 0 0
0 0 0
0 0 0
0 0 0
0 0 0
0 0 0
0 0 0
0 0 0
0 0 0
0 0 0
0 0 0
0 0 0
0 0 0
0 0 0
0 0 0
0 0 0
0 0 0
0 0 0
0 0 0
0 0 0
0 0 0
0 0 0
0 0 0
0 0 0
0 0 0
0 0 0
0 0 0
0 0 0
0 0 0
0 0 0
0 0 0
0 0 0
0 0 0
0 0 0
0 0 0
0 0 0
0 0 0
0 0 0
0 0 0
0 0 0
0 0 0
0 0 0
0 0 0
0 0 0
0 0 0
0 0 0
0 0 0
0 0 0
0 0 0
0 0 0
0 0 0
0 0 0
0 0 0
0 0 240
0 0 240
0 0 240
0 0 240
0 0 240
235 0 5
235 0 5
235 0 5
229 0 11
229 0 11
120 0 120
0 0 0
0 0 0
0 0 0
0 0 0
0 0 0
0 0 0
0 0 0
0 0 0
0 0 0
0 0 0
0 0 0
0 0 0
0 0 0
0 0 0
0 0 0
0 0 0
0 0 0
0 0 0
0 0 0
0 0 0
0 0 0
0 0 0
0 0 0
0 0 0
0 0 0
0 0 0
0 0 0
0 0 0
0 0 0
0 0 0
0 0 0
0 0 0
0 0 0
0 0 0
0 0 0
0 0 0
0 0 0
0 0 0
0 0 0
0 0 0
0 0 0
0 0 0
0 0 0
0 0 0
0 0 0
0 0 0
0 0 0
0 0 0
0 0 0
0 0 0
120 0 120
120 0 120
120 0 120
120 0 120
0 0 240
114 0 126
114 0 126
114 0 126
235 0 5
235 0 5
235 0 5
229 0 11
229 0 11
120 0 120
120 0 120
0 0 0
0 0 0
0 0 0
0 0 0
0 0 0
0 0 0
0 0 0
0 0 0
0 0 0
0 0 0
0 0 0
0 0 0
0 0 0
0 0 0
0 0 0
0 0 0
0 0 0
0 0 0
0 0 0
0 0 0
0 0 0
0 0 0
0 0 0
0 0 0
0 0 0
0 0 0
0 0 0
0 0 0
0 0 0
0 0 0
0 0 0
0 0 0
0 0 0
0 0 0
0 0 0
0 0 0
0 0 0
0 0 0
0 0 0
0 0 0
0 0 0
0 0 0
0 0 0
0 0 0
0 0 0
0 0 0
0 0 240
0 0 240
0 0 240
120 0 120
120 0 120
235 0 5
235 0 5
120 0 120
114 0 126
114 0 126
114 0 126
235 0 5
235 0 5
235 0 5
229 0 11
235 0 5
120 0 120
120 0 120
0 0 0
0 0 0
0 0 0
0 0 0
0 0 0
0 0 0
0 0 0
0 0 0
0 0 0
0 0 0
0 0 0
0 0 0
0 0 0
0 0 0
0 0 0
0 0 0
0 0 0
0 0 0
0 0 0
0 0 0
0 0 0
0 0 0
0 0 0
0 0 0
0 0 0
0 0 0
0 0 0
0 0 0
0 0 0
0 0 0
0 0 0
0 0 0
0 0 0
0 0 0
0 0 0
0 0 0
0 0 0
0 0 0
0 0 0
0 0 0
0 0 0
0 0 0
0 0 0
120 0 120
120 0 120
0 0 240
0 0 240
0 0 240
114 0 126
229 0 11
235 0 5
235 0 5
235 0 5
120 0 120
114 0 126
114 0 126
114 0 126
120 0 120
235 0 5
235 0 5
229 0 11
235 0 5
120 0 120
5 0 235
0 0 0
0 0 0
0 0 0
0 0 0
0 0 0
0 0 0
0 0 0
0 0 0
0 0 0
0 0 0
0 0 0
0 0 0
0 0 0
0 0 0
0 0 0
0 0 0
0 0 0
0 0 0
0 0 0
0 0 0
0 0 0
0 0 0
0 0 0
0 0 0
0 0 0
0 0 0
0 0 0
0 0 0
0 0 0
0 0 0
0 0 0
0 0 0
0 0 0
0 0 0
0 0 0
0 0 0
0 0 0
0 0 0
0 0 0
0 0 0
0 0 240
114 0 126
120 0 120
120 0 120
120 0 120
120 0 120
120 0 120
114 0 126
114 0 126
229 0 11
229 0 11
235 0 5
235 0 5
120 0 120
120 0 120
114 0 126
114 0 126
120 0 120
240 0 0
126 0 114
120 0 120
120 0 120
120 0 120
0 0 240
0 0 0
0 0 0
0 0 0
0 0 0
0 0 0
0 0 0
0 0 0
0 0 0
0 0 0
0 0 0
0 0 0
0 0 0
0 0 0
0 0 0
0 0 0
0 0 0
0 0 0
0 0 0
0 0 0
0 0 0
0 0 0
0 0 0
0 0 0
0 0 0
0 0 0
0 0 0
0 0 0
0 0 0
0 0 0
0 0 0
0 0 0
0 0 0
0 0 0
0 0 0
0 0 0
0 0 0
0 0 0
120 0 120
0 0 240
0 0 240
0 0 240
114 0 126
229 0 11
229 0 11
235 0 5
120 0 120
120 0 120
120 0 120
120 0 120
229 0 11
229 0 11
229 0 11
235 0 5
235 0 5
120 0 120
120 0 120
5 0 235
5 0 235
126 0 114
126 0 114
126 0 114
120 0 120
114 0 126
0 0 240
0 0 240
0 0 0
0 0 0
0 0 0
0 0 0
0 0 0
0 0 0
0 0 0
0 0 0
0 0 0
0 0 0
0 0 0
0 0 0
0 0 0
0 0 0
0 0 0
0 0 0
0 0 0
0 0 0
0 0 0
0 0 0
0 0 0
0 0 0
0 0 0
0 0 0
0 0 0
0 0 0
0 0 0
0 0 0
0 0 0
0 0 0
0 0 0
0 0 0
0 0 0
0 0 0
0 0 0
0 0 0
120 0 120
5 0 235
120 0 120
120 0 120
114 0 126
229 0 11
229 0 11
229 0 11
229 0 11
114 0 126
120 0 120
120 0 120
120 0 120
229 0 11
235 0 5
235 0 5
126 0 114
11 0 229
5 0 235
5 0 235
5 0 235
126 0 114
126 0 114
126 0 114
114 0 126
114 0 126
0 0 240
0 0 240
0 0 0
0 0 0
0 0 0
0 0 0
0 0 0
0 0 0
0 0 0
0 0 0
0 0 0
0 0 0
0 0 0
0 0 0
0 0 0
0 0 0
0 0 0
0 0 0
0 0 0
0 0 0
0 0 0
0 0 0
0 0 0
0 0 0
0 0 0
0 0 0
0 0 0
0 0 0
0 0 0
0 0 0
0 0 0
0 0 0
0 0 0
0 0 0
0 0 0
0 0 0
0 0 0
0 0 0
240 0 0
126 0 114
120 0 120
120 0 120
120 0 120
235 0 5
235 0 5
235 0 5
229 0 11
114 0 126
114 0 126
126 0 114
11 0 229
120 0 120
120 0 120
120 0 120
126 0 114
11 0 229
5 0 235
5 0 235
5 0 235
5 0 235
120 0 120
120 0 120
114 0 126
114 0 126
0 0 240
0 0 240
0 0 0
0 0 0
0 0 0
0 0 0
0 0 0
0 0 0
0 0 0
0 0 0
0 0 0
0 0 0
0 0 0
0 0 0
0 0 0
0 0 0
0 0 0
0 0 0
0 0 0
0 0 0
0 0 0
0 0 0
0 0 0
0 0 0
0 0 0
0 0 0
0 0 0
0 0 0
0 0 0
0 0 0
0 0 0
0 0 0
0 0 0
0 0 0
0 0 0
0 0 0
0 0 0
0 0 0
240 0 0
126 0 114
126 0 114
126 0 114
126 0 114
240 0 0
240 0 0
240 0 0
235 0 5
5 0 235
5 0 235
11 0 229
11 0 229
120 0 120
120 0 120
120 0 120
126 0 114
5 0 235
5 0 235
0 0 240
0 0 240
5 0 235
120 0 120
120 0 120
114 0 126
229 0 11
235 0 5
120 0 120
0 0 0
0 0 0
0 0 0
0 0 0
0 0 0
0 0 0
0 0 0
0 0 0
0 0 0
0 0 0
0 0 0
0 0 0
0 0 0
0 0 0
0 0 0
0 0 0
0 0 0
0 0 0
0 0 0
0 0 0
0 0 0
0 0 0
0 0 0
0 0 0
0 0 0
0 0 0
0 0 0
0 0 0
0 0 0
0 0 0
0 0 0
0 0 0
0 0 0
0 0 0
0 0 0
0 0 0
240 0 0
240 0 0
126 0 114
126 0 114
126 0 114
126 0 114
126 0 114
126 0 114
126 0 114
5 0 235
5 0 235
11 0 229
11 0 229
120 0 120
114 0 126
114 0 126
120 0 120
120 0 120
5 0 235
0 0 240
0 0 240
114 0 126
235 0 5
240 0 0
235 0 5
235 0 5
235 0 5
120 0 120
0 0 0
0 0 0
0 0 0
0 0 0
0 0 0
0 0 0
0 0 0
0 0 0
0 0 0
0 0 0
0 0 0
0 0 0
0 0 0
0 0 0
0 0 0
0 0 0
0 0 0
0 0 0
0 0 0
0 0 0
0 0 0
0 0 0
0 0 0
0 0 0
0 0 0
0 0 0
0 0 0
0 0 0
0 0 0
0 0 0
0 0 0
0 0 0
0 0 0
0 0 0
0 0 0
0 0 0
0 0 0
240 0 0
11 0 229
11 0 229
11 0 229
11 0 229
126 0 114
126 0 114
126 0 114
120 0 120
0 0 240
5 0 235
5 0 235
5 0 235
114 0 126
114 0 126
114 0 126
235 0 5
120 0 120
114 0 126
120 0 120
120 0 120
240 0 0
240 0 0
240 0 0
235 0 5
235 0 5
120 0 120
120 0 120
0 0 0
0 0 0
0 0 0
0 0 0
0 0 0
0 0 0
0 0 0
0 0 0
0 0 0
0 0 0
0 0 0
0 0 0
0 0 0
0 0 0
0 0 0
0 0 0
0 0 0
0 0 0
0 0 0
0 0 0
0 0 0
0 0 0
0 0 0
0 0 0
0 0 0
0 0 0
0 0 0
0 0 0
0 0 0
0 0 0
0 0 0
0 0 0
0 0 0
0 0 0
0 0 0
0 0 0
120 0 120
5 0 235
5 0 235
5 0 235
5 0 235
120 0 120
120 0 120
120 0 120
114 0 126
0 0 240
0 0 240
5 0 235
120 0 120
229 0 11
229 0 11
235 0 5
240 0 0
126 0 114
120 0 120
120 0 120
120 0 120
126 0 114
240 0 0
240 0 0
235 0 5
235 0 5
120 0 120
120 0 120
0 0 0
0 0 0
0 0 0
0 0 0
0 0 0
0 0 0
0 0 0
0 0 0
0 0 0
0 0 0
0 0 0
0 0 0
0 0 0
0 0 0
0 0 0
0 0 0
0 0 0
0 0 0
0 0 0
0 0 0
0 0 0
0 0 0
0 0 0
0 0 0
0 0 0
0 0 0
0 0 0
0 0 0
0 0 0
0 0 0
0 0 0
0 0 0
0 0 0
0 0 0
0 0 0
0 0 0
120 0 120
120 0 120
5 0 235
5 0 235
5 0 235
120 0 120
120 0 120
120 0 120
114 0 126
114 0 126
114 0 126
126 0 114
126 0 114
235 0 5
235 0 5
235 0 5
240 0 0
126 0 114
126 0 114
120 0 120
120 0 120
120 0 120
235 0 5
235 0 5
229 0 11
229 0 11
114 0 126
0 0 240
0 0 0
0 0 0
0 0 0
0 0 0
0 0 0
0 0 0
0 0 0
0 0 0
0 0 0
0 0 0
0 0 0
0 0 0
0 0 0
0 0 0
0 0 0
0 0 0
0 0 0
0 0 0
0 0 0
0 0 0
0 0 0
0 0 0
0 0 0
0 0 0
0 0 0
0 0 0
0 0 0
0 0 0
0 0 0
0 0 0
0 0 0
0 0 0
0 0 0
0 0 0
0 0 0
0 0 0
0 0 0
120 0 120
5 0 235
5 0 235
5 0 235
120 0 120
235 0 5
240 0 0
240 0 0
120 0 120
120 0 120
126 0 114
126 0 114
126 0 114
235 0 5
235 0 5
240 0 0
235 0 5
120 0 120
114 0 126
114 0 126
114 0 126
120 0 120
120 0 120
114 0 126
114 0 126
114 0 126
0 0 240
0 0 0
0 0 0
0 0 0
0 0 0
0 0 0
0 0 0
0 0 0
0 0 0
0 0 0
0 0 0
0 0 0
0 0 0
0 0 0
0 0 0
0 0 0
0 0 0
0 0 0
0 0 0
0 0 0
0 0 0
0 0 0
0 0 0
0 0 0
0 0 0
0 0 0
0 0 0
0 0 0
0 0 0
0 0 0
0 0 0
0 0 0
0 0 0
0 0 0
0 0 0
0 0 0
0 0 0
0 0 0
240 0 0
126 0 114
126 0 114
126 0 114
126 0 114
240 0 0
240 0 0
240 0 0
235 0 5
120 0 120
126 0 114
126 0 114
120 0 120
229 0 11
229 0 11
229 0 11
120 0 120
5 0 235
0 0 240
0 0 240
0 0 240
120 0 120
120 0 120
126 0 114
120 0 120
114 0 126
0 0 240
0 0 240
0 0 0
0 0 0
0 0 0
0 0 0
0 0 0
0 0 0
0 0 0
0 0 0
0 0 0
0 0 0
0 0 0
0 0 0
0 0 0
0 0 0
0 0 0
0 0 0
0 0 0
0 0 0
0 0 0
0 0 0
0 0 0
0 0 0
0 0 0
0 0 0
0 0 0
0 0 0
0 0 0
0 0 0
0 0 0
0 0 0
0 0 0
0 0 0
0 0 0
0 0 0
0 0 0
0 0 0
240 0 0
126 0 114
126 0 114
126 0 114
126 0 114
240 0 0
240 0 0
240 0 0
229 0 11
114 0 126
114 0 126
120 0 120
5 0 235
114 0 126
114 0 126
114 0 126
120 0 120
5 0 235
0 0 240
5 0 235
5 0 235
11 0 229
126 0 114
126 0 114
120 0 120
120 0 120
5 0 235
0 0 240
0 0 0
0 0 0
0 0 0
0 0 0
0 0 0
0 0 0
0 0 0
0 0 0
0 0 0
0 0 0
0 0 0
0 0 0
0 0 0
0 0 0
0 0 0
0 0 0
0 0 0
0 0 0
0 0 0
0 0 0
0 0 0
0 0 0
0 0 0
0 0 0
0 0 0
0 0 0
0 0 0
0 0 0
0 0 0
0 0 0
0 0 0
0 0 0
0 0 0
0 0 0
0 0 0
0 0 0
0 0 0
240 0 0
126 0 114
126 0 114
126 0 114
240 0 0
235 0 5
235 0 5
114 0 126
0 0 240
0 0 240
5 0 235
5 0 235
120 0 120
114 0 126
120 0 120
126 0 114
126 0 114
11 0 229
5 0 235
5 0 235
11 0 229
126 0 114
126 0 114
120 0 120
120 0 120
5 0 235
120 0 120
0 0 0
0 0 0
0 0 0
0 0 0
0 0 0
0 0 0
0 0 0
0 0 0
0 0 0
0 0 0
0 0 0
0 0 0
0 0 0
0 0 0
0 0 0
0 0 0
0 0 0
0 0 0
0 0 0
0 0 0
0 0 0
0 0 0
0 0 0
0 0 0
0 0 0
0 0 0
0 0 0
0 0 0
0 0 0
0 0 0
0 0 0
0 0 0
0 0 0
0 0 0
0 0 0
0 0 0
0 0 0
240 0 0
126 0 114
120 0 120
5 0 235
5 0 235
120 0 120
120 0 120
120 0 120
114 0 126
0 0 240
11 0 229
11 0 229
11 0 229
120 0 120
120 0 120
126 0 114
126 0 114
11 0 229
5 0 235
5 0 235
5 0 235
235 0 5
235 0 5
229 0 11
229 0 11
235 0 5
120 0 120
0 0 0
0 0 0
0 0 0
0 0 0
0 0 0
0 0 0
0 0 0
0 0 0
0 0 0
0 0 0
0 0 0
0 0 0
0 0 0
0 0 0
0 0 0
0 0 0
0 0 0
0 0 0
0 0 0
0 0 0
0 0 0
0 0 0
0 0 0
0 0 0
0 0 0
0 0 0
0 0 0
0 0 0
0 0 0
0 0 0
0 0 0
0 0 0
0 0 0
0 0 0
0 0 0
0 0 0
0 0 0
120 0 120
5 0 235
5 0 235
5 0 235
5 0 235
120 0 120
126 0 114
126 0 114
120 0 120
5 0 235
5 0 235
11 0 229
11 0 229
120 0 120
120 0 120
120 0 120
235 0 5
120 0 120
114 0 126
114 0 126
114 0 126
235 0 5
235 0 5
235 0 5
229 0 11
229 0 11
120 0 120
120 0 120
0 0 0
0 0 0
0 0 0
0 0 0
0 0 0
0 0 0
0 0 0
0 0 0
0 0 0
0 0 0
0 0 0
0 0 0
0 0 0
0 0 0
0 0 0
0 0 0
0 0 0
0 0 0
0 0 0
0 0 0
0 0 0
0 0 0
0 0 0
0 0 0
0 0 0
0 0 0
0 0 0
0 0 0
0 0 0
0 0 0
0 0 0
0 0 0
0 0 0
0 0 0
0 0 0
0 0 0
120 0 120
120 0 120
5 0 235
5 0 235
5 0 235
126 0 114
126 0 114
126 0 114
120 0 120
5 0 235
5 0 235
11 0 229
120 0 120
229 0 11
229 0 11
229 0 11
235 0 5
120 0 120
114 0 126
114 0 126
114 0 126
120 0 120
235 0 5
235 0 5
235 0 5
229 0 11
114 0 126
120 0 120
0 0 0
0 0 0
0 0 0
0 0 0
0 0 0
0 0 0
0 0 0
0 0 0
0 0 0
0 0 0
0 0 0
0 0 0
0 0 0
0 0 0
0 0 0
0 0 0
0 0 0
0 0 0
0 0 0
0 0 0
0 0 0
0 0 0
0 0 0
0 0 0
0 0 0
0 0 0
0 0 0
0 0 0
0 0 0
0 0 0
0 0 0
0 0 0
0 0 0
0 0 0
0 0 0
0 0 0
0 0 0
120 0 120
5 0 235
11 0 229
11 0 229
11 0 229
126 0 114
240 0 0
235 0 5
114 0 126
114 0 126
120 0 120
120 0 120
235 0 5
229 0 11
229 0 11
235 0 5
235 0 5
120 0 120
120 0 120
120 0 120
126 0 114
240 0 0
240 0 0
235 0 5
235 0 5
114 0 126
114 0 126
0 0 0
0 0 0
0 0 0
0 0 0
0 0 0
0 0 0
0 0 0
0 0 0
0 0 0
0 0 0
0 0 0
0 0 0
0 0 0
0 0 0
0 0 0
0 0 0
0 0 0
0 0 0
0 0 0
0 0 0
0 0 0
0 0 0
0 0 0
0 0 0
0 0 0
0 0 0
0 0 0
0 0 0
0 0 0
0 0 0
0 0 0
0 0 0
0 0 0
0 0 0
0 0 0
0 0 0
0 0 0
120 0 120
11 0 229
126 0 114
126 0 114
126 0 114
240 0 0
235 0 5
235 0 5
229 0 11
114 0 126
120 0 120
120 0 120
120 0 120
235 0 5
235 0 5
240 0 0
240 0 0
126 0 114
120 0 120
120 0 120
120 0 120
126 0 114
126 0 114
126 0 114
120 0 120
120 0 120
0 0 240
0 0 0
0 0 0
0 0 0
0 0 0
0 0 0
0 0 0
0 0 0
0 0 0
0 0 0
0 0 0
0 0 0
0 0 0
0 0 0
0 0 0
0 0 0
0 0 0
0 0 0
0 0 0
0 0 0
0 0 0
0 0 0
0 0 0
0 0 0
0 0 0
0 0 0
0 0 0
0 0 0
0 0 0
0 0 0
0 0 0
0 0 0
0 0 0
0 0 0
0 0 0
0 0 0
0 0 0
0 0 0
240 0 0
126 0 114
126 0 114
126 0 114
120 0 120
235 0 5
235 0 5
235 0 5
229 0 11
120 0 120
120 0 120
126 0 114
126 0 114
235 0 5
235 0 5
240 0 0
126 0 114
11 0 229
5 0 235
5 0 235
5 0 235
126 0 114
126 0 114
126 0 114
120 0 120
120 0 120
0 0 240
0 0 0
0 0 0
0 0 0
0 0 0
0 0 0
0 0 0
0 0 0
0 0 0
0 0 0
0 0 0
0 0 0
0 0 0
0 0 0
0 0 0
0 0 0
0 0 0
0 0 0
0 0 0
0 0 0
0 0 0
0 0 0
0 0 0
0 0 0
0 0 0
0 0 0
0 0 0
0 0 0
0 0 0
0 0 0
0 0 0
0 0 0
0 0 0
0 0 0
0 0 0
0 0 0
0 0 0
0 0 0
0 0 0
240 0 0
126 0 114
120 0 120
120 0 120
235 0 5
235 0 5
240 0 0
235 0 5
120 0 120
126 0 114
11 0 229
11 0 229
120 0 120
120 0 120
126 0 114
126 0 114
11 0 229
5 0 235
5 0 235
5 0 235
11 0 229
126 0 114
126 0 114
126 0 114
120 0 120
5 0 235
0 0 240
0 0 0
0 0 0
0 0 0
0 0 0
0 0 0
0 0 0
0 0 0
0 0 0
0 0 0
0 0 0
0 0 0
0 0 0
0 0 0
0 0 0
0 0 0
0 0 0
0 0 0
0 0 0
0 0 0
0 0 0
0 0 0
0 0 0
0 0 0
0 0 0
0 0 0
0 0 0
0 0 0
0 0 0
0 0 0
0 0 0
0 0 0
0 0 0
0 0 0
0 0 0
0 0 0
0 0 0
0 0 0
240 0 0
120 0 120
120 0 120
120 0 120
120 0 120
126 0 114
126 0 114
120 0 120
5 0 235
11 0 229
11 0 229
5 0 235
120 0 120
120 0 120
126 0 114
126 0 114
126 0 114
5 0 235
5 0 235
5 0 235
5 0 235
126 0 114
126 0 114
126 0 114
126 0 114
5 0 235
5 0 235
0 0 0
0 0 0
0 0 0
0 0 0
0 0 0
0 0 0
0 0 0
0 0 0
0 0 0
0 0 0
0 0 0
0 0 0
0 0 0
0 0 0
0 0 0
0 0 0
0 0 0
0 0 0
0 0 0
0 0 0
0 0 0
0 0 0
0 0 0
0 0 0
0 0 0
0 0 0
0 0 0
0 0 0
0 0 0
0 0 0
0 0 0
0 0 0
0 0 0
0 0 0
0 0 0
0 0 0
0 0 0
120 0 120
5 0 235
5 0 235
5 0 235
11 0 229
126 0 114
120 0 120
120 0 120
126 0 114
11 0 229
11 0 229
5 0 235
5 0 235
120 0 120
126 0 114
126 0 114
126 0 114
5 0 235
5 0 235
5 0 235
5 0 235
240 0 0
240 0 0
240 0 0
240 0 0
235 0 5
120 0 120
0 0 0
0 0 0
0 0 0
0 0 0
0 0 0
0 0 0
0 0 0
0 0 0
0 0 0
0 0 0
0 0 0
0 0 0
0 0 0
0 0 0
0 0 0
0 0 0
0 0 0
0 0 0
0 0 0
0 0 0
0 0 0
0 0 0
0 0 0
0 0 0
0 0 0
0 0 0
0 0 0
0 0 0
0 0 0
0 0 0
0 0 0
0 0 0
0 0 0
0 0 0
0 0 0
0 0 0
0 0 0
120 0 120
120 0 120
5 0 235
11 0 229
11 0 229
120 0 120
120 0 120
120 0 120
126 0 114
11 0 229
5 0 235
5 0 235
5 0 235
120 0 120
126 0 114
240 0 0
240 0 0
120 0 120
120 0 120
120 0 120
120 0 120
240 0 0
240 0 0
240 0 0
0 0 0
0 0 0
0 0 0
0 0 0
0 0 0
0 0 0
0 0 0
0 0 0
0 0 0
0 0 0
0 0 0
0 0 0
0 0 0
0 0 0
0 0 0
0 0 0
0 0 0
0 0 0
0 0 0
0 0 0
40 40 40
40 40 40
40 40 40
40 40 40
40 40 40
40 40 40
40 40 40
40 40 40
40 40 40
40 40 40
40 40 40
40 40 40
40 40 40
40 40 40
40 40 40
40 40 40
40 40 40
40 40 40
40 40 40
40 40 40
40 40 40
120 0 120
11 0 229
11 0 229
5 0 235
120 0 120
120 0 120
126 0 114
126 0 114
11 0 229
120 0 120
120 0 120
120 0 120
240 0 0
240 0 0
240 0 0
240 0 0
41 41 41
41 41 41
41 41 41
41 41 41
41 41 41
41 41 41
40 40 40
40 40 40
40 40 40
40 40 40
40 40 40
40 40 40
40 40 40
40 40 40
40 40 40
40 40 40
40 40 40
40 40 40
40 40 40
40 40 40
40 40 40
40 40 40
40 40 40
40 40 40
40 40 40
40 40 40
40 40 40
51 51 51
51 51 51
57 57 57
57 57 57
52 52 52
52 52 52
58 58 58
58 58 58
53 53 53
53 53 53
58 58 58
59 59 59
53 53 53
54 54 54
59 59 59
59 59 59
5 5 5
54 54 54
110 110 110
60 60 60
5 5 5
126 0 114
11 0 229
11 0 229
120 0 120
120 0 120
240 0 0
240 0 0
240 0 0
240 0 0
120 0 120
65 65 65
65 65 65
59 59 59
59 59 59
65 65 65
65 65 65
59 59 59
59 59 59
65 65 65
65 65 65
5 5 5
59 59 59
117 117 117
64 64 64
5 5 5
58 58 58
116 116 116
63 63 63
63 63 63
57 57 57
57 57 57
63 63 63
62 62 62
56 56 56
56 56 56
62 62 62
61 61 61
55 55 55
55 55 55
61 61 61
60 60 60
55 55 55
54 54 54
61 61 61
61 61 61
6 6 6
68 68 68
68 68 68
68 68 68
125 125 125
63 63 63
63 63 63
63 63 63
6 6 6
70 70 70
70 70 70
71 71 71
129 129 129
65 65 65
65 65 65
65 65 65
6 6 6
72 72 72
73 73 73
240 0 0
126 0 114
120 0 120
120 0 120
67 67 67
6 6 6
74 74 74
74 74 74
74 74 74
73 73 73
73 73 73
73 73 73
74 74 74
81 81 81
81 81 81
81 81 81
148 148 148
73 73 73
73 73 73
73 73 73
7 7 7
80 80 80
80 80 80
80 80 80
145 145 145
72 72 72
72 72 72
72 72 72
7 7 7
78 78 78
78 78 78
78 78 78
141 141 141
70 70 70
70 70 70
69 69 69
6 6 6
76 76 76
75 75 75
75 75 75
136 136 136
67 67 67
67 67 67
7 7 7
6 6 6
69 69 69
69 69 69
139 139 139
140 140 140
141 141 141
141 141 141
78 78 78
78 78 78
7 7 7
7 7 7
7 7 7
72 72 72
73 73 73
54 54 54
109 109 109
109 109 109
109 109 109
60 60 60
42 42 42
42 42 42
3 3 3
3 3 3
3 3 3
38 38 38
38 38 38
76 76 76
76 76 76
76 76 76
76 76 76
51 51 51
51 51 51
4 4 4
4 4 4
4 4 4
6 6 6
85 85 85
85 85 85
169 169 169
169 169 169
169 169 169
93 93 93
92 92 92
92 92 92
8 8 8
8 8 8
8 8 8
83 83 83
83 83 83
82 82 82
165 165 165
164 164 164
163 163 163
89 89 89
89 89 89
8 8 8
8 8 8
8 8 8
7 7 7
79 79 79
78 78 78
157 157 157
156 156 156
81 81 81
82 82 82
82 82 82
82 82 82
83 83 83
7 7 7
84 84 84
84 84 84
84 84 84
85 85 85
85 85 85
86 86 86
62 62 62
56 56 56
56 56 56
56 56 56
56 56 56
38 38 38
38 38 38
38 38 38
3 3 3
42 42 42
42 42 42
42 42 42
42 42 42
42 42 42
42 42 42
42 42 42
76 76 76
38 38 38
38 38 38
38 38 38
48 48 48
48 48 48
48 48 48
4 4 4
53 53 53
53 53 53
53 53 53
74 74 74
74 74 74
102 102 102
102 102 102
186 186 186
93 93 93
92 92 92
92 92 92
92 92 92
92 92 92
91 91 91
91 91 91
100 100 100
100 100 100
99 99 99
99 99 99
99 99 99
98 98 98
98 98 98
178 178 178
88 88 88
88 88 88
87 87 87
87 87 87
87 87 87
