P3
64 36
255
0 0 0
0 0 0
0 0 0
0 0 0
0 0 0
0 0 0
0 0 0
0 0 0
0 0 0
0 0 0
0 0 0
0 0 0
0 0 0
0 0 0
0 0 0
0 0 0
0 0 0
0 0 0
0 0 0
0 0 0
0 0 0
0 0 0
0 0 0
0 0 0
0 0 0
0 0 0
0 0 0
0 0 0
0 0 0
0 0 0
0 0 0
0 0 0
0 0 0
0 0 0
0 0 0
0 0 0
0 0 0
0 0 0
0 0 0
0 0 0
0 0 0
0 0 0
0 0 0
0 0 0
0 0 0
0 0 0
0 0 0
0 0 0
0 0 0
0 0 0
0 0 0
0 0 0
0 0 0
0 0 0
0 0 0
0 0 0
0 0 0
0 0 0
0 0 0
0 0 0
0 0 0
0 0 0
0 0 0
0 0 0
0 0 0
0 0 0
0 0 0
0 0 0
0 0 0
0 0 0
0 0 0
0 0 0
0 0 0
0 0 0
0 0 0
0 0 0
0 0 0
0 0 0
0 0 0
0 0 0
0 0 0
0 0 0
0 0 0
0 0 0
0 0 0
0 0 0
0 0 0
0 0 0
0 0 0
0 0 0
0 0 0
0 0 0
0 0 0
0 0 0
0 0 0
0 0 0
0 0 0
0 0 0
0 0 0
0 0 0
0 0 0
0 0 0
0 0 0
0 0 0
0 0 0
0 0 0
0 0 0
0 0 0
0 0 0
0 0 0
0 0 0
0 0 0
0 0 0
0 0 0
0 0 0
0 0 0
0 0 0
0 0 0
0 0 0
0 0 0
0 0 0
0 0 0
0 0 0
0 0 0
0 0 0
0 0 0
0 0 0
0 0 0
0 0 0
0 0 0
0 0 0
0 0 0
0 0 0
0 0 0
0 0 0
0 0 0
0 0 0
0 0 0
0 0 0
0 0 0
0 0 0
0 0 0
0 0 0
0 0 0
0 0 0
0 0 0
0 0 0
0 0 0
0 0 0
0 0 0
0 0 0
0 0 0
0 0 0
0 0 0
0 0 0
0 0 0
0 0 0
0 0 0
0 0 0
0 0 0
0 0 0
0 0 0
0 0 0
0 0 0
0 0 0
0 0 0
0 0 0
0 0 0
0 0 0
0 0 0
0 0 0
0 0 0
0 0 0
0 0 0
0 0 0
0 0 0
0 0 0
0 0 0
0 0 0
0 0 0
0 0 0
0 0 0
0 0 0
0 0 0
0 0 0
0 0 0
0 0 0
0 0 0
0 0 0
0 0 0
0 0 0
0 0 0
0 0 0
0 0 0
0 0 0
0 0 0
0 0 0
0 0 0
0 0 0
0 0 0
0 0 0
0 0 0
0 0 0
0 0 0
0 0 0
0 0 0
0 0 0
0 0 0
0 0 0
0 0 0
0 0 0
0 0 0
0 0 0
0 0 0
0 0 0
0 0 0
0 0 0
0 0 0
0 0 0
0 0 0
0 0 0
0 0 0
0 0 0
0 0 0
0 0 0
0 0 0
0 0 0
0 0 0
0 0 0
0 0 0
0 0 0
0 0 0
0 0 0
0 0 0
0 0 0
0 0 0
0 0 0
0 0 0
0 0 0
0 0 0
0 0 0
0 0 0
0 0 0
0 0 0
0 0 0
0 0 0
0 0 0
0 0 0
0 0 0
0 0 0
0 0 0
0 0 0
0 0 0
0 0 0
0 0 0
0 0 0
0 0 0
0 0 0
0 0 0
0 0 0
0 0 0
0 0 0
0 0 0
0 0 0
0 0 0
0 0 0
0 0 0
0 0 0
0 0 0
0 0 0
0 0 0
0 0 0
0 0 0
0 0 0
0 0 0
0 0 0
0 0 0
0 0 0
0 0 0
0 0 0
0 0 0
0 0 0
0 0 0
0 0 0
0 0 0
0 0 0
0 0 0
0 0 0
0 0 0
0 0 0
0 0 0
0 0 0
0 0 0
0 0 0
0 0 0
0 0 0
0 0 0
0 0 0
0 0 0
0 0 0
0 0 0
0 0 0
0 0 0
0 0 0
0 0 0
0 0 0
0 0 0
0 0 0
0 0 0
0 0 0
0 0 0
0 0 0
0 0 0
0 0 0
0 0 0
0 0 0
0 0 0
0 0 0
0 0 0
0 0 0
0 0 0
0 0 0
0 0 0
0 0 0
0 0 0
0 0 0
0 0 0
0 0 0
0 0 0
0 0 0
0 0 0
0 0 0
0 0 0
0 0 0
0 0 0
0 0 0
0 0 0
0 0 0
0 0 0
0 0 0
0 0 0
0 0 0
0 0 0
0 0 0
0 0 0
0 0 0
0 0 0
0 0 0
0 0 0
0 0 0
0 0 0
0 0 0
0 0 0
0 0 0
0 0 0
0 0 0
0 0 0
0 0 0
0 0 0
0 0 0
0 0 0
0 0 0
0 0 0
0 0 0
0 0 0
0 0 0
0 0 0
0 0 0
0 0 0
0 0 0
0 0 0
0 0 0
0 0 0
0 0 0
0 0 0
0 0 0
0 0 0
0 0 0
0 0 0
0 0 0
0 0 0
0 0 0
0 0 0
0 0 0
0 0 0
0 0 0
0 0 0
0 0 0
0 0 0
0 0 0
0 0 0
0 0 0
0 0 0
0 0 0
0 0 0
0 0 0
0 0 0
0 0 0
0 0 0
0 0 0
0 0 0
0 0 0
0 0 0
0 0 0
0 0 0
0 0 0
0 0 0
0 0 0
0 0 0
0 0 0
0 0 0
0 0 0
0 0 0
0 0 0
0 0 0
0 0 0
0 0 0
0 0 0
0 0 0
0 0 0
0 0 0
0 0 0
0 0 0
0 0 0
0 0 0
0 0 0
0 0 0
0 0 0
0 0 0
0 0 0
0 0 0
0 0 0
0 0 0
0 0 0
0 0 0
0 0 0
0 0 0
0 0 0
0 0 0
0 0 0
0 0 0
0 0 0
0 0 0
0 0 0
0 0 0
0 0 0
0 0 0
0 0 0
0 0 0
0 0 0
0 0 0
0 0 0
0 0 0
0 0 0
0 0 0
0 0 0
0 0 0
0 0 0
0 0 0
0 0 0
0 0 0
0 0 0
0 0 0
0 0 0
0 0 0
0 0 0
0 0 0
0 0 0
0 0 0
0 0 0
0 0 0
0 0 0
0 0 0
0 0 0
0 0 0
0 0 0
0 0 0
0 0 0
0 0 0
0 0 0
0 0 0
0 0 0
0 0 240
0 0 0
0 0 0
0 0 0
0 0 0
0 0 0
0 0 0
0 0 0
0 0 0
0 0 0
0 0 0
0 0 0
0 0 0
0 0 0
0 0 0
0 0 0
0 0 0
0 0 0
0 0 0
0 0 0
0 0 0
0 0 0
0 0 0
0 0 0
0 0 0
0 0 0
0 0 0
0 0 0
0 0 0
0 0 0
0 0 0
0 0 0
0 0 0
0 0 0
0 0 0
0 0 0
0 0 0
0 0 0
0 0 0
0 0 0
0 0 0
0 0 0
0 0 0
0 0 0
0 0 0
0 0 0
0 0 0
0 0 0
0 0 0
0 0 0
0 0 0
0 0 0
0 0 0
0 0 0
0 0 0
0 0 0
0 0 0
0 0 0
0 0 0
0 0 0
0 0 0
0 0 0
120 0 120
120 0 120
114 0 126
114 0 126
0 0 0
0 0 0
0 0 0
0 0 0
0 0 0
0 0 0
0 0 0
0 0 0
0 0 0
0 0 0
0 0 0
0 0 0
0 0 0
0 0 0
0 0 0
0 0 0
0 0 0
0 0 0
0 0 0
0 0 0
0 0 0
0 0 0
0 0 0
0 0 0
0 0 0
0 0 0
0 0 0
0 0 0
0 0 0
0 0 0
0 0 0
0 0 0
0 0 0
0 0 0
0 0 0
0 0 0
0 0 0
0 0 0
0 0 0
0 0 0
0 0 0
0 0 0
0 0 0
0 0 0
0 0 0
0 0 0
0 0 0
0 0 0
0 0 0
0 0 0
0 0 0
0 0 0
0 0 0
0 0 0
0 0 0
0 0 0
0 0 0
0 0 0
0 0 240
120 0 120
235 0 5
235 0 5
229 0 11
114 0 126
120 0 120
0 0 0
0 0 0
0 0 0
0 0 0
0 0 0
0 0 0
0 0 0
0 0 0
0 0 0
0 0 0
0 0 0
0 0 0
0 0 0
0 0 0
0 0 0
0 0 0
0 0 0
0 0 0
0 0 0
0 0 0
0 0 0
0 0 0
0 0 0
0 0 0
0 0 0
0 0 0
0 0 0
0 0 0
0 0 0
0 0 0
0 0 0
0 0 0
0 0 0
0 0 0
0 0 0
0 0 0
0 0 0
0 0 0
0 0 0
0 0 0
0 0 0
0 0 0
0 0 0
0 0 0
0 0 0
0 0 0
0 0 0
0 0 0
0 0 0
0 0 0
0 0 0
0 0 0
0 0 0
0 0 0
0 0 0
0 0 0
0 0 240
114 0 126
235 0 5
235 0 5
235 0 5
235 0 5
229 0 11
5 0 235
0 0 240
0 0 0
0 0 0
0 0 0
0 0 0
0 0 0
0 0 0
0 0 0
0 0 0
0 0 0
0 0 0
0 0 0
0 0 0
0 0 0
0 0 0
0 0 0
0 0 0
0 0 0
0 0 0
0 0 0
0 0 0
0 0 0
0 0 0
0 0 0
0 0 0
0 0 0
0 0 0
0 0 0
0 0 0
0 0 0
0 0 0
0 0 0
0 0 0
0 0 0
0 0 0
0 0 0
0 0 0
0 0 0
0 0 0
0 0 0
0 0 0
0 0 0
0 0 0
0 0 0
0 0 0
0 0 0
0 0 0
0 0 0
0 0 0
0 0 0
0 0 0
0 0 0
0 0 0
0 0 0
120 0 120
114 0 126
114 0 126
114 0 126
114 0 126
235 0 5
235 0 5
120 0 120
114 0 126
120 0 120
0 0 240
0 0 0
0 0 0
0 0 0
0 0 0
0 0 0
0 0 0
0 0 0
0 0 0
0 0 0
0 0 0
0 0 0
0 0 0
0 0 0
0 0 0
0 0 0
0 0 0
0 0 0
0 0 0
0 0 0
0 0 0
0 0 0
0 0 0
0 0 0
0 0 0
0 0 0
0 0 0
0 0 0
0 0 0
0 0 0
0 0 0
0 0 0
0 0 0
0 0 0
0 0 0
0 0 0
0 0 0
0 0 0
0 0 0
0 0 0
0 0 0
0 0 0
0 0 0
0 0 0
0 0 0
0 0 0
0 0 0
0 0 0
0 0 0
0 0 0
0 0 0
0 0 0
120 0 120
120 0 120
235 0 5
120 0 120
114 0 126
114 0 126
114 0 126
120 0 120
120 0 120
120 0 120
114 0 126
120 0 120
0 0 240
0 0 240
0 0 0
0 0 0
0 0 0
0 0 0
0 0 0
0 0 0
0 0 0
0 0 0
0 0 0
0 0 0
0 0 0
0 0 0
0 0 0
0 0 0
0 0 0
0 0 0
0 0 0
0 0 0
0 0 0
0 0 0
0 0 0
0 0 0
0 0 0
0 0 0
0 0 0
0 0 0
0 0 0
0 0 0
0 0 0
0 0 0
0 0 0
0 0 0
0 0 0
0 0 0
0 0 0
0 0 0
0 0 0
0 0 0
0 0 0
0 0 0
0 0 0
0 0 0
0 0 0
0 0 0
0 0 0
0 0 0
0 0 0
0 0 0
0 0 240
0 0 240
229 0 11
235 0 5
235 0 5
235 0 5
120 0 120
0 0 240
0 0 240
0 0 240
120 0 120
120 0 120
114 0 126
120 0 120
114 0 126
114 0 126
120 0 120
0 0 0
0 0 0
0 0 0
0 0 0
0 0 0
0 0 0
0 0 0
0 0 0
0 0 0
0 0 0
0 0 0
0 0 0
0 0 0
0 0 0
0 0 0
0 0 0
0 0 0
0 0 0
0 0 0
0 0 0
0 0 0
0 0 0
0 0 0
0 0 0
0 0 0
0 0 0
0 0 0
0 0 0
0 0 0
0 0 0
0 0 0
0 0 0
0 0 0
0 0 0
0 0 0
0 0 0
0 0 0
0 0 0
0 0 0
0 0 0
0 0 0
0 0 0
0 0 0
0 0 0
0 0 0
0 0 0
5 0 235
114 0 126
114 0 126
229 0 11
229 0 11
235 0 5
235 0 5
5 0 235
0 0 240
0 0 240
0 0 240
120 0 120
120 0 120
120 0 120
229 0 11
235 0 5
229 0 11
120 0 120
120 0 120
0 0 0
0 0 0
0 0 0
0 0 0
0 0 0
0 0 0
0 0 0
0 0 0
0 0 0
0 0 0
0 0 0
0 0 0
0 0 0
0 0 0
0 0 0
0 0 0
0 0 0
0 0 0
0 0 0
0 0 0
0 0 0
0 0 0
0 0 0
0 0 0
0 0 0
0 0 0
0 0 0
0 0 0
0 0 0
0 0 0
0 0 0
0 0 0
0 0 0
0 0 0
0 0 0
0 0 0
0 0 0
0 0 0
0 0 0
0 0 0
0 0 0
0 0 0
0 0 0
120 0 120
235 0 5
120 0 120
120 0 120
114 0 126
114 0 126
229 0 11
114 0 126
120 0 120
5 0 235
5 0 235
0 0 240
0 0 240
0 0 240
235 0 5
235 0 5
235 0 5
235 0 5
229 0 11
120 0 120
120 0 120
0 0 0
0 0 0
0 0 0
0 0 0
0 0 0
0 0 0
0 0 0
0 0 0
0 0 0
0 0 0
0 0 0
0 0 0
0 0 0
0 0 0
0 0 0
0 0 0
0 0 0
0 0 0
0 0 0
0 0 0
0 0 0
0 0 0
0 0 0
0 0 0
0 0 0
0 0 0
0 0 0
0 0 0
0 0 0
0 0 0
0 0 0
0 0 0
0 0 0
0 0 0
0 0 0
0 0 0
0 0 0
0 0 0
0 0 0
0 0 0
0 0 0
0 0 240
0 0 240
229 0 11
235 0 5
120 0 120
120 0 120
120 0 120
0 0 240
114 0 126
114 0 126
114 0 126
120 0 120
5 0 235
5 0 235
114 0 126
114 0 126
240 0 0
240 0 0
240 0 0
235 0 5
229 0 11
235 0 5
120 0 120
120 0 120
0 0 0
0 0 0
0 0 0
0 0 0
0 0 0
0 0 0
0 0 0
0 0 0
0 0 0
0 0 0
0 0 0
0 0 0
0 0 0
0 0 0
0 0 0
0 0 0
0 0 0
0 0 0
0 0 0
0 0 0
0 0 0
0 0 0
0 0 0
0 0 0
0 0 0
0 0 0
0 0 0
0 0 0
0 0 0
0 0 0
0 0 0
0 0 0
0 0 0
0 0 0
0 0 0
0 0 0
0 0 0
0 0 0
120 0 120
5 0 235
114 0 126
114 0 126
229 0 11
229 0 11
229 0 11
5 0 235
5 0 235
5 0 235
120 0 120
114 0 126
114 0 126
114 0 126
120 0 120
120 0 120
120 0 120
120 0 120
120 0 120
240 0 0
240 0 0
229 0 11
229 0 11
120 0 120
120 0 120
0 0 240
0 0 240
0 0 0
0 0 0
0 0 0
0 0 0
0 0 0
0 0 0
0 0 0
0 0 0
0 0 0
0 0 0
0 0 0
0 0 0
0 0 0
0 0 0
0 0 0
0 0 0
0 0 0
0 0 0
0 0 0
0 0 0
0 0 0
0 0 0
0 0 0
0 0 0
0 0 0
0 0 0
0 0 0
0 0 0
0 0 0
0 0 0
0 0 0
0 0 0
0 0 0
0 0 0
0 0 0
0 0 0
0 0 0
240 0 0
120 0 120
120 0 120
120 0 120
235 0 5
114 0 126
114 0 126
0 0 240
0 0 240
5 0 235
120 0 120
120 0 120
229 0 11
229 0 11
126 0 114
126 0 114
126 0 114
120 0 120
120 0 120
235 0 5
235 0 5
120 0 120
114 0 126
120 0 120
120 0 120
0 0 240
0 0 240
0 0 0
0 0 0
0 0 0
0 0 0
0 0 0
0 0 0
0 0 0
0 0 0
0 0 0
0 0 0
0 0 0
0 0 0
0 0 0
0 0 0
0 0 0
0 0 0
0 0 0
0 0 0
0 0 0
0 0 0
0 0 0
0 0 0
0 0 0
0 0 0
0 0 0
0 0 0
0 0 0
0 0 0
0 0 0
0 0 0
0 0 0
0 0 0
0 0 0
0 0 0
0 0 0
0 0 0
0 0 0
240 0 0
126 0 114
126 0 114
11 0 229
120 0 120
120 0 120
120 0 120
0 0 240
0 0 240
0 0 240
235 0 5
235 0 5
240 0 0
235 0 5
235 0 5
126 0 114
126 0 114
114 0 126
114 0 126
0 0 240
120 0 120
120 0 120
120 0 120
120 0 120
120 0 120
114 0 126
0 0 240
0 0 240
0 0 0
0 0 0
0 0 0
0 0 0
0 0 0
0 0 0
0 0 0
0 0 0
0 0 0
0 0 0
0 0 0
0 0 0
0 0 0
0 0 0
0 0 0
0 0 0
0 0 0
0 0 0
0 0 0
0 0 0
0 0 0
0 0 0
0 0 0
0 0 0
0 0 0
0 0 0
0 0 0
0 0 0
0 0 0
0 0 0
0 0 0
0 0 0
0 0 0
0 0 0
0 0 0
0 0 0
240 0 0
11 0 229
11 0 229
11 0 229
126 0 114
126 0 114
126 0 114
5 0 235
120 0 120
120 0 120
120 0 120
240 0 0
240 0 0
235 0 5
229 0 11
120 0 120
120 0 120
5 0 235
0 0 240
0 0 240
126 0 114
126 0 114
126 0 114
120 0 120
114 0 126
114 0 126
114 0 126
0 0 240
0 0 240
0 0 0
0 0 0
0 0 0
0 0 0
0 0 0
0 0 0
0 0 0
0 0 0
0 0 0
0 0 0
0 0 0
0 0 0
0 0 0
0 0 0
0 0 0
0 0 0
0 0 0
0 0 0
0 0 0
0 0 0
0 0 0
0 0 0
0 0 0
0 0 0
0 0 0
0 0 0
0 0 0
0 0 0
0 0 0
0 0 0
0 0 0
0 0 0
0 0 0
0 0 0
0 0 0
120 0 120
11 0 229
11 0 229
11 0 229
126 0 114
126 0 114
240 0 0
126 0 114
126 0 114
120 0 120
120 0 120
240 0 0
235 0 5
229 0 11
229 0 11
0 0 240
5 0 235
11 0 229
5 0 235
5 0 235
5 0 235
126 0 114
126 0 114
114 0 126
114 0 126
114 0 126
114 0 126
0 0 240
120 0 120
120 0 120
0 0 0
0 0 0
0 0 0
0 0 0
0 0 0
0 0 0
0 0 0
0 0 0
0 0 0
0 0 0
0 0 0
0 0 0
0 0 0
0 0 0
0 0 0
0 0 0
0 0 0
0 0 0
0 0 0
0 0 0
0 0 0
0 0 0
0 0 0
0 0 0
0 0 0
0 0 0
0 0 0
0 0 0
0 0 0
0 0 0
0 0 0
0 0 0
0 0 0
0 0 0
120 0 120
5 0 235
5 0 235
5 0 235
235 0 5
235 0 5
240 0 0
126 0 114
126 0 114
120 0 120
114 0 126
235 0 5
235 0 5
120 0 120
114 0 126
120 0 120
11 0 229
11 0 229
5 0 235
5 0 235
5 0 235
120 0 120
120 0 120
120 0 120
114 0 126
229 0 11
229 0 11
235 0 5
120 0 120
120 0 120
0 0 0
0 0 0
0 0 0
0 0 0
0 0 0
0 0 0
0 0 0
0 0 0
0 0 0
0 0 0
0 0 0
0 0 0
0 0 0
0 0 0
0 0 0
0 0 0
0 0 0
0 0 0
0 0 0
0 0 0
0 0 0
0 0 0
0 0 0
0 0 0
0 0 0
0 0 0
0 0 0
0 0 0
0 0 0
0 0 0
0 0 0
0 0 0
0 0 0
0 0 0
120 0 120
5 0 235
120 0 120
120 0 120
235 0 5
235 0 5
235 0 5
120 0 120
120 0 120
114 0 126
114 0 126
114 0 126
120 0 120
126 0 114
120 0 120
120 0 120
11 0 229
11 0 229
11 0 229
0 0 240
0 0 240
0 0 240
120 0 120
235 0 5
235 0 5
229 0 11
235 0 5
235 0 5
235 0 5
120 0 120
120 0 120
0 0 0
0 0 0
0 0 0
0 0 0
0 0 0
0 0 0
0 0 0
0 0 0
0 0 0
0 0 0
0 0 0
0 0 0
0 0 0
0 0 0
0 0 0
0 0 0
0 0 0
0 0 0
0 0 0
0 0 0
0 0 0
0 0 0
0 0 0
0 0 0
0 0 0
0 0 0
0 0 0
0 0 0
0 0 0
0 0 0
0 0 0
0 0 0
0 0 0
235 0 5
120 0 120
120 0 120
120 0 120
235 0 5
235 0 5
235 0 5
120 0 120
5 0 235
5 0 235
5 0 235
5 0 235
126 0 114
126 0 114
120 0 120
120 0 120
5 0 235
5 0 235
5 0 235
0 0 240
0 0 240
114 0 126
235 0 5
240 0 0
240 0 0
235 0 5
235 0 5
235 0 5
235 0 5
120 0 120
120 0 120
120 0 120
0 0 0
0 0 0
0 0 0
0 0 0
0 0 0
0 0 0
0 0 0
0 0 0
0 0 0
0 0 0
0 0 0
0 0 0
0 0 0
0 0 0
0 0 0
0 0 0
0 0 0
0 0 0
0 0 0
0 0 0
0 0 0
0 0 0
0 0 0
0 0 0
0 0 0
0 0 0
0 0 0
0 0 0
0 0 0
0 0 0
0 0 0
0 0 0
240 0 0
126 0 114
126 0 114
126 0 114
240 0 0
240 0 0
126 0 114
126 0 114
11 0 229
11 0 229
5 0 235
5 0 235
126 0 114
126 0 114
120 0 120
114 0 126
114 0 126
5 0 235
120 0 120
120 0 120
114 0 126
120 0 120
120 0 120
240 0 0
240 0 0
240 0 0
235 0 5
235 0 5
235 0 5
235 0 5
120 0 120
120 0 120
120 0 120
0 0 0
0 0 0
0 0 0
0 0 0
0 0 0
0 0 0
0 0 0
0 0 0
0 0 0
0 0 0
0 0 0
0 0 0
0 0 0
0 0 0
0 0 0
0 0 0
0 0 0
0 0 0
0 0 0
0 0 0
0 0 0
0 0 0
0 0 0
0 0 0
0 0 0
0 0 0
0 0 0
0 0 0
0 0 0
0 0 0
0 0 0
240 0 0
126 0 114
126 0 114
126 0 114
126 0 114
126 0 114
126 0 114
126 0 114
11 0 229
11 0 229
5 0 235
5 0 235
120 0 120
120 0 120
120 0 120
114 0 126
229 0 11
114 0 126
120 0 120
126 0 114
120 0 120
120 0 120
120 0 120
240 0 0
240 0 0
240 0 0
235 0 5
229 0 11
229 0 11
235 0 5
235 0 5
120 0 120
120 0 120
0 0 0
0 0 0
0 0 0
0 0 0
0 0 0
0 0 0
0 0 0
0 0 0
0 0 0
0 0 0
0 0 0
0 0 0
0 0 0
0 0 0
0 0 0
0 0 0
0 0 0
0 0 0
0 0 0
0 0 0
0 0 0
0 0 0
0 0 0
0 0 0
0 0 0
0 0 0
0 0 0
0 0 0
0 0 0
0 0 0
0 0 0
240 0 0
126 0 114
11 0 229
11 0 229
126 0 114
126 0 114
126 0 114
126 0 114
11 0 229
5 0 235
0 0 240
0 0 240
114 0 126
120 0 120
235 0 5
229 0 11
235 0 5
120 0 120
126 0 114
126 0 114
126 0 114
120 0 120
120 0 120
120 0 120
235 0 5
235 0 5
235 0 5
229 0 11
229 0 11
229 0 11
229 0 11
114 0 126
0 0 240
0 0 240
0 0 0
0 0 0
0 0 0
0 0 0
0 0 0
0 0 0
0 0 0
0 0 0
0 0 0
0 0 0
0 0 0
0 0 0
0 0 0
0 0 0
0 0 0
0 0 0
0 0 0
0 0 0
0 0 0
0 0 0
0 0 0
0 0 0
0 0 0
0 0 0
0 0 0
0 0 0
0 0 0
0 0 0
0 0 0
0 0 0
126 0 114
5 0 235
5 0 235
5 0 235
120 0 120
120 0 120
120 0 120
120 0 120
5 0 235
5 0 235
5 0 235
114 0 126
114 0 126
235 0 5
240 0 0
240 0 0
235 0 5
235 0 5
126 0 114
126 0 114
126 0 114
114 0 126
114 0 126
114 0 126
235 0 5
235 0 5
235 0 5
229 0 11
229 0 11
229 0 11
114 0 126
114 0 126
0 0 240
0 0 240
0 0 240
0 0 0
0 0 0
0 0 0
0 0 0
0 0 0
0 0 0
0 0 0
0 0 0
0 0 0
0 0 0
0 0 0
0 0 0
0 0 0
0 0 0
0 0 0
0 0 0
0 0 0
0 0 0
0 0 0
0 0 0
0 0 0
0 0 0
0 0 0
0 0 0
0 0 0
0 0 0
0 0 0
0 0 0
120 0 120
120 0 120
5 0 235
5 0 235
5 0 235
120 0 120
120 0 120
120 0 120
120 0 120
5 0 235
120 0 120
120 0 120
120 0 120
120 0 120
240 0 0
240 0 0
240 0 0
235 0 5
235 0 5
120 0 120
120 0 120
120 0 120
114 0 126
114 0 126
114 0 126
114 0 126
235 0 5
235 0 5
120 0 120
114 0 126
114 0 126
114 0 126
114 0 126
114 0 126
0 0 240
0 0 240
0 0 240
0 0 0
0 0 0
0 0 0
0 0 0
0 0 0
0 0 0
0 0 0
0 0 0
0 0 0
0 0 0
0 0 0
0 0 0
0 0 0
0 0 0
0 0 0
0 0 0
0 0 0
0 0 0
0 0 0
0 0 0
0 0 0
0 0 0
0 0 0
0 0 0
0 0 0
0 0 0
0 0 0
120 0 120
120 0 120
5 0 235
5 0 235
5 0 235
120 0 120
120 0 120
120 0 120
235 0 5
126 0 114
126 0 114
126 0 114
120 0 120
120 0 120
240 0 0
240 0 0
240 0 0
229 0 11
229 0 11
229 0 11
120 0 120
120 0 120
120 0 120
114 0 126
114 0 126
0 0 240
120 0 120
126 0 114
126 0 114
126 0 114
120 0 120
120 0 120
114 0 126
114 0 126
0 0 240
0 0 240
0 0 240
0 0 0
0 0 0
0 0 0
0 0 0
0 0 0
0 0 0
0 0 0
0 0 0
0 0 0
0 0 0
0 0 0
0 0 0
0 0 0
0 0 0
0 0 0
0 0 0
0 0 0
0 0 0
0 0 0
0 0 0
0 0 0
0 0 0
0 0 0
0 0 0
0 0 0
0 0 0
0 0 0
120 0 120
5 0 235
5 0 235
5 0 235
5 0 235
235 0 5
240 0 0
240 0 0
240 0 0
126 0 114
126 0 114
126 0 114
120 0 120
120 0 120
235 0 5
235 0 5
235 0 5
229 0 11
229 0 11
229 0 11
120 0 120
120 0 120
120 0 120
0 0 240
5 0 235
5 0 235
5 0 235
126 0 114
126 0 114
126 0 114
120 0 120
120 0 120
120 0 120
120 0 120
114 0 126
0 0 240
0 0 240
0 0 240
0 0 0
0 0 0
0 0 0
0 0 0
0 0 0
0 0 0
0 0 0
0 0 0
0 0 0
0 0 0
0 0 0
0 0 0
0 0 0
0 0 0
0 0 0
0 0 0
0 0 0
0 0 0
0 0 0
0 0 0
0 0 0
0 0 0
0 0 0
0 0 0
0 0 0
0 0 0
120 0 120
5 0 235
5 0 235
126 0 114
126 0 114
240 0 0
240 0 0
240 0 0
240 0 0
126 0 114
126 0 114
126 0 114
120 0 120
114 0 126
229 0 11
235 0 5
235 0 5
235 0 5
229 0 11
229 0 11
0 0 240
5 0 235
11 0 229
11 0 229
5 0 235
5 0 235
5 0 235
126 0 114
126 0 114
126 0 114
126 0 114
126 0 114
120 0 120
120 0 120
120 0 120
120 0 120
0 0 240
0 0 240
0 0 240
0 0 0
0 0 0
0 0 0
0 0 0
0 0 0
0 0 0
0 0 0
0 0 0
0 0 0
0 0 0
0 0 0
0 0 0
0 0 0
0 0 0
0 0 0
0 0 0
0 0 0
0 0 0
0 0 0
0 0 0
0 0 0
0 0 0
0 0 0
0 0 0
0 0 0
240 0 0
126 0 114
126 0 114
126 0 114
126 0 114
240 0 0
240 0 0
240 0 0
240 0 0
240 0 0
120 0 120
120 0 120
114 0 126
114 0 126
114 0 126
235 0 5
235 0 5
120 0 120
114 0 126
120 0 120
120 0 120
11 0 229
11 0 229
11 0 229
5 0 235
5 0 235
5 0 235
5 0 235
126 0 114
126 0 114
126 0 114
126 0 114
126 0 114
120 0 120
120 0 120
120 0 120
5 0 235
0 0 240
0 0 240
0 0 240
0 0 0
0 0 0
0 0 0
0 0 0
0 0 0
0 0 0
0 0 0
0 0 0
0 0 0
0 0 0
0 0 0
0 0 0
0 0 0
0 0 0
0 0 0
0 0 0
0 0 0
0 0 0
0 0 0
0 0 0
0 0 0
0 0 0
0 0 0
0 0 0
240 0 0
126 0 114
126 0 114
126 0 114
126 0 114
240 0 0
240 0 0
240 0 0
240 0 0
235 0 5
120 0 120
120 0 120
120 0 120
114 0 126
0 0 240
120 0 120
126 0 114
126 0 114
120 0 120
120 0 120
120 0 120
11 0 229
11 0 229
11 0 229
5 0 235
5 0 235
5 0 235
5 0 235
126 0 114
126 0 114
126 0 114
126 0 114
126 0 114
126 0 114
120 0 120
120 0 120
120 0 120
5 0 235
5 0 235
0 0 240
0 0 0
0 0 0
0 0 0
0 0 0
0 0 0
0 0 0
0 0 0
0 0 0
0 0 0
0 0 0
0 0 0
0 0 0
0 0 0
0 0 0
0 0 0
0 0 0
0 0 0
0 0 0
0 0 0
0 0 0
0 0 0
0 0 0
0 0 0
0 0 0
240 0 0
126 0 114
126 0 114
126 0 114
126 0 114
240 0 0
240 0 0
235 0 5
235 0 5
235 0 5
120 0 120
120 0 120
5 0 235
0 0 240
5 0 235
120 0 120
126 0 114
126 0 114
120 0 120
120 0 120
120 0 120
11 0 229
11 0 229
11 0 229
5 0 235
5 0 235
5 0 235
5 0 235
5 0 235
126 0 114
126 0 114
126 0 114
126 0 114
126 0 114
126 0 114
120 0 120
120 0 120
120 0 120
5 0 235
5 0 235
5 0 235
0 0 0
0 0 0
0 0 0
0 0 0
0 0 0
0 0 0
0 0 0
0 0 0
