P3
64 36
255
0 0 0
0 0 0
0 0 0
0 0 0
0 0 0
0 0 0
0 0 0
0 0 0
0 0 0
0 0 0
0 0 0
0 0 0
0 0 0
0 0 0
0 0 0
0 0 0
0 0 0
0 0 0
0 0 0
0 0 0
0 0 0
0 0 0
0 0 0
0 0 0
0 0 0
0 0 0
0 0 0
0 0 0
0 0 0
0 0 0
0 0 0
0 0 0
0 0 0
0 0 0
0 0 0
0 0 0
0 0 0
0 0 0
0 0 0
0 0 0
0 0 0
0 0 0
0 0 0
0 0 0
0 0 0
0 0 0
0 0 0
0 0 0
0 0 0
0 0 0
0 0 0
0 0 0
0 0 0
0 0 0
0 0 0
0 0 0
0 0 0
0 0 0
0 0 0
0 0 0
0 0 0
0 0 0
0 0 0
0 0 0
0 0 0
0 0 0
0 0 0
0 0 0
0 0 0
0 0 0
0 0 0
0 0 0
0 0 0
0 0 0
0 0 0
0 0 0
0 0 0
0 0 0
0 0 0
0 0 0
0 0 0
0 0 0
0 0 0
0 0 0
0 0 0
0 0 0
0 0 0
0 0 0
0 0 0
0 0 0
0 0 0
0 0 0
0 0 0
0 0 0
0 0 0
0 0 0
0 0 0
0 0 0
0 0 0
0 0 0
0 0 0
0 0 0
0 0 0
0 0 0
0 0 0
0 0 0
0 0 0
0 0 0
0 0 0
0 0 0
0 0 0
0 0 0
0 0 0
0 0 0
0 0 0
0 0 0
0 0 0
0 0 0
0 0 0
0 0 0
0 0 0
0 0 0
0 0 0
0 0 0
0 0 0
0 0 0
0 0 0
0 0 0
0 0 0
0 0 0
0 0 0
0 0 0
0 0 0
0 0 0
0 0 0
0 0 0
0 0 0
0 0 0
0 0 0
0 0 0
0 0 0
0 0 0
0 0 0
0 0 0
0 0 0
0 0 0
0 0 0
0 0 0
0 0 0
0 0 0
0 0 0
0 0 0
0 0 0
0 0 0
0 0 0
0 0 0
0 0 0
0 0 0
0 0 0
0 0 0
0 0 0
0 0 0
0 0 0
0 0 0
0 0 0
0 0 0
0 0 0
0 0 0
0 0 0
0 0 0
0 0 0
0 0 0
0 0 0
0 0 0
0 0 0
0 0 0
0 0 0
0 0 0
0 0 0
0 0 0
0 0 0
0 0 0
0 0 0
0 0 0
0 0 0
0 0 0
0 0 0
0 0 0
0 0 0
0 0 0
0 0 0
0 0 0
0 0 0
0 0 0
0 0 0
0 0 0
0 0 0
0 0 0
0 0 0
0 0 0
0 0 0
0 0 0
0 0 0
0 0 0
0 0 0
0 0 0
0 0 0
0 0 0
0 0 0
0 0 0
0 0 0
0 0 0
0 0 0
0 0 0
0 0 0
0 0 0
0 0 0
0 0 0
0 0 0
0 0 0
0 0 0
0 0 0
0 0 0
0 0 0
0 0 0
0 0 0
0 0 0
0 0 0
0 0 0
0 0 0
0 0 0
0 0 0
0 0 0
0 0 0
0 0 0
0 0 0
0 0 0
0 0 0
0 0 0
0 0 0
0 0 0
0 0 0
0 0 0
0 0 0
0 0 0
0 0 0
0 0 0
0 0 0
0 0 0
0 0 0
0 0 0
0 0 0
0 0 0
0 0 0
0 0 0
0 0 0
0 0 0
0 0 0
0 0 0
0 0 0
0 0 0
0 0 0
0 0 0
0 0 0
0 0 0
0 0 0
0 0 0
0 0 0
0 0 0
0 0 0
0 0 0
0 0 0
0 0 0
0 0 0
0 0 0
0 0 0
0 0 0
0 0 0
0 0 0
0 0 0
0 0 0
0 0 0
0 0 0
0 0 0
0 0 0
0 0 0
0 0 0
0 0 0
0 0 0
0 0 0
0 0 0
0 0 0
0 0 0
120 0 120
120 0 120
0 0 240
0 0 0
0 0 0
0 0 0
0 0 0
0 0 0
0 0 0
0 0 0
0 0 0
0 0 0
0 0 0
0 0 0
0 0 0
0 0 0
0 0 0
0 0 0
0 0 0
0 0 0
0 0 0
0 0 0
0 0 0
0 0 0
0 0 0
0 0 0
0 0 0
0 0 0
0 0 0
0 0 0
0 0 0
0 0 0
0 0 0
0 0 0
0 0 0
0 0 0
0 0 0
0 0 0
0 0 0
0 0 0
0 0 0
0 0 0
0 0 0
0 0 0
0 0 0
0 0 0
0 0 0
0 0 0
0 0 0
0 0 0
0 0 0
0 0 0
0 0 0
0 0 0
0 0 0
0 0 0
0 0 0
0 0 0
0 0 0
0 0 0
0 0 0
120 0 120
120 0 120
120 0 120
120 0 120
114 0 126
114 0 126
120 0 120
0 0 0
0 0 0
0 0 0
0 0 0
0 0 0
0 0 0
0 0 0
0 0 0
0 0 0
0 0 0
0 0 0
0 0 0
0 0 0
0 0 0
0 0 0
0 0 0
0 0 0
0 0 0
0 0 0
0 0 0
0 0 0
0 0 0
0 0 0
0 0 0
0 0 0
0 0 0
0 0 0
0 0 0
0 0 0
0 0 0
0 0 0
0 0 0
0 0 0
0 0 0
0 0 0
0 0 0
0 0 0
0 0 0
0 0 0
0 0 0
0 0 0
0 0 0
0 0 0
0 0 0
0 0 0
0 0 0
0 0 0
0 0 0
0 0 0
0 0 0
0 0 0
0 0 0
0 0 0
0 0 0
0 0 240
0 0 240
0 0 240
0 0 240
120 0 120
235 0 5
235 0 5
229 0 11
114 0 126
120 0 120
0 0 0
0 0 0
0 0 0
0 0 0
0 0 0
0 0 0
0 0 0
0 0 0
0 0 0
0 0 0
0 0 0
0 0 0
0 0 0
0 0 0
0 0 0
0 0 0
0 0 0
0 0 0
0 0 0
0 0 0
0 0 0
0 0 0
0 0 0
0 0 0
0 0 0
0 0 0
0 0 0
0 0 0
0 0 0
0 0 0
0 0 0
0 0 0
0 0 0
0 0 0
0 0 0
0 0 0
0 0 0
0 0 0
0 0 0
0 0 0
0 0 0
0 0 0
0 0 0
0 0 0
0 0 0
0 0 0
0 0 0
0 0 0
0 0 0
0 0 0
0 0 0
120 0 120
120 0 120
120 0 120
0 0 240
0 0 240
114 0 126
114 0 126
235 0 5
235 0 5
235 0 5
229 0 11
229 0 11
120 0 120
0 0 0
0 0 0
0 0 0
0 0 0
0 0 0
0 0 0
0 0 0
0 0 0
0 0 0
0 0 0
0 0 0
0 0 0
0 0 0
0 0 0
0 0 0
0 0 0
0 0 0
0 0 0
0 0 0
0 0 0
0 0 0
0 0 0
0 0 0
0 0 0
0 0 0
0 0 0
0 0 0
0 0 0
0 0 0
0 0 0
0 0 0
0 0 0
0 0 0
0 0 0
0 0 0
0 0 0
0 0 0
0 0 0
0 0 0
0 0 0
0 0 0
0 0 0
0 0 0
0 0 0
0 0 0
0 0 0
0 0 0
0 0 0
0 0 240
0 0 240
120 0 120
120 0 120
120 0 120
235 0 5
114 0 126
114 0 126
114 0 126
114 0 126
235 0 5
235 0 5
235 0 5
229 0 11
235 0 5
120 0 120
0 0 0
0 0 0
0 0 0
0 0 0
0 0 0
0 0 0
0 0 0
0 0 0
0 0 0
0 0 0
0 0 0
0 0 0
0 0 0
0 0 0
0 0 0
0 0 0
0 0 0
0 0 0
0 0 0
0 0 0
0 0 0
0 0 0
0 0 0
0 0 0
0 0 0
0 0 0
0 0 0
0 0 0
0 0 0
0 0 0
0 0 0
0 0 0
0 0 0
0 0 0
0 0 0
0 0 0
0 0 0
0 0 0
0 0 0
0 0 0
0 0 0
0 0 0
0 0 0
0 0 0
0 0 0
120 0 120
5 0 235
0 0 240
0 0 240
114 0 126
229 0 11
235 0 5
235 0 5
235 0 5
120 0 120
114 0 126
114 0 126
114 0 126
120 0 120
235 0 5
235 0 5
229 0 11
235 0 5
120 0 120
0 0 240
0 0 0
0 0 0
0 0 0
0 0 0
0 0 0
0 0 0
0 0 0
0 0 0
0 0 0
0 0 0
0 0 0
0 0 0
0 0 0
0 0 0
0 0 0
0 0 0
0 0 0
0 0 0
0 0 0
0 0 0
0 0 0
0 0 0
0 0 0
0 0 0
0 0 0
0 0 0
0 0 0
0 0 0
0 0 0
0 0 0
0 0 0
0 0 0
0 0 0
0 0 0
0 0 0
0 0 0
0 0 0
0 0 0
0 0 0
0 0 0
0 0 0
0 0 240
120 0 120
120 0 120
120 0 120
120 0 120
120 0 120
114 0 126
114 0 126
229 0 11
229 0 11
235 0 5
235 0 5
120 0 120
120 0 120
114 0 126
114 0 126
120 0 120
240 0 0
126 0 114
120 0 120
120 0 120
5 0 235
0 0 240
0 0 0
0 0 0
0 0 0
0 0 0
0 0 0
0 0 0
0 0 0
0 0 0
0 0 0
0 0 0
0 0 0
0 0 0
0 0 0
0 0 0
0 0 0
0 0 0
0 0 0
0 0 0
0 0 0
0 0 0
0 0 0
0 0 0
0 0 0
0 0 0
0 0 0
0 0 0
0 0 0
0 0 0
0 0 0
0 0 0
0 0 0
0 0 0
0 0 0
0 0 0
0 0 0
0 0 0
0 0 0
0 0 0
5 0 235
0 0 240
0 0 240
0 0 240
229 0 11
229 0 11
229 0 11
235 0 5
120 0 120
120 0 120
120 0 120
114 0 126
229 0 11
229 0 11
235 0 5
235 0 5
120 0 120
120 0 120
5 0 235
5 0 235
126 0 114
126 0 114
120 0 120
120 0 120
114 0 126
0 0 240
0 0 0
0 0 0
0 0 0
0 0 0
0 0 0
0 0 0
0 0 0
0 0 0
0 0 0
0 0 0
0 0 0
0 0 0
0 0 0
0 0 0
0 0 0
0 0 0
0 0 0
0 0 0
0 0 0
0 0 0
0 0 0
0 0 0
0 0 0
0 0 0
0 0 0
0 0 0
0 0 0
0 0 0
0 0 0
0 0 0
0 0 0
0 0 0
0 0 0
0 0 0
0 0 0
0 0 0
0 0 0
120 0 120
120 0 120
120 0 120
120 0 120
120 0 120
229 0 11
229 0 11
229 0 11
229 0 11
114 0 126
120 0 120
120 0 120
120 0 120
229 0 11
235 0 5
120 0 120
126 0 114
11 0 229
5 0 235
5 0 235
5 0 235
126 0 114
126 0 114
126 0 114
114 0 126
114 0 126
0 0 240
0 0 0
0 0 0
0 0 0
0 0 0
0 0 0
0 0 0
0 0 0
0 0 0
0 0 0
0 0 0
0 0 0
0 0 0
0 0 0
0 0 0
0 0 0
0 0 0
0 0 0
0 0 0
0 0 0
0 0 0
0 0 0
0 0 0
0 0 0
0 0 0
0 0 0
0 0 0
0 0 0
0 0 0
0 0 0
0 0 0
0 0 0
0 0 0
0 0 0
0 0 0
0 0 0
0 0 0
0 0 0
0 0 0
240 0 0
126 0 114
120 0 120
120 0 120
235 0 5
235 0 5
235 0 5
229 0 11
114 0 126
114 0 126
126 0 114
11 0 229
120 0 120
120 0 120
120 0 120
126 0 114
11 0 229
5 0 235
5 0 235
0 0 240
5 0 235
120 0 120
120 0 120
114 0 126
114 0 126
0 0 240
120 0 120
0 0 0
0 0 0
0 0 0
0 0 0
0 0 0
0 0 0
0 0 0
0 0 0
0 0 0
0 0 0
0 0 0
0 0 0
0 0 0
0 0 0
0 0 0
0 0 0
0 0 0
0 0 0
0 0 0
0 0 0
0 0 0
0 0 0
0 0 0
0 0 0
0 0 0
0 0 0
0 0 0
0 0 0
0 0 0
0 0 0
0 0 0
0 0 0
0 0 0
0 0 0
0 0 0
0 0 0
0 0 0
240 0 0
126 0 114
126 0 114
126 0 114
126 0 114
240 0 0
240 0 0
126 0 114
5 0 235
5 0 235
11 0 229
11 0 229
126 0 114
120 0 120
120 0 120
120 0 120
120 0 120
5 0 235
0 0 240
0 0 240
5 0 235
120 0 120
120 0 120
229 0 11
229 0 11
120 0 120
120 0 120
0 0 0
0 0 0
0 0 0
0 0 0
0 0 0
0 0 0
0 0 0
0 0 0
0 0 0
0 0 0
0 0 0
0 0 0
0 0 0
0 0 0
0 0 0
0 0 0
0 0 0
0 0 0
0 0 0
0 0 0
0 0 0
0 0 0
0 0 0
0 0 0
0 0 0
0 0 0
0 0 0
0 0 0
0 0 0
0 0 0
0 0 0
0 0 0
0 0 0
0 0 0
0 0 0
0 0 0
0 0 0
240 0 0
126 0 114
126 0 114
126 0 114
11 0 229
126 0 114
126 0 114
126 0 114
120 0 120
5 0 235
11 0 229
11 0 229
5 0 235
114 0 126
114 0 126
120 0 120
120 0 120
5 0 235
0 0 240
114 0 126
114 0 126
240 0 0
240 0 0
235 0 5
235 0 5
235 0 5
120 0 120
0 0 0
0 0 0
0 0 0
0 0 0
0 0 0
0 0 0
0 0 0
0 0 0
0 0 0
0 0 0
0 0 0
0 0 0
0 0 0
0 0 0
0 0 0
0 0 0
0 0 0
0 0 0
0 0 0
0 0 0
0 0 0
0 0 0
0 0 0
0 0 0
0 0 0
0 0 0
0 0 0
0 0 0
0 0 0
0 0 0
0 0 0
0 0 0
0 0 0
0 0 0
0 0 0
0 0 0
0 0 0
240 0 0
126 0 114
11 0 229
11 0 229
11 0 229
126 0 114
126 0 114
126 0 114
114 0 126
0 0 240
0 0 240
5 0 235
5 0 235
114 0 126
114 0 126
229 0 11
235 0 5
126 0 114
120 0 120
120 0 120
120 0 120
240 0 0
240 0 0
240 0 0
235 0 5
235 0 5
120 0 120
0 0 0
0 0 0
0 0 0
0 0 0
0 0 0
0 0 0
0 0 0
0 0 0
0 0 0
0 0 0
0 0 0
0 0 0
0 0 0
0 0 0
0 0 0
0 0 0
0 0 0
0 0 0
0 0 0
0 0 0
0 0 0
0 0 0
0 0 0
0 0 0
0 0 0
0 0 0
0 0 0
0 0 0
0 0 0
0 0 0
0 0 0
0 0 0
0 0 0
0 0 0
0 0 0
0 0 0
0 0 0
0 0 0
120 0 120
5 0 235
5 0 235
5 0 235
120 0 120
120 0 120
120 0 120
114 0 126
0 0 240
0 0 240
120 0 120
120 0 120
229 0 11
235 0 5
235 0 5
240 0 0
126 0 114
120 0 120
120 0 120
120 0 120
126 0 114
240 0 0
240 0 0
229 0 11
229 0 11
114 0 126
120 0 120
0 0 0
0 0 0
0 0 0
0 0 0
0 0 0
0 0 0
0 0 0
0 0 0
0 0 0
0 0 0
0 0 0
0 0 0
0 0 0
0 0 0
0 0 0
0 0 0
0 0 0
0 0 0
0 0 0
0 0 0
0 0 0
0 0 0
0 0 0
0 0 0
0 0 0
0 0 0
0 0 0
0 0 0
0 0 0
0 0 0
0 0 0
0 0 0
0 0 0
0 0 0
0 0 0
0 0 0
0 0 0
120 0 120
5 0 235
5 0 235
5 0 235
5 0 235
120 0 120
120 0 120
235 0 5
114 0 126
120 0 120
126 0 114
126 0 114
240 0 0
235 0 5
235 0 5
240 0 0
240 0 0
126 0 114
120 0 120
114 0 126
120 0 120
235 0 5
235 0 5
114 0 126
114 0 126
0 0 240
0 0 240
0 0 0
0 0 0
0 0 0
0 0 0
0 0 0
0 0 0
0 0 0
0 0 0
0 0 0
0 0 0
0 0 0
0 0 0
0 0 0
0 0 0
0 0 0
0 0 0
0 0 0
0 0 0
0 0 0
0 0 0
0 0 0
0 0 0
0 0 0
0 0 0
0 0 0
0 0 0
0 0 0
0 0 0
0 0 0
0 0 0
0 0 0
0 0 0
0 0 0
0 0 0
0 0 0
0 0 0
0 0 0
120 0 120
5 0 235
5 0 235
120 0 120
126 0 114
240 0 0
240 0 0
240 0 0
235 0 5
120 0 120
126 0 114
126 0 114
126 0 114
235 0 5
235 0 5
235 0 5
235 0 5
120 0 120
114 0 126
0 0 240
0 0 240
120 0 120
120 0 120
114 0 126
114 0 126
114 0 126
0 0 240
0 0 0
0 0 0
0 0 0
0 0 0
0 0 0
0 0 0
0 0 0
0 0 0
0 0 0
0 0 0
0 0 0
0 0 0
0 0 0
0 0 0
0 0 0
0 0 0
0 0 0
0 0 0
0 0 0
0 0 0
0 0 0
0 0 0
0 0 0
0 0 0
0 0 0
0 0 0
0 0 0
0 0 0
0 0 0
0 0 0
0 0 0
0 0 0
0 0 0
0 0 0
0 0 0
0 0 0
0 0 0
240 0 0
240 0 0
126 0 114
126 0 114
126 0 114
240 0 0
240 0 0
240 0 0
235 0 5
120 0 120
120 0 120
120 0 120
120 0 120
229 0 11
229 0 11
114 0 126
120 0 120
5 0 235
0 0 240
0 0 240
0 0 240
126 0 114
126 0 114
126 0 114
120 0 120
120 0 120
0 0 240
0 0 0
0 0 0
0 0 0
0 0 0
0 0 0
0 0 0
0 0 0
0 0 0
0 0 0
0 0 0
0 0 0
0 0 0
0 0 0
0 0 0
0 0 0
0 0 0
0 0 0
0 0 0
0 0 0
0 0 0
0 0 0
0 0 0
0 0 0
0 0 0
0 0 0
0 0 0
0 0 0
0 0 0
0 0 0
0 0 0
0 0 0
0 0 0
0 0 0
0 0 0
0 0 0
0 0 0
0 0 0
0 0 0
240 0 0
126 0 114
126 0 114
126 0 114
240 0 0
240 0 0
235 0 5
229 0 11
114 0 126
114 0 126
5 0 235
5 0 235
114 0 126
114 0 126
114 0 126
120 0 120
11 0 229
11 0 229
5 0 235
5 0 235
11 0 229
126 0 114
126 0 114
120 0 120
120 0 120
5 0 235
0 0 240
0 0 0
0 0 0
0 0 0
0 0 0
0 0 0
0 0 0
0 0 0
0 0 0
0 0 0
0 0 0
0 0 0
0 0 0
0 0 0
0 0 0
0 0 0
0 0 0
0 0 0
0 0 0
0 0 0
0 0 0
0 0 0
0 0 0
0 0 0
0 0 0
0 0 0
0 0 0
0 0 0
0 0 0
0 0 0
0 0 0
0 0 0
0 0 0
0 0 0
0 0 0
0 0 0
0 0 0
0 0 0
240 0 0
126 0 114
126 0 114
126 0 114
120 0 120
235 0 5
120 0 120
120 0 120
114 0 126
0 0 240
5 0 235
5 0 235
126 0 114
120 0 120
120 0 120
126 0 114
126 0 114
11 0 229
5 0 235
5 0 235
11 0 229
126 0 114
126 0 114
229 0 11
235 0 5
120 0 120
120 0 120
0 0 0
0 0 0
0 0 0
0 0 0
0 0 0
0 0 0
0 0 0
0 0 0
0 0 0
0 0 0
0 0 0
0 0 0
0 0 0
0 0 0
0 0 0
0 0 0
0 0 0
0 0 0
0 0 0
0 0 0
0 0 0
0 0 0
0 0 0
0 0 0
0 0 0
0 0 0
0 0 0
0 0 0
0 0 0
0 0 0
0 0 0
0 0 0
0 0 0
0 0 0
0 0 0
0 0 0
0 0 0
240 0 0
5 0 235
5 0 235
5 0 235
5 0 235
120 0 120
120 0 120
120 0 120
120 0 120
5 0 235
11 0 229
11 0 229
11 0 229
120 0 120
120 0 120
126 0 114
126 0 114
11 0 229
5 0 235
114 0 126
114 0 126
235 0 5
235 0 5
229 0 11
229 0 11
235 0 5
120 0 120
0 0 0
0 0 0
0 0 0
0 0 0
0 0 0
0 0 0
0 0 0
0 0 0
0 0 0
0 0 0
0 0 0
0 0 0
0 0 0
0 0 0
0 0 0
0 0 0
0 0 0
0 0 0
0 0 0
0 0 0
0 0 0
0 0 0
0 0 0
0 0 0
0 0 0
0 0 0
0 0 0
0 0 0
0 0 0
0 0 0
0 0 0
0 0 0
0 0 0
0 0 0
0 0 0
0 0 0
0 0 0
120 0 120
120 0 120
5 0 235
5 0 235
5 0 235
120 0 120
126 0 114
126 0 114
120 0 120
5 0 235
5 0 235
11 0 229
11 0 229
120 0 120
229 0 11
229 0 11
235 0 5
120 0 120
114 0 126
114 0 126
114 0 126
235 0 5
235 0 5
235 0 5
229 0 11
229 0 11
120 0 120
0 0 0
0 0 0
0 0 0
0 0 0
0 0 0
0 0 0
0 0 0
0 0 0
0 0 0
0 0 0
0 0 0
0 0 0
0 0 0
0 0 0
0 0 0
0 0 0
0 0 0
0 0 0
0 0 0
0 0 0
0 0 0
0 0 0
0 0 0
0 0 0
0 0 0
0 0 0
0 0 0
0 0 0
0 0 0
0 0 0
0 0 0
0 0 0
0 0 0
0 0 0
0 0 0
0 0 0
0 0 0
0 0 0
120 0 120
5 0 235
5 0 235
11 0 229
11 0 229
126 0 114
126 0 114
120 0 120
5 0 235
114 0 126
120 0 120
120 0 120
229 0 11
229 0 11
229 0 11
235 0 5
120 0 120
120 0 120
114 0 126
114 0 126
120 0 120
240 0 0
240 0 0
235 0 5
229 0 11
114 0 126
120 0 120
0 0 0
0 0 0
0 0 0
0 0 0
0 0 0
0 0 0
0 0 0
0 0 0
0 0 0
0 0 0
0 0 0
0 0 0
0 0 0
0 0 0
0 0 0
0 0 0
0 0 0
0 0 0
0 0 0
0 0 0
0 0 0
0 0 0
0 0 0
0 0 0
0 0 0
0 0 0
0 0 0
0 0 0
0 0 0
0 0 0
0 0 0
0 0 0
0 0 0
0 0 0
0 0 0
0 0 0
0 0 0
120 0 120
5 0 235
11 0 229
11 0 229
126 0 114
240 0 0
235 0 5
235 0 5
229 0 11
114 0 126
120 0 120
120 0 120
235 0 5
229 0 11
229 0 11
235 0 5
240 0 0
126 0 114
120 0 120
120 0 120
126 0 114
240 0 0
240 0 0
235 0 5
120 0 120
0 0 240
0 0 240
0 0 0
0 0 0
0 0 0
0 0 0
0 0 0
0 0 0
0 0 0
0 0 0
0 0 0
0 0 0
0 0 0
0 0 0
0 0 0
0 0 0
0 0 0
0 0 0
0 0 0
0 0 0
0 0 0
0 0 0
0 0 0
0 0 0
0 0 0
0 0 0
0 0 0
0 0 0
0 0 0
0 0 0
0 0 0
0 0 0
0 0 0
0 0 0
0 0 0
0 0 0
0 0 0
0 0 0
0 0 0
240 0 0
126 0 114
126 0 114
126 0 114
126 0 114
235 0 5
235 0 5
235 0 5
229 0 11
114 0 126
120 0 120
126 0 114
126 0 114
235 0 5
235 0 5
240 0 0
240 0 0
126 0 114
120 0 120
5 0 235
5 0 235
126 0 114
126 0 114
126 0 114
120 0 120
120 0 120
0 0 240
0 0 0
0 0 0
0 0 0
0 0 0
0 0 0
0 0 0
0 0 0
0 0 0
0 0 0
0 0 0
0 0 0
0 0 0
0 0 0
0 0 0
0 0 0
0 0 0
0 0 0
0 0 0
0 0 0
0 0 0
0 0 0
0 0 0
0 0 0
0 0 0
0 0 0
0 0 0
0 0 0
0 0 0
0 0 0
0 0 0
0 0 0
0 0 0
0 0 0
0 0 0
0 0 0
0 0 0
0 0 0
240 0 0
240 0 0
126 0 114
126 0 114
120 0 120
235 0 5
235 0 5
240 0 0
235 0 5
120 0 120
120 0 120
126 0 114
126 0 114
235 0 5
120 0 120
126 0 114
126 0 114
11 0 229
5 0 235
5 0 235
5 0 235
126 0 114
126 0 114
126 0 114
126 0 114
120 0 120
5 0 235
0 0 0
0 0 0
0 0 0
0 0 0
0 0 0
0 0 0
0 0 0
0 0 0
0 0 0
0 0 0
0 0 0
0 0 0
0 0 0
0 0 0
0 0 0
0 0 0
0 0 0
0 0 0
0 0 0
0 0 0
0 0 0
0 0 0
0 0 0
0 0 0
0 0 0
0 0 0
0 0 0
0 0 0
0 0 0
0 0 0
0 0 0
0 0 0
0 0 0
0 0 0
0 0 0
0 0 0
0 0 0
0 0 0
240 0 0
126 0 114
120 0 120
120 0 120
120 0 120
240 0 0
240 0 0
235 0 5
5 0 235
11 0 229
11 0 229
5 0 235
120 0 120
120 0 120
126 0 114
126 0 114
11 0 229
5 0 235
5 0 235
5 0 235
11 0 229
126 0 114
126 0 114
126 0 114
120 0 120
5 0 235
0 0 240
0 0 0
0 0 0
0 0 0
0 0 0
0 0 0
0 0 0
0 0 0
0 0 0
0 0 0
0 0 0
0 0 0
0 0 0
0 0 0
0 0 0
0 0 0
0 0 0
0 0 0
0 0 0
0 0 0
0 0 0
0 0 0
0 0 0
0 0 0
0 0 0
0 0 0
0 0 0
0 0 0
0 0 0
0 0 0
0 0 0
0 0 0
0 0 0
0 0 0
0 0 0
0 0 0
0 0 0
0 0 0
240 0 0
120 0 120
120 0 120
5 0 235
5 0 235
126 0 114
120 0 120
120 0 120
120 0 120
11 0 229
11 0 229
5 0 235
5 0 235
120 0 120
126 0 114
126 0 114
126 0 114
5 0 235
5 0 235
5 0 235
5 0 235
126 0 114
126 0 114
126 0 114
126 0 114
120 0 120
120 0 120
0 0 0
0 0 0
0 0 0
0 0 0
0 0 0
0 0 0
0 0 0
0 0 0
0 0 0
0 0 0
0 0 0
0 0 0
0 0 0
0 0 0
0 0 0
0 0 0
0 0 0
0 0 0
0 0 0
0 0 0
0 0 0
0 0 0
0 0 0
0 0 0
0 0 0
0 0 0
0 0 0
0 0 0
0 0 0
0 0 0
0 0 0
0 0 0
0 0 0
0 0 0
0 0 0
0 0 0
0 0 0
120 0 120
5 0 235
5 0 235
5 0 235
11 0 229
126 0 114
120 0 120
120 0 120
126 0 114
11 0 229
11 0 229
5 0 235
5 0 235
120 0 120
126 0 114
126 0 114
126 0 114
5 0 235
5 0 235
120 0 120
120 0 120
240 0 0
240 0 0
240 0 0
240 0 0
240 0 0
120 0 120
0 0 0
0 0 0
0 0 0
0 0 0
0 0 0
0 0 0
0 0 0
0 0 0
0 0 0
0 0 0
0 0 0
0 0 0
0 0 0
0 0 0
0 0 0
0 0 0
0 0 0
0 0 0
0 0 0
0 0 0
0 0 0
0 0 0
0 0 0
0 0 0
0 0 0
0 0 0
0 0 0
0 0 0
0 0 0
0 0 0
0 0 0
0 0 0
0 0 0
0 0 0
0 0 0
0 0 0
0 0 0
0 0 0
120 0 120
5 0 235
11 0 229
11 0 229
120 0 120
120 0 120
126 0 114
126 0 114
11 0 229
5 0 235
5 0 235
5 0 235
235 0 5
240 0 0
240 0 0
240 0 0
120 0 120
120 0 120
120 0 120
120 0 120
0 0 0
0 0 0
0 0 0
0 0 0
0 0 0
0 0 0
0 0 0
0 0 0
0 0 0
0 0 0
0 0 0
0 0 0
0 0 0
0 0 0
0 0 0
0 0 0
0 0 0
0 0 0
0 0 0
0 0 0
0 0 0
0 0 0
0 0 0
44 44 44
49 49 49
89 89 89
4 4 4
49 49 49
44 44 44
49 49 49
45 45 45
49 49 49
45 45 45
49 49 49
45 45 45
4 4 4
91 91 91
45 45 45
50 50 50
45 45 45
50 50 50
46 46 46
50 50 50
46 46 46
120 0 120
11 0 229
11 0 229
5 0 235
5 0 235
120 0 120
240 0 0
240 0 0
126 0 114
120 0 120
120 0 120
120 0 120
240 0 0
240 0 0
53 53 53
48 48 48
53 53 53
48 48 48
52 52 52
48 48 48
4 4 4
95 95 95
47 47 47
52 52 52
47 47 47
52 52 52
47 47 47
52 52 52
47 47 47
4 4 4
94 94 94
46 46 46
51 51 51
46 46 46
51 51 51
46 46 46
51 51 51
46 46 46
50 50 50
92 92 92
4 4 4
50 50 50
45 45 45
5 5 5
5 5 5
61 61 61
111 111 111
111 111 111
56 56 56
5 5 5
62 62 62
113 113 113
114 114 114
57 57 57
5 5 5
5 5 5
63 63 63
116 116 116
58 58 58
5 5 5
5 5 5
64 64 64
118 118 118
118 118 118
126 0 114
126 0 114
120 0 120
120 0 120
120 0 120
240 0 0
240 0 0
240 0 0
71 71 71
129 129 129
129 129 129
6 6 6
6 6 6
71 71 71
129 129 129
129 129 129
64 64 64
6 6 6
6 6 6
128 128 128
128 128 128
64 64 64
6 6 6
6 6 6
70 70 70
126 126 126
126 126 126
63 63 63
6 6 6
68 68 68
124 124 124
124 124 124
61 61 61
6 6 6
6 6 6
67 67 67
121 121 121
60 60 60
6 6 6
5 5 5
65 65 65
118 118 118
118 118 118
63 63 63
63 63 63
64 64 64
70 70 70
71 71 71
71 71 71
71 71 71
131 131 131
65 65 65
66 66 66
66 66 66
6 6 6
73 73 73
73 73 73
74 74 74
74 74 74
136 136 136
68 68 68
68 68 68
68 68 68
6 6 6
240 0 0
126 0 114
60 60 60
60 60 60
110 110 110
55 55 55
55 55 55
55 55 55
5 5 5
68 68 68
68 68 68
68 68 68
68 68 68
155 155 155
77 77 77
77 77 77
77 77 77
7 7 7
85 85 85
85 85 85
84 84 84
84 84 84
153 153 153
76 76 76
76 76 76
76 76 76
7 7 7
83 83 83
83 83 83
82 82 82
82 82 82
149 149 149
74 74 74
73 73 73
73 73 73
7 7 7
80 80 80
79 79 79
79 79 79
79 79 79
71 71 71
71 71 71
70 70 70
