P3
64 36
255
0 0 0
0 0 0
0 0 0
0 0 0
0 0 0
0 0 0
0 0 0
0 0 0
0 0 0
0 0 0
73 0 76
83 0 0
61 0 61
56 0 56
0 0 110
96 0 0
44 0 44
80 0 0
76 0 0
39 0 38
0 0 106
0 0 102
49 0 49
47 0 47
45 0 45
38 0 42
47 0 38
43 0 43
41 0 41
83 0 6
91 0 0
46 0 46
46 0 46
7 0 84
3 0 80
41 0 41
43 0 43
38 0 47
45 0 38
42 0 42
40 0 40
39 0 39
77 0 2
77 0 0
38 0 38
0 0 77
0 0 76
42 0 42
0 0 96
91 0 0
50 0 50
57 0 57
0 0 138
86 6 79
0 0 0
0 0 0
0 0 0
0 0 0
0 0 0
0 0 0
0 0 0
0 0 0
0 0 0
0 0 0
0 0 0
0 0 0
0 0 0
0 0 0
0 0 0
0 0 0
0 0 0
0 0 0
0 0 0
0 0 0
0 0 0
0 0 0
65 0 67
0 0 76
55 0 55
100 0 0
91 0 0
38 0 38
76 0 0
56 0 56
1 0 107
2 0 76
39 0 39
47 0 47
43 0 38
38 0 45
48 0 38
44 0 44
45 0 45
93 0 0
56 0 38
47 0 47
56 0 38
38 0 56
0 0 93
47 0 47
41 0 41
38 0 47
45 0 38
38 0 43
41 0 41
39 0 39
76 0 2
77 0 0
38 0 38
0 0 76
38 0 38
0 0 88
0 0 79
47 0 47
118 0 0
65 0 64
0 0 0
0 0 0
0 0 0
0 0 0
0 0 0
0 0 0
0 0 0
0 0 0
0 0 0
0 0 0
0 0 0
0 0 0
0 0 0
0 0 0
0 0 0
0 0 0
0 0 0
0 0 0
0 0 0
0 0 0
0 0 0
0 0 0
0 0 0
0 0 0
0 0 0
65 0 66
41 0 41
38 0 38
96 0 0
43 0 43
0 0 76
40 0 40
38 0 39
1 0 77
0 0 100
48 0 48
76 0 5
90 0 0
43 0 43
38 0 52
46 0 46
18 0 76
48 0 48
38 0 59
60 0 38
48 0 48
76 0 18
47 0 46
51 0 38
43 0 43
0 0 81
5 0 76
40 0 40
80 0 0
77 0 1
39 0 38
38 0 38
76 0 0
38 0 38
0 0 93
52 0 52
76 0 77
63 0 62
0 0 0
0 0 0
0 0 0
0 0 0
0 0 0
0 0 0
0 0 0
0 0 0
0 0 0
0 0 0
0 0 0
0 0 0
0 0 0
0 0 0
0 0 0
0 0 0
0 0 0
0 0 0
0 0 0
0 0 0
0 0 0
0 0 0
0 0 0
0 0 0
0 0 0
0 0 0
0 0 0
129 0 1
58 0 57
41 0 41
38 0 38
0 0 76
38 0 38
39 0 39
1 0 78
0 0 102
80 0 0
94 0 0
84 0 0
77 0 11
49 0 49
48 0 38
0 0 98
12 0 88
51 0 38
38 0 63
89 0 12
99 0 0
38 0 48
48 0 48
11 0 76
0 0 85
0 0 85
0 0 80
79 0 0
78 0 0
38 0 38
38 0 38
83 0 0
44 0 44
41 0 41
54 0 55
0 0 124
0 0 0
0 0 0
0 0 0
0 0 0
0 0 0
0 0 0
0 0 0
0 0 0
0 0 0
0 0 0
0 0 0
0 0 0
0 0 0
0 0 0
0 0 0
0 0 0
0 0 0
0 0 0
0 0 0
0 0 0
0 0 0
0 0 0
0 0 0
0 0 0
0 0 0
0 0 0
0 0 0
0 0 0
0 0 0
68 0 68
59 0 59
0 0 99
40 0 40
0 0 77
38 0 38
38 0 38
52 0 52
51 0 51
79 0 3
80 0 4
76 0 12
38 0 55
0 0 96
25 0 76
14 0 76
69 0 38
38 0 68
76 0 28
76 0 13
99 0 0
55 0 38
12 0 76
2 0 79
3 0 79
42 0 42
39 0 39
38 0 38
38 0 38
76 0 0
45 0 45
98 0 0
51 0 51
66 0 67
0 0 0
0 0 0
0 0 0
0 0 0
0 0 0
0 0 0
0 0 0
0 0 0
0 0 0
0 0 0
0 0 0
0 0 0
0 0 0
0 0 0
0 0 0
0 0 0
0 0 0
0 0 0
0 0 0
0 0 0
0 0 0
0 0 0
0 0 0
0 0 0
0 0 0
0 0 0
0 0 0
0 0 0
0 0 0
0 0 0
0 0 0
0 0 0
57 0 57
48 0 47
0 0 81
0 0 81
82 0 0
55 0 55
50 0 50
48 0 48
93 0 0
89 0 0
48 0 48
0 0 99
30 0 76
16 0 93
0 0 94
94 0 0
93 0 16
76 0 29
101 0 0
49 0 49
0 0 89
8 0 76
41 0 41
40 0 40
41 0 41
0 0 82
82 0 0
86 0 0
38 0 39
66 0 65
0 0 0
0 0 0
0 0 0
0 0 0
0 0 0
0 0 0
0 0 0
0 0 0
0 0 0
0 0 0
0 0 0
0 0 0
0 0 0
0 0 0
0 0 0
0 0 0
0 0 0
0 0 0
0 0 0
0 0 0
0 0 0
0 0 0
0 0 0
0 0 0
0 0 0
0 0 0
0 0 0
0 0 0
0 0 0
0 0 0
0 0 0
0 0 0
0 0 0
0 0 0
0 0 0
105 0 0
77 0 0
38 0 38
78 0 0
82 0 0
39 0 41
52 0 52
98 0 0
44 0 44
47 0 47
13 0 90
0 0 107
38 0 76
20 0 76
116 0 0
76 0 19
111 0 0
90 0 13
52 0 52
44 0 44
0 0 94
44 0 44
43 2 41
1 0 77
0 0 78
39 0 40
0 0 77
0 0 88
0 0 0
0 0 0
0 0 0
0 0 0
0 0 0
0 0 0
0 0 0
0 0 0
0 0 0
0 0 0
0 0 0
0 0 0
0 0 0
0 0 0
0 0 0
0 0 0
0 0 0
0 0 0
0 0 0
0 0 0
0 0 0
0 0 0
0 0 0
0 0 0
0 0 0
0 0 0
0 0 0
0 0 0
0 0 0
0 0 0
0 0 0
0 0 0
0 0 0
0 0 0
0 0 0
0 0 0
0 0 0
107 0 5
87 0 0
40 0 40
78 0 0
78 0 2
38 0 44
0 0 98
38 0 51
51 0 49
38 0 67
0 0 116
23 10 128
117 10 117
119 10 119
120 0 6
95 0 0
67 0 38
51 0 53
51 0 38
91 0 0
46 2 40
2 1 79
0 0 78
40 0 40
0 0 88
2 0 87
0 0 0
0 0 0
0 0 0
0 0 0
0 0 0
0 0 0
0 0 0
0 0 0
0 0 0
0 0 0
0 0 0
0 0 0
0 0 0
0 0 0
0 0 0
0 0 0
0 0 0
0 0 0
0 0 0
0 0 0
0 0 0
0 0 0
0 0 0
0 0 0
0 0 0
0 0 0
0 0 0
0 0 0
0 0 0
0 0 0
0 0 0
0 0 0
0 0 0
0 0 0
0 0 0
0 0 0
0 0 0
0 0 0
0 0 0
40 0 40
83 0 0
40 0 38
82 0 0
3 0 80
0 0 100
51 0 38
52 0 48
55 0 59
60 0 38
95 0 95
74 0 74
104 0 104
105 0 105
38 0 83
64 0 60
53 0 57
38 0 50
81 0 0
81 2 5
0 0 83
38 0 39
0 0 85
50 0 42
0 0 0
0 0 0
0 0 0
0 0 0
0 0 0
0 0 0
0 0 0
0 0 0
0 0 0
0 0 0
0 0 0
0 0 0
0 0 0
0 0 0
0 0 0
0 0 0
0 0 0
0 0 0
0 0 0
0 0 0
0 0 0
0 0 0
0 0 0
0 0 0
0 0 0
0 0 0
0 0 0
0 0 0
0 0 0
0 0 0
0 0 0
0 0 0
0 0 0
0 0 0
0 0 0
0 0 0
0 0 0
0 0 0
0 0 0
0 0 0
0 0 0
55 0 55
0 0 79
39 0 39
41 0 41
0 0 86
0 0 99
47 0 47
56 0 38
182 0 0
103 0 94
74 0 74
75 0 75
105 0 109
0 0 195
38 0 56
47 0 47
81 0 5
87 0 0
42 0 42
39 0 39
77 0 0
59 0 59
0 0 0
0 0 0
0 0 0
0 0 0
0 0 0
0 0 0
0 0 0
0 0 0
0 0 0
0 0 0
0 0 0
0 0 0
0 0 0
0 0 0
0 0 0
0 0 0
0 0 0
0 0 0
0 0 0
0 0 0
0 0 0
0 0 0
0 0 0
0 0 0
0 0 0
0 0 0
0 0 0
0 0 0
0 0 0
0 0 0
0 0 0
0 0 0
0 0 0
0 0 0
0 0 0
0 0 0
0 0 0
0 0 0
0 0 0
0 0 0
0 0 0
0 0 0
0 0 0
0 0 0
14 7 84
39 0 39
4 1 79
4 0 80
3 0 102
106 0 0
196 0 0
144 0 0
74 0 74
76 0 76
0 0 152
0 0 172
0 0 107
101 0 3
80 0 4
82 0 0
39 0 39
88 7 14
0 0 0
0 0 0
0 0 0
0 0 0
0 0 0
0 0 0
0 0 0
0 0 0
0 0 0
0 0 0
0 0 0
0 0 0
0 0 0
0 0 0
0 0 0
0 0 0
0 0 0
0 0 0
0 0 0
0 0 0
0 0 0
0 0 0
0 0 0
0 0 0
0 0 0
0 0 0
0 0 0
0 0 0
0 0 0
0 0 0
0 0 0
0 0 0
0 0 0
0 0 0
0 0 0
0 0 0
0 0 0
0 0 0
0 0 0
0 0 0
0 0 0
0 0 0
0 0 0
0 0 0
0 0 0
0 0 0
0 0 0
42 0 43
39 0 39
3 0 80
43 0 43
90 0 13
136 0 37
144 0 0
100 0 100
75 0 77
0 0 153
37 0 151
13 0 89
43 0 43
81 2 4
39 0 39
42 0 41
0 0 0
0 0 0
0 0 0
0 0 0
0 0 0
0 0 0
0 0 0
0 0 0
0 0 0
0 0 0
0 0 0
0 0 0
0 0 0
0 0 0
0 0 0
0 0 0
0 0 0
0 0 0
0 0 0
0 0 0
0 0 0
0 0 0
0 0 0
0 0 0
0 0 0
0 0 0
0 0 0
0 0 0
0 0 0
0 0 0
0 0 0
0 0 0
0 0 0
0 0 0
0 0 0
0 0 0
0 0 0
0 0 0
0 0 0
0 0 0
0 0 0
0 0 0
0 0 0
0 0 0
0 0 0
0 0 0
0 0 0
0 0 0
0 0 0
40 0 40
78 0 0
44 0 44
52 0 56
171 0 4
142 0 1
186 0 0
1 0 152
1 0 152
4 0 217
57 0 53
46 0 46
1 1 79
42 0 42
0 0 0
0 0 0
0 0 0
0 0 0
0 0 0
0 0 0
0 0 0
0 0 0
0 0 0
0 0 0
0 0 0
0 0 0
0 0 0
0 0 0
0 0 0
0 0 0
0 0 0
0 0 0
0 0 0
0 0 0
0 0 0
0 0 0
0 0 0
0 0 0
0 0 0
0 0 0
0 0 0
0 0 0
0 0 0
0 0 0
0 0 0
0 0 0
0 0 0
0 0 0
0 0 0
0 0 0
0 0 0
0 0 0
0 0 0
0 0 0
0 0 0
0 0 0
0 0 0
0 0 0
0 0 0
0 0 0
0 0 0
0 0 0
0 0 0
0 0 0
0 0 0
40 0 41
42 0 39
44 0 44
142 0 12
141 0 1
76 0 76
77 0 77
1 0 152
11 0 159
43 0 43
38 0 41
41 0 40
0 0 0
0 0 0
0 0 0
0 0 0
0 0 0
0 0 0
0 0 0
0 0 0
0 0 0
0 0 0
0 0 0
0 0 0
0 0 0
0 0 0
0 0 0
0 0 0
0 0 0
0 0 0
0 0 0
0 0 0
0 0 0
0 0 0
0 0 0
0 0 0
0 0 0
0 0 0
0 0 0
0 0 0
0 0 0
0 0 0
0 0 0
0 0 0
0 0 0
0 0 0
0 0 0
0 0 0
0 0 0
0 0 0
0 0 0
0 0 0
0 0 0
0 0 0
0 0 0
0 0 0
0 0 0
0 0 0
0 0 0
0 0 0
0 0 0
0 0 0
0 0 0
0 0 0
0 0 0
0 0 0
42 1 39
56 0 56
76 0 76
99 0 99
108 0 108
83 0 82
56 0 56
39 0 42
0 0 0
0 0 0
0 0 0
0 0 0
0 0 0
0 0 0
0 0 0
0 0 0
0 0 0
0 0 0
0 0 0
0 0 0
0 0 0
0 0 0
0 0 0
0 0 0
0 0 0
0 0 0
0 0 0
0 0 0
0 0 0
0 0 0
0 0 0
0 0 0
0 0 0
0 0 0
0 0 0
0 0 0
0 0 0
0 0 0
0 0 0
0 0 0
0 0 0
0 0 0
0 0 0
0 0 0
0 0 0
0 0 0
0 0 0
0 0 0
0 0 0
0 0 0
0 0 0
0 0 0
0 0 0
0 0 0
0 0 0
0 0 0
0 0 0
0 0 0
0 0 0
0 0 0
0 0 0
0 0 0
0 0 0
0 0 0
0 0 0
3 0 79
0 0 153
74 0 74
78 0 78
167 0 0
80 1 3
0 0 0
0 0 0
0 0 0
0 0 0
0 0 0
0 0 0
0 0 0
0 0 0
0 0 0
0 0 0
0 0 0
0 0 0
0 0 0
0 0 0
0 0 0
0 0 0
0 0 0
0 0 0
0 0 0
0 0 0
0 0 0
0 0 0
0 0 0
0 0 0
0 0 0
0 0 0
0 0 0
0 0 0
0 0 0
0 0 0
0 0 0
0 0 0
0 0 0
0 0 0
0 0 0
0 0 0
0 0 0
0 0 0
0 0 0
0 0 0
0 0 0
0 0 0
0 0 0
0 0 0
0 0 0
0 0 0
0 0 0
0 0 0
0 0 0
0 0 0
0 0 0
0 0 0
0 0 0
0 0 0
0 0 0
0 0 0
0 0 0
0 0 0
0 0 0
3 0 79
72 0 72
77 0 77
82 2 5
0 0 0
0 0 0
0 0 0
0 0 0
0 0 0
0 0 0
0 0 0
0 0 0
0 0 0
0 0 0
0 0 0
0 0 0
0 0 0
0 0 0
0 0 0
0 0 0
0 0 0
0 0 0
0 0 0
0 0 0
0 0 0
0 0 0
0 0 0
0 0 0
0 0 0
0 0 0
0 0 0
0 0 0
0 0 0
0 0 0
0 0 0
0 0 0
0 0 0
0 0 0
0 0 0
0 0 0
0 0 0
0 0 0
0 0 0
0 0 0
0 0 0
0 0 0
0 0 0
0 0 0
0 0 0
0 0 0
0 0 0
0 0 0
0 0 0
0 0 0
0 0 0
0 0 0
0 0 0
0 0 0
0 0 0
0 0 0
0 0 0
0 0 0
0 0 0
0 0 0
0 0 0
4 0 80
84 3 7
0 0 0
0 0 0
0 0 0
0 0 0
0 0 0
0 0 0
0 0 0
0 0 0
0 0 0
0 0 0
0 0 0
0 0 0
0 0 0
0 0 0
0 0 0
0 0 0
0 0 0
0 0 0
0 0 0
0 0 0
0 0 0
0 0 0
0 0 0
0 0 0
0 0 0
0 0 0
0 0 0
0 0 0
0 0 0
0 0 0
0 0 0
0 0 0
0 0 0
0 0 0
0 0 0
0 0 0
0 0 0
0 0 0
0 0 0
0 0 0
0 0 0
0 0 0
0 0 0
0 0 0
0 0 0
0 0 0
0 0 0
0 0 0
0 0 0
0 0 0
0 0 0
0 0 0
0 0 0
0 0 0
0 0 0
0 0 0
0 0 0
0 0 0
0 0 0
0 0 0
0 0 0
0 0 0
88 0 81
103 0 109
0 0 0
0 0 0
0 0 0
0 0 0
0 0 0
0 0 0
0 0 0
0 0 0
0 0 0
0 0 0
0 0 0
0 0 0
0 0 0
0 0 0
0 0 0
0 0 0
0 0 0
0 0 0
0 0 0
0 0 0
0 0 0
0 0 0
0 0 0
0 0 0
0 0 0
0 0 0
0 0 0
0 0 0
0 0 0
0 0 0
0 0 0
0 0 0
0 0 0
0 0 0
0 0 0
0 0 0
0 0 0
0 0 0
0 0 0
0 0 0
0 0 0
0 0 0
0 0 0
0 0 0
0 0 0
0 0 0
0 0 0
0 0 0
0 0 0
0 0 0
0 0 0
0 0 0
0 0 0
0 0 0
0 0 0
0 0 0
0 0 0
0 0 0
0 0 0
0 0 0
0 0 0
82 0 90
101 0 100
106 0 107
111 0 103
0 0 0
0 0 0
0 0 0
0 0 0
0 0 0
0 0 0
0 0 0
0 0 0
0 0 0
0 0 0
0 0 0
0 0 0
0 0 0
0 0 0
0 0 0
0 0 0
0 0 0
0 0 0
0 0 0
0 0 0
0 0 0
0 0 0
0 0 0
0 0 0
0 0 0
0 0 0
0 0 0
0 0 0
0 0 0
0 0 0
0 0 0
0 0 0
0 0 0
0 0 0
0 0 0
0 0 0
0 0 0
0 0 0
0 0 0
0 0 0
0 0 0
0 0 0
0 0 0
0 0 0
0 0 0
0 0 0
0 0 0
0 0 0
0 0 0
0 0 0
0 0 0
0 0 0
0 0 0
0 0 0
0 0 0
0 0 0
0 0 0
0 0 0
0 0 0
168 0 7
186 0 6
201 0 4
4 0 210
7 0 211
7 0 213
0 0 0
0 0 0
0 0 0
0 0 0
0 0 0
0 0 0
0 0 0
0 0 0
0 0 0
0 0 0
0 0 0
0 0 0
0 0 0
0 0 0
0 0 0
0 0 0
0 0 0
0 0 0
0 0 0
0 0 0
0 0 0
0 0 0
0 0 0
0 0 0
0 0 0
0 0 0
0 0 0
0 0 0
0 0 0
0 0 0
0 0 0
0 0 0
0 0 0
0 0 0
0 0 0
0 0 0
0 0 0
0 0 0
0 0 0
0 0 0
0 0 0
0 0 0
0 0 0
0 0 0
0 0 0
0 0 0
0 0 0
0 0 0
0 0 0
0 0 0
0 0 0
0 0 0
0 0 0
0 0 0
0 0 0
0 0 0
0 0 0
161 0 14
182 0 4
99 0 100
103 0 103
107 0 107
109 0 108
4 0 214
14 0 208
0 0 0
0 0 0
0 0 0
0 0 0
0 0 0
0 0 0
0 0 0
0 0 0
0 0 0
0 0 0
0 0 0
0 0 0
0 0 0
0 0 0
0 0 0
0 0 0
0 0 0
0 0 0
0 0 0
0 0 0
0 0 0
0 0 0
0 0 0
0 0 0
0 0 0
0 0 0
0 0 0
0 0 0
0 0 0
0 0 0
0 0 0
0 0 0
0 0 0
0 0 0
0 0 0
0 0 0
0 0 0
0 0 0
0 0 0
0 0 0
0 0 0
0 0 0
0 0 0
0 0 0
0 0 0
0 0 0
0 0 0
0 0 0
0 0 0
0 0 0
0 0 0
0 0 0
0 0 0
0 0 0
65 0 65
81 0 84
91 0 92
95 0 99
102 0 100
105 0 103
106 0 108
108 0 109
112 0 108
111 0 110
109 0 105
97 0 97
0 0 0
0 0 0
0 0 0
0 0 0
0 0 0
0 0 0
0 0 0
0 0 0
0 0 0
0 0 0
0 0 0
0 0 0
0 0 0
0 0 0
0 0 0
0 0 0
0 0 0
0 0 0
0 0 0
0 0 0
0 0 0
0 0 0
0 0 0
0 0 0
0 0 0
0 0 0
0 0 0
0 0 0
0 0 0
0 0 0
0 0 0
0 0 0
0 0 0
0 0 0
0 0 0
0 0 0
0 0 0
0 0 0
0 0 0
0 0 0
0 0 0
0 0 0
0 0 0
0 0 0
0 0 0
0 0 0
0 0 0
0 0 0
0 0 0
0 0 0
0 0 0
3 0 139
84 0 81
94 0 87
5 0 185
5 0 193
4 0 200
106 0 104
106 0 108
213 0 4
215 0 5
216 0 5
108 1 115
107 0 110
201 0 3
0 0 0
0 0 0
0 0 0
0 0 0
0 0 0
0 0 0
0 0 0
0 0 0
0 0 0
0 0 0
0 0 0
0 0 0
0 0 0
0 0 0
0 0 0
0 0 0
0 0 0
0 0 0
0 0 0
0 0 0
0 0 0
0 0 0
0 0 0
0 0 0
0 0 0
0 0 0
0 0 0
0 0 0
0 0 0
0 0 0
0 0 0
0 0 0
0 0 0
0 0 0
0 0 0
0 0 0
0 0 0
0 0 0
0 0 0
0 0 0
0 0 0
0 0 0
0 0 0
0 0 0
0 0 0
0 0 0
0 0 0
0 0 0
0 0 0
1 0 145
83 0 81
92 0 89
5 0 182
4 0 190
4 0 196
6 0 200
105 0 106
107 0 107
212 1 7
217 1 5
217 1 5
218 1 6
112 1 115
108 0 110
207 0 1
0 0 0
0 0 0
0 0 0
0 0 0
0 0 0
0 0 0
0 0 0
0 0 0
0 0 0
0 0 0
0 0 0
0 0 0
0 0 0
0 0 0
0 0 0
0 0 0
0 0 0
0 0 0
0 0 0
0 0 0
0 0 0
0 0 0
0 0 0
0 0 0
0 0 0
0 0 0
0 0 0
0 0 0
0 0 0
0 0 0
0 0 0
0 0 0
0 0 0
0 0 0
0 0 0
0 0 0
0 0 0
0 0 0
0 0 0
0 0 0
0 0 0
0 0 0
0 0 0
0 0 0
0 0 0
0 0 0
0 0 0
147 0 3
162 0 2
90 0 88
4 0 182
2 0 189
4 0 194
3 0 200
104 0 104
106 0 106
108 0 108
109 0 109
218 0 3
218 0 4
221 1 3
221 1 5
111 1 113
3 0 216
3 0 208
0 0 0
0 0 0
0 0 0
0 0 0
0 0 0
0 0 0
0 0 0
0 0 0
0 0 0
0 0 0
0 0 0
0 0 0
0 0 0
0 0 0
0 0 0
0 0 0
0 0 0
0 0 0
0 0 0
0 0 0
0 0 0
0 0 0
0 0 0
0 0 0
0 0 0
0 0 0
0 0 0
0 0 0
0 0 0
0 0 0
0 0 0
0 0 0
0 0 0
0 0 0
0 0 0
0 0 0
0 0 0
0 0 0
0 0 0
0 0 0
0 0 0
0 0 0
0 0 0
0 0 0
60 0 60
150 0 2
165 0 0
176 0 3
91 0 94
94 0 97
2 0 194
1 0 200
100 0 105
102 0 107
105 0 107
109 0 107
111 0 107
113 0 108
221 0 1
222 0 2
114 0 111
115 1 112
4 1 225
1 0 220
2 0 212
96 0 96
0 0 0
0 0 0
0 0 0
0 0 0
0 0 0
0 0 0
0 0 0
0 0 0
0 0 0
0 0 0
0 0 0
0 0 0
0 0 0
0 0 0
0 0 0
0 0 0
0 0 0
0 0 0
0 0 0
0 0 0
0 0 0
0 0 0
0 0 0
0 0 0
0 0 0
0 0 0
0 0 0
0 0 0
0 0 0
0 0 0
0 0 0
0 0 0
0 0 0
0 0 0
0 0 0
0 0 0
0 0 0
0 0 0
0 0 0
0 0 0
0 0 0
66 0 66
151 0 1
163 0 2
171 0 2
92 0 90
95 0 95
96 0 98
98 0 100
197 0 5
102 0 104
102 0 108
106 0 107
109 0 107
112 0 106
111 0 109
5 0 217
113 0 111
113 0 112
113 0 113
112 1 116
3 1 221
3 0 219
4 2 215
102 1 102
0 0 0
0 0 0
0 0 0
0 0 0
0 0 0
0 0 0
0 0 0
0 0 0
0 0 0
0 0 0
0 0 0
0 0 0
0 0 0
0 0 0
0 0 0
0 0 0
0 0 0
0 0 0
0 0 0
0 0 0
0 0 0
0 0 0
0 0 0
0 0 0
0 0 0
0 0 0
0 0 0
0 0 0
0 0 0
0 0 0
0 0 0
0 0 0
0 0 0
0 0 0
0 0 0
0 0 0
0 0 0
0 0 0
0 0 0
69 0 68
153 0 0
163 0 0
87 0 84
92 0 89
91 0 94
97 1 97
98 1 99
196 0 4
202 0 2
207 0 0
105 0 105
107 0 107
108 0 108
109 0 109
0 0 220
2 0 220
4 0 220
114 2 112
113 1 113
117 3 115
114 3 120
113 3 115
3 3 223
3 3 218
104 2 106
0 0 0
0 0 0
0 0 0
0 0 0
0 0 0
0 0 0
0 0 0
0 0 0
0 0 0
0 0 0
0 0 0
0 0 0
0 0 0
0 0 0
0 0 0
0 0 0
0 0 0
0 0 0
0 0 0
0 0 0
0 0 0
0 0 0
0 0 0
0 0 0
0 0 0
0 0 0
0 0 0
0 0 0
0 0 0
0 0 0
0 0 0
0 0 0
0 0 0
0 0 0
0 0 0
0 0 0
0 0 0
71 0 69
154 0 0
163 0 0
86 0 84
92 0 89
93 0 90
95 0 93
97 0 95
194 0 1
197 0 3
201 0 2
206 2 4
209 2 4
107 2 107
109 2 109
4 2 216
4 2 218
5 3 221
6 3 222
5 3 224
114 3 116
115 3 116
115 3 118
115 3 118
113 3 116
3 3 223
3 3 219
106 2 108
0 0 0
0 0 0
0 0 0
0 0 0
0 0 0
0 0 0
0 0 0
0 0 0
0 0 0
0 0 0
0 0 0
0 0 0
0 0 0
0 0 0
0 0 0
0 0 0
0 0 0
0 0 0
0 0 0
0 0 0
0 0 0
0 0 0
0 0 0
0 0 0
0 0 0
0 0 0
0 0 0
0 0 0
0 0 0
0 0 0
0 0 0
0 0 0
0 0 0
0 0 0
0 0 0
2 1 144
77 0 77
81 0 81
1 0 169
89 0 86
93 0 90
95 0 92
97 0 94
193 0 1
197 0 1
199 0 2
200 0 3
203 0 4
209 1 4
212 1 3
3 1 215
4 1 216
8 3 217
7 3 219
5 3 222
5 3 224
5 3 226
114 3 117
115 3 118
115 3 118
114 3 116
225 3 4
113 3 113
112 3 112
212 1 2
0 0 0
0 0 0
0 0 0
0 0 0
0 0 0
0 0 0
0 0 0
0 0 0
0 0 0
0 0 0
0 0 0
0 0 0
0 0 0
0 0 0
0 0 0
0 0 0
0 0 0
39 39 39
38 38 38
38 38 38
38 38 38
38 38 38
38 38 38
38 38 38
38 38 38
38 38 38
38 38 38
38 38 38
38 38 38
38 38 38
38 38 38
38 38 38
1 0 128
74 1 74
79 1 79
83 1 83
3 1 170
3 1 175
3 0 180
96 1 93
98 1 95
194 1 2
196 1 3
199 1 4
201 1 4
203 1 5
205 1 6
208 1 5
108 1 107
108 1 109
5 1 215
6 1 215
5 1 218
4 1 220
3 1 222
3 1 224
2 1 226
113 1 116
114 1 117
229 3 7
225 1 3
224 1 3
112 1 112
111 1 111
108 1 108
201 0 1
39 39 39
39 39 39
39 39 39
39 39 39
39 39 39
39 39 39
39 39 39
39 39 39
39 39 39
39 39 39
39 39 39
39 39 39
39 39 39
39 39 39
39 39 39
47 47 47
48 48 48
52 52 52
53 53 53
48 48 48
48 48 48
53 53 53
53 53 53
40 40 40
40 40 40
45 45 45
45 45 45
38 38 38
38 38 38
3 1 133
77 2 75
82 3 80
86 3 83
4 3 171
4 3 176
10 5 183
7 3 185
5 3 191
192 1 3
196 1 1
197 1 3
199 1 4
202 1 4
204 1 5
205 1 6
105 1 108
106 1 109
110 1 107
111 1 108
5 1 215
5 1 217
4 1 219
4 1 221
3 1 223
1 1 227
4 1 226
225 0 1
224 0 5
226 2 6
223 0 1
222 0 1
110 0 112
108 0 111
106 0 108
203 0 1
50 50 50
49 49 49
54 54 54
54 54 54
49 49 49
49 49 49
54 54 54
54 54 54
49 49 49
48 48 48
53 53 53
53 53 53
48 48 48
48 48 48
54 54 54
54 54 54
5 5 5
60 60 60
60 60 60
60 60 60
110 110 110
55 55 55
55 55 55
55 55 55
5 5 5
56 56 56
56 56 56
3 2 137
78 2 75
82 3 80
86 3 83
6 3 169
6 3 174
5 3 180
6 3 185
5 3 189
99 3 99
100 3 101
197 3 5
201 3 5
200 1 4
203 1 3
204 1 5
206 1 5
105 1 108
108 1 108
109 1 109
111 1 108
5 1 216
5 1 217
3 1 220
4 1 221
1 0 222
2 0 222
113 0 113
113 0 113
226 0 1
225 0 2
224 0 1
222 0 3
221 0 2
110 0 112
109 0 111
107 0 109
207 0 1
63 63 63
63 63 63
114 114 114
57 57 57
56 56 56
56 56 56
5 5 5
62 62 62
61 61 61
61 61 61
111 111 111
55 55 55
55 55 55
5 5 5
5 5 5
59 59 59
59 59 59
119 119 119
119 119 119
119 119 119
120 120 120
66 66 66
59 59 59
5 5 5
5 5 5
2 2 141
76 2 78
80 3 83
84 3 84
4 3 170
6 3 173
5 3 179
6 3 183
4 3 189
96 3 101
99 3 100
99 3 102
101 3 103
202 3 5
205 3 5
206 3 5
208 3 5
105 1 107
106 1 107
107 1 108
109 1 108
110 1 109
111 1 109
2 0 217
2 0 218
1 0 220
1 0 222
113 0 111
114 0 111
114 0 113
116 0 111
227 0 1
226 1 5
224 0 1
222 0 3
223 0 1
111 0 111
111 0 109
109 0 107
210 0 0
126 126 126
125 125 125
69 69 69
68 68 68
6 6 6
6 6 6
6 6 6
6 6 6
61 61 61
61 61 61
123 123 123
122 122 122
62 62 62
62 62 62
62 62 62
63 63 63
63 63 63
6 6 6
69 69 69
70 70 70
61 61 61
61 61 61
1 1 125
72 2 74
76 3 79
80 3 83
83 3 86
3 3 171
4 3 174
5 3 178
5 3 182
5 3 188
99 3 96
96 3 101
98 3 101
100 3 103
101 3 104
103 3 104
205 3 5
206 3 6
107 3 107
110 3 106
109 3 109
109 3 110
108 0 107
108 0 108
107 0 111
109 0 109
2 0 218
1 0 220
112 0 111
114 0 111
114 0 111
114 0 112
117 0 111
113 0 115
227 0 1
225 0 1
225 0 1
224 0 1
225 0 0
113 0 110
112 0 109
110 0 107
107 0 105
199 0 0
74 74 74
73 73 73
73 73 73
73 73 73
133 133 133
66 66 66
66 66 66
66 66 66
66 66 66
66 66 66
